<?xml version="1.0" standalone="no"?>
<!DOCTYPE svg PUBLIC "-//W3C//DTD SVG 20010904//EN"
 "http://www.w3.org/TR/2001/REC-SVG-20010904/DTD/svg10.dtd">
<svg version="1.0" xmlns="http://www.w3.org/2000/svg"
 width="200.000000pt" height="200.000000pt" viewBox="0 0 200.000000 200.000000"
 preserveAspectRatio="xMidYMid meet">

<g transform="translate(0.000000,200.000000) scale(0.100000,-0.100000)"
fill="#000000" stroke="none">
<path d="M110 1184 c0 -4 18 -35 40 -70 22 -35 40 -68 40 -74 0 -6 -18 -38
-40 -70 -45 -66 -48 -80 -21 -80 12 0 47 44 111 140 51 77 97 140 102 140 5 0
-14 -34 -42 -75 -27 -41 -50 -77 -50 -80 0 -12 62 -96 67 -91 3 2 -7 22 -21
43 -14 20 -26 42 -26 48 0 5 23 44 50 85 27 41 50 77 50 80 0 3 -9 6 -20 7
-16 1 -42 -30 -112 -135 -104 -157 -97 -147 -103 -141 -2 3 14 32 35 64 22 33
40 63 40 68 0 8 -91 147 -96 147 -2 0 -4 -3 -4 -6z"/>
<path d="M143 1176 c6 -15 77 -116 82 -116 8 0 76 113 73 122 -3 7 -18 -12
-36 -40 -17 -29 -35 -52 -39 -52 -10 0 -56 71 -50 77 3 2 15 -10 27 -27 12
-17 25 -29 27 -26 11 11 -48 76 -69 76 -13 0 -18 -5 -15 -14z"/>
<path d="M400 1165 c0 -25 1 -25 90 -25 116 0 118 18 3 23 l-88 3 98 2 c89 2
98 0 95 -15 -2 -14 -15 -19 -56 -21 l-52 -3 0 -105 c0 -63 4 -104 10 -104 6 0
10 40 10 100 l0 100 50 0 50 0 0 35 0 35 -105 0 -105 0 0 -25z"/>
<path d="M662 1043 l-2 -153 35 0 35 0 0 55 c0 30 3 55 8 55 4 0 21 -24 37
-53 27 -46 35 -52 68 -55 20 -2 37 1 37 6 0 14 -52 104 -57 98 -2 -2 5 -22 17
-45 l20 -41 -24 0 c-19 0 -31 12 -55 56 -42 72 -65 71 -69 -4 -3 -44 -6 -52
-22 -52 -18 0 -20 10 -23 143 l-3 142 -2 -152z"/>
<path d="M687 1183 c-11 -11 -8 -263 3 -263 6 0 10 49 10 126 l0 126 61 -4
c67 -5 99 -28 99 -73 0 -29 -36 -75 -59 -75 -10 0 -20 -3 -23 -6 -8 -7 41 -94
54 -94 5 0 0 15 -11 34 -24 39 -27 56 -8 56 26 0 57 45 57 82 0 47 -26 77 -75
88 -47 11 -99 13 -108 3z"/>
<path d="M925 1178 c-3 -8 -4 -75 -3 -149 l3 -134 35 0 35 0 3 143 c2 92 -1
142 -8 142 -6 0 -10 -49 -10 -135 0 -128 -1 -135 -20 -135 -19 0 -20 6 -18
133 l2 132 3 -120 c2 -66 8 -124 14 -130 6 -6 9 36 7 125 -3 119 -5 135 -21
138 -9 2 -19 -3 -22 -10z"/>
<path d="M1037 1183 c-4 -3 -7 -15 -7 -25 0 -16 9 -18 90 -18 113 0 119 18 8
23 l-83 3 93 2 c86 2 92 1 92 -18 0 -17 -7 -20 -50 -20 l-50 0 2 -107 2 -108
3 103 4 102 49 0 50 0 0 35 0 35 -98 0 c-54 0 -102 -3 -105 -7z"/>
<path d="M1358 1180 c-67 -20 -108 -73 -108 -140 0 -128 148 -190 249 -104 84
71 52 206 -58 243 -38 12 -45 13 -83 1z m102 -25 c47 -24 70 -62 70 -115 0
-136 -187 -180 -252 -59 -23 42 -23 75 0 117 35 65 116 91 182 57z"/>
<path d="M1345 1146 c-86 -38 -87 -169 -1 -210 42 -20 57 -20 101 -2 47 20 77
70 71 119 -5 45 -28 74 -73 93 -40 17 -59 17 -98 0z m126 -35 c23 -23 29 -38
29 -71 0 -78 -78 -123 -153 -89 -29 13 -57 58 -57 91 2 87 118 132 181 69z"/>
<path d="M1349 1115 c-81 -44 -39 -165 56 -165 38 0 85 50 85 90 0 22 -9 41
-29 61 -33 32 -70 37 -112 14z m104 -23 c22 -19 22 -79 0 -104 -23 -26 -87
-24 -113 4 -65 70 40 164 113 100z"/>
<path d="M1680 1085 l105 -105 3 81 c2 48 -2 87 -8 93 -7 7 -10 -13 -10 -64
l0 -74 -89 87 c-49 48 -92 87 -97 87 -5 0 39 -47 96 -105z"/>
<path d="M1747 1184 c-11 -11 -8 -122 3 -129 6 -4 10 17 10 54 0 54 2 61 20
61 19 0 20 -7 20 -132 l0 -133 -100 100 -100 100 0 -108 c0 -100 1 -107 20
-107 18 0 20 6 18 68 l-2 67 -3 -57 c-6 -84 -23 -71 -23 17 0 41 3 75 6 75 4
0 45 -37 91 -82 46 -46 90 -83 96 -83 9 0 12 40 12 145 l0 145 -30 3 c-17 2
-34 0 -38 -4z"/>
<path d="M1572 1030 l2 -145 3 123 c2 67 7 122 11 122 3 0 51 -44 104 -97 54
-54 98 -93 98 -88 0 6 -49 60 -110 120 l-110 110 2 -145z"/>
<path d="M714 1145 c-9 -23 5 -35 40 -35 39 0 50 -8 35 -27 -16 -18 -59 -17
-59 3 0 8 -4 12 -10 9 -23 -15 -9 -35 24 -35 47 0 66 9 66 30 0 22 -12 30 -54
41 l-31 7 37 1 c40 1 68 -19 68 -48 0 -27 -23 -41 -77 -51 l-48 -8 45 -1 c56
-1 90 20 90 57 0 35 -10 49 -43 61 -40 15 -77 14 -83 -4z"/>
<path d="M427 1123 l32 -4 3 -112 3 -112 35 0 35 0 3 103 c2 65 -1 102 -8 102
-6 0 -10 -36 -10 -95 0 -88 -1 -95 -20 -95 -19 0 -20 7 -20 110 l0 110 -42 -2
c-37 -1 -38 -2 -11 -5z"/>
<path d="M1060 1121 l35 -6 3 -112 3 -113 34 0 35 0 -2 108 -2 107 -3 -97 c-4
-97 -4 -98 -28 -98 l-25 0 0 110 0 110 -42 -1 -43 -2 35 -6z"/>
<path d="M286 1008 c4 -7 20 -32 36 -55 l29 -43 -25 0 c-18 0 -33 12 -57 46
l-31 46 -35 -52 c-19 -28 -32 -54 -30 -57 3 -3 18 14 33 36 14 23 29 41 33 41
3 -1 18 -19 33 -40 24 -34 33 -40 63 -40 19 0 35 3 35 7 0 12 -75 123 -83 123
-5 0 -5 -6 -1 -12z"/>
</g>
</svg>
