<?xml version="1.0" encoding="UTF-8"?>
<svg xmlns="http://www.w3.org/2000/svg" xmlns:xlink="http://www.w3.org/1999/xlink" version="1.2" >
<font id="Helen Pro">
<font-face  font-family="Helen Pro" units-per-em="1000" ascent="640" descent="-180" font-style="normal" font-weight="400" font-stretch="normal" cap-height="640" x-height="467" underline-position="-75" underline-thickness="50" />
<missing-glyph  horiz-adv-x="538" d="M47 466 L47 17 L496 17 L496 466 L47 466 Z M299 241 L460 402 L460 81 L299 241 Z M110 430 L430 430 L271 270 L110 430 Z M270 212 L432 53 L111 53 L270 212 Z M242 241 L83 81 L83 399 L242 241 Z " />
<glyph glyph-name="NULL" d="" />
<glyph glyph-name="CR" unicode="&#xd;" horiz-adv-x="250" d="" />
<glyph glyph-name="space" unicode="&#x20;" horiz-adv-x="299" d="" />
<glyph glyph-name="exclam" unicode="&#x21;" horiz-adv-x="170" d="M132 101 L132 0 L36 0 L36 101 L132 101 Z M36 640 L132 640 L112 158 L55 158 L36 640 Z " />
<glyph glyph-name="quotedbl" unicode="&#x22;" horiz-adv-x="293" d="M57 381 L39 640 L124 640 L106 381 L57 381 Z M242 381 L190 381 L172 640 L259 640 L242 381 Z " />
<glyph glyph-name="numbersign" unicode="&#x23;" horiz-adv-x="526" d="M194 391 L177 262 L304 262 L324 391 L194 391 Z M455 262 L455 208 L351 208 L322 0 L267 0 L296 208 L169 208 L135 0 L82 0 L114 208 L12 208 L12 262 L122 262 L141 391 L38 391 L38 446 L150 446 L179 640 L233 640 L204 446 L332 446 L359 640 L414 640 L387 446 L480 446 L480 391 L379 391 L361 262 L455 262 Z " />
<glyph glyph-name="dollar" unicode="&#x24;" horiz-adv-x="512" d="M276 65 C349 74 387 110 387 172 C387 243 342 257 276 280 L276 65 Z M109 214 C121 124 137 88 225 69 L225 291 C109 322 51 378 51 459 C51 563 124 618 225 626 L225 701 L276 701 L276 626 C391 614 444 567 454 452 L377 452 C369 488 360 513 347 528 C333 545 308 557 276 560 L276 361 C380 333 467 293 467 181 C467 72 383 3 276 0 L276 -92 L225 -92 L225 0 C100 14 35 85 32 214 L109 214 Z M225 562 C162 551 132 518 132 463 C132 423 162 393 225 371 L225 562 Z " />
<glyph glyph-name="percent" unicode="&#x25;" horiz-adv-x="703" d="M542 38 C584 38 604 80 604 164 C604 245 584 284 542 284 C500 284 480 242 480 158 C480 77 500 38 542 38 L542 38 Z M38 462 C38 576 77 634 158 634 C233 634 271 580 271 473 C271 418 261 375 241 344 C220 313 191 298 153 298 C76 298 38 353 38 462 L38 462 Z M92 463 C92 383 112 343 153 343 C195 343 216 386 216 471 C216 551 195 591 155 591 C113 591 92 548 92 463 L92 463 Z M492 626 L543 626 L202 0 L153 0 L492 626 Z M426 155 C426 271 465 328 543 328 C621 328 659 276 659 169 C659 57 616 -8 542 -8 C465 -8 426 46 426 155 L426 155 Z " />
<glyph glyph-name="ampersand" unicode="&#x26;" horiz-adv-x="577" d="M329 499 C329 538 302 566 262 566 C222 566 195 540 195 503 C195 476 214 439 250 393 C303 427 329 463 329 499 L329 499 Z M181 356 C148 401 115 434 115 499 C115 583 183 638 266 638 C348 638 409 589 409 501 C409 417 355 379 294 337 L407 200 C420 228 426 264 430 306 L512 306 C502 242 484 187 461 139 L576 0 L474 0 L413 72 C356 15 294 -13 226 -13 C120 -13 39 59 39 167 C39 240 86 302 181 356 L181 356 Z M226 299 C163 249 125 230 125 168 C125 105 174 61 237 61 C282 61 326 84 366 130 L226 299 Z " />
<glyph glyph-name="quotesingle" unicode="&#x27;" horiz-adv-x="182" d="M57 381 L39 640 L124 640 L106 381 L57 381 Z " />
<glyph glyph-name="parenleft" unicode="&#x28;" horiz-adv-x="361" d="M228 640 L291 640 C201 498 161 392 161 221 C161 53 198 -45 286 -192 L228 -192 C124 -56 74 53 74 221 C74 396 129 496 228 640 L228 640 Z " />
<glyph glyph-name="parenright" unicode="&#x29;" horiz-adv-x="303" d="M80 -192 L17 -192 C110 -47 147 54 147 225 C147 403 112 482 21 640 L80 640 C185 501 233 397 233 225 C233 51 182 -41 80 -192 L80 -192 Z " />
<glyph glyph-name="asterisk" unicode="&#x2a;" horiz-adv-x="402" d="M145 536 L145 640 L214 640 L214 536 L310 570 L332 505 L233 473 L295 391 L240 351 L181 434 L120 351 L65 391 L126 473 L29 505 L49 570 L145 536 Z " />
<glyph glyph-name="plus" unicode="&#x2b;" horiz-adv-x="542" d="M51 276 L51 341 L228 341 L228 512 L296 512 L296 341 L475 341 L475 276 L296 276 L296 101 L228 101 L228 276 L51 276 Z " />
<glyph glyph-name="comma" unicode="&#x2c;" horiz-adv-x="242" d="M79 102 L177 102 L177 10 C177 -70 144 -117 79 -130 L79 -83 C96 -77 107 -68 113 -57 C120 -45 124 -27 126 0 L79 0 L79 102 Z " />
<glyph glyph-name="&amp;#x2d;" unicode="&#x2d;" horiz-adv-x="322" d="M49 256 L255 256 L255 181 L49 181 L49 256 Z " />
<glyph glyph-name="&amp;#xad;" unicode="&#xad;" horiz-adv-x="322" d="M49 256 L255 256 L255 181 L49 181 L49 256 Z " />
<glyph glyph-name="period" unicode="&#x2e;" horiz-adv-x="242" d="M79 101 L177 101 L177 0 L79 0 L79 101 Z " />
<glyph glyph-name="slash" unicode="&#x2f;" horiz-adv-x="322" d="M206 640 L282 640 L102 -127 L25 -127 L206 640 Z " />
<glyph glyph-name="zero" unicode="0" horiz-adv-x="501" d="M34 304 C34 528 105 640 249 640 C385 640 457 530 457 328 C457 175 417 -14 243 -14 C103 -14 34 92 34 304 L34 304 Z M120 308 C120 149 161 69 243 69 C330 69 373 154 373 324 C373 482 331 560 248 560 C161 560 120 477 120 308 L120 308 Z " />
<glyph glyph-name="one" unicode="1" horiz-adv-x="501" d="M81 512 C133 515 169 524 190 537 C217 552 235 582 246 626 L309 626 L309 0 L228 0 L228 446 L81 446 L81 512 Z " />
<glyph glyph-name="two" unicode="2" horiz-adv-x="501" d="M133 407 L50 407 C53 473 65 523 87 555 C126 612 184 640 261 640 C379 640 461 575 461 452 C461 304 323 262 231 203 C173 165 138 126 128 80 L459 80 L459 0 L36 0 C37 70 53 127 84 170 C105 201 143 234 197 266 C301 328 377 361 377 448 C377 517 327 560 259 560 C178 560 136 509 133 407 L133 407 Z " />
<glyph glyph-name="three" unicode="3" horiz-adv-x="501" d="M385 189 C385 261 337 297 243 297 L202 297 L202 368 L242 368 C321 368 361 400 361 463 C361 523 320 560 253 560 C182 560 142 516 135 428 L53 428 C55 560 125 640 259 640 C367 640 448 578 448 467 C448 401 426 367 366 341 C436 322 471 272 471 192 C471 65 382 -14 253 -14 C117 -14 43 62 39 202 L122 202 C128 113 173 69 257 69 C328 69 385 113 385 189 L385 189 Z " />
<glyph glyph-name="four" unicode="4" horiz-adv-x="501" d="M17 246 L308 626 L391 626 L391 228 L480 228 L480 147 L391 147 L391 0 L310 0 L310 147 L17 147 L17 246 Z M310 507 L99 228 L310 228 L310 507 Z " />
<glyph glyph-name="five" unicode="5" horiz-adv-x="501" d="M39 169 L123 169 C135 103 177 69 247 69 C326 69 379 118 379 200 C379 279 326 334 247 334 C201 334 161 314 129 277 L59 282 L109 626 L431 626 L431 545 L170 545 L142 373 C178 400 219 414 262 414 C381 414 463 330 463 211 C463 82 379 -14 245 -14 C125 -14 50 52 39 169 L39 169 Z " />
<glyph glyph-name="six" unicode="6" horiz-adv-x="501" d="M450 465 L367 465 C352 529 331 560 265 560 C152 560 132 441 121 337 C161 387 210 412 267 412 C383 412 462 330 462 214 C462 87 385 -14 255 -14 C114 -14 40 94 40 293 C40 524 116 640 270 640 C384 640 439 573 450 465 L450 465 Z M132 202 C132 122 181 69 254 69 C331 69 376 130 376 204 C376 275 330 332 257 332 C183 332 132 282 132 202 L132 202 Z " />
<glyph glyph-name="seven" unicode="7" horiz-adv-x="501" d="M44 626 L473 626 L473 552 C343 396 257 213 216 0 L126 0 C161 204 247 385 381 543 L44 543 L44 626 Z " />
<glyph glyph-name="eight" unicode="8" horiz-adv-x="501" d="M135 339 C81 364 55 406 55 467 C55 580 140 640 246 640 C354 640 438 585 438 470 C438 407 411 364 359 339 C425 311 457 260 457 185 C457 64 368 -14 246 -14 C123 -14 36 59 36 182 C36 256 69 308 135 339 L135 339 Z M141 463 C141 403 177 373 246 373 C312 373 351 408 351 467 C351 526 306 560 246 560 C181 560 141 523 141 463 L141 463 Z M246 298 C175 298 120 245 120 179 C120 107 176 69 248 69 C320 69 373 113 373 185 C373 256 320 298 246 298 L246 298 Z " />
<glyph glyph-name="nine" unicode="9" horiz-adv-x="501" d="M46 160 L130 160 C142 100 177 69 233 69 C283 69 320 97 344 153 C359 186 369 235 377 301 C349 246 300 218 230 218 C108 218 38 301 38 422 C38 546 114 640 240 640 C385 640 457 539 457 337 C457 226 437 140 397 78 C357 17 302 -14 230 -14 C123 -14 61 44 46 160 L46 160 Z M122 429 C122 351 165 298 240 298 C313 298 359 350 359 422 C359 496 319 560 242 560 C167 560 122 505 122 429 L122 429 Z " />
<glyph glyph-name="colon" unicode="&#x3a;" horiz-adv-x="242" d="M79 101 L177 101 L177 0 L79 0 L79 101 Z M79 467 L177 467 L177 366 L79 366 L79 467 Z " />
<glyph glyph-name="semicolon" unicode="&#x3b;" horiz-adv-x="242" d="M79 102 L177 102 L177 10 C177 -70 144 -117 79 -130 L79 -83 C96 -77 107 -68 113 -57 C120 -45 124 -27 126 0 L79 0 L79 102 Z M79 467 L177 467 L177 366 L79 366 L79 467 Z " />
<glyph glyph-name="less" unicode="&#x3c;" horiz-adv-x="542" d="M475 95 L49 282 L49 332 L475 520 L475 454 L135 308 L475 162 L475 95 Z " />
<glyph glyph-name="equal" unicode="&#x3d;" horiz-adv-x="542" d="M51 337 L51 404 L475 404 L475 337 L51 337 Z M51 211 L51 278 L475 278 L475 211 L51 211 Z " />
<glyph glyph-name="greater" unicode="&#x3e;" horiz-adv-x="542" d="M49 520 L475 332 L475 282 L49 95 L49 162 L389 308 L49 454 L49 520 Z " />
<glyph glyph-name="question" unicode="&#x3f;" horiz-adv-x="485" d="M277 169 L194 169 C194 207 198 238 206 261 C215 284 242 320 290 366 C333 408 354 446 354 480 C354 542 310 579 249 579 C180 579 141 533 133 440 L51 440 C51 568 121 652 249 652 C356 652 438 592 438 483 C438 412 410 377 356 326 C323 298 303 275 294 258 C284 240 278 210 277 169 L277 169 Z M187 101 L282 101 L282 0 L187 0 L187 101 Z " />
<glyph glyph-name="at" unicode="&#x40;" horiz-adv-x="845" d="M673 126 L734 126 C660 33 590 -14 473 -14 C280 -14 140 132 140 318 C140 485 259 652 471 652 C640 652 771 528 771 379 C771 308 748 249 703 202 C669 166 603 128 554 128 C521 128 505 143 505 175 C481 146 450 132 412 132 C322 132 274 203 274 291 C274 428 368 492 452 492 C499 492 535 472 560 429 L570 482 L632 482 L585 216 C584 208 582 202 582 196 C582 186 586 179 601 179 C632 179 673 218 689 243 C711 278 722 319 722 366 C722 499 616 601 467 601 C298 601 187 473 187 320 C187 150 317 39 477 39 C545 39 611 68 673 126 L673 126 Z M436 204 C503 207 538 271 538 337 C538 386 504 421 459 421 C396 421 354 359 354 298 C354 247 383 204 436 204 L436 204 Z " />
<glyph glyph-name="A" unicode="A" horiz-adv-x="570" d="M190 262 L383 262 L288 543 L190 262 Z M246 640 L339 640 L570 0 L473 0 L408 190 L162 190 L95 0 L0 0 L246 640 Z " />
<glyph glyph-name="B" unicode="B" horiz-adv-x="589" d="M150 293 L150 80 L293 80 C394 80 444 116 444 187 C444 257 396 293 303 293 L150 293 Z M536 185 C536 118 513 69 467 36 C434 12 380 0 303 0 L59 0 L59 640 L295 640 C365 640 415 629 446 604 C487 572 509 529 509 475 C509 412 481 368 425 345 C459 335 486 315 506 285 C526 256 536 222 536 185 L536 185 Z M417 463 C417 533 381 560 291 560 L150 560 L150 373 L298 373 C377 373 417 403 417 463 L417 463 Z " />
<glyph glyph-name="C" unicode="C" horiz-adv-x="632" d="M513 440 C492 527 433 571 337 571 C193 571 131 456 131 318 C131 176 194 69 329 69 C429 69 496 131 513 238 L601 238 C588 92 479 -14 333 -14 C123 -14 39 144 39 314 C39 511 148 652 336 652 C472 652 588 586 601 440 L513 440 Z " />
<glyph glyph-name="D" unicode="D" horiz-adv-x="618" d="M143 560 L143 80 L274 80 C426 80 487 159 487 328 C487 454 446 560 269 560 L143 560 Z M55 0 L55 640 L271 640 C330 640 404 640 470 593 C544 540 579 449 579 326 C579 248 564 181 531 124 C473 23 391 0 278 0 L55 0 Z " />
<glyph glyph-name="E" unicode="E" horiz-adv-x="568" d="M59 640 L518 640 L518 560 L147 560 L147 371 L491 371 L491 291 L147 291 L147 80 L518 80 L518 0 L59 0 L59 640 Z " />
<glyph glyph-name="F" unicode="F" horiz-adv-x="540" d="M59 640 L499 640 L499 560 L150 560 L150 368 L455 368 L455 288 L150 288 L150 0 L59 0 L59 640 Z " />
<glyph glyph-name="G" unicode="G" horiz-adv-x="667" d="M517 443 C494 528 435 571 342 571 C197 571 132 458 132 318 C132 180 199 69 342 69 C460 69 535 151 535 271 L337 271 L337 343 L616 343 L616 3 L559 3 L537 82 C477 15 426 -14 336 -14 C169 -14 41 100 41 316 C41 506 149 652 344 652 C492 652 580 582 607 443 L517 443 Z " />
<glyph glyph-name="H" unicode="H" horiz-adv-x="599" d="M150 640 L150 377 L449 377 L449 640 L540 640 L540 0 L449 0 L449 296 L150 296 L150 0 L59 0 L59 640 L150 640 Z " />
<glyph glyph-name="I" unicode="I" horiz-adv-x="208" d="M59 640 L59 0 L150 0 L150 640 L59 640 Z " />
<glyph glyph-name="J" unicode="J" horiz-adv-x="431" d="M17 214 L17 204 C17 167 19 141 21 126 C34 38 101 -14 194 -14 C230 -14 375 -14 375 202 L375 640 L286 640 L286 202 C286 125 275 69 196 69 C112 69 104 137 104 214 L17 214 Z " />
<glyph glyph-name="K" unicode="K" horiz-adv-x="570" d="M59 640 L59 0 L150 0 L150 190 L242 285 L462 0 L568 0 L302 348 L563 640 L449 640 L150 302 L150 640 L59 640 Z " />
<glyph glyph-name="L" unicode="L" horiz-adv-x="483" d="M59 0 L471 0 L471 80 L150 80 L150 640 L59 640 L59 0 Z " />
<glyph glyph-name="M" unicode="M" horiz-adv-x="757" d="M60 0 L151 0 L151 514 L337 0 L419 0 L607 512 L607 0 L698 0 L698 640 L572 640 L379 106 L188 640 L60 640 L60 0 Z " />
<glyph glyph-name="N" unicode="N" horiz-adv-x="599" d="M59 0 L147 0 L147 507 L440 0 L538 0 L538 640 L449 640 L449 137 L158 640 L59 640 L59 0 Z " />
<glyph glyph-name="O" unicode="O" horiz-adv-x="694" d="M345 -14 C550 -14 659 135 659 326 C659 518 545 652 351 652 C150 652 39 512 39 314 C39 123 151 -14 345 -14 L345 -14 Z M349 69 C204 69 132 175 132 316 C132 461 199 571 349 571 C494 571 568 468 568 326 C568 179 501 69 349 69 L349 69 Z " />
<glyph glyph-name="P" unicode="P" horiz-adv-x="574" d="M59 0 L150 0 L150 250 L315 250 C442 250 538 322 538 450 C538 587 432 640 304 640 L59 640 L59 0 Z M150 331 L150 560 L304 560 C398 560 445 523 445 449 C445 370 393 331 288 331 L150 331 Z " />
<glyph glyph-name="Q" unicode="Q" horiz-adv-x="697" d="M570 77 C630 139 659 221 659 326 C659 518 545 652 351 652 C154 652 39 510 39 316 C39 128 152 -14 347 -14 C413 -14 467 0 512 29 L604 -46 L652 10 L570 77 L570 77 Z M568 326 C568 242 545 177 503 130 L422 194 L375 140 L443 87 C414 75 383 69 349 69 C204 69 132 176 132 316 C132 461 199 571 349 571 C494 571 568 471 568 326 L568 326 Z " />
<glyph glyph-name="R" unicode="R" horiz-adv-x="593" d="M147 0 L147 274 L318 274 C403 274 452 264 452 172 L452 92 C452 66 457 35 467 0 L571 0 C553 27 543 61 543 101 L543 172 C543 252 536 294 463 318 C524 344 554 393 554 463 C554 598 471 640 324 640 L59 640 L59 0 L147 0 Z M147 560 L322 560 C403 560 462 542 462 455 C462 363 399 354 314 354 L147 354 L147 560 Z " />
<glyph glyph-name="S" unicode="S" horiz-adv-x="585" d="M39 214 L39 192 C39 55 125 -14 296 -14 C422 -14 545 45 545 179 C545 247 506 297 426 326 L223 402 C179 419 155 430 155 475 C155 542 229 571 291 571 C384 571 431 533 431 446 L524 446 C524 588 441 652 293 652 C176 652 63 593 63 467 C63 398 103 350 182 320 L377 248 C429 228 455 202 455 170 C455 94 371 69 301 69 C232 69 157 87 138 148 C134 160 133 181 132 214 L39 214 Z " />
<glyph glyph-name="T" unicode="T" horiz-adv-x="550" d="M19 640 L19 560 L230 560 L230 0 L318 0 L318 560 L530 560 L530 640 L19 640 Z " />
<glyph glyph-name="U" unicode="U" horiz-adv-x="614" d="M58 640 L58 232 C58 74 149 -14 307 -14 C464 -14 556 85 556 240 L556 640 L468 640 L468 240 C468 137 414 69 309 69 C202 69 149 127 149 242 L149 640 L58 640 Z " />
<glyph glyph-name="V" unicode="V" horiz-adv-x="584" d="M0 640 L246 0 L337 0 L585 640 L489 640 L296 102 L97 640 L0 640 Z " />
<glyph glyph-name="W" unicode="W" horiz-adv-x="814" d="M164 0 L257 0 L402 599 L550 0 L640 0 L814 640 L719 640 L618 257 C607 207 599 164 593 130 L564 257 L449 640 L358 640 L243 257 C231 208 221 165 214 130 C204 190 196 233 190 257 L97 640 L0 640 L164 0 Z " />
<glyph glyph-name="X" unicode="X" horiz-adv-x="572" d="M104 0 L286 259 L462 0 L571 0 L343 330 L557 640 L454 640 L285 396 L124 640 L16 640 L233 326 L0 0 L104 0 Z " />
<glyph glyph-name="Y" unicode="Y" horiz-adv-x="584" d="M249 253 L249 0 L339 0 L339 253 L585 640 L480 640 L296 337 L104 640 L0 640 L249 253 Z " />
<glyph glyph-name="Z" unicode="Z" horiz-adv-x="520" d="M10 0 L505 0 L505 80 L118 80 L505 562 L505 640 L38 640 L38 560 L395 560 L10 79 L10 0 Z " />
<glyph glyph-name="bracketleft" unicode="&#x5b;" horiz-adv-x="282" d="M63 -192 L218 -192 L218 -112 L143 -112 L143 560 L218 560 L218 640 L63 640 L63 -192 Z " />
<glyph glyph-name="backslash" unicode="&#x5c;" horiz-adv-x="341" d="M45 640 L225 -127 L304 -127 L124 640 L45 640 Z " />
<glyph glyph-name="bracketright" unicode="&#x5d;" horiz-adv-x="261" d="M192 640 L39 640 L39 560 L112 560 L112 -112 L39 -112 L39 -192 L192 -192 L192 640 Z " />
<glyph glyph-name="asciicircum" unicode="&#x5e;" horiz-adv-x="351" d="M21 530 L92 530 L155 593 L218 530 L291 530 L204 659 L109 659 L21 530 Z " />
<glyph glyph-name="underscore" unicode="&#x5f;" horiz-adv-x="564" d="M0 -144 L564 -144 L564 -78 L0 -78 L0 -144 Z " />
<glyph glyph-name="grave" unicode="&#x60;" horiz-adv-x="361" d="M82 659 L181 530 L246 530 L187 659 L82 659 Z " />
<glyph glyph-name="a" unicode="a" horiz-adv-x="503" d="M234 411 C302 411 337 380 337 318 L337 290 C228 281 137 269 87 234 C51 209 32 174 32 128 C32 39 94 -14 182 -14 C241 -14 294 12 343 63 C349 12 374 -14 418 -14 C436 -14 454 -8 473 3 L473 67 C463 62 454 59 444 59 C425 59 417 76 417 109 L417 332 C417 444 345 480 238 480 C130 480 51 429 51 322 L130 322 C130 382 164 411 234 411 L234 411 Z M337 169 C334 99 265 59 202 59 C144 59 116 82 116 129 C116 161 132 184 164 198 C196 212 253 223 337 233 L337 169 Z " />
<glyph glyph-name="b" unicode="b" horiz-adv-x="496" d="M253 407 C342 407 373 320 373 233 C373 150 342 61 253 61 C165 61 140 151 140 233 C140 342 181 407 253 407 L253 407 Z M59 0 L140 0 L140 53 C175 9 219 -14 269 -14 C401 -14 459 113 459 242 C459 362 406 480 278 480 C228 480 182 455 140 408 L140 640 L59 640 L59 0 Z " />
<glyph glyph-name="c" unicode="c" horiz-adv-x="485" d="M366 169 C348 97 311 61 255 61 C169 61 126 121 126 240 C126 329 161 407 255 407 C314 407 351 373 366 306 L448 306 C438 413 362 480 255 480 C106 480 39 370 39 225 C39 84 111 -14 255 -14 C365 -14 442 63 448 169 L366 169 Z " />
<glyph glyph-name="d" unicode="d" horiz-adv-x="496" d="M243 61 C164 61 124 118 124 233 C124 349 164 407 243 407 C320 407 358 349 358 233 C358 118 320 61 243 61 L243 61 Z M358 421 C326 460 283 480 230 480 C98 480 38 356 38 225 C38 105 95 -14 223 -14 C289 -14 317 7 358 61 L358 0 L438 0 L438 640 L358 640 L358 421 Z " />
<glyph glyph-name="e" unicode="e" horiz-adv-x="501" d="M463 246 C463 378 403 480 259 480 C115 480 39 372 39 233 C39 95 110 -14 253 -14 C356 -14 437 52 457 153 L373 153 C359 92 320 61 255 61 C175 61 132 110 126 208 L463 208 L463 246 Z M257 407 C330 407 375 360 381 280 L128 280 C137 365 181 407 257 407 L257 407 Z " />
<glyph glyph-name="f" unicode="f" horiz-adv-x="303" d="M29 400 L88 400 L88 0 L169 0 L169 400 L249 400 L249 467 L169 467 L169 514 C169 558 185 579 218 579 C223 579 235 577 249 573 L249 648 C225 651 209 652 198 652 C100 652 88 581 88 501 L88 467 L29 467 L29 400 Z " />
<glyph glyph-name="g" unicode="g" horiz-adv-x="497" d="M358 404 C324 454 280 480 223 480 C93 480 39 358 39 225 C39 101 92 0 221 0 C274 0 319 24 358 74 C358 -60 322 -119 233 -119 C175 -119 150 -100 137 -49 L57 -49 C70 -149 124 -192 235 -192 C397 -192 438 -91 438 71 L438 467 L358 467 L358 404 Z M242 73 C169 73 126 130 126 233 C126 315 154 407 242 407 C327 407 358 313 358 233 C358 151 327 73 242 73 L242 73 Z " />
<glyph glyph-name="h" unicode="h" horiz-adv-x="491" d="M59 640 L59 0 L140 0 L140 249 C140 318 161 407 262 407 C335 407 351 362 351 288 L351 0 L431 0 L431 308 C431 423 381 480 280 480 C226 480 179 458 140 417 L140 640 L59 640 Z " />
<glyph glyph-name="i" unicode="i" horiz-adv-x="197" d="M140 547 L140 640 L59 640 L59 547 L140 547 Z M59 467 L59 0 L140 0 L140 467 L59 467 Z " />
<glyph glyph-name="j" unicode="j" horiz-adv-x="218" d="M69 547 L150 547 L150 640 L69 640 L69 547 Z M-6 -188 C6 -190 21 -192 42 -192 C114 -192 150 -146 150 -54 L150 467 L69 467 L69 -43 C69 -85 68 -118 25 -119 C15 -119 5 -117 -6 -114 L-6 -188 Z " />
<glyph glyph-name="k" unicode="k" horiz-adv-x="452" d="M57 0 L137 0 L137 170 L188 218 L339 0 L438 0 L246 278 L425 467 L319 467 L137 261 L137 640 L57 640 L57 0 Z " />
<glyph glyph-name="l" unicode="l" horiz-adv-x="218" d="M69 0 L150 0 L150 640 L69 640 L69 0 Z " />
<glyph glyph-name="m" unicode="m" horiz-adv-x="734" d="M61 467 L61 0 L141 0 L141 251 C141 289 144 316 150 330 C169 382 205 407 257 407 C320 407 328 364 328 295 L328 0 L408 0 L408 249 C408 289 412 320 418 339 C432 381 473 407 516 407 C569 407 595 372 595 304 L595 0 L675 0 L675 318 C675 425 629 480 534 480 C470 480 433 453 395 410 C366 456 327 480 277 480 C214 480 182 452 141 410 L141 467 L61 467 Z " />
<glyph glyph-name="n" unicode="n" horiz-adv-x="491" d="M60 0 L140 0 L140 246 C140 289 142 318 147 332 C163 377 208 407 257 407 C334 407 351 361 351 282 L351 0 L431 0 L431 298 C431 341 427 374 421 396 C400 451 341 480 282 480 C219 480 181 459 140 407 L140 467 L60 467 L60 0 Z " />
<glyph glyph-name="o" unicode="o" horiz-adv-x="497" d="M37 233 C37 91 107 -14 249 -14 C391 -14 461 96 461 233 C461 373 393 480 249 480 C103 480 37 373 37 233 L37 233 Z M249 61 C168 61 123 125 123 233 C123 343 168 407 249 407 C340 407 375 324 375 238 C375 125 329 61 249 61 L249 61 Z " />
<glyph glyph-name="p" unicode="p" horiz-adv-x="497" d="M59 -180 L140 -180 L140 49 C176 8 220 -14 271 -14 C401 -13 457 112 457 240 C457 364 408 480 276 480 C214 480 181 460 140 412 L140 467 L59 467 L59 -180 Z M137 233 C137 342 181 407 255 407 C342 407 373 321 373 233 C373 150 345 61 255 61 C164 61 137 149 137 233 L137 233 Z " />
<glyph glyph-name="q" unicode="q" horiz-adv-x="496" d="M126 233 C126 312 153 407 238 407 C324 407 351 312 351 233 C351 155 323 61 238 61 C154 61 126 156 126 233 L126 233 Z M351 410 C332 456 289 480 225 480 C98 480 39 358 39 228 C39 105 89 -14 220 -14 C277 -14 321 11 351 59 L351 -180 L431 -180 L431 467 L351 467 L351 410 Z " />
<glyph glyph-name="r" unicode="r" horiz-adv-x="310" d="M59 0 L140 0 L140 232 C140 282 147 320 161 344 C181 377 215 393 261 393 C271 393 279 393 286 391 L286 477 C279 479 268 480 253 480 C207 480 169 450 140 391 L140 467 L59 467 L59 0 Z " />
<glyph glyph-name="s" unicode="s" horiz-adv-x="443" d="M35 153 C35 46 102 -14 221 -14 C318 -14 409 35 409 140 C409 197 381 223 307 253 L171 308 C144 319 131 334 131 351 C131 392 182 407 220 407 C280 407 311 382 313 332 L396 332 C395 430 317 480 222 480 C135 480 47 435 47 343 C47 297 75 262 131 238 L278 175 C308 162 323 146 323 128 C323 88 283 61 222 61 C150 61 119 87 119 153 L35 153 Z " />
<glyph glyph-name="t" unicode="t" horiz-adv-x="259" d="M17 400 L79 400 L79 122 C79 34 91 -14 177 -14 C180 -14 235 -10 235 -10 L235 61 C229 60 220 59 211 59 C166 61 160 71 160 116 L160 400 L235 400 L235 467 L160 467 L160 583 L79 583 L79 467 L17 467 L17 400 Z " />
<glyph glyph-name="u" unicode="u" horiz-adv-x="492" d="M59 467 L59 167 C59 46 109 -14 211 -14 C281 -14 329 15 354 73 L354 0 L434 0 L434 467 L354 467 L354 230 C354 179 344 139 326 112 C303 78 271 61 230 61 C197 61 174 69 161 85 C146 102 140 131 140 170 L140 467 L59 467 Z " />
<glyph glyph-name="v" unicode="v" horiz-adv-x="422" d="M88 467 L0 467 L167 0 L248 0 L422 467 L333 467 L211 99 L88 467 Z " />
<glyph glyph-name="w" unicode="w" horiz-adv-x="628" d="M141 0 L222 0 L313 359 L403 0 L485 0 L625 467 L542 467 L468 198 C458 159 451 129 447 108 C438 158 431 188 428 198 L360 467 L270 467 L199 194 C190 156 184 125 180 104 C170 151 163 181 161 194 L93 467 L5 467 L141 0 Z " />
<glyph glyph-name="x" unicode="x" horiz-adv-x="431" d="M168 240 L5 0 L103 0 L217 179 L329 0 L430 0 L266 246 L422 467 L321 467 L217 306 L115 467 L13 467 L168 240 Z " />
<glyph glyph-name="y" unicode="y" horiz-adv-x="431" d="M96 467 L5 467 L178 -10 C161 -56 149 -85 139 -99 C130 -112 116 -119 98 -119 C84 -119 69 -115 50 -107 L50 -184 C73 -190 96 -192 117 -192 C151 -192 179 -177 201 -145 C215 -127 228 -96 244 -52 L430 467 L342 467 L221 97 L96 467 Z " />
<glyph glyph-name="z" unicode="z" horiz-adv-x="428" d="M27 65 L27 0 L402 0 L402 73 L132 73 L395 404 L395 467 L46 467 L46 395 L291 395 L27 65 Z " />
<glyph glyph-name="braceleft" unicode="&#x7b;" horiz-adv-x="341" d="M120 223 C149 232 169 243 180 257 C190 272 196 294 196 324 L196 545 C196 576 204 600 220 613 C226 620 243 629 271 640 L257 640 C162 640 116 604 116 533 L116 310 C116 263 92 235 45 223 C92 213 116 183 116 135 L116 -71 C116 -121 130 -156 159 -172 C179 -184 216 -190 271 -190 C221 -178 196 -147 196 -98 L196 116 C196 148 190 172 180 188 C168 204 148 216 120 223 L120 223 Z " />
<glyph glyph-name="bar" unicode="&#x7c;" horiz-adv-x="221" d="M87 -127 L155 -127 L155 640 L87 640 L87 -127 Z " />
<glyph glyph-name="braceright" unicode="&#x7d;" horiz-adv-x="322" d="M185 223 C156 216 136 204 125 188 C114 172 108 148 108 116 L108 -98 C108 -147 83 -178 34 -190 C87 -190 125 -183 146 -170 C174 -154 189 -120 189 -71 L189 135 C189 183 212 213 259 223 C212 235 189 263 189 310 L189 533 C189 579 172 609 141 625 C120 635 84 640 34 640 C60 630 79 619 88 607 C102 594 108 572 108 545 L108 324 C108 295 114 273 125 258 C136 243 156 232 185 223 L185 223 Z " />
<glyph glyph-name="asciitilde" unicode="&#x7e;" horiz-adv-x="361" d="M242 659 C229 637 219 626 208 626 C195 626 177 631 155 642 C132 653 114 659 102 659 C57 659 27 624 12 554 L65 554 C75 575 87 585 101 585 C111 585 129 580 152 570 C175 559 192 554 204 554 C249 554 278 589 295 659 L242 659 Z " />
<glyph glyph-name="exclamdown" unicode="&#xa1;" horiz-adv-x="292" d="M193 366 L99 366 L99 466 L193 466 L193 366 Z M173 310 L117 310 L99 -171 L193 -171 L173 310 Z " />
<glyph glyph-name="cent" unicode="&#xa2;" horiz-adv-x="487" d="M229 58 C161 78 128 133 128 224 C128 320 161 380 229 405 L229 58 Z M277 542 L229 542 L229 476 C107 454 46 370 46 224 C46 100 102 6 229 -14 L229 -98 L277 -98 L277 -14 C367 1 422 60 439 165 L366 165 C345 107 334 73 277 60 L277 404 C326 399 356 365 366 303 L439 303 C435 404 381 462 277 476 L277 542 Z " />
<glyph glyph-name="sterling" unicode="&#xa3;" horiz-adv-x="487" d="M441 428 C441 557 363 638 238 638 C125 638 37 571 37 454 C37 417 50 375 79 329 L28 329 L28 275 L107 275 C118 249 124 226 124 209 C124 156 92 103 28 53 L69 -9 C101 15 131 26 159 26 C205 26 289 -11 338 -11 C389 -11 428 3 458 30 L422 89 C397 70 369 60 337 60 C298 60 238 86 196 86 C173 86 152 82 132 74 C176 115 197 161 197 214 C197 232 194 252 188 275 L316 275 L316 329 L161 329 C132 388 117 430 117 457 C117 530 169 574 238 574 C317 574 360 525 366 428 L441 428 Z " />
<glyph glyph-name="currency" unicode="&#xa4;" horiz-adv-x="487" d="M159 305 C159 353 199 392 246 392 C292 392 336 352 336 305 C336 252 291 213 243 213 C192 213 159 254 159 305 L159 305 Z M81 513 L37 468 L106 399 C87 370 78 339 78 306 C78 273 87 242 106 214 L37 144 L81 100 L151 169 C180 150 211 141 243 141 C277 141 308 150 336 169 L405 100 L450 144 L381 214 C400 242 409 273 409 306 C409 339 400 370 381 399 L450 468 L405 513 L336 444 C308 463 277 472 243 472 C210 472 179 463 151 444 L81 513 Z " />
<glyph glyph-name="yen" unicode="&#xa5;" horiz-adv-x="487" d="M484 625 L399 625 L244 316 L88 625 L2 625 L114 407 L21 407 L21 350 L142 350 L175 285 L45 285 L45 231 L203 231 L203 0 L283 0 L283 231 L441 231 L441 285 L312 285 L343 350 L464 350 L464 407 L373 407 L484 625 Z " />
<glyph glyph-name="brokenbar" unicode="&#xa6;" horiz-adv-x="232" d="M144 205 L77 173 L77 -192 L144 -192 L144 205 Z M77 244 L144 276 L144 640 L77 640 L77 244 Z " />
<glyph glyph-name="section" unicode="&#xa7;" horiz-adv-x="530" d="M414 510 C418 659 302 663 266 663 C167 663 119 605 119 540 C119 490 133 457 167 433 C107 420 59 372 59 287 C59 176 146 132 211 105 C283 76 339 61 339 -2 C339 -33 324 -71 254 -71 C188 -71 167 -15 169 29 L102 30 C101 -15 113 -132 255 -132 C288 -132 415 -129 415 3 C415 16 417 85 360 105 C393 114 471 146 471 251 C471 341 421 387 335 425 C267 454 197 469 197 538 C197 576 219 603 265 603 C300 603 343 595 346 510 L414 510 Z M304 137 C203 181 135 202 135 292 C135 338 158 381 223 399 C359 351 393 317 393 254 C393 179 340 148 304 137 L304 137 Z " />
<glyph glyph-name="dieresis" unicode="&#xa8;" horiz-adv-x="292" d="M181 656 L181 552 L261 552 L261 656 L181 656 Z M30 552 L110 552 L110 656 L30 656 L30 552 Z " />
<glyph glyph-name="copyright" unicode="&#xa9;" horiz-adv-x="737" d="M48 320 C48 144 189 0 369 0 C548 0 689 144 689 320 C689 497 548 640 369 640 C189 640 48 497 48 320 L48 320 Z M109 320 C109 471 223 592 369 592 C514 592 629 471 629 320 C629 169 514 48 369 48 C223 48 109 169 109 320 L109 320 Z M444 272 C441 250 430 203 373 203 C295 203 283 287 283 321 C283 364 291 447 369 447 C426 447 437 408 439 388 L496 388 C495 469 420 493 369 493 C307 493 221 461 221 321 C221 258 247 157 372 157 C426 157 488 174 504 272 L444 272 Z " />
<glyph glyph-name="ordfeminine" unicode="&#xaa;" horiz-adv-x="324" d="M309 259 L309 318 L12 318 L12 259 L309 259 Z M205 465 C205 451 198 438 183 426 C168 416 152 410 132 410 C102 410 87 423 87 446 C87 465 103 479 134 484 C158 487 181 491 205 494 L205 465 Z M95 548 C98 585 112 596 150 596 C187 596 204 584 204 561 C204 548 197 541 182 539 C129 531 95 524 80 518 C45 504 28 478 28 441 C28 416 37 396 53 380 C70 365 91 357 117 357 C151 357 183 368 212 394 C216 370 231 359 258 359 C266 359 278 361 292 366 L292 410 C284 409 278 409 276 408 L275 408 C266 408 262 416 262 430 L262 560 C262 620 225 650 153 650 C80 650 42 616 39 548 L95 548 Z " />
<glyph glyph-name="guillemotleft" unicode="&#xab;" horiz-adv-x="423" d="M96 249 L193 331 L193 406 L57 286 L57 211 L193 91 L193 167 L96 249 Z M257 249 L354 331 L354 406 L218 286 L218 211 L354 91 L354 167 L257 249 Z " />
<glyph glyph-name="logicalnot" unicode="&#xac;" horiz-adv-x="549" d="M46 353 L46 296 L447 296 L447 168 L503 168 L503 353 L46 353 Z " />
<glyph glyph-name="registered" unicode="&#xae;" horiz-adv-x="737" d="M48 320 C48 144 189 0 369 0 C548 0 689 144 689 320 C689 497 548 640 369 640 C189 640 48 497 48 320 L48 320 Z M109 320 C109 471 223 592 369 592 C514 592 629 471 629 320 C629 169 514 48 369 48 C223 48 109 169 109 320 L109 320 Z M252 163 L311 163 L311 296 L360 296 C427 296 429 265 430 236 C432 183 431 176 442 163 L503 163 C490 180 493 189 490 239 C489 271 486 307 445 316 L445 318 C492 337 499 369 499 391 C499 474 427 483 393 483 L252 483 L252 163 Z M311 439 L373 439 C412 439 438 429 438 391 C438 368 429 339 380 339 L311 339 L311 439 Z " />
<glyph glyph-name="&amp;#xaf;" unicode="&#xaf;" horiz-adv-x="500" d="" />
<glyph glyph-name="&amp;#x2c9;" unicode="&#x2c9;" horiz-adv-x="500" d="" />
<glyph glyph-name="degree" unicode="&#xb0;" horiz-adv-x="243" d="M34 554 C34 505 73 466 122 466 C170 466 210 505 210 554 C210 602 170 641 122 641 C73 641 34 602 34 554 L34 554 Z M76 554 C76 578 97 599 122 599 C146 599 167 578 167 554 C167 529 146 508 122 508 C97 508 76 529 76 554 L76 554 Z " />
<glyph glyph-name="plusminus" unicode="&#xb1;" horiz-adv-x="487" d="M454 0 L454 68 L32 68 L32 0 L454 0 Z M209 274 L209 101 L277 101 L277 274 L454 274 L454 340 L277 340 L277 512 L209 512 L209 340 L32 340 L32 274 L209 274 Z " />
<glyph glyph-name="twosuperior" unicode="&#xb2;" horiz-adv-x="501" d="M133 407 L50 407 C53 473 65 523 87 555 C126 612 184 640 261 640 C379 640 461 575 461 452 C461 304 323 262 231 203 C173 165 138 126 128 80 L459 80 L459 0 L36 0 C37 70 53 127 84 170 C105 201 143 234 197 266 C301 328 377 361 377 448 C377 517 327 560 259 560 C178 560 136 509 133 407 L133 407 Z " />
<glyph glyph-name="threesuperior" unicode="&#xb3;" horiz-adv-x="501" d="M385 189 C385 261 337 297 243 297 L202 297 L202 368 L242 368 C321 368 361 400 361 463 C361 523 320 560 253 560 C182 560 142 516 135 428 L53 428 C55 560 125 640 259 640 C367 640 448 578 448 467 C448 401 426 367 366 341 C436 322 471 272 471 192 C471 65 382 -14 253 -14 C117 -14 43 62 39 202 L122 202 C128 113 173 69 257 69 C328 69 385 113 385 189 L385 189 Z " />
<glyph glyph-name="acute" unicode="&#xb4;" horiz-adv-x="292" d="M65 528 L130 528 L226 656 L124 656 L65 528 Z " />
<glyph glyph-name="&amp;#xb5;" unicode="&#xb5;" horiz-adv-x="513" d="M357 61 C326 6 290 -12 222 -12 C194 -12 166 1 139 26 L139 -181 L58 -181 L58 468 L139 468 L139 172 C139 96 155 61 228 61 C298 61 350 101 350 230 L350 468 L431 468 L431 118 C431 74 440 58 483 58 L493 58 L493 -3 C480 -9 465 -12 451 -12 C395 -12 372 8 357 61 L357 61 Z " />
<glyph glyph-name="&amp;#x3bc;" unicode="&#x3bc;" horiz-adv-x="513" d="M357 61 C326 6 290 -12 222 -12 C194 -12 166 1 139 26 L139 -181 L58 -181 L58 468 L139 468 L139 172 C139 96 155 61 228 61 C298 61 350 101 350 230 L350 468 L431 468 L431 118 C431 74 440 58 483 58 L493 58 L493 -3 C480 -9 465 -12 451 -12 C395 -12 372 8 357 61 L357 61 Z " />
<glyph glyph-name="paragraph" unicode="&#xb6;" horiz-adv-x="449" d="M188 -169 L244 -169 L244 640 L188 640 C104 640 37 574 37 490 C37 403 103 341 188 339 L188 -169 Z M331 -169 L388 -169 L388 640 L331 640 L331 -169 Z " />
<glyph glyph-name="&amp;#xb7;" unicode="&#xb7;" horiz-adv-x="229" d="M70 195 L160 195 L160 296 L70 296 L70 195 Z " />
<glyph glyph-name="&amp;#x2219;" unicode="&#x2219;" horiz-adv-x="229" d="M70 195 L160 195 L160 296 L70 296 L70 195 Z " />
<glyph glyph-name="cedilla" unicode="&#xb8;" horiz-adv-x="292" d="M135 0 L78 -80 L96 -99 C108 -94 121 -91 132 -91 C162 -91 179 -102 179 -125 C179 -150 162 -162 131 -162 C108 -162 84 -159 58 -149 L41 -185 C75 -199 107 -205 137 -205 C171 -205 199 -198 220 -182 C242 -167 252 -147 252 -122 C252 -80 220 -53 170 -53 C161 -53 149 -55 137 -59 L178 0 L135 0 Z " />
<glyph glyph-name="onesuperior" unicode="&#xb9;" horiz-adv-x="501" d="M81 512 C133 515 169 524 190 537 C217 552 235 582 246 626 L309 626 L309 0 L228 0 L228 446 L81 446 L81 512 Z " />
<glyph glyph-name="ordmasculine" unicode="&#xba;" horiz-adv-x="319" d="M308 259 L308 318 L12 318 L12 259 L308 259 Z M88 506 C88 566 112 596 161 596 C208 596 231 566 231 505 C231 442 207 410 160 410 C112 410 88 442 88 506 L88 506 Z M29 501 C29 455 41 421 64 395 C87 369 119 357 159 357 C198 357 230 369 253 396 C278 423 289 458 289 504 C289 548 278 584 255 610 C232 637 201 650 162 650 C122 650 89 636 65 609 C41 583 29 546 29 501 L29 501 Z " />
<glyph glyph-name="guillemotright" unicode="&#xbb;" horiz-adv-x="423" d="M327 249 L230 167 L230 91 L366 211 L366 286 L230 406 L230 331 L327 249 Z M166 249 L69 167 L69 91 L205 211 L205 286 L69 406 L69 331 L166 249 Z " />
<glyph glyph-name="onequarter" unicode="&#xbc;" horiz-adv-x="725" d="M610 654 L169 -25 L127 -25 L568 654 L610 654 Z M60 593 C88 595 108 600 119 607 C134 615 144 632 150 656 L185 656 L185 312 L140 312 L140 557 L60 557 L60 593 Z M456 116 L615 323 L660 323 L660 106 L709 106 L709 62 L660 62 L660 -18 L616 -18 L616 62 L456 62 L456 116 Z M616 258 L501 106 L616 106 L616 258 Z " />
<glyph glyph-name="onehalf" unicode="&#xbd;" horiz-adv-x="774" d="M52 557 C88 559 112 564 125 571 C138 580 148 598 155 624 L198 624 L198 255 L143 255 L143 512 L52 512 L52 557 Z M530 624 L584 624 L246 0 L190 0 L530 624 Z M547 233 L490 233 C490 276 498 306 512 324 C537 358 573 374 624 374 C704 374 752 332 752 262 C752 223 737 193 705 169 C700 165 668 149 611 119 C573 100 551 78 543 55 L752 55 L752 0 L480 0 C481 46 491 82 511 106 C523 122 560 147 621 181 C669 208 693 235 693 262 C693 300 664 324 623 324 C573 324 548 294 547 233 L547 233 Z " />
<glyph glyph-name="threequarters" unicode="&#xbe;" horiz-adv-x="774" d="M77 378 C81 326 107 300 158 300 C205 300 235 326 235 366 C235 388 227 403 211 412 C195 421 166 425 125 425 L125 474 C161 475 188 479 201 485 C215 493 221 507 221 527 C221 562 199 579 156 579 C113 579 89 553 84 502 L28 502 C29 538 37 566 52 585 C75 615 111 630 160 630 C196 630 225 621 248 602 C270 584 280 559 280 527 C280 495 266 472 238 456 C277 440 296 411 296 367 C296 333 282 304 257 281 C232 259 198 249 158 249 C68 249 21 291 18 378 L77 378 Z M530 624 L584 624 L246 0 L190 0 L530 624 Z M470 146 L652 366 L712 366 L712 137 L766 137 L766 86 L712 86 L712 0 L653 0 L653 86 L470 86 L470 146 Z M653 285 L530 137 L653 137 L653 285 Z " />
<glyph glyph-name="questiondown" unicode="&#xbf;" horiz-adv-x="535" d="M237 300 L318 300 C318 260 314 228 307 206 C299 182 271 146 222 100 C181 59 161 21 161 -11 C161 -72 200 -110 264 -110 C335 -110 373 -64 379 27 L462 27 C458 -107 387 -184 264 -184 C206 -184 161 -168 126 -137 C91 -106 74 -65 74 -14 C74 16 80 42 93 65 C104 88 127 113 158 141 C190 169 210 192 220 211 C229 230 235 260 237 300 L237 300 Z M326 366 L230 366 L230 466 L326 466 L326 366 Z " />
<glyph glyph-name="Agrave" unicode="&#xc0;" horiz-adv-x="570" d="M190 262 L383 262 L288 543 L190 262 Z M246 640 L339 640 L570 0 L473 0 L408 190 L162 190 L95 0 L0 0 L246 640 Z M164 820 L263 691 L328 691 L269 820 L164 820 Z " />
<glyph glyph-name="Aacute" unicode="&#xc1;" horiz-adv-x="570" d="M190 262 L383 262 L288 543 L190 262 Z M246 640 L339 640 L570 0 L473 0 L408 190 L162 190 L95 0 L0 0 L246 640 Z M261 689 L326 689 L422 817 L320 817 L261 689 Z " />
<glyph glyph-name="Acircumflex" unicode="&#xc2;" horiz-adv-x="570" d="M190 262 L383 262 L288 543 L190 262 Z M246 640 L339 640 L570 0 L473 0 L408 190 L162 190 L95 0 L0 0 L246 640 Z M252 817 L345 817 L430 689 L359 689 L297 753 L234 689 L164 689 L252 817 Z " />
<glyph glyph-name="Atilde" unicode="&#xc3;" horiz-adv-x="570" d="M190 262 L383 262 L288 543 L190 262 Z M246 640 L339 640 L570 0 L473 0 L408 190 L162 190 L95 0 L0 0 L246 640 Z M384 821 L437 821 C423 752 393 718 348 718 C336 718 317 723 294 733 C272 742 254 748 244 748 C230 748 219 737 210 718 L154 718 C170 787 200 821 247 821 C259 821 277 815 299 805 C321 795 339 790 351 790 C363 790 373 800 384 821 L384 821 Z " />
<glyph glyph-name="Adieresis" unicode="&#xc4;" horiz-adv-x="570" d="M190 262 L383 262 L288 543 L190 262 Z M246 640 L339 640 L570 0 L473 0 L408 190 L162 190 L95 0 L0 0 L246 640 Z M325 822 L325 718 L405 718 L405 822 L325 822 Z M174 718 L254 718 L254 822 L174 822 L174 718 Z " />
<glyph glyph-name="Aring" unicode="&#xc5;" horiz-adv-x="570" d="M190 262 L383 262 L288 543 L190 262 Z M246 640 L339 640 L570 0 L473 0 L408 190 L162 190 L95 0 L0 0 L246 640 Z M290 825 C315 825 337 816 355 798 C373 781 382 758 382 733 C382 708 373 686 355 668 C337 650 316 640 290 640 C264 640 243 650 224 668 C206 686 197 708 197 733 C197 758 206 781 224 798 C243 816 265 825 290 825 L290 825 Z M290 778 C266 778 245 758 245 733 C245 721 249 710 258 701 C267 692 278 688 290 688 C314 688 334 708 334 733 C334 758 314 778 290 778 L290 778 Z " />
<glyph glyph-name="AE" unicode="&#xc6;" horiz-adv-x="874" d="M230 262 L366 557 L414 557 L414 262 L230 262 Z M326 638 L6 0 L103 0 L195 190 L414 190 L414 0 L832 0 L832 80 L504 80 L504 289 L800 289 L800 369 L504 369 L504 557 L827 557 L827 638 L326 638 Z " />
<glyph glyph-name="Ccedilla" unicode="&#xc7;" horiz-adv-x="632" d="M513 440 C492 527 433 571 337 571 C193 571 131 456 131 318 C131 176 194 69 329 69 C429 69 496 131 513 238 L601 238 C588 92 479 -14 333 -14 C123 -14 39 144 39 314 C39 511 148 652 336 652 C472 652 588 586 601 440 L513 440 Z M300 0 L243 -80 L261 -99 C273 -94 286 -91 297 -91 C327 -91 344 -102 344 -125 C344 -150 327 -162 296 -162 C273 -162 249 -159 223 -149 L206 -185 C240 -199 272 -205 302 -205 C336 -205 364 -198 385 -182 C407 -167 417 -147 417 -122 C417 -80 385 -53 335 -53 C326 -53 314 -55 302 -59 L343 0 L300 0 Z " />
<glyph glyph-name="Egrave" unicode="&#xc8;" horiz-adv-x="568" d="M59 640 L518 640 L518 560 L147 560 L147 371 L491 371 L491 291 L147 291 L147 80 L518 80 L518 0 L59 0 L59 640 Z M178 836 L277 707 L342 707 L283 836 L178 836 Z " />
<glyph glyph-name="Eacute" unicode="&#xc9;" horiz-adv-x="568" d="M59 640 L518 640 L518 560 L147 560 L147 371 L491 371 L491 291 L147 291 L147 80 L518 80 L518 0 L59 0 L59 640 Z M264 691 L329 691 L425 819 L323 819 L264 691 Z " />
<glyph glyph-name="Ecircumflex" unicode="&#xca;" horiz-adv-x="583" d="M59 640 L518 640 L518 560 L147 560 L147 371 L491 371 L491 291 L147 291 L147 80 L518 80 L518 0 L59 0 L59 640 Z M261 835 L354 835 L439 707 L368 707 L306 771 L243 707 L173 707 L261 835 Z " />
<glyph glyph-name="Edieresis" unicode="&#xcb;" horiz-adv-x="568" d="M59 640 L518 640 L518 560 L147 560 L147 371 L491 371 L491 291 L147 291 L147 80 L518 80 L518 0 L59 0 L59 640 Z M327 821 L327 717 L407 717 L407 821 L327 821 Z M176 717 L256 717 L256 821 L176 821 L176 717 Z " />
<glyph glyph-name="Igrave" unicode="&#xcc;" horiz-adv-x="208" d="M59 640 L59 0 L150 0 L150 640 L59 640 Z M-23 837 L76 708 L141 708 L82 837 L-23 837 Z " />
<glyph glyph-name="Iacute" unicode="&#xcd;" horiz-adv-x="207" d="M59 640 L59 0 L150 0 L150 640 L59 640 Z M80 706 L145 706 L241 834 L139 834 L80 706 Z " />
<glyph glyph-name="Icircumflex" unicode="&#xce;" horiz-adv-x="243" d="M76 640 L76 0 L167 0 L167 640 L76 640 Z M77 835 L170 835 L255 707 L184 707 L122 771 L59 707 L-11 707 L77 835 Z " />
<glyph glyph-name="Idieresis" unicode="&#xcf;" horiz-adv-x="243" d="M76 640 L76 0 L167 0 L167 640 L76 640 Z M158 822 L158 718 L238 718 L238 822 L158 822 Z M7 718 L87 718 L87 822 L7 822 L7 718 Z " />
<glyph glyph-name="Eth" unicode="&#xd0;" horiz-adv-x="618" d="M1 291 L55 291 L55 0 L278 0 C391 0 474 24 531 124 C564 181 579 248 579 326 C579 449 543 538 470 593 C415 635 360 640 271 640 L55 640 L55 371 L1 371 L1 291 Z M143 560 L269 560 C331 560 377 549 407 528 C460 490 487 424 487 328 C487 220 459 147 402 109 C373 90 330 80 274 80 L143 80 L143 291 L292 291 L292 371 L143 371 L143 560 Z " />
<glyph glyph-name="Ntilde" unicode="&#xd1;" horiz-adv-x="600" d="M59 0 L147 0 L147 507 L440 0 L538 0 L538 640 L449 640 L449 137 L158 640 L59 640 L59 0 Z M418 822 L471 822 C457 753 427 719 382 719 C370 719 351 724 328 734 C306 743 288 749 278 749 C264 749 253 738 244 719 L188 719 C204 788 234 822 281 822 C293 822 311 816 333 806 C355 796 373 791 385 791 C397 791 407 801 418 822 L418 822 Z " />
<glyph glyph-name="Ograve" unicode="&#xd2;" horiz-adv-x="694" d="M345 -14 C550 -14 659 135 659 326 C659 518 545 652 351 652 C150 652 39 512 39 314 C39 123 151 -14 345 -14 L345 -14 Z M349 69 C204 69 132 175 132 316 C132 461 199 571 349 571 C494 571 568 468 568 326 C568 179 501 69 349 69 L349 69 Z M206 835 L305 706 L370 706 L311 835 L206 835 Z " />
<glyph glyph-name="Oacute" unicode="&#xd3;" horiz-adv-x="694" d="M345 -14 C550 -14 659 135 659 326 C659 518 545 652 351 652 C150 652 39 512 39 314 C39 123 151 -14 345 -14 L345 -14 Z M349 69 C204 69 132 175 132 316 C132 461 199 571 349 571 C494 571 568 468 568 326 C568 179 501 69 349 69 L349 69 Z M310 706 L375 706 L471 834 L369 834 L310 706 Z " />
<glyph glyph-name="Ocircumflex" unicode="&#xd4;" horiz-adv-x="694" d="M345 -14 C550 -14 659 135 659 326 C659 518 545 652 351 652 C150 652 39 512 39 314 C39 123 151 -14 345 -14 L345 -14 Z M349 69 C204 69 132 175 132 316 C132 461 199 571 349 571 C494 571 568 468 568 326 C568 179 501 69 349 69 L349 69 Z M295 835 L388 835 L473 707 L402 707 L340 771 L277 707 L207 707 L295 835 Z " />
<glyph glyph-name="Otilde" unicode="&#xd5;" horiz-adv-x="694" d="M345 -14 C550 -14 659 135 659 326 C659 518 545 652 351 652 C150 652 39 512 39 314 C39 123 151 -14 345 -14 L345 -14 Z M349 69 C204 69 132 175 132 316 C132 461 199 571 349 571 C494 571 568 468 568 326 C568 179 501 69 349 69 L349 69 Z M428 822 L481 822 C467 753 437 719 392 719 C380 719 361 724 338 734 C316 743 298 749 288 749 C274 749 263 738 254 719 L198 719 C214 788 244 822 291 822 C303 822 321 816 343 806 C365 796 383 791 395 791 C407 791 417 801 428 822 L428 822 Z " />
<glyph glyph-name="Odieresis" unicode="&#xd6;" horiz-adv-x="694" d="M345 -14 C550 -14 659 135 659 326 C659 518 545 652 351 652 C150 652 39 512 39 314 C39 123 151 -14 345 -14 L345 -14 Z M349 69 C204 69 132 175 132 316 C132 461 199 571 349 571 C494 571 568 468 568 326 C568 179 501 69 349 69 L349 69 Z M375 822 L375 718 L455 718 L455 822 L375 822 Z M224 718 L304 718 L304 822 L224 822 L224 718 Z " />
<glyph glyph-name="multiply" unicode="&#xd7;" horiz-adv-x="545" d="M104 128 L272 295 L439 128 L465 155 L299 322 L464 488 L438 515 L272 349 L105 515 L78 487 L245 322 L78 155 L104 128 Z " />
<glyph glyph-name="Oslash" unicode="&#xd8;" horiz-adv-x="680" d="M524 466 C543 429 554 382 554 323 C554 179 489 69 341 69 C287 69 242 85 205 117 L524 466 Z M156 179 C135 215 126 262 126 318 C126 460 196 570 341 570 C396 570 439 555 471 527 L156 179 Z M534 591 C484 630 421 650 341 650 C142 650 34 506 34 315 C34 234 52 165 89 109 L6 20 L64 -31 L141 52 C184 11 249 -11 337 -11 C541 -11 646 137 646 326 C646 410 627 479 589 533 L668 618 L610 672 L534 591 Z " />
<glyph glyph-name="Ugrave" unicode="&#xd9;" horiz-adv-x="614" d="M58 640 L58 232 C58 74 149 -14 307 -14 C464 -14 556 85 556 240 L556 640 L468 640 L468 240 C468 137 414 69 309 69 C202 69 149 127 149 242 L149 640 L58 640 Z M188 836 L287 707 L352 707 L293 836 L188 836 Z " />
<glyph glyph-name="Uacute" unicode="&#xda;" horiz-adv-x="614" d="M58 640 L58 232 C58 74 149 -14 307 -14 C464 -14 556 85 556 240 L556 640 L468 640 L468 240 C468 137 414 69 309 69 C202 69 149 127 149 242 L149 640 L58 640 Z M280 706 L345 706 L441 834 L339 834 L280 706 Z " />
<glyph glyph-name="Ucircumflex" unicode="&#xdb;" horiz-adv-x="614" d="M58 640 L58 232 C58 74 149 -14 307 -14 C464 -14 556 85 556 240 L556 640 L468 640 L468 240 C468 137 414 69 309 69 C202 69 149 127 149 242 L149 640 L58 640 Z M274 834 L367 834 L452 706 L381 706 L319 770 L256 706 L186 706 L274 834 Z " />
<glyph glyph-name="Udieresis" unicode="&#xdc;" horiz-adv-x="614" d="M58 640 L58 232 C58 74 149 -14 307 -14 C464 -14 556 85 556 240 L556 640 L468 640 L468 240 C468 137 414 69 309 69 C202 69 149 127 149 242 L149 640 L58 640 Z M353 823 L353 719 L433 719 L433 823 L353 823 Z M202 719 L282 719 L282 823 L202 823 L202 719 Z " />
<glyph glyph-name="Yacute" unicode="&#xdd;" horiz-adv-x="583" d="M249 253 L249 0 L339 0 L339 253 L585 640 L480 640 L296 337 L104 640 L0 640 L249 253 Z M262 707 L327 707 L423 835 L321 835 L262 707 Z " />
<glyph glyph-name="Thorn" unicode="&#xde;" horiz-adv-x="586" d="M164 468 L321 468 C416 468 463 433 463 365 C463 268 393 259 305 259 L164 259 L164 468 Z M77 0 L164 0 L164 179 L334 179 C385 179 422 182 443 190 C518 216 554 288 554 366 C554 431 531 481 485 513 C450 537 401 548 322 548 L164 548 L164 638 L77 638 L77 0 Z " />
<glyph glyph-name="germandbls" unicode="&#xdf;" horiz-adv-x="535" d="M230 -10 C244 -11 256 -12 266 -12 C398 -12 487 66 487 192 C487 286 443 342 354 360 C412 372 449 434 449 491 C449 597 363 650 261 650 C177 650 84 617 65 529 C60 506 57 467 57 414 L57 0 L137 0 L137 421 C137 475 142 513 155 533 C171 563 205 577 256 577 C330 577 366 545 366 482 C366 418 311 385 248 385 C243 385 238 386 230 386 L230 318 C327 318 400 295 400 190 C400 104 349 57 261 57 C253 57 243 58 230 60 L230 -10 Z " />
<glyph glyph-name="agrave" unicode="&#xe0;" horiz-adv-x="503" d="M234 411 C302 411 337 380 337 318 L337 290 C228 281 137 269 87 234 C51 209 32 174 32 128 C32 39 94 -14 182 -14 C241 -14 294 12 343 63 C349 12 374 -14 418 -14 C436 -14 454 -8 473 3 L473 67 C463 62 454 59 444 59 C425 59 417 76 417 109 L417 332 C417 444 345 480 238 480 C130 480 51 429 51 322 L130 322 C130 382 164 411 234 411 L234 411 Z M337 169 C334 99 265 59 202 59 C144 59 116 82 116 129 C116 161 132 184 164 198 C196 212 253 223 337 233 L337 169 Z M116 657 L215 528 L280 528 L221 657 L116 657 Z " />
<glyph glyph-name="aacute" unicode="&#xe1;" horiz-adv-x="503" d="M234 411 C302 411 337 380 337 318 L337 290 C228 281 137 269 87 234 C51 209 32 174 32 128 C32 39 94 -14 182 -14 C241 -14 294 12 343 63 C349 12 374 -14 418 -14 C436 -14 454 -8 473 3 L473 67 C463 62 454 59 444 59 C425 59 417 76 417 109 L417 332 C417 444 345 480 238 480 C130 480 51 429 51 322 L130 322 C130 382 164 411 234 411 L234 411 Z M337 169 C334 99 265 59 202 59 C144 59 116 82 116 129 C116 161 132 184 164 198 C196 212 253 223 337 233 L337 169 Z M215 528 L280 528 L376 656 L274 656 L215 528 Z " />
<glyph glyph-name="acircumflex" unicode="&#xe2;" horiz-adv-x="503" d="M234 411 C302 411 337 380 337 318 L337 290 C228 281 137 269 87 234 C51 209 32 174 32 128 C32 39 94 -14 182 -14 C241 -14 294 12 343 63 C349 12 374 -14 418 -14 C436 -14 454 -8 473 3 L473 67 C463 62 454 59 444 59 C425 59 417 76 417 109 L417 332 C417 444 345 480 238 480 C130 480 51 429 51 322 L130 322 C130 382 164 411 234 411 L234 411 Z M337 169 C334 99 265 59 202 59 C144 59 116 82 116 129 C116 161 132 184 164 198 C196 212 253 223 337 233 L337 169 Z M205 656 L298 656 L383 528 L312 528 L250 592 L187 528 L117 528 L205 656 Z " />
<glyph glyph-name="atilde" unicode="&#xe3;" horiz-adv-x="503" d="M234 411 C302 411 337 380 337 318 L337 290 C228 281 137 269 87 234 C51 209 32 174 32 128 C32 39 94 -14 182 -14 C241 -14 294 12 343 63 C349 12 374 -14 418 -14 C436 -14 454 -8 473 3 L473 67 C463 62 454 59 444 59 C425 59 417 76 417 109 L417 332 C417 444 345 480 238 480 C130 480 51 429 51 322 L130 322 C130 382 164 411 234 411 L234 411 Z M337 169 C334 99 265 59 202 59 C144 59 116 82 116 129 C116 161 132 184 164 198 C196 212 253 223 337 233 L337 169 Z M337 655 L390 655 C376 586 346 552 301 552 C289 552 270 557 247 567 C225 576 207 582 197 582 C183 582 172 571 163 552 L107 552 C123 621 153 655 200 655 C212 655 230 649 252 639 C274 629 292 624 304 624 C316 624 326 634 337 655 L337 655 Z " />
<glyph glyph-name="adieresis" unicode="&#xe4;" horiz-adv-x="503" d="M234 411 C302 411 337 380 337 318 L337 290 C228 281 137 269 87 234 C51 209 32 174 32 128 C32 39 94 -14 182 -14 C241 -14 294 12 343 63 C349 12 374 -14 418 -14 C436 -14 454 -8 473 3 L473 67 C463 62 454 59 444 59 C425 59 417 76 417 109 L417 332 C417 444 345 480 238 480 C130 480 51 429 51 322 L130 322 C130 382 164 411 234 411 L234 411 Z M337 169 C334 99 265 59 202 59 C144 59 116 82 116 129 C116 161 132 184 164 198 C196 212 253 223 337 233 L337 169 Z M286 655 L286 551 L366 551 L366 655 L286 655 Z M135 551 L215 551 L215 655 L135 655 L135 551 Z " />
<glyph glyph-name="aring" unicode="&#xe5;" horiz-adv-x="503" d="M234 411 C302 411 337 380 337 318 L337 290 C228 281 137 269 87 234 C51 209 32 174 32 128 C32 39 94 -14 182 -14 C241 -14 294 12 343 63 C349 12 374 -14 418 -14 C436 -14 454 -8 473 3 L473 67 C463 62 454 59 444 59 C425 59 417 76 417 109 L417 332 C417 444 345 480 238 480 C130 480 51 429 51 322 L130 322 C130 382 164 411 234 411 L234 411 Z M337 169 C334 99 265 59 202 59 C144 59 116 82 116 129 C116 161 132 184 164 198 C196 212 253 223 337 233 L337 169 Z M250 697 C275 697 297 688 315 670 C333 653 342 630 342 605 C342 580 333 558 315 540 C297 522 276 512 250 512 C224 512 203 522 184 540 C166 558 157 580 157 605 C157 630 166 653 184 670 C203 688 225 697 250 697 L250 697 Z M250 650 C226 650 205 630 205 605 C205 593 209 582 218 573 C227 564 238 560 250 560 C274 560 294 580 294 605 C294 630 274 650 250 650 L250 650 Z " />
<glyph glyph-name="ae" unicode="&#xe6;" horiz-adv-x="777" d="M419 279 C430 363 472 405 543 405 C616 405 661 351 663 279 L419 279 Z M337 169 C337 141 323 115 296 93 C270 71 240 60 205 60 C156 60 125 87 125 132 C125 168 153 194 209 211 C225 216 268 222 337 233 L337 169 Z M396 418 C366 458 315 480 242 480 C128 480 61 428 58 321 L141 321 C145 378 178 407 241 407 C319 407 337 375 337 296 L211 278 C118 265 39 221 39 127 C39 39 99 -11 189 -11 C256 -11 331 28 365 87 C401 21 459 -11 539 -11 C640 -11 721 57 740 153 L656 153 C640 91 602 60 543 60 C462 60 420 109 414 207 L745 207 C746 222 747 237 747 249 C747 381 677 479 544 479 C488 479 439 458 396 418 L396 418 Z " />
<glyph glyph-name="ccedilla" unicode="&#xe7;" horiz-adv-x="483" d="M366 169 C348 97 311 61 255 61 C169 61 126 121 126 240 C126 329 161 407 255 407 C314 407 351 373 366 306 L448 306 C438 413 362 480 255 480 C106 480 39 370 39 225 C39 84 111 -14 255 -14 C365 -14 442 63 448 169 L366 169 Z M234 0 L177 -80 L195 -99 C207 -94 220 -91 231 -91 C261 -91 278 -102 278 -125 C278 -150 261 -162 230 -162 C207 -162 183 -159 157 -149 L140 -185 C174 -199 206 -205 236 -205 C270 -205 298 -198 319 -182 C341 -167 351 -147 351 -122 C351 -80 319 -53 269 -53 C260 -53 248 -55 236 -59 L277 0 L234 0 Z " />
<glyph glyph-name="egrave" unicode="&#xe8;" horiz-adv-x="499" d="M463 246 C463 378 403 480 259 480 C115 480 39 372 39 233 C39 95 110 -14 253 -14 C356 -14 437 52 457 153 L373 153 C359 92 320 61 255 61 C175 61 132 110 126 208 L463 208 L463 246 Z M257 407 C330 407 375 360 381 280 L128 280 C137 365 181 407 257 407 L257 407 Z M146 657 L245 528 L310 528 L251 657 L146 657 Z " />
<glyph glyph-name="eacute" unicode="&#xe9;" horiz-adv-x="499" d="M463 246 C463 378 403 480 259 480 C115 480 39 372 39 233 C39 95 110 -14 253 -14 C356 -14 437 52 457 153 L373 153 C359 92 320 61 255 61 C175 61 132 110 126 208 L463 208 L463 246 Z M257 407 C330 407 375 360 381 280 L128 280 C137 365 181 407 257 407 L257 407 Z M226 527 L291 527 L387 655 L285 655 L226 527 Z " />
<glyph glyph-name="ecircumflex" unicode="&#xea;" horiz-adv-x="499" d="M463 246 C463 378 403 480 259 480 C115 480 39 372 39 233 C39 95 110 -14 253 -14 C356 -14 437 52 457 153 L373 153 C359 92 320 61 255 61 C175 61 132 110 126 208 L463 208 L463 246 Z M257 407 C330 407 375 360 381 280 L128 280 C137 365 181 407 257 407 L257 407 Z M204 655 L297 655 L382 527 L311 527 L249 591 L186 527 L116 527 L204 655 Z " />
<glyph glyph-name="edieresis" unicode="&#xeb;" horiz-adv-x="499" d="M463 246 C463 378 403 480 259 480 C115 480 39 372 39 233 C39 95 110 -14 253 -14 C356 -14 437 52 457 153 L373 153 C359 92 320 61 255 61 C175 61 132 110 126 208 L463 208 L463 246 Z M257 407 C330 407 375 360 381 280 L128 280 C137 365 181 407 257 407 L257 407 Z M285 656 L285 552 L365 552 L365 656 L285 656 Z M134 552 L214 552 L214 656 L134 656 L134 552 Z " />
<glyph glyph-name="igrave" unicode="&#xec;" horiz-adv-x="278" d="M129 466 L129 0 L209 0 L209 466 L129 466 Z M59 657 L158 528 L223 528 L164 657 L59 657 Z " />
<glyph glyph-name="iacute" unicode="&#xed;" horiz-adv-x="243" d="M81 466 L81 0 L161 0 L161 466 L81 466 Z M81 528 L146 528 L242 656 L140 656 L81 528 Z " />
<glyph glyph-name="icircumflex" unicode="&#xee;" horiz-adv-x="243" d="M81 466 L81 0 L161 0 L161 466 L81 466 Z M79 656 L172 656 L257 528 L186 528 L124 592 L61 528 L-9 528 L79 656 Z " />
<glyph glyph-name="idieresis" unicode="&#xef;" horiz-adv-x="243" d="M81 466 L81 0 L161 0 L161 466 L81 466 Z M157 656 L157 552 L237 552 L237 656 L157 656 Z M6 552 L86 552 L86 656 L6 656 L6 552 Z " />
<glyph glyph-name="eth" unicode="&#xf0;" horiz-adv-x="491" d="M117 238 C117 345 164 407 249 407 C332 407 374 350 374 237 C374 119 332 60 246 60 C162 60 117 125 117 238 L117 238 Z M39 609 C81 600 116 589 141 579 L47 521 L72 483 L191 554 C235 528 270 499 297 464 C272 474 252 480 241 480 C98 480 32 363 32 229 C32 93 102 -11 243 -11 C393 -11 461 99 461 241 C461 320 443 392 405 454 C368 515 317 564 249 598 L343 655 L319 695 L197 619 C158 633 115 644 72 650 L39 609 Z " />
<glyph glyph-name="ntilde" unicode="&#xf1;" horiz-adv-x="491" d="M60 0 L140 0 L140 246 C140 289 142 318 147 332 C163 377 208 407 257 407 C334 407 351 361 351 282 L351 0 L431 0 L431 298 C431 341 427 374 421 396 C400 451 341 480 282 480 C219 480 181 459 140 407 L140 467 L60 467 L60 0 Z M346 655 L399 655 C385 586 355 552 310 552 C298 552 279 557 256 567 C234 576 216 582 206 582 C192 582 181 571 172 552 L116 552 C132 621 162 655 209 655 C221 655 239 649 261 639 C283 629 301 624 313 624 C325 624 335 634 346 655 L346 655 Z " />
<glyph glyph-name="ograve" unicode="&#xf2;" horiz-adv-x="495" d="M37 233 C37 91 107 -14 249 -14 C391 -14 461 96 461 233 C461 373 393 480 249 480 C103 480 37 373 37 233 L37 233 Z M249 61 C168 61 123 125 123 233 C123 343 168 407 249 407 C340 407 374 324 374 238 C374 125 329 61 249 61 L249 61 Z M115 655 L214 526 L279 526 L220 655 L115 655 Z " />
<glyph glyph-name="oacute" unicode="&#xf3;" horiz-adv-x="495" d="M37 233 C37 91 107 -14 249 -14 C391 -14 461 96 461 233 C461 373 393 480 249 480 C103 480 37 373 37 233 L37 233 Z M249 61 C168 61 123 125 123 233 C123 343 168 407 249 407 C340 407 374 324 374 238 C374 125 329 61 249 61 L249 61 Z M218 527 L283 527 L379 655 L277 655 L218 527 Z " />
<glyph glyph-name="ocircumflex" unicode="&#xf4;" horiz-adv-x="495" d="M37 233 C37 91 107 -14 249 -14 C391 -14 461 96 461 233 C461 373 393 480 249 480 C103 480 37 373 37 233 L37 233 Z M249 61 C168 61 123 125 123 233 C123 343 168 407 249 407 C340 407 374 324 374 238 C374 125 329 61 249 61 L249 61 Z M203 655 L296 655 L381 527 L310 527 L248 591 L185 527 L115 527 L203 655 Z " />
<glyph glyph-name="otilde" unicode="&#xf5;" horiz-adv-x="495" d="M37 233 C37 91 107 -14 249 -14 C391 -14 461 96 461 233 C461 373 393 480 249 480 C103 480 37 373 37 233 L37 233 Z M249 61 C168 61 123 125 123 233 C123 343 168 407 249 407 C340 407 374 324 374 238 C374 125 329 61 249 61 L249 61 Z M336 655 L389 655 C375 586 345 552 300 552 C288 552 269 557 246 567 C224 576 206 582 196 582 C182 582 171 571 162 552 L106 552 C122 621 152 655 199 655 C211 655 229 649 251 639 C273 629 291 624 303 624 C315 624 325 634 336 655 L336 655 Z " />
<glyph glyph-name="odieresis" unicode="&#xf6;" horiz-adv-x="495" d="M37 233 C37 91 107 -14 249 -14 C391 -14 461 96 461 233 C461 373 393 480 249 480 C103 480 37 373 37 233 L37 233 Z M249 61 C168 61 123 125 123 233 C123 343 168 407 249 407 C340 407 374 324 374 238 C374 125 329 61 249 61 L249 61 Z M284 656 L284 552 L364 552 L364 656 L284 656 Z M133 552 L213 552 L213 656 L133 656 L133 552 Z " />
<glyph glyph-name="divide" unicode="&#xf7;" horiz-adv-x="487" d="M198 391 L287 391 L287 483 L198 483 L198 391 Z M198 130 L287 130 L287 221 L198 221 L198 130 Z M454 274 L454 340 L32 340 L32 274 L454 274 Z " />
<glyph glyph-name="oslash" unicode="&#xf8;" horiz-adv-x="535" d="M385 318 C386 315 386 313 387 313 C393 296 396 271 396 238 C396 120 352 60 266 60 C237 60 211 70 189 88 L384 320 L385 318 Z M150 151 C141 180 137 209 137 238 C137 345 186 407 269 407 C302 407 327 398 343 382 L150 151 Z M398 439 C361 465 318 480 272 480 C123 479 52 371 52 226 C52 167 64 120 86 83 L12 0 L65 -46 L132 29 C169 2 212 -11 262 -11 C404 -11 482 96 482 234 C482 298 469 348 445 386 L518 470 L464 516 L398 439 Z " />
<glyph glyph-name="ugrave" unicode="&#xf9;" horiz-adv-x="489" d="M59 467 L59 167 C59 46 109 -14 211 -14 C281 -14 329 15 354 73 L354 0 L434 0 L434 467 L354 467 L354 230 C354 179 344 139 326 112 C303 78 271 61 230 61 C197 61 174 69 161 85 C146 102 140 131 140 170 L140 467 L59 467 Z M107 655 L206 526 L271 526 L212 655 L107 655 Z " />
<glyph glyph-name="uacute" unicode="&#xfa;" horiz-adv-x="489" d="M59 467 L59 167 C59 46 109 -14 211 -14 C281 -14 329 15 354 73 L354 0 L434 0 L434 467 L354 467 L354 230 C354 179 344 139 326 112 C303 78 271 61 230 61 C197 61 174 69 161 85 C146 102 140 131 140 170 L140 467 L59 467 Z M216 527 L281 527 L377 655 L275 655 L216 527 Z " />
<glyph glyph-name="ucircumflex" unicode="&#xfb;" horiz-adv-x="489" d="M59 467 L59 167 C59 46 109 -14 211 -14 C281 -14 329 15 354 73 L354 0 L434 0 L434 467 L354 467 L354 230 C354 179 344 139 326 112 C303 78 271 61 230 61 C197 61 174 69 161 85 C146 102 140 131 140 170 L140 467 L59 467 Z M201 655 L294 655 L379 527 L308 527 L246 591 L183 527 L113 527 L201 655 Z " />
<glyph glyph-name="udieresis" unicode="&#xfc;" horiz-adv-x="489" d="M59 467 L59 167 C59 46 109 -14 211 -14 C281 -14 329 15 354 73 L354 0 L434 0 L434 467 L354 467 L354 230 C354 179 344 139 326 112 C303 78 271 61 230 61 C197 61 174 69 161 85 C146 102 140 131 140 170 L140 467 L59 467 Z M282 656 L282 552 L362 552 L362 656 L282 656 Z M131 552 L211 552 L211 656 L131 656 L131 552 Z " />
<glyph glyph-name="yacute" unicode="&#xfd;" horiz-adv-x="438" d="M96 467 L5 467 L178 -10 C161 -56 149 -85 139 -99 C130 -112 116 -119 98 -119 C84 -119 69 -115 50 -107 L50 -184 C73 -190 96 -192 117 -192 C151 -192 179 -177 201 -145 C215 -127 228 -96 244 -52 L430 467 L342 467 L221 97 L96 467 Z M190 528 L255 528 L351 656 L249 656 L190 528 Z " />
<glyph glyph-name="thorn" unicode="&#xfe;" horiz-adv-x="536" d="M59 -180 L140 -180 L140 49 C176 8 220 -14 271 -14 C401 -14 457 110 457 240 C457 364 408 480 276 480 C214 480 180 460 140 412 L140 639 L59 639 L59 -180 Z M137 233 C137 342 181 407 255 407 C344 407 373 321 373 233 C373 150 345 61 255 61 C164 61 137 149 137 233 L137 233 Z " />
<glyph glyph-name="ydieresis" unicode="&#xff;" horiz-adv-x="436" d="M96 467 L5 467 L178 -10 C161 -56 149 -85 139 -99 C130 -112 116 -119 98 -119 C84 -119 69 -115 50 -107 L50 -184 C73 -190 96 -192 117 -192 C151 -192 179 -177 201 -145 C215 -127 228 -96 244 -52 L430 467 L342 467 L221 97 L96 467 Z M279 656 L279 552 L359 552 L359 656 L279 656 Z M128 552 L208 552 L208 656 L128 656 L128 552 Z " />
<glyph glyph-name="Amacron" unicode="&#x100;" horiz-adv-x="570" d="M170 689 L170 757 L409 757 L409 689 L170 689 Z M190 262 L383 262 L288 543 L190 262 Z M246 640 L339 640 L570 0 L473 0 L408 190 L162 190 L95 0 L0 0 L246 640 Z " />
<glyph glyph-name="amacron" unicode="&#x101;" horiz-adv-x="502" d="M122 526 L122 594 L361 594 L361 526 L122 526 Z M234 411 C302 411 337 380 337 318 L337 290 C228 281 137 269 87 234 C51 209 32 174 32 128 C32 39 94 -14 182 -14 C241 -14 294 12 343 63 C349 12 374 -14 418 -14 C436 -14 454 -8 473 3 L473 67 C463 62 454 59 444 59 C425 59 417 76 417 109 L417 332 C417 444 345 480 238 480 C130 480 51 429 51 322 L130 322 C130 382 164 411 234 411 L234 411 Z M337 169 C334 99 265 59 202 59 C144 59 116 82 116 129 C116 161 132 184 164 198 C196 212 253 223 337 233 L337 169 Z " />
<glyph glyph-name="Abreve" unicode="&#x102;" horiz-adv-x="570" d="M190 262 L383 262 L288 543 L190 262 Z M246 640 L339 640 L570 0 L473 0 L408 190 L162 190 L95 0 L0 0 L246 640 Z M155 844 L210 844 C218 799 244 777 287 777 C331 777 358 799 365 844 L420 844 C414 757 370 713 292 713 C207 713 161 757 155 844 L155 844 Z " />
<glyph glyph-name="abreve" unicode="&#x103;" horiz-adv-x="502" d="M234 411 C302 411 337 380 337 318 L337 290 C228 281 137 269 87 234 C51 209 32 174 32 128 C32 39 94 -14 182 -14 C241 -14 294 12 343 63 C349 12 374 -14 418 -14 C436 -14 454 -8 473 3 L473 67 C463 62 454 59 444 59 C425 59 417 76 417 109 L417 332 C417 444 345 480 238 480 C130 480 51 429 51 322 L130 322 C130 382 164 411 234 411 L234 411 Z M337 169 C334 99 265 59 202 59 C144 59 116 82 116 129 C116 161 132 184 164 198 C196 212 253 223 337 233 L337 169 Z M103 656 L158 656 C166 611 192 589 235 589 C279 589 306 611 313 656 L368 656 C362 569 318 525 240 525 C155 525 109 569 103 656 L103 656 Z " />
<glyph glyph-name="Aogonek" unicode="&#x104;" horiz-adv-x="571" d="M190 262 L383 262 L288 543 L190 262 Z M246 640 L339 640 L570 0 L473 0 L408 190 L162 190 L95 0 L0 0 L246 640 Z M497 0 L558 0 C513 -22 489 -46 489 -73 C489 -101 506 -115 539 -115 C555 -115 570 -113 583 -107 L583 -167 C564 -175 543 -179 520 -179 C492 -179 468 -171 450 -155 C431 -138 422 -118 422 -93 C422 -57 447 -26 497 0 L497 0 Z " />
<glyph glyph-name="aogonek" unicode="&#x105;" horiz-adv-x="502" d="M234 411 C302 411 337 380 337 318 L337 290 C228 281 137 269 87 234 C51 209 32 174 32 128 C32 39 94 -14 182 -14 C241 -14 294 12 343 63 C349 12 374 -14 418 -14 C436 -14 454 -8 473 3 L473 67 C463 62 454 59 444 59 C425 59 417 76 417 109 L417 332 C417 444 345 480 238 480 C130 480 51 429 51 322 L130 322 C130 382 164 411 234 411 L234 411 Z M337 169 C334 99 265 59 202 59 C144 59 116 82 116 129 C116 161 132 184 164 198 C196 212 253 223 337 233 L337 169 Z M386 0 L447 0 C402 -22 378 -46 378 -73 C378 -101 395 -115 428 -115 C444 -115 459 -113 472 -107 L472 -167 C453 -175 432 -179 409 -179 C381 -179 357 -171 339 -155 C320 -138 311 -118 311 -93 C311 -57 336 -26 386 0 L386 0 Z " />
<glyph glyph-name="Cacute" unicode="&#x106;" horiz-adv-x="632" d="M513 440 C492 527 433 571 337 571 C193 571 131 456 131 318 C131 176 194 69 329 69 C429 69 496 131 513 238 L601 238 C588 92 479 -14 333 -14 C123 -14 39 144 39 314 C39 511 148 652 336 652 C472 652 588 586 601 440 L513 440 Z M258 718 L323 718 L419 846 L317 846 L258 718 Z " />
<glyph glyph-name="cacute" unicode="&#x107;" horiz-adv-x="485" d="M366 169 C348 97 311 61 255 61 C169 61 126 121 126 240 C126 329 161 407 255 407 C314 407 351 373 366 306 L448 306 C438 413 362 480 255 480 C106 480 39 370 39 225 C39 84 111 -14 255 -14 C365 -14 442 63 448 169 L366 169 Z M197 529 L262 529 L358 657 L256 657 L197 529 Z " />
<glyph glyph-name="Ccircumflex" unicode="&#x108;" horiz-adv-x="632" d="M513 440 C492 527 433 571 337 571 C193 571 131 456 131 318 C131 176 194 69 329 69 C429 69 496 131 513 238 L601 238 C588 92 479 -14 333 -14 C123 -14 39 144 39 314 C39 511 148 652 336 652 C472 652 588 586 601 440 L513 440 Z M301 848 L394 848 L479 720 L408 720 L346 784 L283 720 L213 720 L301 848 Z " />
<glyph glyph-name="ccircumflex" unicode="&#x109;" horiz-adv-x="485" d="M366 169 C348 97 311 61 255 61 C169 61 126 121 126 240 C126 329 161 407 255 407 C314 407 351 373 366 306 L448 306 C438 413 362 480 255 480 C106 480 39 370 39 225 C39 84 111 -14 255 -14 C365 -14 442 63 448 169 L366 169 Z M189 657 L282 657 L367 529 L296 529 L234 593 L171 529 L101 529 L189 657 Z " />
<glyph glyph-name="Cdotaccent" unicode="&#x10a;" horiz-adv-x="633" d="M513 440 C492 527 433 571 337 571 C193 571 131 456 131 318 C131 176 194 69 329 69 C429 69 496 131 513 238 L601 238 C588 92 479 -14 333 -14 C123 -14 39 144 39 314 C39 511 148 652 336 652 C472 652 588 586 601 440 L513 440 Z M285 831 L367 831 L367 727 L285 727 L285 831 Z " />
<glyph glyph-name="cdotaccent" unicode="&#x10b;" horiz-adv-x="485" d="M366 169 C348 97 311 61 255 61 C169 61 126 121 126 240 C126 329 161 407 255 407 C314 407 351 373 366 306 L448 306 C438 413 362 480 255 480 C106 480 39 370 39 225 C39 84 111 -14 255 -14 C365 -14 442 63 448 169 L366 169 Z M211 656 L293 656 L293 552 L211 552 L211 656 Z " />
<glyph glyph-name="Ccaron" unicode="&#x10c;" horiz-adv-x="632" d="M513 440 C492 527 433 571 337 571 C193 571 131 456 131 318 C131 176 194 69 329 69 C429 69 496 131 513 238 L601 238 C588 92 479 -14 333 -14 C123 -14 39 144 39 314 C39 511 148 652 336 652 C472 652 588 586 601 440 L513 440 Z M387 721 L294 721 L207 849 L279 849 L341 785 L404 849 L473 849 L387 721 Z " />
<glyph glyph-name="ccaron" unicode="&#x10d;" horiz-adv-x="485" d="M366 169 C348 97 311 61 255 61 C169 61 126 121 126 240 C126 329 161 407 255 407 C314 407 351 373 366 306 L448 306 C438 413 362 480 255 480 C106 480 39 370 39 225 C39 84 111 -14 255 -14 C365 -14 442 63 448 169 L366 169 Z M292 529 L199 529 L112 657 L184 657 L246 593 L309 657 L378 657 L292 529 Z " />
<glyph glyph-name="Dcaron" unicode="&#x10e;" horiz-adv-x="618" d="M143 560 L143 80 L274 80 C426 80 487 159 487 328 C487 454 446 560 269 560 L143 560 Z M55 0 L55 640 L271 640 C330 640 404 640 470 593 C544 540 579 449 579 326 C579 248 564 181 531 124 C473 23 391 0 278 0 L55 0 Z M353 721 L260 721 L173 849 L245 849 L307 785 L370 849 L439 849 L353 721 Z " />
<glyph glyph-name="dcaron" unicode="&#x10f;" horiz-adv-x="618" d="M243 61 C164 61 124 118 124 233 C124 349 164 407 243 407 C320 407 358 349 358 233 C358 118 320 61 243 61 L243 61 Z M358 421 C326 460 283 480 230 480 C98 480 38 356 38 225 C38 105 95 -14 223 -14 C289 -14 317 7 358 61 L358 0 L438 0 L438 640 L358 640 L358 421 Z M492 536 L538 536 C536 509 532 490 525 479 C519 468 509 459 492 454 L492 407 C556 421 588 467 588 545 L588 638 L492 638 L492 536 Z " />
<glyph glyph-name="Dcroat" unicode="&#x110;" horiz-adv-x="618" d="M1 291 L55 291 L55 0 L278 0 C391 0 474 24 531 124 C564 181 579 248 579 326 C579 449 543 538 470 593 C415 635 360 640 271 640 L55 640 L55 371 L1 371 L1 291 Z M143 560 L269 560 C331 560 377 549 407 528 C460 490 487 424 487 328 C487 220 459 147 402 109 C373 90 330 80 274 80 L143 80 L143 291 L292 291 L292 371 L143 371 L143 560 Z " />
<glyph glyph-name="dcroat" unicode="&#x111;" horiz-adv-x="506" d="M358 421 C327 459 284 480 230 480 C95 480 38 352 38 225 C38 105 95 -14 223 -14 C291 -14 314 7 358 61 L358 0 L438 0 L438 529 L496 529 L496 584 L438 584 L438 640 L358 640 L358 584 L229 584 L229 529 L358 529 L358 421 Z M243 61 C163 61 124 119 124 233 C124 349 163 407 243 407 C319 407 358 349 358 233 C358 119 319 61 243 61 L243 61 Z " />
<glyph glyph-name="Emacron" unicode="&#x112;" horiz-adv-x="567" d="M158 689 L158 757 L397 757 L397 689 L158 689 Z M59 640 L518 640 L518 560 L147 560 L147 371 L491 371 L491 291 L147 291 L147 80 L518 80 L518 0 L59 0 L59 640 Z " />
<glyph glyph-name="emacron" unicode="&#x113;" horiz-adv-x="500" d="M132 525 L132 593 L371 593 L371 525 L132 525 Z M463 246 C463 378 403 480 259 480 C115 480 39 372 39 233 C39 95 110 -14 253 -14 C356 -14 437 52 457 153 L373 153 C359 92 320 61 255 61 C175 61 132 110 126 208 L463 208 L463 246 Z M257 407 C330 407 375 360 381 280 L128 280 C137 365 181 407 257 407 L257 407 Z " />
<glyph glyph-name="Ebreve" unicode="&#x114;" horiz-adv-x="567" d="M59 640 L518 640 L518 560 L147 560 L147 371 L491 371 L491 291 L147 291 L147 80 L518 80 L518 0 L59 0 L59 640 Z M148 850 L203 850 C211 805 237 783 280 783 C324 783 351 805 358 850 L413 850 C407 763 363 719 285 719 C200 719 154 763 148 850 L148 850 Z " />
<glyph glyph-name="ebreve" unicode="&#x115;" horiz-adv-x="500" d="M463 246 C463 378 403 480 259 480 C115 480 39 372 39 233 C39 95 110 -14 253 -14 C356 -14 437 52 457 153 L373 153 C359 92 320 61 255 61 C175 61 132 110 126 208 L463 208 L463 246 Z M257 407 C330 407 375 360 381 280 L128 280 C137 365 181 407 257 407 L257 407 Z M116 656 L171 656 C179 611 205 589 248 589 C292 589 319 611 326 656 L381 656 C375 569 331 525 253 525 C168 525 122 569 116 656 L116 656 Z " />
<glyph glyph-name="Edotaccent" unicode="&#x116;" horiz-adv-x="567" d="M59 640 L518 640 L518 560 L147 560 L147 371 L491 371 L491 291 L147 291 L147 80 L518 80 L518 0 L59 0 L59 640 Z M239 831 L321 831 L321 727 L239 727 L239 831 Z " />
<glyph glyph-name="edotaccent" unicode="&#x117;" horiz-adv-x="500" d="M463 246 C463 378 403 480 259 480 C115 480 39 372 39 233 C39 95 110 -14 253 -14 C356 -14 437 52 457 153 L373 153 C359 92 320 61 255 61 C175 61 132 110 126 208 L463 208 L463 246 Z M257 407 C330 407 375 360 381 280 L128 280 C137 365 181 407 257 407 L257 407 Z M211 656 L293 656 L293 552 L211 552 L211 656 Z " />
<glyph glyph-name="Eogonek" unicode="&#x118;" horiz-adv-x="554" d="M59 640 L518 640 L518 560 L147 560 L147 371 L491 371 L491 291 L147 291 L147 80 L518 80 L518 0 L59 0 L59 640 Z M436 0 L497 0 C452 -22 428 -46 428 -73 C428 -101 445 -115 478 -115 C494 -115 509 -113 522 -107 L522 -167 C503 -175 482 -179 459 -179 C431 -179 407 -171 389 -155 C370 -138 361 -118 361 -93 C361 -57 386 -26 436 0 L436 0 Z " />
<glyph glyph-name="eogonek" unicode="&#x119;" horiz-adv-x="500" d="M463 246 C463 378 403 480 259 480 C115 480 39 372 39 233 C39 95 110 -14 253 -14 C356 -14 437 52 457 153 L373 153 C359 92 320 61 255 61 C175 61 132 110 126 208 L463 208 L463 246 Z M257 407 C330 407 375 360 381 280 L128 280 C137 365 181 407 257 407 L257 407 Z M274 0 L335 0 C290 -22 266 -46 266 -73 C266 -101 283 -115 316 -115 C332 -115 347 -113 360 -107 L360 -167 C341 -175 320 -179 297 -179 C269 -179 245 -171 227 -155 C208 -138 199 -118 199 -93 C199 -57 224 -26 274 0 L274 0 Z " />
<glyph glyph-name="Ecaron" unicode="&#x11a;" horiz-adv-x="567" d="M59 640 L518 640 L518 560 L147 560 L147 371 L491 371 L491 291 L147 291 L147 80 L518 80 L518 0 L59 0 L59 640 Z M324 719 L231 719 L144 847 L216 847 L278 783 L341 847 L410 847 L324 719 Z " />
<glyph glyph-name="ecaron" unicode="&#x11b;" horiz-adv-x="500" d="M463 246 C463 378 403 480 259 480 C115 480 39 372 39 233 C39 95 110 -14 253 -14 C356 -14 437 52 457 153 L373 153 C359 92 320 61 255 61 C175 61 132 110 126 208 L463 208 L463 246 Z M257 407 C330 407 375 360 381 280 L128 280 C137 365 181 407 257 407 L257 407 Z M308 527 L215 527 L128 655 L200 655 L262 591 L325 655 L394 655 L308 527 Z " />
<glyph glyph-name="Gcircumflex" unicode="&#x11c;" horiz-adv-x="667" d="M517 443 C494 528 435 571 342 571 C197 571 132 458 132 318 C132 180 199 69 342 69 C460 69 535 151 535 271 L337 271 L337 343 L616 343 L616 3 L559 3 L537 82 C477 15 426 -14 336 -14 C169 -14 41 100 41 316 C41 506 149 652 344 652 C492 652 580 582 607 443 L517 443 Z M302 842 L395 842 L480 714 L409 714 L347 778 L284 714 L214 714 L302 842 Z " />
<glyph glyph-name="gcircumflex" unicode="&#x11d;" horiz-adv-x="497" d="M358 404 C324 454 280 480 223 480 C93 480 39 358 39 225 C39 101 92 0 221 0 C274 0 319 24 358 74 C358 -60 322 -119 233 -119 C175 -119 150 -100 137 -49 L57 -49 C70 -149 124 -192 235 -192 C397 -192 438 -91 438 71 L438 467 L358 467 L358 404 Z M242 73 C169 73 126 130 126 233 C126 315 154 407 242 407 C327 407 358 313 358 233 C358 151 327 73 242 73 L242 73 Z M195 659 L288 659 L373 531 L302 531 L240 595 L177 531 L107 531 L195 659 Z " />
<glyph glyph-name="Gbreve" unicode="&#x11e;" horiz-adv-x="667" d="M517 443 C494 528 435 571 342 571 C197 571 132 458 132 318 C132 180 199 69 342 69 C460 69 535 151 535 271 L337 271 L337 343 L616 343 L616 3 L559 3 L537 82 C477 15 426 -14 336 -14 C169 -14 41 100 41 316 C41 506 149 652 344 652 C492 652 580 582 607 443 L517 443 Z M195 844 L250 844 C258 799 284 777 327 777 C371 777 398 799 405 844 L460 844 C454 757 410 713 332 713 C247 713 201 757 195 844 L195 844 Z " />
<glyph glyph-name="gbreve" unicode="&#x11f;" horiz-adv-x="497" d="M358 404 C324 454 280 480 223 480 C93 480 39 358 39 225 C39 101 92 0 221 0 C274 0 319 24 358 74 C358 -60 322 -119 233 -119 C175 -119 150 -100 137 -49 L57 -49 C70 -149 124 -192 235 -192 C397 -192 438 -91 438 71 L438 467 L358 467 L358 404 Z M242 73 C169 73 126 130 126 233 C126 315 154 407 242 407 C327 407 358 313 358 233 C358 151 327 73 242 73 L242 73 Z M113 660 L168 660 C176 615 202 593 245 593 C289 593 316 615 323 660 L378 660 C372 573 328 529 250 529 C165 529 119 573 113 660 L113 660 Z " />
<glyph glyph-name="Gdotaccent" unicode="&#x120;" horiz-adv-x="667" d="M517 443 C494 528 435 571 342 571 C197 571 132 458 132 318 C132 180 199 69 342 69 C460 69 535 151 535 271 L337 271 L337 343 L616 343 L616 3 L559 3 L537 82 C477 15 426 -14 336 -14 C169 -14 41 100 41 316 C41 506 149 652 344 652 C492 652 580 582 607 443 L517 443 Z M288 831 L370 831 L370 727 L288 727 L288 831 Z " />
<glyph glyph-name="gdotaccent" unicode="&#x121;" horiz-adv-x="497" d="M358 404 C324 454 280 480 223 480 C93 480 39 358 39 225 C39 101 92 0 221 0 C274 0 319 24 358 74 C358 -60 322 -119 233 -119 C175 -119 150 -100 137 -49 L57 -49 C70 -149 124 -192 235 -192 C397 -192 438 -91 438 71 L438 467 L358 467 L358 404 Z M242 73 C169 73 126 130 126 233 C126 315 154 407 242 407 C327 407 358 313 358 233 C358 151 327 73 242 73 L242 73 Z M186 656 L268 656 L268 552 L186 552 L186 656 Z " />
<glyph glyph-name="Gcommaaccent" unicode="&#x122;" horiz-adv-x="667" d="M517 443 C494 528 435 571 342 571 C197 571 132 458 132 318 C132 180 199 69 342 69 C460 69 535 151 535 271 L337 271 L337 343 L616 343 L616 3 L559 3 L537 82 C477 15 426 -14 336 -14 C169 -14 41 100 41 316 C41 506 149 652 344 652 C492 652 580 582 607 443 L517 443 Z M289 -46 L385 -46 L385 -137 C385 -217 353 -263 289 -275 L289 -229 C306 -223 316 -215 322 -203 C329 -192 333 -173 335 -147 L289 -147 L289 -46 Z " />
<glyph glyph-name="gcommaaccent" unicode="&#x123;" horiz-adv-x="497" d="M358 404 C324 454 280 480 223 480 C93 480 39 358 39 225 C39 101 92 0 221 0 C274 0 319 24 358 74 C358 -60 322 -119 233 -119 C175 -119 150 -100 137 -49 L57 -49 C70 -149 124 -192 235 -192 C397 -192 438 -91 438 71 L438 467 L358 467 L358 404 Z M242 73 C169 73 126 130 126 233 C126 315 154 407 242 407 C327 407 358 313 358 233 C358 151 327 73 242 73 L242 73 Z M283 551 L187 551 L187 642 C187 722 219 768 283 780 L283 734 C266 728 256 720 250 708 C243 697 239 678 237 652 L283 652 L283 551 Z " />
<glyph glyph-name="Hcircumflex" unicode="&#x124;" horiz-adv-x="599" d="M150 640 L150 377 L449 377 L449 640 L540 640 L540 0 L449 0 L449 296 L150 296 L150 0 L59 0 L59 640 L150 640 Z M264 843 L357 843 L442 715 L371 715 L309 779 L246 715 L176 715 L264 843 Z " />
<glyph glyph-name="hcircumflex" unicode="&#x125;" horiz-adv-x="490" d="M59 640 L59 0 L140 0 L140 249 C140 318 161 407 262 407 C335 407 351 362 351 288 L351 0 L431 0 L431 308 C431 423 381 480 280 480 C226 480 179 458 140 417 L140 640 L59 640 Z M56 848 L149 848 L234 720 L163 720 L101 784 L38 720 L-32 720 L56 848 Z " />
<glyph glyph-name="Hbar" unicode="&#x126;" horiz-adv-x="599" d="M20 570 L20 502 L59 502 L59 0 L150 0 L150 296 L449 296 L449 0 L540 0 L540 502 L572 502 L572 570 L540 570 L540 640 L449 640 L449 570 L150 570 L150 640 L59 640 L59 570 L20 570 Z M449 502 L449 377 L150 377 L150 502 L449 502 Z " />
<glyph glyph-name="hbar" unicode="&#x127;" horiz-adv-x="491" d="M22 564 L22 510 L59 510 L59 0 L140 0 L140 249 C140 300 148 336 164 358 C190 391 221 407 262 407 C337 407 351 362 351 288 L351 0 L431 0 L431 308 C431 423 381 480 280 480 C226 480 179 458 140 417 L140 510 L264 510 L264 564 L140 564 L140 640 L59 640 L59 564 L22 564 Z " />
<glyph glyph-name="Itilde" unicode="&#x128;" horiz-adv-x="209" d="M59 640 L59 0 L150 0 L150 640 L59 640 Z M195 842 L248 842 C234 773 204 739 159 739 C147 739 128 744 105 754 C83 763 65 769 55 769 C41 769 30 758 21 739 L-35 739 C-19 808 11 842 58 842 C70 842 88 836 110 826 C132 816 150 811 162 811 C174 811 184 821 195 842 L195 842 Z " />
<glyph glyph-name="itilde" unicode="&#x129;" horiz-adv-x="238" d="M81 466 L81 0 L161 0 L161 466 L81 466 Z M207 656 L260 656 C246 587 216 553 171 553 C159 553 140 558 117 568 C95 577 77 583 67 583 C53 583 42 572 33 553 L-23 553 C-7 622 23 656 70 656 C82 656 100 650 122 640 C144 630 162 625 174 625 C186 625 196 635 207 656 L207 656 Z " />
<glyph glyph-name="Imacron" unicode="&#x12a;" horiz-adv-x="214" d="M-14 688 L-14 756 L225 756 L225 688 L-14 688 Z M59 640 L59 0 L150 0 L150 640 L59 640 Z " />
<glyph glyph-name="imacron" unicode="&#x12b;" horiz-adv-x="242" d="M2 527 L2 595 L241 595 L241 527 L2 527 Z M81 466 L81 0 L161 0 L161 466 L81 466 Z " />
<glyph glyph-name="Ibreve" unicode="&#x12c;" horiz-adv-x="219" d="M59 640 L59 0 L150 0 L150 640 L59 640 Z M-25 851 L30 851 C38 806 64 784 107 784 C151 784 178 806 185 851 L240 851 C234 764 190 720 112 720 C27 720 -19 764 -25 851 L-25 851 Z " />
<glyph glyph-name="ibreve" unicode="&#x12d;" horiz-adv-x="235" d="M81 466 L81 0 L161 0 L161 466 L81 466 Z M-13 656 L42 656 C50 611 76 589 119 589 C163 589 190 611 197 656 L252 656 C246 569 202 525 124 525 C39 525 -7 569 -13 656 L-13 656 Z " />
<glyph glyph-name="Iogonek" unicode="&#x12e;" horiz-adv-x="209" d="M59 640 L59 0 L150 0 L150 640 L59 640 Z M75 0 L136 0 C91 -22 67 -46 67 -73 C67 -101 84 -115 117 -115 C133 -115 148 -113 161 -107 L161 -167 C142 -175 121 -179 98 -179 C70 -179 46 -171 28 -155 C9 -138 0 -118 0 -93 C0 -57 25 -26 75 0 L75 0 Z " />
<glyph glyph-name="iogonek" unicode="&#x12f;" horiz-adv-x="195" d="M140 547 L140 640 L59 640 L59 547 L140 547 Z M59 467 L59 0 L140 0 L140 467 L59 467 Z M75 0 L136 0 C91 -22 67 -46 67 -73 C67 -101 84 -115 117 -115 C133 -115 148 -113 161 -107 L161 -167 C142 -175 121 -179 98 -179 C70 -179 46 -171 28 -155 C9 -138 0 -118 0 -93 C0 -57 25 -26 75 0 L75 0 Z " />
<glyph glyph-name="Idotaccent" unicode="&#x130;" horiz-adv-x="207" d="M59 640 L59 0 L150 0 L150 640 L59 640 Z M63 830 L145 830 L145 726 L63 726 L63 830 Z " />
<glyph glyph-name="dotlessi" unicode="&#x131;" horiz-adv-x="243" d="M81 466 L81 0 L161 0 L161 466 L81 466 Z " />
<glyph glyph-name="IJ" unicode="&#x132;" horiz-adv-x="648" d="M59 640 L59 0 L150 0 L150 640 L59 640 Z M224 214 L224 204 C224 167 226 141 228 126 C241 38 308 -14 401 -14 C437 -14 582 -14 582 202 L582 640 L493 640 L493 202 C493 125 482 69 403 69 C319 69 311 137 311 214 L224 214 Z " />
<glyph glyph-name="ij" unicode="&#x133;" horiz-adv-x="390" d="M140 547 L140 640 L59 640 L59 547 L140 547 Z M59 467 L59 0 L140 0 L140 467 L59 467 Z M238 547 L319 547 L319 640 L238 640 L238 547 Z M163 -188 C175 -190 190 -192 211 -192 C283 -192 319 -146 319 -54 L319 467 L238 467 L238 -43 C238 -85 237 -118 194 -119 C184 -119 174 -117 163 -114 L163 -188 Z " />
<glyph glyph-name="Jcircumflex" unicode="&#x134;" horiz-adv-x="441" d="M17 214 L17 204 C17 167 19 141 21 126 C34 38 101 -14 194 -14 C230 -14 375 -14 375 202 L375 640 L286 640 L286 202 C286 125 275 69 196 69 C112 69 104 137 104 214 L17 214 Z M282 862 L375 862 L460 734 L389 734 L327 798 L264 734 L194 734 L282 862 Z " />
<glyph glyph-name="jcircumflex" unicode="&#x135;" horiz-adv-x="221" d="M-6 -188 C6 -190 21 -192 42 -192 C114 -192 150 -146 150 -54 L150 467 L69 467 L69 -43 C69 -85 68 -118 25 -119 C15 -119 5 -117 -6 -114 L-6 -188 Z M62 654 L155 654 L240 526 L169 526 L107 590 L44 526 L-26 526 L62 654 Z " />
<glyph glyph-name="Kcommaaccent" unicode="&#x136;" horiz-adv-x="570" d="M59 640 L59 0 L150 0 L150 190 L242 285 L462 0 L568 0 L302 348 L563 640 L449 640 L150 302 L150 640 L59 640 Z M249 -46 L345 -46 L345 -137 C345 -217 313 -263 249 -275 L249 -229 C266 -223 276 -215 282 -203 C289 -192 293 -173 295 -147 L249 -147 L249 -46 Z " />
<glyph glyph-name="kcommaaccent" unicode="&#x137;" horiz-adv-x="452" d="M57 0 L137 0 L137 170 L188 218 L339 0 L438 0 L246 278 L425 467 L319 467 L137 261 L137 640 L57 640 L57 0 Z M189 -46 L285 -46 L285 -137 C285 -217 253 -263 189 -275 L189 -229 C206 -223 216 -215 222 -203 C229 -192 233 -173 235 -147 L189 -147 L189 -46 Z " />
<glyph glyph-name="kgreenlandic" unicode="&#x138;" horiz-adv-x="452" d="M57 467 L57 0 L137 0 L137 170 L188 218 L339 0 L438 0 L246 278 L425 467 L319 467 L167 297 L137 261 L137 467 L57 467 Z " />
<glyph glyph-name="Lacute" unicode="&#x139;" horiz-adv-x="506" d="M59 0 L471 0 L471 80 L150 80 L150 640 L59 640 L59 0 Z M88 719 L153 719 L249 847 L147 847 L88 719 Z " />
<glyph glyph-name="lacute" unicode="&#x13a;" horiz-adv-x="209" d="M69 0 L150 0 L150 640 L69 640 L69 0 Z M62 718 L127 718 L223 846 L121 846 L62 718 Z " />
<glyph glyph-name="Lcommaaccent" unicode="&#x13b;" horiz-adv-x="483" d="M59 0 L471 0 L471 80 L150 80 L150 640 L59 640 L59 0 Z M219 -46 L315 -46 L315 -137 C315 -217 283 -263 219 -275 L219 -229 C236 -223 246 -215 252 -203 C259 -192 263 -173 265 -147 L219 -147 L219 -46 Z " />
<glyph glyph-name="lcommaaccent" unicode="&#x13c;" horiz-adv-x="218" d="M69 0 L150 0 L150 640 L69 640 L69 0 Z M59 -46 L155 -46 L155 -137 C155 -217 123 -263 59 -275 L59 -229 C76 -223 86 -215 92 -203 C99 -192 103 -173 105 -147 L59 -147 L59 -46 Z " />
<glyph glyph-name="Lcaron" unicode="&#x13d;" horiz-adv-x="495" d="M59 0 L471 0 L471 80 L150 80 L150 640 L59 640 L59 0 Z M353 536 L399 536 C397 509 393 490 386 479 C380 468 370 459 353 454 L353 407 C417 421 449 467 449 545 L449 638 L353 638 L353 536 Z " />
<glyph glyph-name="lcaron" unicode="&#x13e;" horiz-adv-x="376" d="M69 0 L150 0 L150 640 L69 640 L69 0 Z M232 536 L278 536 C276 509 272 490 265 479 C259 468 249 459 232 454 L232 407 C296 421 328 467 328 545 L328 638 L232 638 L232 536 Z " />
<glyph glyph-name="Ldot" unicode="&#x13f;" horiz-adv-x="486" d="M59 0 L471 0 L471 80 L150 80 L150 640 L59 640 L59 0 Z M349 385 L431 385 L431 281 L349 281 L349 385 Z " />
<glyph glyph-name="ldot" unicode="&#x140;" horiz-adv-x="351" d="M69 0 L150 0 L150 640 L69 640 L69 0 Z M238 385 L320 385 L320 281 L238 281 L238 385 Z " />
<glyph glyph-name="Lslash" unicode="&#x141;" horiz-adv-x="487" d="M164 411 L164 638 L77 638 L77 350 L0 289 L0 192 L77 253 L77 0 L487 0 L487 80 L164 80 L164 313 L261 387 L261 485 L164 411 Z " />
<glyph glyph-name="lslash" unicode="&#x142;" horiz-adv-x="194" d="M137 418 L137 638 L57 638 L57 361 L1 316 L1 220 L57 264 L57 0 L137 0 L137 320 L193 365 L193 462 L137 418 Z " />
<glyph glyph-name="Nacute" unicode="&#x143;" horiz-adv-x="599" d="M59 0 L147 0 L147 507 L440 0 L538 0 L538 640 L449 640 L449 137 L158 640 L59 640 L59 0 Z M236 718 L301 718 L397 846 L295 846 L236 718 Z " />
<glyph glyph-name="nacute" unicode="&#x144;" horiz-adv-x="490" d="M60 0 L140 0 L140 246 C140 289 142 318 147 332 C163 377 208 407 257 407 C334 407 351 361 351 282 L351 0 L431 0 L431 298 C431 341 427 374 421 396 C400 451 341 480 282 480 C219 480 181 459 140 407 L140 467 L60 467 L60 0 Z M192 527 L257 527 L353 655 L251 655 L192 527 Z " />
<glyph glyph-name="Ncommaaccent" unicode="&#x145;" horiz-adv-x="599" d="M59 0 L147 0 L147 507 L440 0 L538 0 L538 640 L449 640 L449 137 L158 640 L59 640 L59 0 Z M259 -46 L355 -46 L355 -137 C355 -217 323 -263 259 -275 L259 -229 C276 -223 286 -215 292 -203 C299 -192 303 -173 305 -147 L259 -147 L259 -46 Z " />
<glyph glyph-name="ncommaaccent" unicode="&#x146;" horiz-adv-x="491" d="M60 0 L140 0 L140 246 C140 289 142 318 147 332 C163 377 208 407 257 407 C334 407 351 361 351 282 L351 0 L431 0 L431 298 C431 341 427 374 421 396 C400 451 341 480 282 480 C219 480 181 459 140 407 L140 467 L60 467 L60 0 Z M199 -46 L295 -46 L295 -137 C295 -217 263 -263 199 -275 L199 -229 C216 -223 226 -215 232 -203 C239 -192 243 -173 245 -147 L199 -147 L199 -46 Z " />
<glyph glyph-name="Ncaron" unicode="&#x147;" horiz-adv-x="599" d="M59 0 L147 0 L147 507 L440 0 L538 0 L538 640 L449 640 L449 137 L158 640 L59 640 L59 0 Z M351 719 L258 719 L171 847 L243 847 L305 783 L368 847 L437 847 L351 719 Z " />
<glyph glyph-name="ncaron" unicode="&#x148;" horiz-adv-x="490" d="M60 0 L140 0 L140 246 C140 289 142 318 147 332 C163 377 208 407 257 407 C334 407 351 361 351 282 L351 0 L431 0 L431 298 C431 341 427 374 421 396 C400 451 341 480 282 480 C219 480 181 459 140 407 L140 467 L60 467 L60 0 Z M303 528 L210 528 L123 656 L195 656 L257 592 L320 656 L389 656 L303 528 Z " />
<glyph glyph-name="napostrophe" unicode="&#x149;" horiz-adv-x="584" d="M161 0 L241 0 L241 246 C241 289 243 318 248 332 C264 377 309 407 358 407 C435 407 452 361 452 282 L452 0 L532 0 L532 298 C532 341 528 374 522 396 C501 451 442 480 383 480 C320 480 282 459 241 407 L241 467 L161 467 L161 0 Z M33 536 L79 536 C77 509 73 490 66 479 C60 468 50 459 33 454 L33 407 C97 421 129 467 129 545 L129 638 L33 638 L33 536 Z " />
<glyph glyph-name="Eng" unicode="&#x14a;" horiz-adv-x="599" d="M407 -198 C494 -198 538 -132 538 0 L538 640 L449 640 L449 137 L158 640 L59 640 L59 0 L147 0 L147 507 L454 -2 C454 -85 431 -127 385 -127 C372 -127 357 -123 338 -116 L338 -192 C355 -196 378 -198 407 -198 L407 -198 Z " />
<glyph glyph-name="eng" unicode="&#x14b;" horiz-adv-x="495" d="M308 -195 C359 -195 395 -175 414 -133 C427 -103 434 -59 434 0 L434 298 C434 341 430 374 423 396 C403 448 349 480 284 480 C253 480 227 474 207 464 C187 454 163 435 140 407 L140 467 L60 467 L60 0 L140 0 L140 246 C140 283 143 312 150 332 C164 377 208 407 259 407 C294 407 318 397 332 379 C346 361 354 328 354 282 L354 0 C354 -43 349 -73 339 -93 C329 -114 311 -124 286 -124 C274 -124 258 -121 240 -113 L240 -190 C256 -193 278 -195 308 -195 L308 -195 Z " />
<glyph glyph-name="Omacron" unicode="&#x14c;" horiz-adv-x="694" d="M230 703 L230 771 L469 771 L469 703 L230 703 Z M345 -14 C550 -14 659 135 659 326 C659 518 545 652 351 652 C150 652 39 512 39 314 C39 123 151 -14 345 -14 L345 -14 Z M349 69 C204 69 132 175 132 316 C132 461 199 571 349 571 C494 571 568 468 568 326 C568 179 501 69 349 69 L349 69 Z " />
<glyph glyph-name="omacron" unicode="&#x14d;" horiz-adv-x="497" d="M129 527 L129 595 L368 595 L368 527 L129 527 Z M37 233 C37 91 107 -14 249 -14 C391 -14 461 96 461 233 C461 373 393 480 249 480 C103 480 37 373 37 233 L37 233 Z M249 61 C168 61 123 125 123 233 C123 343 168 407 249 407 C340 407 374 324 374 238 C374 125 329 61 249 61 L249 61 Z " />
<glyph glyph-name="Obreve" unicode="&#x14e;" horiz-adv-x="694" d="M345 -14 C550 -14 659 135 659 326 C659 518 545 652 351 652 C150 652 39 512 39 314 C39 123 151 -14 345 -14 L345 -14 Z M349 69 C204 69 132 175 132 316 C132 461 199 571 349 571 C494 571 568 468 568 326 C568 179 501 69 349 69 L349 69 Z M215 851 L270 851 C278 806 304 784 347 784 C391 784 418 806 425 851 L480 851 C474 764 430 720 352 720 C267 720 221 764 215 851 L215 851 Z " />
<glyph glyph-name="obreve" unicode="&#x14f;" horiz-adv-x="497" d="M37 233 C37 91 107 -14 249 -14 C391 -14 461 96 461 233 C461 373 393 480 249 480 C103 480 37 373 37 233 L37 233 Z M249 61 C168 61 123 125 123 233 C123 343 168 407 249 407 C340 407 374 324 374 238 C374 125 329 61 249 61 L249 61 Z M119 656 L174 656 C182 611 208 589 251 589 C295 589 322 611 329 656 L384 656 C378 569 334 525 256 525 C171 525 125 569 119 656 L119 656 Z " />
<glyph glyph-name="Ohungarumlaut" unicode="&#x150;" horiz-adv-x="694" d="M345 -14 C550 -14 659 135 659 326 C659 518 545 652 351 652 C150 652 39 512 39 314 C39 123 151 -14 345 -14 L345 -14 Z M349 69 C204 69 132 175 132 316 C132 461 199 571 349 571 C494 571 568 468 568 326 C568 179 501 69 349 69 L349 69 Z M275 846 L359 846 L273 718 L215 718 L275 846 Z M410 846 L494 846 L408 718 L350 718 L410 846 Z " />
<glyph glyph-name="ohungarumlaut" unicode="&#x151;" horiz-adv-x="497" d="M37 233 C37 91 107 -14 249 -14 C391 -14 461 96 461 233 C461 373 393 480 249 480 C103 480 37 373 37 233 L37 233 Z M249 61 C168 61 123 125 123 233 C123 343 168 407 249 407 C340 407 374 324 374 238 C374 125 329 61 249 61 L249 61 Z M193 656 L277 656 L191 528 L133 528 L193 656 Z M328 656 L412 656 L326 528 L268 528 L328 656 Z " />
<glyph glyph-name="OE" unicode="&#x152;" horiz-adv-x="874" d="M827 635 L827 554 L546 554 L546 369 L800 369 L800 289 L546 289 L546 80 L832 80 L832 0 L462 0 L462 61 C423 14 367 -11 297 -11 C220 -11 156 19 105 80 C56 141 32 220 32 316 C32 415 57 496 107 558 C159 620 224 651 305 651 C373 651 425 630 462 586 L462 635 L827 635 Z M457 483 C418 542 369 571 311 571 C254 571 209 547 175 502 C141 456 124 396 124 319 C124 244 141 183 175 137 C210 92 255 69 311 69 C369 69 419 101 457 161 L457 483 Z " />
<glyph glyph-name="oe" unicode="&#x153;" horiz-adv-x="826" d="M420 396 C462 451 518 479 586 479 C649 479 698 458 733 417 C769 376 787 320 787 249 C787 237 786 222 786 207 L455 207 C461 109 504 60 583 60 C644 60 682 91 696 153 L780 153 C769 103 746 62 710 33 C674 4 630 -11 580 -11 C511 -11 456 15 419 66 L418 68 C380 15 324 -11 250 -11 C184 -11 132 11 94 53 C57 97 39 157 39 233 C39 310 57 370 95 414 C132 457 184 480 250 480 C324 480 381 452 420 396 L420 396 Z M125 233 C125 124 171 60 250 60 C331 60 376 124 376 237 C376 289 365 331 342 362 C320 392 289 407 250 407 C211 407 180 392 158 361 C135 330 125 287 125 233 L125 233 Z M705 279 C702 318 689 349 668 371 C646 394 618 405 584 405 C513 405 472 363 459 279 L705 279 Z " />
<glyph glyph-name="Racute" unicode="&#x154;" horiz-adv-x="591" d="M147 0 L147 274 L318 274 C403 274 452 264 452 172 L452 92 C452 66 457 35 467 0 L571 0 C553 27 543 61 543 101 L543 172 C543 252 536 294 463 318 C524 344 554 393 554 463 C554 598 471 640 324 640 L59 640 L59 0 L147 0 Z M147 560 L322 560 C403 560 462 542 462 455 C462 363 399 354 314 354 L147 354 L147 560 Z M226 722 L291 722 L387 850 L285 850 L226 722 Z " />
<glyph glyph-name="racute" unicode="&#x155;" horiz-adv-x="309" d="M59 0 L140 0 L140 232 C140 282 147 320 161 344 C181 377 215 393 261 393 C271 393 279 393 286 391 L286 477 C279 479 268 480 253 480 C207 480 169 450 140 391 L140 467 L59 467 L59 0 Z M69 528 L134 528 L230 656 L128 656 L69 528 Z " />
<glyph glyph-name="Rcommaaccent" unicode="&#x156;" horiz-adv-x="593" d="M147 0 L147 274 L318 274 C403 274 452 264 452 172 L452 92 C452 66 457 35 467 0 L571 0 C553 27 543 61 543 101 L543 172 C543 252 536 294 463 318 C524 344 554 393 554 463 C554 598 471 640 324 640 L59 640 L59 0 L147 0 Z M147 560 L322 560 C403 560 462 542 462 455 C462 363 399 354 314 354 L147 354 L147 560 Z M259 -46 L355 -46 L355 -137 C355 -217 323 -263 259 -275 L259 -229 C276 -223 286 -215 292 -203 C299 -192 303 -173 305 -147 L259 -147 L259 -46 Z " />
<glyph glyph-name="rcommaaccent" unicode="&#x157;" horiz-adv-x="310" d="M59 0 L140 0 L140 232 C140 282 147 320 161 344 C181 377 215 393 261 393 C271 393 279 393 286 391 L286 477 C279 479 268 480 253 480 C207 480 169 450 140 391 L140 467 L59 467 L59 0 Z M55 -46 L151 -46 L151 -137 C151 -217 119 -263 55 -275 L55 -229 C72 -223 82 -215 88 -203 C95 -192 99 -173 101 -147 L55 -147 L55 -46 Z " />
<glyph glyph-name="Rcaron" unicode="&#x158;" horiz-adv-x="591" d="M147 0 L147 274 L318 274 C403 274 452 264 452 172 L452 92 C452 66 457 35 467 0 L571 0 C553 27 543 61 543 101 L543 172 C543 252 536 294 463 318 C524 344 554 393 554 463 C554 598 471 640 324 640 L59 640 L59 0 L147 0 Z M147 560 L322 560 C403 560 462 542 462 455 C462 363 399 354 314 354 L147 354 L147 560 Z M316 719 L223 719 L136 847 L208 847 L270 783 L333 847 L402 847 L316 719 Z " />
<glyph glyph-name="rcaron" unicode="&#x159;" horiz-adv-x="310" d="M59 0 L140 0 L140 232 C140 282 147 320 161 344 C181 377 215 393 261 393 C271 393 279 393 286 391 L286 477 C279 479 268 480 253 480 C207 480 169 450 140 391 L140 467 L59 467 L59 0 Z M192 528 L99 528 L12 656 L84 656 L146 592 L209 656 L278 656 L192 528 Z " />
<glyph glyph-name="Sacute" unicode="&#x15a;" horiz-adv-x="585" d="M39 214 L39 192 C39 55 125 -14 296 -14 C422 -14 545 45 545 179 C545 247 506 297 426 326 L223 402 C179 419 155 430 155 475 C155 542 229 571 291 571 C384 571 431 533 431 446 L524 446 C524 588 441 652 293 652 C176 652 63 593 63 467 C63 398 103 350 182 320 L377 248 C429 228 455 202 455 170 C455 94 371 69 301 69 C232 69 157 87 138 148 C134 160 133 181 132 214 L39 214 Z M209 718 L274 718 L370 846 L268 846 L209 718 Z " />
<glyph glyph-name="sacute" unicode="&#x15b;" horiz-adv-x="442" d="M35 153 C35 46 102 -14 221 -14 C318 -14 409 35 409 140 C409 197 381 223 307 253 L171 308 C144 319 131 334 131 351 C131 392 182 407 220 407 C280 407 311 382 313 332 L396 332 C395 430 317 480 222 480 C135 480 47 435 47 343 C47 297 75 262 131 238 L278 175 C308 162 323 146 323 128 C323 88 283 61 222 61 C150 61 119 87 119 153 L35 153 Z M158 527 L223 527 L319 655 L217 655 L158 527 Z " />
<glyph glyph-name="Scircumflex" unicode="&#x15c;" horiz-adv-x="585" d="M39 214 L39 192 C39 55 125 -14 296 -14 C422 -14 545 45 545 179 C545 247 506 297 426 326 L223 402 C179 419 155 430 155 475 C155 542 229 571 291 571 C384 571 431 533 431 446 L524 446 C524 588 441 652 293 652 C176 652 63 593 63 467 C63 398 103 350 182 320 L377 248 C429 228 455 202 455 170 C455 94 371 69 301 69 C232 69 157 87 138 148 C134 160 133 181 132 214 L39 214 Z M241 848 L334 848 L419 720 L348 720 L286 784 L223 720 L153 720 L241 848 Z " />
<glyph glyph-name="scircumflex" unicode="&#x15d;" horiz-adv-x="442" d="M35 153 C35 46 102 -14 221 -14 C318 -14 409 35 409 140 C409 197 381 223 307 253 L171 308 C144 319 131 334 131 351 C131 392 182 407 220 407 C280 407 311 382 313 332 L396 332 C395 430 317 480 222 480 C135 480 47 435 47 343 C47 297 75 262 131 238 L278 175 C308 162 323 146 323 128 C323 88 283 61 222 61 C150 61 119 87 119 153 L35 153 Z M171 656 L264 656 L349 528 L278 528 L216 592 L153 528 L83 528 L171 656 Z " />
<glyph glyph-name="&amp;#x15e;" unicode="&#x15e;" horiz-adv-x="585" d="M39 214 L39 192 C39 55 125 -14 296 -14 C422 -14 545 45 545 179 C545 247 506 297 426 326 L223 402 C179 419 155 430 155 475 C155 542 229 571 291 571 C384 571 431 533 431 446 L524 446 C524 588 441 652 293 652 C176 652 63 593 63 467 C63 398 103 350 182 320 L377 248 C429 228 455 202 455 170 C455 94 371 69 301 69 C232 69 157 87 138 148 C134 160 133 181 132 214 L39 214 Z M253 0 L196 -80 L214 -99 C226 -94 239 -91 250 -91 C280 -91 297 -102 297 -125 C297 -150 280 -162 249 -162 C226 -162 202 -159 176 -149 L159 -185 C193 -199 225 -205 255 -205 C289 -205 317 -198 338 -182 C360 -167 370 -147 370 -122 C370 -80 338 -53 288 -53 C279 -53 267 -55 255 -59 L296 0 L253 0 Z " />
<glyph glyph-name="&amp;#xf6c1;" unicode="&#xf6c1;" horiz-adv-x="585" d="M39 214 L39 192 C39 55 125 -14 296 -14 C422 -14 545 45 545 179 C545 247 506 297 426 326 L223 402 C179 419 155 430 155 475 C155 542 229 571 291 571 C384 571 431 533 431 446 L524 446 C524 588 441 652 293 652 C176 652 63 593 63 467 C63 398 103 350 182 320 L377 248 C429 228 455 202 455 170 C455 94 371 69 301 69 C232 69 157 87 138 148 C134 160 133 181 132 214 L39 214 Z M253 0 L196 -80 L214 -99 C226 -94 239 -91 250 -91 C280 -91 297 -102 297 -125 C297 -150 280 -162 249 -162 C226 -162 202 -159 176 -149 L159 -185 C193 -199 225 -205 255 -205 C289 -205 317 -198 338 -182 C360 -167 370 -147 370 -122 C370 -80 338 -53 288 -53 C279 -53 267 -55 255 -59 L296 0 L253 0 Z " />
<glyph glyph-name="&amp;#x15f;" unicode="&#x15f;" horiz-adv-x="443" d="M35 153 C35 46 102 -14 221 -14 C318 -14 409 35 409 140 C409 197 381 223 307 253 L171 308 C144 319 131 334 131 351 C131 392 182 407 220 407 C280 407 311 382 313 332 L396 332 C395 430 317 480 222 480 C135 480 47 435 47 343 C47 297 75 262 131 238 L278 175 C308 162 323 146 323 128 C323 88 283 61 222 61 C150 61 119 87 119 153 L35 153 Z M215 0 L158 -80 L176 -99 C188 -94 201 -91 212 -91 C242 -91 259 -102 259 -125 C259 -150 242 -162 211 -162 C188 -162 164 -159 138 -149 L121 -185 C155 -199 187 -205 217 -205 C251 -205 279 -198 300 -182 C322 -167 332 -147 332 -122 C332 -80 300 -53 250 -53 C241 -53 229 -55 217 -59 L258 0 L215 0 Z " />
<glyph glyph-name="&amp;#xf6c2;" unicode="&#xf6c2;" horiz-adv-x="443" d="M35 153 C35 46 102 -14 221 -14 C318 -14 409 35 409 140 C409 197 381 223 307 253 L171 308 C144 319 131 334 131 351 C131 392 182 407 220 407 C280 407 311 382 313 332 L396 332 C395 430 317 480 222 480 C135 480 47 435 47 343 C47 297 75 262 131 238 L278 175 C308 162 323 146 323 128 C323 88 283 61 222 61 C150 61 119 87 119 153 L35 153 Z M215 0 L158 -80 L176 -99 C188 -94 201 -91 212 -91 C242 -91 259 -102 259 -125 C259 -150 242 -162 211 -162 C188 -162 164 -159 138 -149 L121 -185 C155 -199 187 -205 217 -205 C251 -205 279 -198 300 -182 C322 -167 332 -147 332 -122 C332 -80 300 -53 250 -53 C241 -53 229 -55 217 -59 L258 0 L215 0 Z " />
<glyph glyph-name="Scaron" unicode="&#x160;" horiz-adv-x="585" d="M39 214 L39 192 C39 55 125 -14 296 -14 C422 -14 545 45 545 179 C545 247 506 297 426 326 L223 402 C179 419 155 430 155 475 C155 542 229 571 291 571 C384 571 431 533 431 446 L524 446 C524 588 441 652 293 652 C176 652 63 593 63 467 C63 398 103 350 182 320 L377 248 C429 228 455 202 455 170 C455 94 371 69 301 69 C232 69 157 87 138 148 C134 160 133 181 132 214 L39 214 Z M340 720 L247 720 L160 848 L232 848 L294 784 L357 848 L426 848 L340 720 Z " />
<glyph glyph-name="scaron" unicode="&#x161;" horiz-adv-x="442" d="M35 153 C35 46 102 -14 221 -14 C318 -14 409 35 409 140 C409 197 381 223 307 253 L171 308 C144 319 131 334 131 351 C131 392 182 407 220 407 C280 407 311 382 313 332 L396 332 C395 430 317 480 222 480 C135 480 47 435 47 343 C47 297 75 262 131 238 L278 175 C308 162 323 146 323 128 C323 88 283 61 222 61 C150 61 119 87 119 153 L35 153 Z M255 528 L162 528 L75 656 L147 656 L209 592 L272 656 L341 656 L255 528 Z " />
<glyph glyph-name="Tcaron" unicode="&#x164;" horiz-adv-x="550" d="M19 640 L19 560 L230 560 L230 0 L318 0 L318 560 L530 560 L530 640 L19 640 Z M320 719 L227 719 L140 847 L212 847 L274 783 L337 847 L406 847 L320 719 Z " />
<glyph glyph-name="tcaron" unicode="&#x165;" horiz-adv-x="402" d="M17 400 L79 400 L79 122 C79 34 91 -14 177 -14 C180 -14 235 -10 235 -10 L235 61 C229 60 220 59 211 59 C166 61 160 71 160 116 L160 400 L235 400 L235 467 L160 467 L160 583 L79 583 L79 467 L17 467 L17 400 Z M281 560 L327 560 C325 533 321 514 314 503 C308 492 298 483 281 478 L281 431 C345 445 377 491 377 569 L377 662 L281 662 L281 560 Z " />
<glyph glyph-name="Tbar" unicode="&#x166;" horiz-adv-x="550" d="M113 427 L113 353 L230 353 L230 0 L320 0 L320 353 L434 353 L434 427 L320 427 L320 560 L530 560 L530 640 L19 640 L19 560 L230 560 L230 427 L113 427 Z " />
<glyph glyph-name="tbar" unicode="&#x167;" horiz-adv-x="273" d="M17 278 L17 207 L79 207 L79 122 C79 70 85 34 100 15 C113 -4 139 -14 177 -14 C184 -14 193 -13 207 -12 C220 -10 229 -10 235 -10 L235 61 C229 60 220 59 211 59 C190 59 175 63 168 72 C161 79 160 94 160 116 L160 207 L234 207 L234 278 L160 278 L160 400 L235 400 L235 467 L160 467 L160 583 L79 583 L79 467 L17 467 L17 400 L79 400 L79 278 L17 278 Z " />
<glyph glyph-name="Utilde" unicode="&#x168;" horiz-adv-x="613" d="M58 640 L58 232 C58 74 149 -14 307 -14 C464 -14 556 85 556 240 L556 640 L468 640 L468 240 C468 137 414 69 309 69 C202 69 149 127 149 242 L149 640 L58 640 Z M408 822 L461 822 C447 753 417 719 372 719 C360 719 341 724 318 734 C296 743 278 749 268 749 C254 749 243 738 234 719 L178 719 C194 788 224 822 271 822 C283 822 301 816 323 806 C345 796 363 791 375 791 C387 791 397 801 408 822 L408 822 Z " />
<glyph glyph-name="utilde" unicode="&#x169;" horiz-adv-x="483" d="M59 467 L59 167 C59 46 109 -14 211 -14 C281 -14 329 15 354 73 L354 0 L434 0 L434 467 L354 467 L354 230 C354 179 344 139 326 112 C303 78 271 61 230 61 C197 61 174 69 161 85 C146 102 140 131 140 170 L140 467 L59 467 Z M338 656 L391 656 C377 587 347 553 302 553 C290 553 271 558 248 568 C226 577 208 583 198 583 C184 583 173 572 164 553 L108 553 C124 622 154 656 201 656 C213 656 231 650 253 640 C275 630 293 625 305 625 C317 625 327 635 338 656 L338 656 Z " />
<glyph glyph-name="Umacron" unicode="&#x16a;" horiz-adv-x="615" d="M186 702 L186 770 L425 770 L425 702 L186 702 Z M58 640 L58 232 C58 74 149 -14 307 -14 C464 -14 556 85 556 240 L556 640 L468 640 L468 240 C468 137 414 69 309 69 C202 69 149 127 149 242 L149 640 L58 640 Z " />
<glyph glyph-name="umacron" unicode="&#x16b;" horiz-adv-x="483" d="M122 527 L122 595 L361 595 L361 527 L122 527 Z M59 467 L59 167 C59 46 109 -14 211 -14 C281 -14 329 15 354 73 L354 0 L434 0 L434 467 L354 467 L354 230 C354 179 344 139 326 112 C303 78 271 61 230 61 C197 61 174 69 161 85 C146 102 140 131 140 170 L140 467 L59 467 Z " />
<glyph glyph-name="Ubreve" unicode="&#x16c;" horiz-adv-x="615" d="M58 640 L58 232 C58 74 149 -14 307 -14 C464 -14 556 85 556 240 L556 640 L468 640 L468 240 C468 137 414 69 309 69 C202 69 149 127 149 242 L149 640 L58 640 Z M177 850 L232 850 C240 805 266 783 309 783 C353 783 380 805 387 850 L442 850 C436 763 392 719 314 719 C229 719 183 763 177 850 L177 850 Z " />
<glyph glyph-name="ubreve" unicode="&#x16d;" horiz-adv-x="483" d="M59 467 L59 167 C59 46 109 -14 211 -14 C281 -14 329 15 354 73 L354 0 L434 0 L434 467 L354 467 L354 230 C354 179 344 139 326 112 C303 78 271 61 230 61 C197 61 174 69 161 85 C146 102 140 131 140 170 L140 467 L59 467 Z M117 656 L172 656 C180 611 206 589 249 589 C293 589 320 611 327 656 L382 656 C376 569 332 525 254 525 C169 525 123 569 117 656 L117 656 Z " />
<glyph glyph-name="Uring" unicode="&#x16e;" horiz-adv-x="613" d="M58 640 L58 232 C58 74 149 -14 307 -14 C464 -14 556 85 556 240 L556 640 L468 640 L468 240 C468 137 414 69 309 69 C202 69 149 127 149 242 L149 640 L58 640 Z M312 882 C337 882 359 873 377 855 C395 838 404 815 404 790 C404 765 395 743 377 725 C359 707 338 697 312 697 C286 697 265 707 246 725 C228 743 219 765 219 790 C219 815 228 838 246 855 C265 873 287 882 312 882 L312 882 Z M312 835 C288 835 267 815 267 790 C267 778 271 767 280 758 C289 749 300 745 312 745 C336 745 356 765 356 790 C356 815 336 835 312 835 L312 835 Z " />
<glyph glyph-name="uring" unicode="&#x16f;" horiz-adv-x="483" d="M59 467 L59 167 C59 46 109 -14 211 -14 C281 -14 329 15 354 73 L354 0 L434 0 L434 467 L354 467 L354 230 C354 179 344 139 326 112 C303 78 271 61 230 61 C197 61 174 69 161 85 C146 102 140 131 140 170 L140 467 L59 467 Z M255 698 C280 698 302 689 320 671 C338 654 347 631 347 606 C347 581 338 559 320 541 C302 523 281 513 255 513 C229 513 208 523 189 541 C171 559 162 581 162 606 C162 631 171 654 189 671 C208 689 230 698 255 698 L255 698 Z M255 651 C231 651 210 631 210 606 C210 594 214 583 223 574 C232 565 243 561 255 561 C279 561 299 581 299 606 C299 631 279 651 255 651 L255 651 Z " />
<glyph glyph-name="Uhungarumlaut" unicode="&#x170;" horiz-adv-x="613" d="M58 640 L58 232 C58 74 149 -14 307 -14 C464 -14 556 85 556 240 L556 640 L468 640 L468 240 C468 137 414 69 309 69 C202 69 149 127 149 242 L149 640 L58 640 Z M262 846 L346 846 L260 718 L202 718 L262 846 Z M397 846 L481 846 L395 718 L337 718 L397 846 Z " />
<glyph glyph-name="uhungarumlaut" unicode="&#x171;" horiz-adv-x="483" d="M59 467 L59 167 C59 46 109 -14 211 -14 C281 -14 329 15 354 73 L354 0 L434 0 L434 467 L354 467 L354 230 C354 179 344 139 326 112 C303 78 271 61 230 61 C197 61 174 69 161 85 C146 102 140 131 140 170 L140 467 L59 467 Z M194 653 L278 653 L192 525 L134 525 L194 653 Z M329 653 L413 653 L327 525 L269 525 L329 653 Z " />
<glyph glyph-name="Uogonek" unicode="&#x172;" horiz-adv-x="613" d="M58 640 L58 232 C58 74 149 -14 307 -14 C464 -14 556 85 556 240 L556 640 L468 640 L468 240 C468 137 414 69 309 69 C202 69 149 127 149 242 L149 640 L58 640 Z M335 0 L396 0 C351 -22 327 -46 327 -73 C327 -101 344 -115 377 -115 C393 -115 408 -113 421 -107 L421 -167 C402 -175 381 -179 358 -179 C330 -179 306 -171 288 -155 C269 -138 260 -118 260 -93 C260 -57 285 -26 335 0 L335 0 Z " />
<glyph glyph-name="uogonek" unicode="&#x173;" horiz-adv-x="483" d="M59 467 L59 167 C59 46 109 -14 211 -14 C281 -14 329 15 354 73 L354 0 L434 0 L434 467 L354 467 L354 230 C354 179 344 139 326 112 C303 78 271 61 230 61 C197 61 174 69 161 85 C146 102 140 131 140 170 L140 467 L59 467 Z M371 0 L432 0 C387 -22 363 -46 363 -73 C363 -101 380 -115 413 -115 C429 -115 444 -113 457 -107 L457 -167 C438 -175 417 -179 394 -179 C366 -179 342 -171 324 -155 C305 -138 296 -118 296 -93 C296 -57 321 -26 371 0 L371 0 Z " />
<glyph glyph-name="Wcircumflex" unicode="&#x174;" horiz-adv-x="816" d="M164 0 L257 0 L402 599 L550 0 L640 0 L814 640 L719 640 L618 257 C607 207 599 164 593 130 L564 257 L449 640 L358 640 L243 257 C231 208 221 165 214 130 C204 190 196 233 190 257 L97 640 L0 640 L164 0 Z M357 846 L450 846 L535 718 L464 718 L402 782 L339 718 L269 718 L357 846 Z " />
<glyph glyph-name="wcircumflex" unicode="&#x175;" horiz-adv-x="632" d="M141 0 L222 0 L313 359 L403 0 L485 0 L625 467 L542 467 L468 198 C458 159 451 129 447 108 C438 158 431 188 428 198 L360 467 L270 467 L199 194 C190 156 184 125 180 104 C170 151 163 181 161 194 L93 467 L5 467 L141 0 Z M274 656 L367 656 L452 528 L381 528 L319 592 L256 528 L186 528 L274 656 Z " />
<glyph glyph-name="Ycircumflex" unicode="&#x176;" horiz-adv-x="586" d="M249 253 L249 0 L339 0 L339 253 L585 640 L480 640 L296 337 L104 640 L0 640 L249 253 Z M254 846 L347 846 L432 718 L361 718 L299 782 L236 718 L166 718 L254 846 Z " />
<glyph glyph-name="ycircumflex" unicode="&#x177;" horiz-adv-x="436" d="M96 467 L5 467 L178 -10 C161 -56 149 -85 139 -99 C130 -112 116 -119 98 -119 C84 -119 69 -115 50 -107 L50 -184 C73 -190 96 -192 117 -192 C151 -192 179 -177 201 -145 C215 -127 228 -96 244 -52 L430 467 L342 467 L221 97 L96 467 Z M181 656 L274 656 L359 528 L288 528 L226 592 L163 528 L93 528 L181 656 Z " />
<glyph glyph-name="Ydieresis" unicode="&#x178;" horiz-adv-x="588" d="M249 253 L249 0 L339 0 L339 253 L585 640 L480 640 L296 337 L104 640 L0 640 L249 253 Z M336 831 L336 727 L416 727 L416 831 L336 831 Z M185 727 L265 727 L265 831 L185 831 L185 727 Z " />
<glyph glyph-name="Zacute" unicode="&#x179;" horiz-adv-x="540" d="M10 0 L505 0 L505 80 L118 80 L505 562 L505 640 L38 640 L38 560 L395 560 L10 79 L10 0 Z M200 718 L265 718 L361 846 L259 846 L200 718 Z " />
<glyph glyph-name="zacute" unicode="&#x17a;" horiz-adv-x="429" d="M27 65 L27 0 L402 0 L402 73 L132 73 L395 404 L395 467 L46 467 L46 395 L291 395 L27 65 Z M153 527 L218 527 L314 655 L212 655 L153 527 Z " />
<glyph glyph-name="Zdotaccent" unicode="&#x17b;" horiz-adv-x="542" d="M10 0 L505 0 L505 80 L118 80 L505 562 L505 640 L38 640 L38 560 L395 560 L10 79 L10 0 Z M224 830 L306 830 L306 726 L224 726 L224 830 Z " />
<glyph glyph-name="zdotaccent" unicode="&#x17c;" horiz-adv-x="429" d="M27 65 L27 0 L402 0 L402 73 L132 73 L395 404 L395 467 L46 467 L46 395 L291 395 L27 65 Z M173 654 L255 654 L255 550 L173 550 L173 654 Z " />
<glyph glyph-name="Zcaron" unicode="&#x17d;" horiz-adv-x="540" d="M10 0 L505 0 L505 80 L118 80 L505 562 L505 640 L38 640 L38 560 L395 560 L10 79 L10 0 Z M317 719 L224 719 L137 847 L209 847 L271 783 L334 847 L403 847 L317 719 Z " />
<glyph glyph-name="zcaron" unicode="&#x17e;" horiz-adv-x="429" d="M27 65 L27 0 L402 0 L402 73 L132 73 L395 404 L395 467 L46 467 L46 395 L291 395 L27 65 Z M263 527 L170 527 L83 655 L155 655 L217 591 L280 655 L349 655 L263 527 Z " />
<glyph glyph-name="longs" unicode="&#x17f;" horiz-adv-x="303" d="M88 501 L88 0 L169 0 L169 514 C169 558 185 579 218 579 C223 579 235 577 249 573 L249 648 C225 651 209 652 198 652 C160 652 129 638 108 610 C95 593 88 557 88 501 L88 501 Z " />
<glyph glyph-name="florin" unicode="&#x192;" horiz-adv-x="487" d="M399 399 L387 342 L296 342 L235 7 C224 -55 210 -99 192 -123 C167 -161 127 -179 72 -179 C63 -179 45 -178 19 -177 L30 -106 C76 -106 106 -101 122 -86 C136 -73 147 -44 156 1 L218 342 L136 342 L147 399 L229 399 L246 498 C255 552 272 591 297 614 C321 637 358 648 407 648 C423 648 438 648 455 646 L443 577 L433 576 C393 572 366 567 354 559 C340 548 330 527 323 492 L304 399 L399 399 Z " />
<glyph glyph-name="Aringacute" unicode="&#x1fa;" horiz-adv-x="570" d="M246 640 L0 0 L95 0 L162 190 L408 190 L473 0 L570 0 L339 640 L295 640 C319 641 340 650 357 667 C375 686 384 708 384 734 C384 759 375 780 357 798 C339 816 317 825 291 825 C266 825 244 816 225 798 C208 780 199 759 199 734 C199 708 208 686 225 667 C243 650 263 641 287 640 L246 640 Z M190 262 L288 543 L383 262 L190 262 Z M310 973 L251 845 L317 845 L413 973 L310 973 Z M291 778 C315 778 335 759 335 734 C335 709 315 688 291 688 C279 688 269 692 260 701 C250 710 247 721 247 734 C247 758 267 778 291 778 L291 778 Z " />
<glyph glyph-name="aringacute" unicode="&#x1fb;" horiz-adv-x="502" d="M234 411 C302 411 337 380 337 318 L337 290 C278 284 240 280 220 277 C161 268 116 253 87 234 C50 209 32 174 32 128 C32 85 45 51 73 25 C101 -1 137 -14 182 -14 C241 -14 294 12 343 63 C349 12 374 -14 418 -14 C436 -14 454 -8 473 3 L473 67 C463 62 454 59 444 59 C425 59 417 76 417 109 L417 332 C417 386 400 425 366 449 C338 469 295 480 238 480 C172 480 124 463 92 429 C65 402 51 366 51 322 L130 322 C130 382 164 411 234 411 L234 411 Z M337 233 L337 169 C337 139 323 114 297 92 C270 70 239 59 202 59 C144 59 116 82 116 129 C116 161 132 184 164 198 C196 212 253 223 337 233 L337 233 Z M251 698 C225 698 203 689 185 671 C167 654 159 631 159 606 C159 581 167 559 185 541 C203 523 225 513 251 513 C277 513 298 523 315 541 C334 559 342 581 342 606 C342 631 334 654 315 671 C298 689 277 698 251 698 L251 698 Z M257 866 L198 739 L263 739 L360 866 L257 866 Z M251 651 C276 651 295 631 295 606 C295 581 276 561 251 561 C226 561 206 581 206 606 C206 631 226 651 251 651 L251 651 Z " />
<glyph glyph-name="AEacute" unicode="&#x1fc;" horiz-adv-x="860" d="M230 262 L366 557 L414 557 L414 262 L230 262 Z M326 638 L6 0 L103 0 L195 190 L414 190 L414 0 L832 0 L832 80 L504 80 L504 289 L800 289 L800 369 L504 369 L504 557 L827 557 L827 638 L326 638 Z M361 720 L426 720 L522 848 L420 848 L361 720 Z " />
<glyph glyph-name="aeacute" unicode="&#x1fd;" horiz-adv-x="645" d="M419 279 C430 363 472 405 543 405 C616 405 661 351 663 279 L419 279 Z M337 169 C337 141 323 115 296 93 C270 71 240 60 205 60 C156 60 125 87 125 132 C125 168 153 194 209 211 C225 216 268 222 337 233 L337 169 Z M396 418 C366 458 315 480 242 480 C128 480 61 428 58 321 L141 321 C145 378 178 407 241 407 C319 407 337 375 337 296 L211 278 C118 265 39 221 39 127 C39 39 99 -11 189 -11 C256 -11 331 28 365 87 C401 21 459 -11 539 -11 C640 -11 721 57 740 153 L656 153 C640 91 602 60 543 60 C462 60 420 109 414 207 L745 207 C746 222 747 237 747 249 C747 381 677 479 544 479 C488 479 439 458 396 418 L396 418 Z M164 529 L229 529 L325 657 L223 657 L164 529 Z " />
<glyph glyph-name="Oslashacute" unicode="&#x1fe;" horiz-adv-x="698" d="M524 466 C543 429 554 382 554 323 C554 179 489 69 341 69 C287 69 242 85 205 117 L524 466 Z M156 179 C135 215 126 262 126 318 C126 460 196 570 341 570 C396 570 439 555 471 527 L156 179 Z M534 591 C484 630 421 650 341 650 C142 650 34 506 34 315 C34 234 52 165 89 109 L6 20 L64 -31 L141 52 C184 11 249 -11 337 -11 C541 -11 646 137 646 326 C646 410 627 479 589 533 L668 618 L610 672 L534 591 Z M286 717 L351 717 L447 845 L345 845 L286 717 Z " />
<glyph glyph-name="oslashacute" unicode="&#x1ff;" horiz-adv-x="483" d="M385 318 C386 315 386 313 387 313 C393 296 396 271 396 238 C396 120 352 60 266 60 C237 60 211 70 189 88 L384 320 L385 318 Z M150 151 C141 180 137 209 137 238 C137 345 186 407 269 407 C302 407 327 398 343 382 L150 151 Z M398 439 C361 465 318 480 272 480 C123 479 52 371 52 226 C52 167 64 120 86 83 L12 0 L65 -46 L132 29 C169 2 212 -11 262 -11 C404 -11 482 96 482 234 C482 298 469 348 445 386 L518 470 L464 516 L398 439 Z M211 531 L276 531 L372 659 L270 659 L211 531 Z " />
<glyph glyph-name="Scommaaccent" unicode="&#x218;" horiz-adv-x="585" d="M39 214 L39 192 C39 55 125 -14 296 -14 C422 -14 545 45 545 179 C545 247 506 297 426 326 L223 402 C179 419 155 430 155 475 C155 542 229 571 291 571 C384 571 431 533 431 446 L524 446 C524 588 441 652 293 652 C176 652 63 593 63 467 C63 398 103 350 182 320 L377 248 C429 228 455 202 455 170 C455 94 371 69 301 69 C232 69 157 87 138 148 C134 160 133 181 132 214 L39 214 Z M236 -53 L332 -53 L332 -144 C332 -224 300 -270 236 -282 L236 -236 C253 -230 263 -222 269 -210 C276 -199 280 -180 282 -154 L236 -154 L236 -53 Z " />
<glyph glyph-name="scommaaccent" unicode="&#x219;" horiz-adv-x="443" d="M35 153 C35 46 102 -14 221 -14 C318 -14 409 35 409 140 C409 197 381 223 307 253 L171 308 C144 319 131 334 131 351 C131 392 182 407 220 407 C280 407 311 382 313 332 L396 332 C395 430 317 480 222 480 C135 480 47 435 47 343 C47 297 75 262 131 238 L278 175 C308 162 323 146 323 128 C323 88 283 61 222 61 C150 61 119 87 119 153 L35 153 Z M173 -46 L269 -46 L269 -137 C269 -217 237 -263 173 -275 L173 -229 C190 -223 200 -215 206 -203 C213 -192 217 -173 219 -147 L173 -147 L173 -46 Z " />
<glyph glyph-name="uni021A" unicode="&#x21a;" horiz-adv-x="550" d="M19 640 L19 560 L230 560 L230 0 L318 0 L318 560 L530 560 L530 640 L19 640 Z M252 0 L195 -80 L213 -99 C225 -94 238 -91 249 -91 C279 -91 296 -102 296 -125 C296 -150 279 -162 248 -162 C225 -162 201 -159 175 -149 L158 -185 C192 -199 224 -205 254 -205 C288 -205 316 -198 337 -182 C359 -167 369 -147 369 -122 C369 -80 337 -53 287 -53 C278 -53 266 -55 254 -59 L295 0 L252 0 Z " />
<glyph glyph-name="uni021B" unicode="&#x21b;" horiz-adv-x="259" d="M17 400 L79 400 L79 122 C79 34 91 -14 177 -14 C180 -14 235 -10 235 -10 L235 61 C229 60 220 59 211 59 C166 61 160 71 160 116 L160 400 L235 400 L235 467 L160 467 L160 583 L79 583 L79 467 L17 467 L17 400 Z M135 0 L78 -80 L96 -99 C108 -94 121 -91 132 -91 C162 -91 179 -102 179 -125 C179 -150 162 -162 131 -162 C108 -162 84 -159 58 -149 L41 -185 C75 -199 107 -205 137 -205 C171 -205 199 -198 220 -182 C242 -167 252 -147 252 -122 C252 -80 220 -53 170 -53 C161 -53 149 -55 137 -59 L178 0 L135 0 Z " />
<glyph glyph-name="circumflex" unicode="&#x2c6;" horiz-adv-x="292" d="M100 656 L193 656 L278 528 L207 528 L145 592 L82 528 L12 528 L100 656 Z " />
<glyph glyph-name="caron" unicode="&#x2c7;" horiz-adv-x="292" d="M192 528 L99 528 L12 656 L84 656 L146 592 L209 656 L278 656 L192 528 Z " />
<glyph glyph-name="breve" unicode="&#x2d8;" horiz-adv-x="292" d="M13 656 L68 656 C76 611 102 589 145 589 C189 589 216 611 223 656 L278 656 C272 569 228 525 150 525 C65 525 19 569 13 656 L13 656 Z " />
<glyph glyph-name="dotaccent" unicode="&#x2d9;" horiz-adv-x="292" d="M105 656 L187 656 L187 552 L105 552 L105 656 Z " />
<glyph glyph-name="ring" unicode="&#x2da;" horiz-adv-x="292" d="M146 698 C171 698 193 689 211 671 C229 654 238 631 238 606 C238 581 229 559 211 541 C193 523 172 513 146 513 C120 513 99 523 80 541 C62 559 53 581 53 606 C53 631 62 654 80 671 C99 689 121 698 146 698 L146 698 Z M146 651 C122 651 101 631 101 606 C101 594 105 583 114 574 C123 565 134 561 146 561 C170 561 190 581 190 606 C190 631 170 651 146 651 L146 651 Z " />
<glyph glyph-name="ogonek" unicode="&#x2db;" horiz-adv-x="292" d="M140 0 L201 0 C156 -22 132 -46 132 -73 C132 -101 149 -115 182 -115 C198 -115 213 -113 226 -107 L226 -167 C207 -175 186 -179 163 -179 C135 -179 111 -171 93 -155 C74 -138 65 -118 65 -93 C65 -57 90 -26 140 0 L140 0 Z " />
<glyph glyph-name="tilde" unicode="&#x2dc;" horiz-adv-x="292" d="M233 656 L286 656 C272 587 242 553 197 553 C185 553 166 558 143 568 C121 577 103 583 93 583 C79 583 68 572 59 553 L3 553 C19 622 49 656 96 656 C108 656 126 650 148 640 C170 630 188 625 200 625 C212 625 222 635 233 656 L233 656 Z " />
<glyph glyph-name="hungarumlaut" unicode="&#x2dd;" horiz-adv-x="292" d="M66 656 L150 656 L64 528 L6 528 L66 656 Z M201 656 L285 656 L199 528 L141 528 L201 656 Z " />
<glyph glyph-name="tonos" unicode="&#x384;" horiz-adv-x="253" d="M110 730 L215 730 L116 602 L50 602 L110 730 Z " />
<glyph glyph-name="dieresistonos" unicode="&#x385;" horiz-adv-x="454" d="M72 646 L152 646 L152 543 L72 543 L72 646 Z M331 646 L331 543 L250 543 L250 646 L331 646 Z M166 717 L219 833 L312 833 L227 717 L166 717 Z " />
<glyph glyph-name="Alphatonos" unicode="&#x386;" horiz-adv-x="634" d="M228 262 L421 262 L326 543 L228 262 Z M284 640 L377 640 L608 0 L511 0 L446 190 L200 190 L133 0 L38 0 L284 640 Z M59 381 L41 640 L126 640 L108 381 L59 381 Z " />
<glyph glyph-name="anoteleia" unicode="&#x387;" horiz-adv-x="269" d="M136 446 C165 446 189 423 189 394 C189 365 165 341 136 341 C107 341 84 365 84 394 C84 423 107 446 136 446 L136 446 Z " />
<glyph glyph-name="Epsilontonos" unicode="&#x388;" horiz-adv-x="681" d="M172 640 L631 640 L631 560 L260 560 L260 371 L604 371 L604 291 L260 291 L260 80 L631 80 L631 0 L172 0 L172 640 Z M47 381 L29 640 L114 640 L96 381 L47 381 Z " />
<glyph glyph-name="Etatonos" unicode="&#x389;" horiz-adv-x="722" d="M273 640 L273 377 L572 377 L572 640 L663 640 L663 0 L572 0 L572 296 L273 296 L273 0 L182 0 L182 640 L273 640 Z M60 381 L42 640 L127 640 L109 381 L60 381 Z " />
<glyph glyph-name="Iotatonos" unicode="&#x38a;" horiz-adv-x="334" d="M167 640 L167 0 L258 0 L258 640 L167 640 Z M51 381 L33 640 L118 640 L100 381 L51 381 Z " />
<glyph glyph-name="Omicrontonos" unicode="&#x38c;" horiz-adv-x="826" d="M465 -14 C670 -14 779 135 779 326 C779 518 665 652 471 652 C270 652 159 512 159 314 C159 123 271 -14 465 -14 L465 -14 Z M469 69 C324 69 252 175 252 316 C252 461 319 571 469 571 C614 571 688 468 688 326 C688 179 621 69 469 69 L469 69 Z M60 381 L42 640 L127 640 L109 381 L60 381 Z " />
<glyph glyph-name="Upsilontonos" unicode="&#x38e;" horiz-adv-x="754" d="M409 253 L409 0 L499 0 L499 253 L745 640 L640 640 L456 337 L264 640 L160 640 L409 253 Z M60 381 L42 640 L127 640 L109 381 L60 381 Z " />
<glyph glyph-name="Omegatonos" unicode="&#x38f;" horiz-adv-x="862" d="M476 650 C570 650 645 621 700 562 C755 504 783 425 783 325 C783 195 735 112 640 77 L790 77 L790 0 L532 0 L532 67 C583 79 622 107 650 152 C678 197 692 255 692 325 C692 401 672 460 634 504 C595 548 542 570 474 570 C406 570 354 548 315 504 C277 460 257 401 257 325 C257 255 271 198 298 153 C326 107 366 79 416 67 L416 0 L159 0 L159 77 L308 77 C213 112 165 195 165 325 C165 425 194 504 250 563 C305 621 380 650 476 650 L476 650 Z M57 381 L39 640 L124 640 L106 381 L57 381 Z " />
<glyph glyph-name="iotadieresistonos" unicode="&#x390;" horiz-adv-x="260" d="M82 122 L82 468 L162 468 L162 115 C162 93 165 77 173 70 C180 63 193 59 213 59 L240 59 L240 -9 C214 -11 195 -13 182 -13 C143 -13 117 -3 102 15 C89 35 82 70 82 122 L82 122 Z M-4 646 L76 646 L76 543 L-4 543 L-4 646 Z M255 646 L255 543 L174 543 L174 646 L255 646 Z M90 717 L143 833 L236 833 L151 717 L90 717 Z " />
<glyph glyph-name="Alpha" unicode="&#x391;" horiz-adv-x="570" d="M190 262 L383 262 L288 543 L190 262 Z M246 640 L339 640 L570 0 L473 0 L408 190 L162 190 L95 0 L0 0 L246 640 Z " />
<glyph glyph-name="Beta" unicode="&#x392;" horiz-adv-x="591" d="M175 293 L175 80 L318 80 C419 80 469 116 469 187 C469 257 421 293 328 293 L175 293 Z M561 185 C561 118 538 69 492 36 C459 12 405 0 328 0 L84 0 L84 640 L320 640 C390 640 440 629 471 604 C512 572 534 529 534 475 C534 412 506 368 450 345 C484 335 511 315 531 285 C551 256 561 222 561 185 L561 185 Z M442 463 C442 533 406 560 316 560 L175 560 L175 373 L323 373 C402 373 442 403 442 463 L442 463 Z " />
<glyph glyph-name="Gamma" unicode="&#x393;" horiz-adv-x="524" d="M166 560 L166 0 L77 0 L77 640 L483 640 L483 560 L166 560 Z " />
<glyph glyph-name="Epsilon" unicode="&#x395;" horiz-adv-x="591" d="M78 640 L537 640 L537 560 L166 560 L166 371 L510 371 L510 291 L166 291 L166 80 L537 80 L537 0 L78 0 L78 640 Z " />
<glyph glyph-name="Zeta" unicode="&#x396;" horiz-adv-x="541" d="M22 0 L517 0 L517 80 L130 80 L517 562 L517 640 L50 640 L50 560 L407 560 L22 79 L22 0 Z " />
<glyph glyph-name="Eta" unicode="&#x397;" horiz-adv-x="640" d="M167 640 L167 377 L466 377 L466 640 L557 640 L557 0 L466 0 L466 296 L167 296 L167 0 L76 0 L76 640 L167 640 Z " />
<glyph glyph-name="Theta" unicode="&#x398;" horiz-adv-x="691" d="M501 283 L501 351 L189 351 L189 283 L501 283 Z M125 314 C125 462 193 570 342 570 C486 570 560 466 560 325 C560 178 494 67 342 67 C199 67 125 169 125 314 L125 314 Z M32 312 C32 118 147 -14 339 -14 C543 -14 651 131 651 325 C651 517 538 650 344 650 C147 650 32 513 32 312 L32 312 Z " />
<glyph glyph-name="Iota" unicode="&#x399;" horiz-adv-x="250" d="M77 640 L77 0 L168 0 L168 640 L77 640 Z " />
<glyph glyph-name="Kappa" unicode="&#x39a;" horiz-adv-x="601" d="M75 640 L75 0 L166 0 L166 190 L258 285 L478 0 L584 0 L318 348 L579 640 L465 640 L166 302 L166 640 L75 640 Z " />
<glyph glyph-name="Lambda" unicode="&#x39b;" horiz-adv-x="591" d="M0 0 L247 640 L338 640 L586 0 L487 0 L294 539 L99 0 L0 0 Z " />
<glyph glyph-name="Mu" unicode="&#x39c;" horiz-adv-x="742" d="M77 640 L203 640 L366 105 L528 640 L654 640 L654 0 L564 0 L564 514 L407 0 L323 0 L166 515 L166 0 L77 0 L77 640 Z " />
<glyph glyph-name="Nu" unicode="&#x39d;" horiz-adv-x="640" d="M78 0 L166 0 L166 507 L459 0 L557 0 L557 640 L468 640 L468 137 L177 640 L78 640 L78 0 Z " />
<glyph glyph-name="Xi" unicode="&#x39e;" horiz-adv-x="515" d="M24 80 L482 80 L482 0 L22 0 L24 80 Z M81 291 L81 372 L425 372 L425 291 L81 291 Z M24 560 L24 640 L483 640 L483 560 L24 560 Z " />
<glyph glyph-name="Omicron" unicode="&#x39f;" horiz-adv-x="691" d="M336 -14 C541 -14 650 135 650 326 C650 518 536 652 342 652 C141 652 30 512 30 314 C30 123 142 -14 336 -14 L336 -14 Z M340 69 C195 69 123 175 123 316 C123 461 190 571 340 571 C485 571 559 468 559 326 C559 179 492 69 340 69 L340 69 Z " />
<glyph glyph-name="Pi" unicode="&#x3a0;" horiz-adv-x="640" d="M469 0 L559 0 L559 640 L79 640 L79 0 L169 0 L169 560 L469 560 L469 0 Z " />
<glyph glyph-name="Rho" unicode="&#x3a1;" horiz-adv-x="591" d="M75 0 L166 0 L166 250 L331 250 C458 250 554 322 554 450 C554 587 448 640 320 640 L75 640 L75 0 Z M166 331 L166 560 L320 560 C414 560 461 523 461 449 C461 370 409 331 304 331 L166 331 Z " />
<glyph glyph-name="Sigma" unicode="&#x3a3;" horiz-adv-x="529" d="M366 321 L130 70 L506 70 L506 1 L29 1 L29 69 L261 321 L29 572 L29 640 L507 640 L507 571 L131 571 L366 321 Z " />
<glyph glyph-name="Tau" unicode="&#x3a4;" horiz-adv-x="550" d="M19 640 L19 560 L230 560 L230 0 L318 0 L318 560 L530 560 L530 640 L19 640 Z " />
<glyph glyph-name="Upsilon" unicode="&#x3a5;" horiz-adv-x="591" d="M249 253 L249 0 L339 0 L339 253 L585 640 L480 640 L296 337 L104 640 L0 640 L249 253 Z " />
<glyph glyph-name="Phi" unicode="&#x3a6;" horiz-adv-x="777" d="M434 650 C527 651 603 621 660 562 C718 502 746 423 746 323 C746 224 719 144 665 82 C608 18 532 -14 434 -14 L434 -129 L344 -129 L344 -14 C250 -15 175 15 118 74 C60 133 32 214 32 314 C32 418 60 500 116 560 C172 620 249 650 344 650 L344 766 L434 766 L434 650 Z M434 570 L434 66 C503 66 556 88 595 133 C633 178 653 242 653 323 C653 398 633 458 594 503 C554 547 501 570 434 570 L434 570 Z M344 570 C277 570 222 547 184 502 C144 457 125 395 125 314 C125 238 145 178 184 132 C223 88 278 66 344 66 L344 570 Z " />
<glyph glyph-name="Chi" unicode="&#x3a7;" horiz-adv-x="591" d="M112 0 L294 259 L470 0 L579 0 L351 330 L565 640 L462 640 L293 396 L132 640 L24 640 L241 326 L8 0 L112 0 Z " />
<glyph glyph-name="Psi" unicode="&#x3a8;" horiz-adv-x="774" d="M431 640 L432 206 C497 206 542 218 568 241 C594 263 606 303 606 361 L606 640 L696 640 L696 352 C696 269 675 210 631 175 C592 141 525 125 432 125 L431 0 L342 0 L342 125 C249 125 182 141 141 175 C99 210 77 269 77 352 L77 640 L166 640 L166 361 C166 304 180 263 205 241 C231 218 278 206 342 206 L342 640 L431 640 Z " />
<glyph glyph-name="&amp;#x3a9;" unicode="&#x3a9;" horiz-adv-x="702" d="M355 650 C449 650 524 621 579 562 C634 504 662 425 662 325 C662 195 614 112 519 77 L669 77 L669 0 L411 0 L411 67 C462 79 501 107 529 152 C557 197 571 255 571 325 C571 401 551 460 513 504 C474 548 421 570 353 570 C285 570 233 548 194 504 C156 460 136 401 136 325 C136 255 150 198 178 153 C205 107 245 79 295 67 L295 0 L38 0 L38 77 L187 77 C92 112 44 195 44 325 C44 425 73 504 128 563 C184 621 259 650 355 650 L355 650 Z " />
<glyph glyph-name="&amp;#x2126;" unicode="&#x2126;" horiz-adv-x="702" d="M355 650 C449 650 524 621 579 562 C634 504 662 425 662 325 C662 195 614 112 519 77 L669 77 L669 0 L411 0 L411 67 C462 79 501 107 529 152 C557 197 571 255 571 325 C571 401 551 460 513 504 C474 548 421 570 353 570 C285 570 233 548 194 504 C156 460 136 401 136 325 C136 255 150 198 178 153 C205 107 245 79 295 67 L295 0 L38 0 L38 77 L187 77 C92 112 44 195 44 325 C44 425 73 504 128 563 C184 621 259 650 355 650 L355 650 Z " />
<glyph glyph-name="Iotadieresis" unicode="&#x3aa;" horiz-adv-x="250" d="M77 640 L77 0 L168 0 L168 640 L77 640 Z M160 823 L160 719 L240 719 L240 823 L160 823 Z M9 719 L89 719 L89 823 L9 823 L9 719 Z " />
<glyph glyph-name="Upsilondieresis" unicode="&#x3ab;" horiz-adv-x="591" d="M249 253 L249 0 L339 0 L339 253 L585 640 L480 640 L296 337 L104 640 L0 640 L249 253 Z M332 823 L332 719 L412 719 L412 823 L332 823 Z M181 719 L261 719 L261 823 L181 823 L181 719 Z " />
<glyph glyph-name="alphatonos" unicode="&#x3ac;" horiz-adv-x="553" d="M255 406 C171 406 129 349 129 234 C129 120 171 62 255 62 C343 62 388 120 388 234 C388 291 375 335 350 364 C327 392 295 406 255 406 L255 406 Z M473 468 L473 105 C473 73 483 56 502 56 C503 56 514 58 524 58 L524 -3 C505 -11 488 -14 475 -14 C422 -14 395 15 394 73 C380 51 360 32 335 15 C306 -4 278 -14 253 -14 C186 -14 133 11 96 59 C61 103 44 161 44 235 C44 314 64 375 103 420 C141 460 191 481 253 481 C279 481 307 470 336 451 C362 432 378 415 385 397 L385 468 L473 468 Z M208 537 L273 537 L369 665 L267 665 L208 537 Z " />
<glyph glyph-name="epsilontonos" unicode="&#x3ad;" horiz-adv-x="463" d="M137 357 C137 313 177 291 257 291 L257 224 C169 224 125 196 125 139 C125 84 161 57 231 57 C259 57 282 66 303 82 C323 101 334 121 334 144 L420 144 C420 100 404 63 374 35 C339 2 289 -14 224 -14 C101 -14 40 38 40 141 C40 197 68 237 125 262 C104 268 87 281 74 300 C61 319 55 341 55 366 C55 397 68 423 94 443 C125 468 169 481 228 481 C285 481 329 465 360 437 C387 411 401 378 401 338 L315 338 C315 356 308 371 292 386 C276 403 254 411 228 411 C197 411 174 405 159 395 C144 384 137 371 137 357 L137 357 Z M174 536 L239 536 L335 664 L233 664 L174 536 Z " />
<glyph glyph-name="etatonos" unicode="&#x3ae;" horiz-adv-x="491" d="M442 298 L442 -192 L362 -192 L362 284 C362 329 354 361 340 379 C326 397 302 407 268 407 C217 407 174 377 158 334 C151 317 148 288 148 246 L148 0 L68 0 L68 384 C68 398 61 406 48 410 C42 412 29 413 11 413 L11 471 C42 478 68 481 90 481 C108 481 123 473 133 457 C143 444 148 426 148 407 C169 435 191 454 214 465 C235 475 261 481 292 481 C325 481 353 473 378 457 C403 442 420 422 429 396 C438 374 442 341 442 298 L442 298 Z M208 552 L273 552 L369 680 L267 680 L208 552 Z " />
<glyph glyph-name="iotatonos" unicode="&#x3af;" horiz-adv-x="237" d="M60 122 L60 468 L140 468 L140 115 C140 93 143 77 151 70 C158 63 171 59 191 59 L218 59 L218 -9 C192 -11 173 -13 160 -13 C121 -13 95 -3 80 15 C67 35 60 70 60 122 L60 122 Z M63 548 L128 548 L224 676 L122 676 L63 548 Z " />
<glyph glyph-name="upsilondieresistonos" unicode="&#x3b0;" horiz-adv-x="483" d="M241 -14 C180 -14 132 3 101 37 C71 68 55 111 55 165 L55 468 L136 468 L136 171 C136 95 171 57 241 57 C310 57 345 95 345 171 L345 468 L425 468 L425 165 C425 111 411 68 381 37 C348 3 302 -14 241 -14 L241 -14 Z M112 638 L192 638 L192 535 L112 535 L112 638 Z M371 638 L371 535 L290 535 L290 638 L371 638 Z M206 709 L259 825 L352 825 L267 709 L206 709 Z " />
<glyph glyph-name="alpha" unicode="&#x3b1;" horiz-adv-x="553" d="M255 406 C171 406 129 349 129 234 C129 120 171 62 255 62 C343 62 388 120 388 234 C388 331 344 406 255 406 L255 406 Z M473 468 L473 105 C473 73 483 56 502 56 C503 56 514 58 524 58 L524 -3 C505 -11 488 -14 475 -14 C422 -14 395 15 394 73 C380 51 360 32 335 15 C306 -4 278 -14 253 -14 C111 -14 44 99 44 235 C44 372 112 481 253 481 C299 481 365 448 385 397 L385 468 L473 468 Z " />
<glyph glyph-name="beta" unicode="&#x3b2;" horiz-adv-x="508" d="M259 -14 C211 -14 169 4 133 40 L133 -192 L53 -192 L53 501 C53 536 64 566 87 594 C118 632 166 652 232 652 C367 652 435 600 435 495 C435 462 425 433 407 407 C389 380 364 364 335 358 C372 348 404 327 429 295 C454 262 467 227 467 190 C467 128 449 78 411 41 C374 5 324 -14 259 -14 L259 -14 Z M256 58 C302 59 334 69 352 88 C370 107 380 142 380 191 C380 274 316 317 188 317 L188 381 C295 381 349 418 349 490 C349 515 339 537 321 553 C302 571 274 580 239 580 C168 580 133 545 133 478 L133 148 C133 119 146 96 173 79 C196 65 224 58 256 58 L256 58 Z " />
<glyph glyph-name="gamma" unicode="&#x3b3;" horiz-adv-x="502" d="M160 402 L285 100 L416 468 L498 468 L322 0 L322 -192 L249 -192 L249 0 L80 393 C73 409 55 417 27 417 L27 481 C71 481 100 477 113 469 C129 460 144 438 160 402 L160 402 Z " />
<glyph glyph-name="delta" unicode="&#x3b4;" horiz-adv-x="503" d="M123 234 C123 129 169 62 249 62 C334 62 376 120 376 234 C376 338 331 407 248 407 C166 407 123 338 123 234 L123 234 Z M302 476 C399 451 461 353 461 234 C461 84 379 -14 249 -14 C116 -14 37 84 37 234 C37 365 93 454 204 468 L53 582 L53 652 L415 652 L415 582 L158 582 L302 476 Z " />
<glyph glyph-name="epsilon" unicode="&#x3b5;" horiz-adv-x="456" d="M137 357 C137 313 177 291 257 291 L257 224 C169 224 125 196 125 139 C125 84 161 57 231 57 C286 57 334 98 334 144 L420 144 C420 47 343 -14 224 -14 C101 -14 40 38 40 141 C40 197 68 237 125 262 C81 275 55 319 55 366 C55 435 124 481 228 481 C334 481 401 424 401 338 L315 338 C315 375 277 411 228 411 C166 411 137 386 137 357 L137 357 Z " />
<glyph glyph-name="zeta" unicode="&#x3b6;" horiz-adv-x="483" d="M263 -14 C112 -14 45 55 45 217 C45 340 213 522 363 582 L98 582 L98 652 L459 652 L459 581 C282 502 132 351 132 226 C132 102 166 57 263 57 C396 57 456 26 456 -71 C456 -102 443 -138 417 -181 L341 -181 C368 -139 382 -105 382 -78 C382 -36 342 -14 263 -14 L263 -14 Z " />
<glyph glyph-name="eta" unicode="&#x3b7;" horiz-adv-x="491" d="M442 298 L442 -192 L362 -192 L362 284 C362 373 336 407 268 407 C184 407 148 353 148 246 L148 0 L68 0 L68 384 C68 407 55 413 11 413 L11 471 C42 478 68 481 90 481 C124 481 148 447 148 407 C188 460 227 481 292 481 C395 481 442 418 442 298 L442 298 Z " />
<glyph glyph-name="theta" unicode="&#x3b8;" horiz-adv-x="550" d="M63 323 C63 554 127 653 278 653 C425 653 492 556 492 323 C492 92 425 -14 278 -14 C126 -14 63 93 63 323 L63 323 Z M411 286 L143 286 C143 133 188 57 278 57 C366 57 411 133 411 286 L411 286 Z M411 360 C411 507 366 581 278 581 C188 581 143 507 143 360 L411 360 Z " />
<glyph glyph-name="iota" unicode="&#x3b9;" horiz-adv-x="235" d="M60 122 L60 468 L140 468 L140 115 C140 93 143 77 151 70 C158 63 171 59 191 59 L218 59 L218 -9 C192 -11 173 -13 160 -13 C121 -13 95 -3 80 15 C67 35 60 70 60 122 L60 122 Z " />
<glyph glyph-name="kappa" unicode="&#x3ba;" horiz-adv-x="445" d="M58 468 L139 468 L139 279 L330 468 L435 468 L256 294 L438 0 L340 0 L201 239 L139 179 L139 0 L58 0 L58 468 Z " />
<glyph glyph-name="lambda" unicode="&#x3bb;" horiz-adv-x="505" d="M363 60 L253 366 L103 0 L17 0 L217 469 L183 566 C178 582 158 590 123 590 L123 652 C164 652 192 649 207 644 C230 634 248 612 259 578 L439 77 C446 57 464 47 494 47 L494 -14 C449 -14 420 -10 405 -3 C389 6 374 26 363 60 L363 60 Z " />
<glyph glyph-name="nu" unicode="&#x3bd;" horiz-adv-x="449" d="M99 467 L11 467 L178 0 L259 0 L433 467 L344 467 L222 99 L99 467 Z " />
<glyph glyph-name="xi" unicode="&#x3be;" horiz-adv-x="474" d="M332 -181 L408 -181 C434 -144 447 -107 447 -70 C447 28 384 57 246 57 C160 57 126 96 126 198 C126 289 176 315 370 315 L370 384 L263 384 C200 392 174 417 174 468 C174 538 226 582 302 582 L439 582 L439 652 L77 652 L77 582 L188 582 C134 582 88 526 88 468 C88 420 126 367 175 350 C96 334 41 268 41 193 C41 51 103 -14 249 -14 C332 -14 373 -35 373 -76 C373 -103 360 -137 332 -181 L332 -181 Z " />
<glyph glyph-name="omicron" unicode="&#x3bf;" horiz-adv-x="497" d="M37 233 C37 91 107 -14 249 -14 C391 -14 461 96 461 233 C461 373 393 480 249 480 C103 480 37 373 37 233 L37 233 Z M249 61 C168 61 123 125 123 233 C123 343 168 407 249 407 C340 407 374 324 374 238 C374 125 329 61 249 61 L249 61 Z " />
<glyph glyph-name="pi" unicode="&#x3c0;" horiz-adv-x="549" d="M370 399 L158 399 L158 0 L77 0 L77 399 L16 399 L16 468 L513 468 L513 399 L451 399 L451 115 C451 93 454 77 461 70 C468 63 482 59 502 59 L528 59 L528 -9 C503 -11 483 -13 469 -13 C431 -13 404 -3 391 15 C377 35 370 70 370 122 L370 399 Z " />
<glyph glyph-name="rho" unicode="&#x3c1;" horiz-adv-x="511" d="M53 226 C53 390 125 481 259 481 C397 481 471 381 471 233 C471 84 395 -13 259 -13 C218 -13 176 7 133 47 L133 -192 L53 -192 L53 226 Z M133 233 C133 129 178 61 259 61 C340 61 385 124 385 237 C385 342 340 407 259 407 C178 407 133 339 133 233 L133 233 Z " />
<glyph glyph-name="uni03C2" unicode="&#x3c2;" horiz-adv-x="486" d="M253 -14 C116 -14 41 71 41 223 C41 383 127 481 261 481 C368 481 449 410 449 302 L367 302 C367 366 318 409 256 409 C172 409 126 337 126 236 C126 122 173 57 253 57 C386 57 446 26 446 -71 C446 -102 433 -138 407 -181 L332 -181 C359 -138 372 -104 372 -78 C372 -36 333 -14 253 -14 L253 -14 Z " />
<glyph glyph-name="sigma" unicode="&#x3c3;" horiz-adv-x="533" d="M388 404 C433 365 456 308 456 233 C456 84 379 -13 244 -13 C111 -13 31 83 31 233 C31 383 110 481 244 481 C266 481 288 478 311 471 L511 471 L511 404 L388 404 Z M117 233 C117 124 164 61 244 61 C325 61 370 124 370 237 C370 342 324 407 244 407 C164 407 117 343 117 233 L117 233 Z " />
<glyph glyph-name="tau" unicode="&#x3c4;" horiz-adv-x="425" d="M252 401 L252 115 C252 93 255 77 262 70 C270 63 282 59 303 59 L330 59 L330 -9 C304 -11 284 -13 272 -13 C233 -13 207 -3 192 16 C179 35 172 71 172 122 L172 401 L21 401 L21 468 L403 468 L403 401 L252 401 Z " />
<glyph glyph-name="upsilon" unicode="&#x3c5;" horiz-adv-x="483" d="M241 -14 C180 -14 132 3 101 37 C71 68 55 111 55 165 L55 468 L136 468 L136 171 C136 95 171 57 241 57 C310 57 345 95 345 171 L345 468 L425 468 L425 165 C425 111 411 68 381 37 C348 3 302 -14 241 -14 L241 -14 Z " />
<glyph glyph-name="phi" unicode="&#x3c6;" horiz-adv-x="624" d="M270 -14 C117 -14 37 81 37 233 C37 386 116 481 270 481 L270 604 L350 604 L350 481 C503 481 584 392 584 236 C584 84 505 -14 350 -14 L350 -181 L270 -181 L270 -14 Z M350 61 C449 61 498 120 498 237 C498 349 449 405 350 405 L350 61 Z M270 61 L270 405 C171 405 122 348 122 233 C122 119 171 61 270 61 L270 61 Z " />
<glyph glyph-name="chi" unicode="&#x3c7;" horiz-adv-x="436" d="M381 -111 C387 -124 404 -131 431 -131 L431 -192 C390 -192 361 -188 344 -178 C330 -168 314 -147 299 -114 L206 80 L84 -181 L1 -181 L166 167 L62 393 C54 410 36 419 8 419 L8 481 C50 481 79 476 96 465 C110 456 126 435 140 402 L207 257 L307 468 L387 468 L248 169 L381 -111 Z " />
<glyph glyph-name="psi" unicode="&#x3c8;" horiz-adv-x="689" d="M382 70 C495 70 551 110 551 190 L551 468 L631 468 L631 167 C631 121 614 84 579 54 C536 18 470 0 382 0 L382 -183 L302 -183 L302 0 C214 0 148 18 105 54 C71 84 53 121 53 167 L53 468 L133 468 L133 190 C133 110 190 70 302 70 L302 640 L382 640 L382 70 Z " />
<glyph glyph-name="omega" unicode="&#x3c9;" horiz-adv-x="731" d="M365 76 C338 17 294 -13 230 -13 C111 -13 37 86 37 228 C37 328 69 408 133 468 L220 468 C155 414 122 334 122 228 C122 116 173 57 246 57 C292 57 325 95 325 146 L325 325 L405 325 L405 146 C405 95 438 57 483 57 C559 57 607 119 607 228 C607 333 575 413 511 468 L597 468 C661 407 693 327 693 228 C693 86 619 -13 500 -13 C437 -13 392 17 365 76 L365 76 Z " />
<glyph glyph-name="iotadieresis" unicode="&#x3ca;" horiz-adv-x="305" d="M112 122 L112 468 L192 468 L192 115 C192 93 195 77 203 70 C210 63 223 59 243 59 L270 59 L270 -9 C244 -11 225 -13 212 -13 C173 -13 147 -3 132 15 C119 35 112 70 112 122 L112 122 Z M190 645 L190 541 L270 541 L270 645 L190 645 Z M39 541 L119 541 L119 645 L39 645 L39 541 Z " />
<glyph glyph-name="upsilondieresis" unicode="&#x3cb;" horiz-adv-x="483" d="M241 -14 C180 -14 132 3 101 37 C71 68 55 111 55 165 L55 468 L136 468 L136 171 C136 95 171 57 241 57 C310 57 345 95 345 171 L345 468 L425 468 L425 165 C425 111 411 68 381 37 C348 3 302 -14 241 -14 L241 -14 Z M275 638 L275 534 L355 534 L355 638 L275 638 Z M124 534 L204 534 L204 638 L124 638 L124 534 Z " />
<glyph glyph-name="omicrontonos" unicode="&#x3cc;" horiz-adv-x="491" d="M37 233 C37 91 107 -14 249 -14 C391 -14 461 96 461 233 C461 373 393 480 249 480 C103 480 37 373 37 233 L37 233 Z M249 61 C168 61 123 125 123 233 C123 343 168 407 249 407 C340 407 374 324 374 238 C374 125 329 61 249 61 L249 61 Z M196 533 L261 533 L357 661 L255 661 L196 533 Z " />
<glyph glyph-name="upsilontonos" unicode="&#x3cd;" horiz-adv-x="483" d="M241 -14 C180 -14 132 3 101 37 C71 68 55 111 55 165 L55 468 L136 468 L136 171 C136 95 171 57 241 57 C310 57 345 95 345 171 L345 468 L425 468 L425 165 C425 111 411 68 381 37 C348 3 302 -14 241 -14 L241 -14 Z M192 532 L257 532 L353 660 L251 660 L192 532 Z " />
<glyph glyph-name="omegatonos" unicode="&#x3ce;" horiz-adv-x="731" d="M365 76 C338 17 294 -13 230 -13 C111 -13 37 86 37 228 C37 328 69 408 133 468 L220 468 C155 414 122 334 122 228 C122 116 173 57 246 57 C292 57 325 95 325 146 L325 325 L405 325 L405 146 C405 95 438 57 483 57 C559 57 607 119 607 228 C607 333 575 413 511 468 L597 468 C661 407 693 327 693 228 C693 86 619 -13 500 -13 C437 -13 392 17 365 76 L365 76 Z M338 570 L403 570 L499 698 L397 698 L338 570 Z " />
<glyph glyph-name="afii10023" unicode="&#x401;" horiz-adv-x="561" d="M164 367 L164 568 L535 568 L535 640 L78 640 L78 0 L545 0 L545 72 L164 72 L164 295 L500 295 L500 367 L164 367 Z M171 706 L257 706 L257 779 L171 779 L171 706 Z M369 706 L455 706 L455 779 L369 779 L369 706 Z " />
<glyph glyph-name="afii10051" unicode="&#x402;" horiz-adv-x="667" d="M425 340 C372 340 337 312 318 257 L319 0 L230 0 L230 560 L20 560 L20 640 L530 640 L530 560 L319 560 L318 346 C350 391 392 413 444 413 C502 413 546 394 578 357 C610 318 626 262 626 188 C626 114 607 56 569 15 C533 -23 485 -43 426 -43 L426 28 C504 28 542 79 542 182 C542 287 503 340 425 340 L425 340 Z " />
<glyph glyph-name="afii10052" unicode="&#x403;" horiz-adv-x="450" d="M147 560 L429 560 L429 640 L60 640 L60 0 L147 0 L147 560 Z M182 739 L247 739 L343 867 L241 867 L182 739 Z " />
<glyph glyph-name="afii10053" unicode="&#x404;" horiz-adv-x="618" d="M125 368 C132 433 155 483 190 518 C225 553 272 571 329 571 C425 571 483 527 504 440 L593 440 C586 505 560 556 512 595 C464 632 402 652 326 652 C231 652 158 619 103 551 C55 490 31 411 31 314 C31 213 57 133 109 74 C161 15 233 -14 324 -14 C398 -14 459 10 509 57 C556 103 584 163 593 238 L504 238 C486 131 420 69 321 69 C264 69 219 87 184 125 C150 161 130 214 125 280 L357 280 L357 368 L125 368 Z " />
<glyph glyph-name="afii10054" unicode="&#x405;" horiz-adv-x="580" d="M39 214 L39 192 C39 55 125 -14 296 -14 C422 -14 545 45 545 179 C545 247 506 297 426 326 L223 402 C179 419 155 430 155 475 C155 542 229 571 291 571 C384 571 431 533 431 446 L524 446 C524 588 441 652 293 652 C176 652 63 593 63 467 C63 398 103 350 182 320 L377 248 C429 228 455 202 455 170 C455 94 371 69 301 69 C232 69 157 87 138 148 C134 160 133 181 132 214 L39 214 Z " />
<glyph glyph-name="afii10055" unicode="&#x406;" horiz-adv-x="242" d="M78 640 L78 0 L164 0 L164 640 L78 640 Z " />
<glyph glyph-name="afii10056" unicode="&#x407;" horiz-adv-x="322" d="M109 640 L109 0 L200 0 L200 640 L109 640 Z M181 832 L181 728 L261 728 L261 832 L181 832 Z M30 728 L110 728 L110 832 L30 832 L30 728 Z " />
<glyph glyph-name="afii10057" unicode="&#x408;" horiz-adv-x="476" d="M21 212 L21 179 C21 -5 152 -19 217 -19 C357 -19 410 54 410 221 L410 640 L324 640 L324 213 C324 120 309 53 218 53 C131 53 108 111 107 212 L21 212 Z " />
<glyph glyph-name="afii10058" unicode="&#x409;" horiz-adv-x="906" d="M864 195 C864 139 848 94 816 60 C777 20 718 0 641 0 L424 0 L424 560 L189 560 L189 322 C189 187 166 79 121 0 L39 0 C60 46 75 82 82 108 C98 164 105 237 105 325 L105 640 L520 640 L520 392 L653 392 C722 392 776 370 814 329 C848 293 864 249 864 195 L864 195 Z M772 190 C772 228 759 258 735 279 C710 301 677 310 635 310 L520 310 L520 80 L631 80 C725 80 772 117 772 190 L772 190 Z " />
<glyph glyph-name="afii10059" unicode="&#x40a;" horiz-adv-x="896" d="M530 308 L530 80 L634 80 C729 80 777 117 777 191 C777 229 764 258 739 279 C715 299 682 308 639 308 L530 308 Z M150 308 L150 0 L60 0 L60 640 L150 640 L150 388 L440 388 L440 640 L530 640 L530 390 L657 390 C725 390 779 369 818 329 C852 294 868 249 868 197 C868 140 852 95 819 60 C780 20 722 0 644 0 L440 0 L440 308 L150 308 Z " />
<glyph glyph-name="afii10060" unicode="&#x40b;" horiz-adv-x="626" d="M320 339 C354 382 395 403 443 403 C497 403 534 388 553 357 C569 333 576 291 576 233 L576 0 L496 0 L496 213 C496 257 491 287 483 304 C473 322 454 331 425 331 C394 331 366 316 343 287 C328 267 321 228 321 173 L321 0 L230 0 L230 560 L19 560 L19 640 L530 640 L530 560 L320 560 L320 339 Z " />
<glyph glyph-name="afii10061" unicode="&#x40c;" horiz-adv-x="570" d="M59 640 L59 0 L150 0 L150 190 L242 285 L462 0 L568 0 L302 348 L563 640 L449 640 L150 302 L150 640 L59 640 Z M225 720 L290 720 L386 848 L284 848 L225 720 Z " />
<glyph glyph-name="afii10062" unicode="&#x40e;" horiz-adv-x="538" d="M297 255 L113 640 L8 640 L252 159 C225 72 187 65 151 65 C130 65 111 68 91 75 L91 0 C117 -7 135 -9 162 -9 C212 -9 274 -7 325 114 L542 640 L451 640 L297 255 Z M112 803 C120 755 156 683 269 683 C382 683 418 755 426 803 L359 803 C356 767 330 731 269 731 C208 731 182 767 179 803 L112 803 Z " />
<glyph glyph-name="afii10145" unicode="&#x40f;" horiz-adv-x="608" d="M331 0 L331 -101 L257 -101 L257 0 L60 0 L60 640 L150 640 L150 80 L450 80 L450 640 L540 640 L540 0 L331 0 Z " />
<glyph glyph-name="afii10017" unicode="&#x410;" horiz-adv-x="571" d="M190 262 L383 262 L288 543 L190 262 Z M246 640 L339 640 L570 0 L473 0 L408 190 L162 190 L95 0 L0 0 L246 640 Z " />
<glyph glyph-name="afii10018" unicode="&#x411;" horiz-adv-x="574" d="M150 557 L463 557 L463 640 L60 640 L60 0 L303 0 C438 0 527 76 527 206 C527 327 438 394 316 394 L150 394 L150 557 Z M298 313 C375 313 435 276 435 196 C435 115 369 80 293 80 L150 80 L150 313 L298 313 Z " />
<glyph glyph-name="afii10019" unicode="&#x412;" horiz-adv-x="589" d="M417 463 C417 403 377 373 298 373 L150 373 L150 560 L291 560 C381 560 417 532 417 463 L417 463 Z M536 185 C536 264 483 329 404 337 C460 354 509 415 509 475 C509 529 487 572 446 604 C415 629 365 640 295 640 L60 640 L60 0 L303 0 C391 0 536 11 536 185 L536 185 Z M303 293 C396 293 444 257 444 187 C444 116 394 80 293 80 L150 80 L150 293 L303 293 Z " />
<glyph glyph-name="afii10020" unicode="&#x413;" horiz-adv-x="448" d="M147 560 L429 560 L429 640 L60 640 L60 0 L147 0 L147 560 Z " />
<glyph glyph-name="afii10021" unicode="&#x414;" horiz-adv-x="666" d="M506 0 C540 0 559 -16 564 -50 L573 -109 L641 -109 L641 80 L583 80 L583 640 L127 640 L127 298 C127 198 111 126 80 80 L24 80 L24 -109 L98 -109 L107 -50 C112 -16 132 0 165 0 L506 0 Z M165 80 C201 137 220 209 220 296 L220 560 L488 560 L488 80 L165 80 Z " />
<glyph glyph-name="afii10022" unicode="&#x415;" horiz-adv-x="571" d="M59 640 L518 640 L518 560 L147 560 L147 371 L491 371 L491 291 L147 291 L147 80 L518 80 L518 0 L59 0 L59 640 Z " />
<glyph glyph-name="afii10024" unicode="&#x416;" horiz-adv-x="806" d="M108 640 L11 640 L226 360 L0 0 L104 0 L283 292 L358 205 L358 0 L446 0 L446 205 L521 294 L699 0 L804 0 L576 363 L792 640 L694 640 L446 323 L446 640 L358 640 L358 323 L108 640 Z " />
<glyph glyph-name="afii10025" unicode="&#x417;" horiz-adv-x="523" d="M339 345 C402 360 448 412 448 475 C448 595 358 652 241 652 C135 652 53 589 32 480 L118 480 C132 541 172 571 240 571 C309 571 356 533 356 463 C356 407 318 373 250 373 L216 373 L216 298 L270 298 C336 298 382 252 382 187 C382 104 321 66 242 66 C183 66 118 106 118 169 L33 169 C33 50 134 -14 249 -14 C379 -14 475 50 475 185 C475 269 415 335 339 345 L339 345 Z " />
<glyph glyph-name="afii10026" unicode="&#x418;" horiz-adv-x="643" d="M465 481 L493 538 L493 0 L584 0 L584 640 L461 640 L181 162 L150 97 L150 640 L60 640 L60 0 L181 0 L465 481 Z " />
<glyph glyph-name="afii10027" unicode="&#x419;" horiz-adv-x="643" d="M465 481 L493 538 L493 0 L584 0 L584 640 L461 640 L181 162 L150 97 L150 640 L60 640 L60 0 L181 0 L465 481 Z M199 701 L430 701 L430 762 L199 762 L199 701 Z " />
<glyph glyph-name="afii10028" unicode="&#x41a;" horiz-adv-x="570" d="M59 640 L59 0 L150 0 L150 190 L242 285 L462 0 L568 0 L302 348 L563 640 L449 640 L150 302 L150 640 L59 640 Z " />
<glyph glyph-name="afii10029" unicode="&#x41b;" horiz-adv-x="547" d="M547 0 L317 642 L231 642 L1 0 L96 0 L275 543 L453 0 L547 0 Z " />
<glyph glyph-name="afii10030" unicode="&#x41c;" horiz-adv-x="787" d="M73 0 L164 0 L164 514 L350 0 L432 0 L620 512 L620 0 L711 0 L711 640 L585 640 L392 106 L201 640 L73 640 L73 0 Z " />
<glyph glyph-name="afii10031" unicode="&#x41d;" horiz-adv-x="599" d="M150 640 L150 377 L449 377 L449 640 L540 640 L540 0 L449 0 L449 296 L150 296 L150 0 L59 0 L59 640 L150 640 Z " />
<glyph glyph-name="afii10032" unicode="&#x41e;" horiz-adv-x="699" d="M345 -14 C550 -14 659 135 659 326 C659 518 545 652 351 652 C150 652 39 512 39 314 C39 123 151 -14 345 -14 L345 -14 Z M349 69 C204 69 132 175 132 316 C132 461 199 571 349 571 C494 571 568 468 568 326 C568 179 501 69 349 69 L349 69 Z " />
<glyph glyph-name="afii10033" unicode="&#x41f;" horiz-adv-x="599" d="M450 0 L540 0 L540 640 L60 640 L60 0 L150 0 L150 560 L450 560 L450 0 Z " />
<glyph glyph-name="afii10034" unicode="&#x420;" horiz-adv-x="575" d="M60 0 L150 0 L150 242 L304 242 C430 242 527 322 527 450 C527 587 423 640 294 640 L60 640 L60 0 Z M150 323 L150 560 L294 560 C388 560 434 523 434 449 C434 365 382 323 278 323 L150 323 Z " />
<glyph glyph-name="afii10035" unicode="&#x421;" horiz-adv-x="643" d="M513 440 C492 527 433 571 337 571 C193 571 131 456 131 318 C131 176 194 69 329 69 C429 69 496 131 513 238 L601 238 C588 92 479 -14 333 -14 C123 -14 39 144 39 314 C39 511 148 652 336 652 C472 652 588 586 601 440 L513 440 Z " />
<glyph glyph-name="afii10036" unicode="&#x422;" horiz-adv-x="550" d="M19 640 L19 560 L230 560 L230 0 L318 0 L318 560 L530 560 L530 640 L19 640 Z " />
<glyph glyph-name="afii10037" unicode="&#x423;" horiz-adv-x="518" d="M425 640 L273 265 L105 640 L5 640 L226 159 L210 124 C195 92 170 77 138 77 L101 77 L101 0 L157 0 C243 0 279 64 308 134 L519 640 L425 640 Z " />
<glyph glyph-name="afii10038" unicode="&#x424;" horiz-adv-x="793" d="M351 69 C216 69 132 163 132 316 C132 476 214 571 351 571 L351 69 Z M661 326 C661 163 577 69 442 69 L442 571 C575 571 661 479 661 326 L661 326 Z M351 652 C159 652 38 520 38 314 C38 114 163 -14 351 -14 L351 -95 L442 -95 L442 -14 C640 -11 755 135 755 326 C755 526 628 652 442 652 L442 732 L351 732 L351 652 Z " />
<glyph glyph-name="afii10039" unicode="&#x425;" horiz-adv-x="572" d="M104 0 L286 259 L462 0 L571 0 L343 330 L557 640 L454 640 L285 396 L124 640 L16 640 L233 326 L0 0 L104 0 Z " />
<glyph glyph-name="afii10040" unicode="&#x426;" horiz-adv-x="625" d="M463 0 C497 0 516 -16 522 -50 L531 -109 L599 -109 L599 80 L540 80 L540 640 L450 640 L450 80 L150 80 L150 640 L60 640 L60 0 L463 0 Z " />
<glyph glyph-name="afii10041" unicode="&#x427;" horiz-adv-x="589" d="M440 0 L530 0 L530 640 L440 640 L440 372 C404 316 350 288 276 288 C195 288 140 353 140 429 L140 640 L49 640 L49 428 C49 294 137 211 267 211 C325 211 408 239 440 286 L440 0 Z " />
<glyph glyph-name="afii10042" unicode="&#x428;" horiz-adv-x="883" d="M486 80 L486 640 L396 640 L396 80 L149 80 L149 640 L59 640 L59 0 L823 0 L823 640 L733 640 L733 80 L486 80 Z " />
<glyph glyph-name="afii10043" unicode="&#x429;" horiz-adv-x="908" d="M745 0 C778 0 799 -20 803 -50 L812 -110 L880 -110 L880 80 L823 80 L823 640 L733 640 L733 80 L486 80 L486 640 L396 640 L396 80 L149 80 L149 640 L59 640 L59 0 L745 0 Z " />
<glyph glyph-name="afii10044" unicode="&#x42a;" horiz-adv-x="623" d="M211 640 L0 640 L0 564 L120 564 L120 0 L364 0 C499 0 588 75 588 211 C588 333 496 405 376 405 L211 405 L211 640 Z M359 324 C436 324 496 285 496 205 C496 122 431 80 354 80 L211 80 L211 324 L359 324 Z " />
<glyph glyph-name="afii10045" unicode="&#x42b;" horiz-adv-x="761" d="M150 640 L60 640 L60 0 L303 0 C438 0 527 77 527 211 C527 336 435 405 315 405 L150 405 L150 640 Z M297 324 C382 324 435 281 435 205 C435 123 371 80 293 80 L150 80 L150 324 L297 324 Z M703 0 L703 640 L613 640 L613 0 L703 0 Z " />
<glyph glyph-name="afii10046" unicode="&#x42c;" horiz-adv-x="554" d="M150 640 L60 640 L60 0 L303 0 C438 0 527 77 527 211 C527 337 435 405 315 405 L150 405 L150 640 Z M297 324 C382 324 435 281 435 205 C435 124 371 80 293 80 L150 80 L150 324 L297 324 Z " />
<glyph glyph-name="afii10047" unicode="&#x42d;" horiz-adv-x="618" d="M265 368 L265 280 L497 280 C489 159 423 69 301 69 C202 69 135 131 118 238 L29 238 C46 91 149 -14 298 -14 C493 -14 591 125 591 314 C591 500 493 652 297 652 C156 652 44 581 29 440 L118 440 C139 527 198 571 293 571 C415 570 482 488 497 368 L265 368 Z " />
<glyph glyph-name="afii10048" unicode="&#x42e;" horiz-adv-x="874" d="M740 326 C740 181 671 71 524 71 C378 71 304 172 304 316 C304 464 373 571 524 571 C668 571 740 467 740 326 L740 326 Z M213 304 C213 111 330 -14 524 -14 C724 -14 832 138 832 328 C832 520 718 652 524 652 C350 652 236 550 215 373 L149 373 L149 640 L58 640 L58 0 L149 0 L149 304 L213 304 Z " />
<glyph glyph-name="afii10049" unicode="&#x42f;" horiz-adv-x="583" d="M518 0 L518 640 L297 640 C107 640 64 532 64 466 C64 366 145 323 212 318 C138 298 90 232 71 179 L41 96 C30 66 23 42 -2 0 L97 0 C116 45 119 63 131 97 L152 158 C175 226 214 274 294 274 L428 274 L428 0 L518 0 Z M428 354 L289 354 C211 354 164 378 164 459 C164 541 209 560 283 560 L428 560 L428 354 Z " />
<glyph glyph-name="afii10065" unicode="&#x430;" horiz-adv-x="503" d="M234 411 C302 411 337 380 337 318 L337 290 C228 281 137 269 87 234 C51 209 32 174 32 128 C32 39 94 -14 182 -14 C241 -14 294 12 343 63 C349 12 374 -14 418 -14 C436 -14 454 -8 473 3 L473 67 C463 62 454 59 444 59 C425 59 417 76 417 109 L417 332 C417 444 345 480 238 480 C130 480 51 429 51 322 L130 322 C130 382 164 411 234 411 L234 411 Z M337 169 C334 99 265 59 202 59 C144 59 116 82 116 129 C116 161 132 184 164 198 C196 212 253 223 337 233 L337 169 Z " />
<glyph glyph-name="afii10066" unicode="&#x431;" horiz-adv-x="508" d="M391 216 C391 131 340 62 257 62 C172 62 130 123 130 224 C130 307 176 371 261 371 C352 371 391 303 391 216 L391 216 Z M276 445 C207 445 145 415 120 355 L120 443 C120 537 212 582 285 593 C346 602 415 618 447 630 L447 701 C386 686 312 669 252 660 C116 640 49 565 49 449 L49 192 C49 59 127 -14 261 -14 C400 -14 476 92 476 232 C476 355 397 445 276 445 L276 445 Z " />
<glyph glyph-name="afii10067" unicode="&#x432;" horiz-adv-x="492" d="M178 356 L178 299 C198 303 219 305 240 305 C300 305 366 263 366 181 C366 101 326 58 244 58 C176 58 132 97 132 164 L132 483 C132 555 166 591 235 591 C293 591 331 558 331 490 C331 455 322 429 305 409 C273 370 246 360 178 356 L178 356 Z M49 179 C49 61 125 -14 242 -14 C361 -14 453 42 453 192 C453 282 377 341 276 341 L271 341 C357 349 417 423 417 500 C417 600 332 655 234 655 C111 655 49 596 49 479 L49 179 Z " />
<glyph glyph-name="afii10068" unicode="&#x433;" horiz-adv-x="444" d="M226 60 C161 60 129 80 129 122 C129 177 170 191 237 212 C328 240 400 269 400 361 C400 440 342 480 228 480 C135 480 45 430 45 332 L127 332 C129 383 162 408 229 408 C278 408 311 385 311 354 C311 306 265 291 211 276 C124 251 37 218 37 128 C37 34 99 -14 222 -14 C346 -14 408 42 408 153 L323 153 C321 86 295 60 226 60 L226 60 Z " />
<glyph glyph-name="afii10069" unicode="&#x434;" horiz-adv-x="497" d="M358 404 C324 454 280 480 223 480 C93 480 39 358 39 225 C39 101 92 0 221 0 C274 0 319 24 358 74 C358 -60 322 -119 233 -119 C175 -119 150 -100 137 -49 L57 -49 C70 -149 124 -192 235 -192 C397 -192 438 -91 438 71 L438 467 L358 467 L358 404 Z M242 73 C169 73 126 130 126 233 C126 315 154 407 242 407 C327 407 358 313 358 233 C358 151 327 73 242 73 L242 73 Z " />
<glyph glyph-name="afii10070" unicode="&#x435;" horiz-adv-x="503" d="M463 246 C463 378 403 480 259 480 C115 480 39 372 39 233 C39 95 110 -14 253 -14 C356 -14 437 52 457 153 L373 153 C359 92 320 61 255 61 C175 61 132 110 126 208 L463 208 L463 246 Z M257 407 C330 407 375 360 381 280 L128 280 C137 365 181 407 257 407 L257 407 Z " />
<glyph glyph-name="afii10072" unicode="&#x436;" horiz-adv-x="677" d="M106 467 L3 467 L181 279 L-6 0 L92 0 L239 221 L295 167 L295 0 L377 0 L377 167 L434 223 L579 0 L678 0 L490 279 L668 467 L565 467 L404 297 L377 264 L377 640 L295 640 L295 264 L267 297 L106 467 Z " />
<glyph glyph-name="afii10073" unicode="&#x437;" horiz-adv-x="425" d="M286 245 C347 254 378 296 378 351 C378 437 316 480 201 480 C102 480 44 434 33 339 L111 339 C120 393 154 416 205 416 C251 416 296 389 296 343 C296 297 261 267 215 267 L181 267 L181 207 L226 207 C281 207 308 183 308 135 C308 86 271 58 208 58 C146 58 112 84 107 137 L28 137 C28 32 109 -14 202 -14 C302 -14 395 28 395 136 C395 195 344 241 286 245 L286 245 Z " />
<glyph glyph-name="afii10074" unicode="&#x438;" horiz-adv-x="492" d="M59 467 L59 167 C59 46 109 -14 211 -14 C281 -14 329 15 354 73 L354 0 L434 0 L434 467 L354 467 L354 230 C354 179 344 139 326 112 C303 78 271 61 230 61 C197 61 174 69 161 85 C146 102 140 131 140 170 L140 467 L59 467 Z " />
<glyph glyph-name="afii10075" unicode="&#x439;" horiz-adv-x="492" d="M182 585 L182 518 L310 518 L310 585 L182 585 Z M59 467 L59 167 C59 46 109 -14 211 -14 C281 -14 329 15 354 73 L354 0 L434 0 L434 467 L354 467 L354 230 C354 179 344 139 326 112 C303 78 271 61 230 61 C197 61 174 69 161 85 C146 102 140 131 140 170 L140 467 L59 467 Z " />
<glyph glyph-name="afii10076" unicode="&#x43a;" horiz-adv-x="452" d="M57 0 L137 0 L137 170 L188 218 L339 0 L438 0 L246 278 L425 467 L319 467 L137 261 L137 640 L57 640 L57 0 Z " />
<glyph glyph-name="afii10077" unicode="&#x43b;" horiz-adv-x="446" d="M0 0 L90 0 L220 371 L356 0 L446 0 L268 467 L178 467 L0 0 Z " />
<glyph glyph-name="afii10078" unicode="&#x43c;" horiz-adv-x="610" d="M39 0 L120 0 L120 398 L260 0 L333 0 L464 368 L473 398 L473 0 L554 0 L554 467 L425 467 L297 101 L169 467 L39 467 L39 0 Z " />
<glyph glyph-name="afii10079" unicode="&#x43d;" horiz-adv-x="492" d="M140 276 L140 467 L60 467 L60 0 L140 0 L140 208 L354 208 L354 0 L434 0 L434 467 L354 467 L354 276 L140 276 Z " />
<glyph glyph-name="afii10080" unicode="&#x43e;" horiz-adv-x="497" d="M37 233 C37 91 107 -14 249 -14 C391 -14 461 96 461 233 C461 373 393 480 249 480 C103 480 37 373 37 233 L37 233 Z M249 61 C168 61 123 125 123 233 C123 343 168 407 249 407 C340 407 375 324 375 238 C375 125 329 61 249 61 L249 61 Z " />
<glyph glyph-name="afii10081" unicode="&#x43f;" horiz-adv-x="492" d="M60 0 L140 0 L140 246 C140 289 142 318 147 332 C163 377 208 407 257 407 C334 407 351 361 351 282 L351 0 L431 0 L431 298 C431 341 427 374 421 396 C400 451 341 480 282 480 C219 480 181 459 140 407 L140 467 L60 467 L60 0 Z " />
<glyph glyph-name="afii10082" unicode="&#x440;" horiz-adv-x="497" d="M59 -180 L140 -180 L140 49 C176 8 220 -14 271 -14 C401 -13 457 112 457 240 C457 364 408 480 276 480 C214 480 181 460 140 412 L140 467 L59 467 L59 -180 Z M137 233 C137 342 181 407 255 407 C342 407 373 321 373 233 C373 150 345 61 255 61 C164 61 137 149 137 233 L137 233 Z " />
<glyph glyph-name="afii10083" unicode="&#x441;" horiz-adv-x="487" d="M366 169 C348 97 311 61 255 61 C169 61 126 121 126 240 C126 329 161 407 255 407 C314 407 351 373 366 306 L448 306 C438 413 362 480 255 480 C106 480 39 370 39 225 C39 84 111 -14 255 -14 C365 -14 442 63 448 169 L366 169 Z " />
<glyph glyph-name="afii10084" unicode="&#x442;" horiz-adv-x="732" d="M61 467 L61 0 L141 0 L141 251 C141 289 144 316 150 330 C169 382 205 407 257 407 C320 407 328 364 328 295 L328 0 L408 0 L408 249 C408 289 412 320 418 339 C432 381 473 407 516 407 C569 407 595 372 595 304 L595 0 L675 0 L675 318 C675 425 629 480 534 480 C470 480 433 453 395 410 C366 456 327 480 277 480 C214 480 182 452 141 410 L141 467 L61 467 Z " />
<glyph glyph-name="afii10085" unicode="&#x443;" horiz-adv-x="442" d="M99 467 L8 467 L181 -10 C164 -56 152 -85 142 -99 C133 -112 119 -119 101 -119 C87 -119 72 -115 53 -107 L53 -184 C76 -190 99 -192 120 -192 C154 -192 182 -177 204 -145 C218 -127 231 -96 247 -52 L433 467 L345 467 L224 97 L99 467 Z " />
<glyph glyph-name="afii10086" unicode="&#x444;" horiz-adv-x="606" d="M263 407 L263 61 C182 61 122 127 122 235 C122 346 182 407 263 407 L263 407 Z M263 -180 L343 -180 L343 -14 C475 -14 571 82 571 235 C571 391 476 479 343 479 L343 640 L263 640 L263 479 C130 479 35 391 35 235 C35 82 130 -14 263 -14 L263 -180 Z M343 61 L343 407 C422 407 484 341 484 235 C484 124 424 61 343 61 L343 61 Z " />
<glyph glyph-name="afii10087" unicode="&#x445;" horiz-adv-x="427" d="M168 240 L5 0 L103 0 L217 179 L329 0 L430 0 L266 246 L422 467 L321 467 L217 306 L115 467 L13 467 L168 240 Z " />
<glyph glyph-name="afii10088" unicode="&#x446;" horiz-adv-x="533" d="M60 467 L60 167 C60 46 110 -14 211 -14 C283 -14 335 17 366 79 L366 0 C428 0 462 0 462 -61 L462 -98 L514 -98 L514 53 L503 53 C448 53 434 68 434 128 L434 467 L354 467 L354 230 C354 142 320 61 230 61 C156 61 140 99 140 171 L140 467 L60 467 Z " />
<glyph glyph-name="afii10089" unicode="&#x447;" horiz-adv-x="482" d="M49 467 L49 318 C49 208 85 140 200 140 C252 140 318 169 341 220 L341 0 L423 0 L423 467 L341 467 L341 320 C341 252 288 211 230 211 C163 211 130 248 130 322 L130 467 L49 467 Z " />
<glyph glyph-name="afii10090" unicode="&#x448;" horiz-adv-x="714" d="M594 0 L675 0 L675 467 L594 467 L594 216 C594 164 594 159 586 137 C570 90 527 61 480 61 C425 61 408 87 408 172 L408 467 L327 467 L327 217 C327 167 324 149 317 127 C305 88 262 61 219 61 C164 61 141 92 141 163 L141 467 L60 467 L60 149 C60 55 97 -14 202 -14 C258 -14 293 4 340 57 C372 6 403 -14 458 -14 C514 -14 545 4 594 57 L594 0 Z " />
<glyph glyph-name="afii10091" unicode="&#x449;" horiz-adv-x="762" d="M674 127 L674 467 L593 467 L593 190 C593 161 592 155 586 137 C569 90 526 61 476 61 C424 61 407 87 407 172 L407 467 L326 467 L326 217 C326 167 323 150 316 127 C303 89 261 61 217 61 C163 61 140 92 140 163 L140 467 L59 467 L59 149 C59 55 96 -14 200 -14 C257 -14 293 4 339 57 C371 6 402 -14 457 -14 C510 -14 574 27 606 79 C607 65 607 0 607 0 L625 0 C671 0 702 -3 702 -61 L702 -98 L754 -98 L754 53 L743 53 C690 53 674 66 674 127 L674 127 Z " />
<glyph glyph-name="afii10092" unicode="&#x44a;" horiz-adv-x="500" d="M286 358 C251 358 217 346 182 323 L182 467 L0 467 L0 395 L102 395 L102 153 C102 42 161 -14 277 -14 C403 -14 463 63 463 185 C463 289 390 358 286 358 L286 358 Z M379 169 C379 110 345 58 282 58 C216 58 182 87 182 145 L182 258 C218 277 252 285 288 285 C349 285 379 226 379 169 L379 169 Z " />
<glyph glyph-name="afii10093" unicode="&#x44b;" horiz-adv-x="576" d="M243 358 C207 358 173 346 140 323 L140 467 L60 467 L60 153 C60 42 118 -14 234 -14 C357 -14 421 64 421 185 C421 283 345 358 243 358 L243 358 Z M337 169 C337 110 300 58 240 58 C173 58 140 87 140 145 L140 258 C174 277 210 285 246 285 C306 285 337 226 337 169 L337 169 Z M461 467 L461 0 L542 0 L542 467 L461 467 Z " />
<glyph glyph-name="afii10094" unicode="&#x44c;" horiz-adv-x="453" d="M243 358 C207 358 173 346 140 323 L140 467 L60 467 L60 153 C60 42 118 -14 234 -14 C357 -14 421 64 421 185 C421 284 345 358 243 358 L243 358 Z M337 169 C337 111 300 58 240 58 C173 58 140 87 140 145 L140 258 C174 277 210 285 246 285 C306 285 337 226 337 169 L337 169 Z " />
<glyph glyph-name="afii10095" unicode="&#x44d;" horiz-adv-x="483" d="M19 169 C28 56 104 -14 213 -14 C358 -14 428 85 428 225 C428 369 363 480 214 480 C106 480 29 413 19 306 L102 306 C116 373 154 407 214 407 C285 407 332 359 339 276 L202 276 L202 204 L341 204 C332 108 289 61 214 61 C157 61 119 97 102 169 L19 169 Z " />
<glyph glyph-name="afii10096" unicode="&#x44e;" horiz-adv-x="678" d="M298 234 C298 342 345 407 426 407 C517 407 552 327 552 238 C552 125 506 61 426 61 C331 61 298 145 298 234 L298 234 Z M214 196 C223 71 299 -14 426 -14 C570 -14 638 96 638 234 C638 374 570 480 426 480 C304 480 228 406 216 276 L147 276 L147 640 L60 640 L60 0 L147 0 L147 196 L214 196 Z " />
<glyph glyph-name="afii10097" unicode="&#x44f;" horiz-adv-x="425" d="M220 467 C122 467 35 422 35 322 C35 259 64 215 123 189 L6 0 L108 0 L195 169 L284 169 L284 0 L366 0 L366 467 L220 467 Z M284 235 L202 235 C158 235 121 267 121 312 C121 359 158 393 202 393 L284 393 L284 235 Z " />
<glyph glyph-name="afii10071" unicode="&#x451;" horiz-adv-x="523" d="M399 135 C377 51 315 38 271 38 C164 38 125 135 124 214 L484 214 L484 237 C484 398 407 483 261 483 C78 483 39 343 39 231 C39 107 94 -18 274 -18 C418 -18 462 71 476 135 L399 135 Z M124 271 C127 325 150 426 268 426 C344 426 386 388 399 271 L124 271 Z M120 556 L200 556 L200 640 L120 640 L120 556 Z M334 556 L414 556 L414 640 L334 640 L334 556 Z " />
<glyph glyph-name="afii10099" unicode="&#x452;" horiz-adv-x="485" d="M0 587 L0 522 L59 522 L59 0 L140 0 L140 257 C159 312 194 340 247 340 C325 340 364 287 364 182 C364 79 325 28 249 28 L249 -43 C308 -43 355 -23 391 15 C429 56 448 114 448 188 C448 262 432 318 399 357 C368 394 324 413 266 413 C214 413 171 391 140 346 L140 522 L257 522 L257 587 L140 587 L140 640 L59 640 L59 587 L0 587 Z " />
<glyph glyph-name="afii10100" unicode="&#x453;" horiz-adv-x="448" d="M226 60 C161 60 129 80 129 122 C129 177 170 191 237 212 C328 240 400 269 400 361 C400 440 342 480 228 480 C135 480 45 430 45 332 L127 332 C129 383 162 408 229 408 C278 408 311 385 311 354 C311 306 265 291 211 276 C124 251 37 218 37 128 C37 34 99 -14 222 -14 C346 -14 408 42 408 153 L323 153 C321 86 295 60 226 60 L226 60 Z M196 528 L261 528 L357 656 L255 656 L196 528 Z " />
<glyph glyph-name="afii10101" unicode="&#x454;" horiz-adv-x="483" d="M415 63 C432 87 444 122 450 169 L367 169 C350 97 312 61 255 61 C181 61 138 108 128 204 L267 204 L267 276 L130 276 C137 359 184 407 255 407 C315 407 353 373 367 306 L450 306 C444 361 424 402 389 433 C355 463 310 480 255 480 C188 480 135 457 98 413 C60 368 41 306 41 225 C41 150 60 91 98 49 C135 7 189 -14 257 -14 C324 -14 376 12 415 63 L415 63 Z " />
<glyph glyph-name="afii10102" unicode="&#x455;" horiz-adv-x="450" d="M35 153 C35 46 102 -14 221 -14 C318 -14 409 35 409 140 C409 197 381 223 307 253 L171 308 C144 319 131 334 131 351 C131 392 182 407 220 407 C280 407 311 382 313 332 L396 332 C395 430 317 480 222 480 C135 480 47 435 47 343 C47 297 75 262 131 238 L278 175 C308 162 323 146 323 128 C323 88 283 61 222 61 C150 61 119 87 119 153 L35 153 Z " />
<glyph glyph-name="afii10103" unicode="&#x456;" horiz-adv-x="209" d="M64 465 L64 0 L145 0 L145 465 L64 465 Z M64 556 L145 556 L145 640 L64 640 L64 556 Z " />
<glyph glyph-name="afii10104" unicode="&#x457;" horiz-adv-x="245" d="M81 466 L81 0 L161 0 L161 466 L81 466 Z M155 656 L155 552 L235 552 L235 656 L155 656 Z M4 552 L84 552 L84 656 L4 656 L4 552 Z " />
<glyph glyph-name="afii10105" unicode="&#x458;" horiz-adv-x="211" d="M67 465 L67 -33 C67 -93 70 -98 -15 -113 L-15 -169 C-4 -170 22 -173 38 -173 C124 -173 147 -125 147 -43 L147 465 L67 465 Z M67 556 L147 556 L147 640 L67 640 L67 556 Z " />
<glyph glyph-name="afii10106" unicode="&#x459;" horiz-adv-x="703" d="M590 158 C590 189 583 214 567 233 C551 253 528 263 500 263 C463 263 428 253 394 235 L394 145 C394 87 426 58 493 58 C554 58 590 98 590 158 L590 158 Z M394 467 L394 300 C426 323 461 335 497 335 C559 335 606 315 638 277 C662 247 674 213 674 174 C674 48 611 -14 487 -14 C371 -14 313 42 313 153 L313 400 L189 400 C188 312 177 229 156 151 C139 88 119 39 95 0 L15 0 C83 120 118 276 118 467 L394 467 Z " />
<glyph glyph-name="afii10107" unicode="&#x45a;" horiz-adv-x="732" d="M618 158 C618 189 610 214 596 233 C579 253 557 263 528 263 C491 263 456 253 422 235 L422 145 C422 87 455 58 522 58 C582 58 618 98 618 158 L618 158 Z M341 467 L422 467 L422 300 C455 323 489 335 525 335 C587 335 634 315 666 277 C690 247 702 213 702 174 C702 48 640 -14 515 -14 C399 -14 341 42 341 153 L341 226 L140 226 L140 0 L60 0 L60 467 L140 467 L140 294 L341 294 L341 467 Z " />
<glyph glyph-name="afii10108" unicode="&#x45b;" horiz-adv-x="491" d="M18 587 L59 587 L59 640 L140 640 L140 587 L217 587 L217 522 L140 522 L140 417 C179 458 226 480 280 480 C381 480 431 423 431 308 L431 0 L351 0 L351 288 C351 332 344 362 331 380 C318 398 295 407 262 407 C221 407 190 391 164 358 C148 336 140 300 140 249 L140 0 L59 0 L59 522 L18 522 L18 587 Z " />
<glyph glyph-name="afii10109" unicode="&#x45c;" horiz-adv-x="452" d="M57 0 L137 0 L137 170 L188 218 L339 0 L438 0 L246 278 L425 467 L319 467 L137 261 L137 640 L57 640 L57 0 Z M207 528 L272 528 L368 656 L266 656 L207 528 Z " />
<glyph glyph-name="afii10110" unicode="&#x45e;" horiz-adv-x="456" d="M83 -168 C100 -172 124 -173 149 -173 C238 -173 255 -100 271 -55 L456 465 L375 465 L252 89 L102 465 L6 465 L208 0 L197 -35 C183 -77 171 -113 124 -113 C116 -113 107 -113 83 -109 L83 -168 Z M70 640 C79 592 114 520 228 520 C341 520 377 592 385 640 L318 640 C315 604 289 568 228 568 C167 568 141 604 138 640 L70 640 Z " />
<glyph glyph-name="afii10193" unicode="&#x45f;" horiz-adv-x="492" d="M354 67 L354 467 L434 467 L434 0 L286 0 L286 -103 L213 -103 L213 0 L60 0 L60 467 L140 467 L140 67 L354 67 Z " />
<glyph glyph-name="afii10147" unicode="&#x472;" horiz-adv-x="694" d="M41 320 C41 -15 305 -19 347 -19 C386 -19 652 -15 652 320 C652 581 490 660 347 660 C168 660 41 544 41 320 L41 320 Z M135 358 C141 451 183 587 347 587 C532 587 556 415 560 358 L135 358 Z M560 285 C557 198 517 53 347 53 C152 53 135 236 134 285 L560 285 Z " />
<glyph glyph-name="afii10195" unicode="&#x473;" horiz-adv-x="521" d="M32 233 C32 92 104 -18 260 -18 C284 -18 489 -16 489 233 C489 374 415 483 260 483 C103 483 32 375 32 233 L32 233 Z M118 264 C124 335 152 426 260 426 C369 426 397 335 403 264 L118 264 Z M403 207 C400 150 379 38 260 38 C143 38 121 149 118 207 L403 207 Z " />
<glyph glyph-name="afii10050" unicode="&#x490;" horiz-adv-x="435" d="M147 0 L60 0 L60 640 L361 640 L370 719 L429 719 L429 560 L147 560 L147 0 Z " />
<glyph glyph-name="afii10098" unicode="&#x491;" horiz-adv-x="348" d="M140 392 L140 0 L60 0 L60 467 L243 467 L251 544 L316 544 L316 392 L140 392 Z " />
<glyph glyph-name="uni0492" unicode="&#x492;" horiz-adv-x="511" d="M178 360 L178 568 L500 568 L500 640 L91 640 L91 360 L0 360 L0 287 L91 287 L91 0 L178 0 L178 287 L379 287 L379 360 L178 360 Z " />
<glyph glyph-name="uni0493" unicode="&#x493;" horiz-adv-x="396" d="M146 408 L384 408 L384 465 L66 465 L66 258 L-9 258 L-9 201 L66 201 L66 0 L146 0 L146 201 L284 201 L284 258 L146 258 L146 408 Z " />
<glyph glyph-name="uni0496" unicode="&#x496;" horiz-adv-x="884" d="M372 0 L458 0 L458 319 L730 0 L791 0 L791 -145 L866 -145 L872 72 L772 72 L539 343 L822 640 L719 640 L458 359 L458 640 L372 640 L372 359 L112 640 L9 640 L292 343 L-4 0 L101 0 L372 319 L372 0 Z " />
<glyph glyph-name="uni0497" unicode="&#x497;" horiz-adv-x="666" d="M281 0 L361 0 L361 230 L546 0 L588 0 L588 -121 L656 -121 L662 57 L597 57 L433 244 L634 465 L539 465 L361 254 L361 465 L281 465 L281 254 L103 465 L8 465 L210 244 L-4 0 L96 0 L281 230 L281 0 Z " />
<glyph glyph-name="uni0498" unicode="&#x498;" horiz-adv-x="610" d="M41 197 C46 82 107 -6 268 -18 L268 -173 L350 -173 L350 -17 C460 -15 557 54 557 172 C557 254 522 317 423 339 L423 341 C490 353 532 411 532 480 C532 602 441 660 303 660 C229 660 64 650 52 463 L138 463 C144 587 270 587 296 587 C323 587 444 586 444 475 C444 376 344 373 315 373 L239 373 L239 301 L323 301 C447 301 469 234 469 180 C469 124 436 53 309 53 C163 53 132 134 127 197 L41 197 Z " />
<glyph glyph-name="uni0499" unicode="&#x499;" horiz-adv-x="473" d="M29 143 C37 28 121 -16 198 -18 L198 -169 L269 -169 L269 -17 C287 -16 434 -5 434 134 C434 208 376 236 336 243 L336 246 C363 253 416 275 416 348 C416 389 398 483 232 483 C185 483 48 475 41 337 L118 337 C119 368 136 426 228 426 C324 426 333 367 333 342 C333 274 269 270 236 270 L177 270 L177 213 L245 213 C269 213 350 211 350 130 C350 67 300 38 230 38 C146 38 107 90 106 143 L29 143 Z " />
<glyph glyph-name="uni049A" unicode="&#x49a;" horiz-adv-x="619" d="M164 349 L164 640 L78 640 L78 0 L164 0 L164 334 L465 0 L525 0 L525 -145 L600 -145 L607 72 L509 72 L253 344 L557 640 L452 640 L164 349 Z " />
<glyph glyph-name="uni049B" unicode="&#x49b;" horiz-adv-x="475" d="M146 262 L146 465 L66 465 L66 0 L146 0 L146 232 L355 0 L397 0 L397 -121 L465 -121 L471 57 L398 57 L221 249 L439 465 L345 465 L146 262 Z " />
<glyph glyph-name="uni049C" unicode="&#x49c;" horiz-adv-x="586" d="M78 640 L78 0 L164 0 L164 305 L228 305 L228 158 L301 158 L301 305 L495 0 L589 0 L364 349 L569 640 L483 640 L301 377 L301 505 L228 505 L228 377 L164 377 L164 640 L78 640 Z " />
<glyph glyph-name="uni049D" unicode="&#x49d;" horiz-adv-x="494" d="M66 465 L66 0 L146 0 L146 219 L194 219 L194 91 L251 91 L251 219 L410 0 L498 0 L305 249 L486 465 L400 465 L251 275 L251 385 L194 385 L194 275 L146 275 L146 465 L66 465 Z " />
<glyph glyph-name="uni04A0" unicode="&#x4a0;" horiz-adv-x="705" d="M296 349 L296 640 L12 640 L12 568 L210 568 L210 0 L296 0 L296 334 L597 0 L709 0 L384 344 L689 640 L584 640 L296 349 Z " />
<glyph glyph-name="uni04A1" unicode="&#x4a1;" horiz-adv-x="514" d="M213 262 L213 465 L12 465 L12 408 L133 408 L133 0 L213 0 L213 232 L422 0 L518 0 L288 249 L506 465 L412 465 L213 262 Z " />
<glyph glyph-name="uni04A2" unicode="&#x4a2;" horiz-adv-x="673" d="M164 301 L486 301 L486 0 L580 0 L580 -145 L655 -145 L662 72 L572 72 L572 640 L486 640 L486 373 L164 373 L164 640 L78 640 L78 0 L164 0 L164 301 Z " />
<glyph glyph-name="uni04A3" unicode="&#x4a3;" horiz-adv-x="541" d="M146 217 L376 217 L376 0 L463 0 L463 -121 L531 -121 L537 57 L457 57 L457 465 L376 465 L376 274 L146 274 L146 465 L66 465 L66 0 L146 0 L146 217 Z " />
<glyph glyph-name="uni04AA" unicode="&#x4aa;" horiz-adv-x="651" d="M531 212 C525 121 452 53 350 53 C214 53 133 164 133 313 C133 453 183 587 343 587 C490 587 518 489 522 443 L608 443 C598 540 547 660 343 660 C156 660 41 536 41 309 C41 91 171 -12 308 -18 L308 -173 L391 -173 L391 -18 C530 -9 602 96 617 212 L531 212 Z " />
<glyph glyph-name="uni04AB" unicode="&#x4ab;" horiz-adv-x="501" d="M392 166 C389 114 360 38 268 38 C166 38 124 132 124 236 C124 341 162 426 263 426 C290 426 371 423 388 319 L465 319 C455 406 392 483 261 483 C81 483 39 344 39 236 C39 109 97 -8 228 -17 L228 -169 L299 -169 L299 -17 C410 -11 460 87 468 166 L392 166 Z " />
<glyph glyph-name="uni04AE" unicode="&#x4ae;" horiz-adv-x="554" d="M277 344 L99 640 L-4 640 L234 267 L234 0 L320 0 L320 267 L557 640 L455 640 L277 344 Z " />
<glyph glyph-name="uni04AF" unicode="&#x4af;" horiz-adv-x="457" d="M188 -169 L269 -169 L269 9 L451 465 L360 465 L229 98 L98 465 L6 465 L188 9 L188 -169 Z " />
<glyph glyph-name="uni04B0" unicode="&#x4b0;" horiz-adv-x="632" d="M317 344 L138 640 L36 640 L274 267 L274 210 L136 210 L136 137 L274 137 L274 0 L360 0 L360 137 L497 137 L497 210 L360 210 L360 267 L597 640 L494 640 L317 344 Z " />
<glyph glyph-name="uni04B1" unicode="&#x4b1;" horiz-adv-x="457" d="M188 -169 L269 -169 L269 -57 L379 -57 L379 0 L269 0 L269 9 L451 465 L360 465 L229 98 L98 465 L6 465 L188 9 L188 0 L79 0 L79 -57 L188 -57 L188 -169 Z " />
<glyph glyph-name="uni04B2" unicode="&#x4b2;" horiz-adv-x="601" d="M279 389 L119 640 L12 640 L224 328 L0 0 L111 0 L279 266 L447 0 L508 0 L508 -145 L583 -145 L589 72 L507 72 L334 328 L546 640 L439 640 L279 389 Z " />
<glyph glyph-name="uni04B3" unicode="&#x4b3;" horiz-adv-x="473" d="M221 293 L102 465 L13 465 L176 242 L0 0 L90 0 L221 191 L353 0 L395 0 L395 -121 L463 -121 L469 57 L402 57 L267 242 L430 465 L340 465 L221 293 Z " />
<glyph glyph-name="uni04B8" unicode="&#x4b8;" horiz-adv-x="600" d="M53 640 L53 439 C53 299 133 269 259 272 L259 125 L332 125 L332 273 C365 274 400 276 436 278 L436 0 L522 0 L522 640 L436 640 L436 350 C404 348 369 346 332 345 L332 472 L259 472 L259 344 C170 346 139 373 139 453 L139 640 L53 640 Z " />
<glyph glyph-name="uni04B9" unicode="&#x4b9;" horiz-adv-x="474" d="M41 465 L41 309 C41 253 48 184 203 189 L203 80 L260 80 L260 189 C283 189 305 190 328 192 L328 0 L408 0 L408 465 L328 465 L328 249 C304 248 281 248 260 247 L260 338 L203 338 L203 247 C120 247 122 287 122 322 L122 465 L41 465 Z " />
<glyph glyph-name="uni04BA" unicode="&#x4ba;" horiz-adv-x="583" d="M517 0 L517 259 C517 396 450 426 293 426 C258 426 186 422 152 420 L152 640 L66 640 L66 0 L152 0 L152 348 C182 350 240 354 276 354 C380 354 431 345 431 245 L431 0 L517 0 Z " />
<glyph glyph-name="uni04BB" unicode="&#x4bb;" horiz-adv-x="523" d="M66 640 L66 0 L146 0 L146 253 C146 408 236 426 280 426 C380 426 377 339 377 285 L377 0 L457 0 L457 309 C457 348 460 483 306 483 C240 483 189 458 146 400 L146 640 L66 640 Z " />
<glyph glyph-name="afii10846" unicode="&#x4d9;" horiz-adv-x="522" d="M124 330 C135 393 197 426 253 426 C367 426 396 318 397 251 L39 251 C37 109 83 -18 255 -18 C291 -18 482 -13 482 234 C482 280 478 483 251 483 C230 483 76 480 48 330 L124 330 Z M397 194 C395 136 373 38 253 38 C231 38 128 44 124 194 L397 194 Z " />
<glyph glyph-name="Wgrave" unicode="&#x1e80;" horiz-adv-x="913" d="M164 0 L257 0 L402 599 L550 0 L640 0 L814 640 L719 640 L618 257 C607 207 599 164 593 130 L564 257 L449 640 L358 640 L243 257 C231 208 221 165 214 130 C204 190 196 233 190 257 L97 640 L0 640 L164 0 Z M300 848 L399 719 L464 719 L405 848 L300 848 Z " />
<glyph glyph-name="wgrave" unicode="&#x1e81;" horiz-adv-x="698" d="M141 0 L222 0 L313 359 L403 0 L485 0 L625 467 L542 467 L468 198 C458 159 451 129 447 108 C438 158 431 188 428 198 L360 467 L270 467 L199 194 C190 156 184 125 180 104 C170 151 163 181 161 194 L93 467 L5 467 L141 0 Z M200 656 L299 527 L364 527 L305 656 L200 656 Z " />
<glyph glyph-name="Wacute" unicode="&#x1e82;" horiz-adv-x="913" d="M164 0 L257 0 L402 599 L550 0 L640 0 L814 640 L719 640 L618 257 C607 207 599 164 593 130 L564 257 L449 640 L358 640 L243 257 C231 208 221 165 214 130 C204 190 196 233 190 257 L97 640 L0 640 L164 0 Z M364 719 L429 719 L525 847 L423 847 L364 719 Z " />
<glyph glyph-name="wacute" unicode="&#x1e83;" horiz-adv-x="698" d="M141 0 L222 0 L313 359 L403 0 L485 0 L625 467 L542 467 L468 198 C458 159 451 129 447 108 C438 158 431 188 428 198 L360 467 L270 467 L199 194 C190 156 184 125 180 104 C170 151 163 181 161 194 L93 467 L5 467 L141 0 Z M259 528 L324 528 L420 656 L318 656 L259 528 Z " />
<glyph glyph-name="Wdieresis" unicode="&#x1e84;" horiz-adv-x="913" d="M164 0 L257 0 L402 599 L550 0 L640 0 L814 640 L719 640 L618 257 C607 207 599 164 593 130 L564 257 L449 640 L358 640 L243 257 C231 208 221 165 214 130 C204 190 196 233 190 257 L97 640 L0 640 L164 0 Z M436 824 L436 720 L516 720 L516 824 L436 824 Z M285 720 L365 720 L365 824 L285 824 L285 720 Z " />
<glyph glyph-name="wdieresis" unicode="&#x1e85;" horiz-adv-x="698" d="M141 0 L222 0 L313 359 L403 0 L485 0 L625 467 L542 467 L468 198 C458 159 451 129 447 108 C438 158 431 188 428 198 L360 467 L270 467 L199 194 C190 156 184 125 180 104 C170 151 163 181 161 194 L93 467 L5 467 L141 0 Z M369 652 L369 548 L449 548 L449 652 L369 652 Z M218 548 L298 548 L298 652 L218 652 L218 548 Z " />
<glyph glyph-name="Ygrave" unicode="&#x1ef2;" horiz-adv-x="698" d="M249 253 L249 0 L339 0 L339 253 L585 640 L480 640 L296 337 L104 640 L0 640 L249 253 Z M192 847 L291 718 L356 718 L297 847 L192 847 Z " />
<glyph glyph-name="ygrave" unicode="&#x1ef3;" horiz-adv-x="483" d="M96 467 L5 467 L178 -10 C161 -56 149 -85 139 -99 C130 -112 116 -119 98 -119 C84 -119 69 -115 50 -107 L50 -184 C73 -190 96 -192 117 -192 C151 -192 179 -177 201 -145 C215 -127 228 -96 244 -52 L430 467 L342 467 L221 97 L96 467 Z M120 656 L219 527 L284 527 L225 656 L120 656 Z " />
<glyph glyph-name="endash" unicode="&#x2013;" horiz-adv-x="549" d="M46 272 L46 215 L503 215 L503 272 L46 272 Z " />
<glyph glyph-name="emdash" unicode="&#x2014;" horiz-adv-x="900" d="M46 215 L855 215 L855 272 L46 272 L46 215 Z " />
<glyph glyph-name="afii00208" unicode="&#x2015;" horiz-adv-x="967" d="M31 217 L31 284 L937 284 L937 217 L31 217 Z " />
<glyph glyph-name="underscoredbl" unicode="&#x2017;" horiz-adv-x="483" d="M492 -133 L-8 -133 L-8 -94 L492 -94 L492 -133 Z M492 -208 L-8 -208 L-8 -168 L492 -168 L492 -208 Z " />
<glyph glyph-name="quoteleft" unicode="&#x2018;" horiz-adv-x="285" d="M188 423 L188 522 L142 522 L142 551 C142 579 162 605 188 608 L188 658 C152 650 97 625 97 551 L97 423 L188 423 Z " />
<glyph glyph-name="quoteright" unicode="&#x2019;" horiz-adv-x="285" d="M97 640 L97 541 L143 541 L143 512 C143 484 123 458 97 456 L97 405 C133 414 188 438 188 512 L188 640 L97 640 Z " />
<glyph glyph-name="quotesinglbase" unicode="&#x201a;" horiz-adv-x="285" d="M97 100 L97 0 L143 0 L143 -28 C143 -57 123 -82 97 -85 L97 -135 C133 -127 188 -102 188 -28 L188 100 L97 100 Z " />
<glyph glyph-name="quotereversed" unicode="&#x201b;" horiz-adv-x="194" d="M146 638 L50 638 L50 545 C50 467 82 421 146 407 L146 454 C131 459 119 468 113 479 C106 490 103 509 101 536 L146 536 L146 638 Z " />
<glyph glyph-name="quotedblleft" unicode="&#x201c;" horiz-adv-x="386" d="M314 423 L314 522 L268 522 L268 552 C268 582 289 602 314 609 L314 659 C267 650 223 614 223 552 L223 423 L314 423 Z M163 423 L163 522 L117 522 L117 552 C117 582 138 602 163 609 L163 659 C116 650 72 615 72 552 L72 423 L163 423 Z " />
<glyph glyph-name="quotedblright" unicode="&#x201d;" horiz-adv-x="386" d="M72 640 L72 541 L118 541 L118 511 C118 481 97 461 72 454 L72 404 C119 414 163 449 163 511 L163 640 L72 640 Z M223 640 L223 541 L269 541 L269 511 C269 481 248 461 223 454 L223 404 C270 414 314 448 314 511 L314 640 L223 640 Z " />
<glyph glyph-name="quotedblbase" unicode="&#x201e;" horiz-adv-x="386" d="M72 100 L72 0 L118 0 L118 -28 C118 -58 98 -81 72 -85 L72 -135 C133 -119 163 -86 163 -28 L163 100 L72 100 Z M223 100 L223 0 L269 0 L269 -28 C269 -58 249 -81 223 -85 L223 -135 C283 -120 314 -86 314 -28 L314 100 L223 100 Z " />
<glyph glyph-name="dagger" unicode="&#x2020;" horiz-adv-x="457" d="M192 640 L192 465 L23 465 L23 403 L192 403 L192 -169 L265 -169 L265 403 L435 403 L435 465 L265 465 L265 640 L192 640 Z " />
<glyph glyph-name="daggerdbl" unicode="&#x2021;" horiz-adv-x="487" d="M32 454 L200 454 L200 638 L280 638 L280 454 L454 454 L454 382 L280 382 L280 132 L454 132 L454 59 L280 59 L280 -132 L200 -132 L200 59 L32 59 L32 132 L200 132 L200 382 L32 382 L32 454 Z " />
<glyph glyph-name="bullet" unicode="&#x2022;" horiz-adv-x="549" d="M183 320 C183 269 223 229 274 229 C326 229 366 269 366 320 C366 371 326 412 274 412 C223 412 183 371 183 320 L183 320 Z " />
<glyph glyph-name="ellipsis" unicode="&#x2026;" horiz-adv-x="852" d="M97 0 L188 0 L188 100 L97 100 L97 0 Z M381 0 L471 0 L471 100 L381 100 L381 0 Z M664 0 L755 0 L755 100 L664 100 L664 0 Z " />
<glyph glyph-name="perthousand" unicode="&#x2030;" horiz-adv-x="874" d="M681 158 C681 242 702 283 745 283 C787 283 808 244 808 164 C808 79 786 37 744 37 C702 37 681 76 681 158 L681 158 Z M627 155 C627 47 665 -7 744 -7 C819 -7 863 56 863 167 C863 274 824 327 747 327 C667 327 627 270 627 155 L627 155 Z M396 158 C396 242 418 283 461 283 C501 283 521 244 521 164 C521 79 500 37 458 37 C417 37 396 76 396 158 L396 158 Z M341 155 C341 47 380 -7 458 -7 C536 -7 574 51 574 167 C574 274 537 327 462 327 C382 327 341 270 341 155 L341 155 Z M101 0 L150 0 L489 625 L439 625 L101 0 Z M68 463 C68 546 89 589 132 589 C172 589 192 549 192 470 C192 384 171 341 129 341 C88 341 68 382 68 463 L68 463 Z M13 461 C13 352 51 298 130 298 C208 298 247 356 247 472 C247 579 209 632 132 632 C52 632 13 575 13 461 L13 461 Z " />
<glyph glyph-name="minute" unicode="&#x2032;" horiz-adv-x="212" d="M65 379 L79 519 C83 560 88 587 92 600 C103 636 123 655 154 655 C178 655 190 644 190 622 C190 615 189 606 186 598 C181 586 170 560 151 518 L85 379 L65 379 Z " />
<glyph glyph-name="second" unicode="&#x2033;" horiz-adv-x="403" d="M77 379 L91 519 C95 560 100 587 104 600 C115 636 135 655 166 655 C190 655 202 644 202 622 C202 615 201 606 198 598 C193 586 182 560 163 518 L97 379 L77 379 Z M238 379 L252 519 C256 560 261 587 265 600 C276 636 296 655 327 655 C351 655 363 644 363 622 C363 615 362 606 359 598 C354 586 343 560 324 518 L258 379 L238 379 Z " />
<glyph glyph-name="guilsinglleft" unicode="&#x2039;" horiz-adv-x="262" d="M96 249 L193 331 L193 406 L57 286 L57 211 L193 91 L193 167 L96 249 Z " />
<glyph glyph-name="guilsinglright" unicode="&#x203a;" horiz-adv-x="262" d="M166 249 L69 167 L69 91 L205 211 L205 286 L69 406 L69 331 L166 249 Z " />
<glyph glyph-name="exclamdbl" unicode="&#x203c;" horiz-adv-x="554" d="M132 101 L132 0 L36 0 L36 101 L132 101 Z M36 640 L132 640 L112 158 L55 158 L36 640 Z M364 101 L364 0 L268 0 L268 101 L364 101 Z M268 640 L364 640 L344 158 L287 158 L268 640 Z " />
<glyph glyph-name="&amp;#x2044;" unicode="&#x2044;" horiz-adv-x="146" d="M217 624 L271 624 L-69 0 L-122 0 L217 624 Z " />
<glyph glyph-name="&amp;#x2215;" unicode="&#x2215;" horiz-adv-x="146" d="M217 624 L271 624 L-69 0 L-122 0 L217 624 Z " />
<glyph glyph-name="uni207F" unicode="&#x207f;" horiz-adv-x="305" d="M100 484 C130 520 160 539 190 539 C237 539 261 505 261 439 L261 330 C261 307 266 293 275 289 C279 286 288 285 302 285 L302 269 L165 269 L165 285 C189 285 202 290 207 300 C209 304 210 313 210 330 L210 434 C210 477 196 497 168 497 C144 497 121 485 100 462 L100 330 C100 313 101 304 102 300 C106 290 121 285 143 285 L143 269 L7 269 L7 285 C28 285 41 290 44 299 C46 305 48 315 48 330 L48 425 C48 465 45 487 41 491 C38 493 34 494 27 494 C21 494 15 493 8 490 L1 506 L85 539 L100 539 L100 484 Z " />
<glyph glyph-name="franc" unicode="&#x20a3;" horiz-adv-x="483" d="M198 185 L327 185 L327 150 L198 150 L198 113 C198 80 200 60 204 49 C207 41 214 35 223 29 C238 21 251 17 267 17 L290 17 L290 0 L15 0 L15 17 L39 17 C65 17 84 25 96 41 C103 50 107 74 107 113 L107 150 L15 150 L15 185 L107 185 L107 527 C107 569 103 595 93 603 C80 616 61 623 39 623 L15 623 L15 640 L442 640 L448 500 L431 500 C417 551 394 583 363 596 C346 602 322 605 289 605 L198 605 L198 354 L281 354 C310 354 332 362 343 376 C354 388 361 410 365 442 L382 442 L382 224 L365 224 C365 289 342 314 281 314 L198 314 L198 185 Z " />
<glyph glyph-name="lira" unicode="&#x20a4;" horiz-adv-x="483" d="M143 266 L46 266 L46 311 L140 311 L136 356 L46 356 L46 401 L133 401 C132 415 132 426 132 439 C132 498 146 547 174 586 C205 631 249 654 307 654 C337 654 364 645 387 629 C413 610 425 586 425 557 C425 538 408 518 389 518 C366 518 355 538 352 575 C350 610 331 628 295 628 C238 628 209 586 209 504 C209 495 211 460 215 401 L341 401 L341 356 L218 356 C218 344 219 330 220 311 L341 311 L341 266 L220 266 C220 218 210 165 190 110 L276 83 C299 75 322 72 345 72 C397 72 430 97 444 147 L461 143 C456 102 443 67 422 39 C396 6 364 -11 326 -11 C299 -11 271 -3 243 13 C231 20 207 37 172 64 C148 15 119 -11 84 -11 C50 -11 29 15 29 49 C29 72 37 89 51 103 C66 117 84 123 106 123 C116 123 130 122 146 120 C147 140 148 156 148 167 C148 186 146 219 143 266 L143 266 Z M141 81 C127 90 113 95 101 95 C71 95 56 80 56 52 C56 28 66 16 86 16 C111 16 130 38 141 81 L141 81 Z " />
<glyph glyph-name="peseta" unicode="&#x20a7;" horiz-adv-x="1107" d="M278 323 C382 323 434 365 434 449 C434 523 388 560 294 560 L150 560 L150 323 L278 323 Z M733 412 C764 457 815 480 888 480 C938 480 979 467 1010 443 C1043 417 1061 379 1061 332 L978 332 C977 382 946 407 885 407 C859 407 837 402 821 391 C805 380 796 366 796 351 C796 334 809 320 836 308 L972 253 C1011 237 1039 220 1053 205 C1068 190 1074 167 1074 140 C1074 95 1057 58 1022 29 C987 0 942 -14 887 -14 C816 -14 765 6 733 44 L733 -10 C727 -10 718 -10 705 -12 C691 -13 682 -14 675 -14 C636 -14 611 -4 598 15 C584 34 577 70 577 122 L577 400 L522 400 C512 349 484 309 441 280 C402 255 357 242 304 242 L150 242 L150 0 L60 0 L60 640 L294 640 C357 640 408 628 449 603 C496 573 522 528 526 467 L577 467 L577 583 L658 583 L658 467 L733 467 L733 412 Z M783 153 C783 87 814 61 888 61 C948 61 987 88 987 128 C987 146 973 162 943 175 L796 238 C741 262 713 297 713 343 C713 364 718 383 726 400 L658 400 L658 116 C658 94 660 79 666 72 C673 63 688 59 709 59 C715 59 719 59 723 60 C707 85 699 117 699 153 L783 153 Z " />
<glyph glyph-name="Euro" unicode="&#x20ac;" horiz-adv-x="499" d="M478 569 C450 607 389 637 309 637 C172 637 95 550 81 404 L35 404 L13 338 L78 338 L78 274 L34 274 L12 210 L83 210 C102 63 179 -14 306 -14 C383 -14 442 25 449 32 L449 122 C434 97 366 57 299 57 C231 57 175 118 168 210 L356 210 L378 274 L163 274 L163 338 L401 338 L422 404 L166 404 C172 482 211 565 304 565 C381 565 427 528 449 484 L478 569 Z " />
<glyph glyph-name="afii61248" unicode="&#x2105;" horiz-adv-x="806" d="M299 444 C291 406 276 376 253 352 C228 324 198 310 161 310 C119 310 84 329 59 366 C36 399 24 438 24 483 C24 530 39 570 66 602 C96 637 133 655 180 655 C204 655 228 648 250 635 C277 620 289 601 289 577 C289 557 278 546 256 546 C232 546 220 561 217 587 C215 617 198 631 167 631 C144 631 126 623 111 604 C92 582 82 551 82 513 C82 466 95 428 119 399 C137 377 161 366 188 366 C211 366 232 374 250 390 C263 400 276 421 288 449 L299 444 Z M635 655 L168 -26 L127 -26 L593 655 L635 655 Z M625 335 C670 335 708 319 737 286 C766 253 781 215 781 168 C781 138 774 109 760 80 C731 20 681 -10 621 -10 C575 -10 538 8 509 42 C482 73 467 113 467 160 C467 206 482 247 511 280 C541 317 579 335 625 335 L625 335 Z M613 311 C560 311 534 271 534 189 C534 132 546 85 571 50 C589 27 610 15 636 15 C689 15 715 57 715 141 C715 198 703 244 678 278 C660 300 639 311 613 311 L613 311 Z " />
<glyph glyph-name="afii61289" unicode="&#x2113;" horiz-adv-x="463" d="M47 151 L137 242 L137 468 C137 519 147 561 166 594 C190 634 225 655 273 655 C329 655 366 620 366 563 C366 521 347 472 310 418 C291 388 258 347 211 295 L211 140 C211 56 238 15 291 15 C340 15 378 55 405 136 L422 136 C409 86 387 46 357 19 C333 -2 304 -13 271 -13 C211 -13 170 15 149 71 C141 90 137 123 137 170 L137 217 L59 139 L47 151 Z M211 321 C297 416 340 490 340 545 C340 568 335 586 325 602 C313 620 297 629 276 629 C233 629 211 586 211 501 L211 321 Z " />
<glyph glyph-name="afii61352" unicode="&#x2116;" horiz-adv-x="1023" d="M164 508 L505 0 L599 0 L599 640 L513 640 L513 133 L173 640 L78 640 L78 0 L164 0 L164 508 Z M668 313 C668 170 771 143 819 143 C845 143 970 152 970 313 C970 421 910 483 819 483 C697 483 668 376 668 313 L668 313 Z M739 313 C739 385 772 425 819 425 C886 425 899 346 899 313 C899 280 887 200 819 200 C772 200 739 241 739 313 L739 313 Z M680 0 L958 0 L958 68 L680 68 L680 0 Z " />
<glyph glyph-name="trademark" unicode="&#x2122;" horiz-adv-x="788" d="M122 590 L122 320 L190 320 L190 590 L294 590 L294 640 L18 640 L18 590 L122 590 Z M528 320 L576 320 L670 565 L674 565 L671 524 L671 320 L739 320 L739 640 L648 640 L562 420 L554 388 L551 388 L543 420 L457 640 L365 640 L365 320 L434 320 L434 524 L430 565 L435 565 L528 320 Z " />
<glyph glyph-name="estimated" unicode="&#x212e;" horiz-adv-x="580" d="M152 250 L152 75 C191 38 239 18 292 18 C372 18 434 57 479 134 L513 114 C482 70 450 38 420 18 C384 -4 342 -15 292 -15 C217 -15 156 10 109 61 C65 111 43 174 43 250 C43 327 65 391 109 440 C156 491 217 517 292 517 C369 517 429 492 475 441 C516 393 539 330 542 250 L152 250 Z M433 285 L433 425 C393 464 345 483 291 483 C236 483 190 463 152 425 L152 285 L433 285 Z " />
<glyph glyph-name="onethird" unicode="&#x2153;" horiz-adv-x="725" d="M598 654 L157 -25 L115 -25 L556 654 L598 654 Z M60 593 C88 595 108 600 119 607 C134 615 144 632 150 656 L185 656 L185 312 L140 312 L140 557 L60 557 L60 593 Z M670 88 C670 128 644 148 592 148 L569 148 L569 187 L591 187 C635 187 657 205 657 240 C657 273 634 293 597 293 C558 293 536 269 532 220 L487 220 C488 293 527 337 601 337 C660 337 705 303 705 242 C705 205 693 187 660 172 C698 162 717 134 717 90 C717 20 668 -24 597 -24 C522 -24 482 18 479 96 L525 96 C529 46 553 22 600 22 C639 22 670 46 670 88 L670 88 Z " />
<glyph glyph-name="twothirds" unicode="&#x2154;" horiz-adv-x="725" d="M610 654 L169 -25 L127 -25 L568 654 L610 654 Z M654 88 C654 128 628 148 576 148 L553 148 L553 187 L575 187 C619 187 641 205 641 240 C641 273 618 293 581 293 C542 293 520 269 516 220 L471 220 C472 293 511 337 585 337 C644 337 689 303 689 242 C689 205 677 187 644 172 C682 162 701 134 701 90 C701 20 652 -24 581 -24 C506 -24 466 18 463 96 L509 96 C513 46 537 22 584 22 C623 22 654 46 654 88 L654 88 Z M89 534 L44 534 C45 570 52 598 64 615 C85 647 117 662 160 662 C225 662 270 626 270 559 C270 477 194 454 143 422 C111 401 92 379 86 354 L269 354 L269 310 L36 310 C36 348 45 380 62 404 C74 421 95 439 124 456 C182 490 224 509 224 556 C224 594 196 618 159 618 C114 618 91 590 89 534 L89 534 Z " />
<glyph glyph-name="oneeighth" unicode="&#x215b;" horiz-adv-x="725" d="M610 654 L169 -25 L127 -25 L568 654 L610 654 Z M60 593 C88 595 108 600 119 607 C134 615 144 632 150 656 L185 656 L185 312 L140 312 L140 557 L60 557 L60 593 Z M531 171 C501 184 486 208 486 241 C486 304 533 337 592 337 C652 337 698 307 698 243 C698 208 683 184 655 171 C691 155 709 127 709 85 C709 18 660 -25 592 -25 C524 -25 476 16 476 84 C476 125 494 153 531 171 L531 171 Z M534 239 C534 206 554 189 592 189 C629 189 650 209 650 241 C650 274 625 293 592 293 C556 293 534 272 534 239 L534 239 Z M592 148 C553 148 522 119 522 82 C522 42 553 21 593 21 C633 21 662 46 662 85 C662 125 633 148 592 148 L592 148 Z " />
<glyph glyph-name="threeeighths" unicode="&#x215c;" horiz-adv-x="725" d="M610 654 L169 -25 L127 -25 L568 654 L610 654 Z M531 171 C501 184 486 208 486 241 C486 304 533 337 592 337 C652 337 698 307 698 243 C698 208 683 184 655 171 C691 155 709 127 709 85 C709 18 660 -25 592 -25 C524 -25 476 16 476 84 C476 125 494 153 531 171 L531 171 Z M534 239 C534 206 554 189 592 189 C629 189 650 209 650 241 C650 274 625 293 592 293 C556 293 534 272 534 239 L534 239 Z M592 148 C553 148 522 119 522 82 C522 42 553 21 593 21 C633 21 662 46 662 85 C662 125 633 148 592 148 L592 148 Z M234 404 C234 445 207 465 155 465 L132 465 L132 504 L154 504 C198 504 220 522 220 557 C220 591 198 612 160 612 C121 612 98 587 94 538 L49 538 C50 612 89 656 163 656 C224 656 269 622 269 560 C269 523 257 504 223 489 C262 479 282 451 282 406 C282 335 232 291 160 291 C84 291 43 334 41 412 L87 412 C90 362 116 338 162 338 C202 338 234 362 234 404 L234 404 Z " />
<glyph glyph-name="fiveeighths" unicode="&#x215d;" horiz-adv-x="725" d="M610 654 L169 -25 L127 -25 L568 654 L610 654 Z M531 171 C501 184 486 208 486 241 C486 304 533 337 592 337 C652 337 698 307 698 243 C698 208 683 184 655 171 C691 155 709 127 709 85 C709 18 660 -25 592 -25 C524 -25 476 16 476 84 C476 125 494 153 531 171 L531 171 Z M534 239 C534 206 554 189 592 189 C629 189 650 209 650 241 C650 274 625 293 592 293 C556 293 534 272 534 239 L534 239 Z M592 148 C553 148 522 119 522 82 C522 42 553 21 593 21 C633 21 662 46 662 85 C662 125 633 148 592 148 L592 148 Z M37 394 L84 394 C91 357 115 338 154 338 C199 338 229 366 229 412 C229 456 199 487 154 487 C128 487 106 476 88 455 L48 458 L76 652 L258 652 L258 606 L111 606 L95 509 C115 525 138 533 163 533 C230 533 276 485 276 418 C276 345 229 291 153 291 C85 291 43 328 37 394 L37 394 Z " />
<glyph glyph-name="seveneighths" unicode="&#x215e;" horiz-adv-x="725" d="M592 654 L151 -25 L109 -25 L550 654 L592 654 Z M538 171 C508 184 493 208 493 241 C493 304 540 337 599 337 C659 337 705 307 705 243 C705 208 690 184 662 171 C698 155 716 127 716 85 C716 18 667 -25 599 -25 C531 -25 483 16 483 84 C483 125 501 153 538 171 L538 171 Z M541 239 C541 206 561 189 599 189 C636 189 657 209 657 241 C657 274 632 293 599 293 C563 293 541 272 541 239 L541 239 Z M599 148 C560 148 529 119 529 82 C529 42 560 21 600 21 C640 21 669 46 669 85 C669 125 640 148 599 148 L599 148 Z M34 652 L282 652 L282 609 C207 519 158 413 134 290 L82 290 C102 408 152 513 229 604 L34 604 L34 652 Z " />
<glyph glyph-name="partialdiff" unicode="&#x2202;" horiz-adv-x="478" d="M439 338 C443 374 444 403 444 426 C444 480 430 523 403 554 C374 588 334 604 281 604 C221 604 174 579 139 529 L117 529 C139 574 161 607 186 630 C217 658 254 671 297 671 C365 671 414 639 445 573 C462 540 470 493 470 434 C470 322 446 222 397 134 C342 36 274 -15 190 -15 C141 -15 102 0 73 28 C44 56 30 95 30 143 C30 220 56 285 107 342 C161 400 221 428 291 428 C339 428 380 412 413 378 C422 368 429 356 439 338 L439 338 Z M430 297 C405 367 361 403 295 403 C228 403 177 359 140 271 C120 221 110 173 110 124 C110 93 117 67 132 46 C148 23 171 13 202 13 C241 13 280 33 321 73 C372 126 408 200 430 297 L430 297 Z " />
<glyph glyph-name="product" unicode="&#x220f;" horiz-adv-x="796" d="M585 633 L210 633 L210 -117 C210 -170 232 -190 286 -190 L304 -190 L304 -208 L21 -208 L21 -190 L39 -190 C93 -190 115 -170 115 -117 L115 580 C115 633 93 653 39 653 L21 653 L21 670 L775 670 L775 653 L758 653 C704 653 682 633 682 580 L682 -117 C682 -170 704 -190 758 -190 L775 -190 L775 -208 L492 -208 L492 -190 L509 -190 C564 -190 585 -170 585 -117 L585 633 Z " />
<glyph glyph-name="summation" unicode="&#x2211;" horiz-adv-x="689" d="M640 -208 L20 -208 L20 -190 L337 234 L20 653 L20 670 L624 670 L636 512 L618 512 C608 592 569 632 500 632 L151 632 L416 275 L119 -125 L505 -125 C527 -125 551 -121 577 -112 C613 -101 638 -66 652 -9 L670 -13 L640 -208 Z " />
<glyph glyph-name="minus" unicode="&#x2212;" horiz-adv-x="545" d="M526 341 L17 341 L17 302 L526 302 L526 341 Z " />
<glyph glyph-name="radical" unicode="&#x221a;" horiz-adv-x="531" d="M495 883 L530 883 L383 -37 L149 445 L55 402 L40 432 L181 504 L372 115 L495 883 Z " />
<glyph glyph-name="infinity" unicode="&#x221e;" horiz-adv-x="689" d="M308 315 C329 361 350 394 373 412 C400 434 437 446 483 446 C538 446 581 426 615 387 C648 350 664 304 664 249 C664 199 649 155 620 115 C588 73 547 50 499 50 C468 50 439 62 412 85 C395 101 370 133 340 186 C302 112 251 75 187 75 C139 75 100 93 69 127 C40 161 25 201 25 249 C25 296 38 335 62 368 C90 404 126 423 170 423 C203 423 231 413 254 392 C271 376 289 350 308 315 L308 315 Z M354 220 C372 180 391 151 409 133 C435 107 465 95 501 95 C543 95 577 110 602 141 C625 170 637 206 637 249 C637 289 625 325 601 357 C575 392 543 409 504 409 C462 409 427 386 403 339 C396 326 379 285 354 220 L354 220 Z M295 278 C265 346 222 380 168 380 C132 380 103 366 81 341 C61 317 51 287 51 250 C51 216 60 185 78 158 C99 128 126 112 160 112 C190 112 217 126 239 153 C253 170 273 212 295 278 L295 278 Z " />
<glyph glyph-name="intersection" unicode="&#x2229;" horiz-adv-x="698" d="M142 0 L91 0 L91 264 C91 343 92 394 94 413 C101 480 123 534 162 575 C212 628 274 654 348 654 C421 654 482 628 533 576 C573 536 597 477 603 400 C604 384 604 339 604 264 L604 0 L553 0 L553 267 C553 337 552 381 550 400 C544 462 526 509 496 542 C456 583 407 603 347 603 C302 603 260 590 223 562 C195 541 176 516 164 490 C154 463 146 425 144 380 C143 366 142 328 142 267 L142 0 Z " />
<glyph glyph-name="integral" unicode="&#x222b;" horiz-adv-x="265" d="M95 423 L103 697 C104 743 112 782 127 817 C143 859 170 880 205 880 C220 880 233 875 246 865 C258 855 264 843 264 829 C264 803 248 780 221 780 C210 780 198 785 185 797 C178 804 171 806 166 806 C154 806 147 797 147 777 C147 763 149 740 152 708 C163 577 169 473 169 395 C169 380 166 287 161 116 C159 23 144 -40 119 -72 C103 -93 81 -103 56 -103 C22 -103 0 -80 0 -46 C0 -15 15 0 43 0 C54 0 65 -5 75 -15 C85 -24 93 -30 99 -30 C110 -30 117 -20 117 -1 C117 13 115 31 112 55 C107 101 103 153 101 215 C96 318 94 387 95 423 L95 423 Z " />
<glyph glyph-name="approxequal" unicode="&#x2248;" horiz-adv-x="531" d="M497 490 L517 490 C516 454 506 425 486 400 C465 374 438 362 403 362 C381 362 350 368 312 383 C283 395 255 406 226 419 C178 439 142 449 122 449 C75 449 45 420 35 363 L15 363 C16 417 36 454 71 476 C88 485 106 491 124 491 C137 491 152 489 165 484 C199 476 245 458 303 433 C335 420 360 410 377 405 C386 403 396 402 408 402 C461 402 490 431 497 490 L497 490 Z M497 258 L517 258 C516 221 506 192 486 168 C465 142 438 129 403 129 C388 129 365 133 332 143 L226 187 C178 206 143 217 122 217 C75 217 45 188 35 130 L15 130 C16 184 36 221 71 243 C88 254 105 259 123 259 C137 259 151 257 165 253 C197 244 243 226 303 201 C334 188 359 179 377 174 C387 171 397 170 408 170 C461 170 490 199 497 258 L497 258 Z " />
<glyph glyph-name="notequal" unicode="&#x2260;" horiz-adv-x="531" d="M12 386 L296 386 L396 638 L433 638 L336 386 L519 386 L519 342 L318 342 L250 167 L519 167 L519 123 L233 123 L133 -127 L96 -127 L194 123 L12 123 L12 167 L212 167 L280 342 L12 342 L12 386 Z " />
<glyph glyph-name="equivalence" unicode="&#x2261;" horiz-adv-x="545" d="M18 494 L527 494 L527 455 L18 455 L18 494 Z M18 340 L527 340 L527 302 L18 302 L18 340 Z M18 186 L527 186 L527 147 L18 147 L18 186 Z " />
<glyph glyph-name="lessequal" unicode="&#x2264;" horiz-adv-x="542" d="M475 95 L49 282 L49 332 L475 520 L475 454 L135 308 L475 162 L475 95 Z M51 0 L51 68 L475 68 L475 0 L51 0 Z " />
<glyph glyph-name="greaterequal" unicode="&#x2265;" horiz-adv-x="531" d="M49 520 L475 332 L475 282 L49 95 L49 162 L389 308 L49 454 L49 520 Z M51 0 L51 68 L475 68 L475 0 L51 0 Z " />
<glyph glyph-name="revlogicalnot" unicode="&#x2310;" horiz-adv-x="545" d="M528 415 L528 376 L55 376 L55 222 L18 222 L18 415 L528 415 Z " />
<glyph glyph-name="H22073" unicode="&#x25a1;" horiz-adv-x="584" d="M69 446 L514 446 L514 0 L69 0 L69 446 Z M104 410 L104 36 L479 36 L479 410 L104 410 Z " />
<glyph glyph-name="H18543" unicode="&#x25aa;" horiz-adv-x="342" d="M280 429 L280 210 L62 210 L62 428 L280 429 Z " />
<glyph glyph-name="H18551" unicode="&#x25ab;" horiz-adv-x="342" d="M280 429 L280 210 L62 210 L62 428 L280 429 Z M245 394 L98 393 L98 246 L245 246 L245 394 Z " />
<glyph glyph-name="lozenge" unicode="&#x25ca;" horiz-adv-x="478" d="M259 671 L456 335 L259 0 L207 0 L22 335 L207 671 L259 671 Z M234 626 L73 335 L234 44 L403 335 L234 626 Z " />
<glyph glyph-name="H18533" unicode="&#x25cf;" horiz-adv-x="584" d="M292 481 C329 481 364 471 396 453 C429 434 454 408 472 377 C490 343 500 308 500 273 C500 215 480 165 440 125 C399 85 350 65 292 65 C234 65 185 85 144 125 C104 165 84 215 84 273 C84 310 94 345 112 378 C132 411 158 436 190 454 C223 472 257 481 292 481 L292 481 Z " />
<glyph glyph-name="openbullet" unicode="&#x25e6;" horiz-adv-x="342" d="M171 438 C204 438 232 426 255 403 C278 381 290 353 290 320 C290 286 278 259 255 236 C232 213 204 201 171 201 C138 201 110 213 87 236 C64 259 53 286 53 320 C53 353 64 381 87 403 C110 426 138 438 171 438 L171 438 Z M171 402 C148 402 129 395 113 378 C97 363 89 342 89 320 C89 297 97 278 113 261 C129 245 148 237 171 237 C194 237 214 245 230 261 C246 278 254 297 254 320 C254 342 246 363 230 378 C214 395 194 402 171 402 L171 402 Z " />
<glyph glyph-name="fi" unicode="&#xfb01;" horiz-adv-x="508" d="M29 400 L88 400 L88 0 L169 0 L169 400 L249 400 L249 467 L169 467 L169 514 C169 558 185 579 218 579 C223 579 235 577 249 573 L249 648 C225 651 209 652 198 652 C100 652 88 581 88 501 L88 467 L29 467 L29 400 Z M451 547 L451 640 L370 640 L370 547 L451 547 Z M370 467 L370 0 L451 0 L451 467 L370 467 Z " />
<glyph glyph-name="fl" unicode="&#xfb02;" horiz-adv-x="485" d="M29 400 L88 400 L88 0 L169 0 L169 400 L249 400 L249 467 L169 467 L169 514 C169 558 185 579 218 579 C223 579 235 577 249 573 L249 648 C225 651 209 652 198 652 C100 652 88 581 88 501 L88 467 L29 467 L29 400 Z M336 0 L417 0 L417 640 L336 640 L336 0 Z " />
</font>
</svg>
