<?xml version="1.0" encoding="UTF-8"?>
<svg xmlns="http://www.w3.org/2000/svg" xmlns:xlink="http://www.w3.org/1999/xlink" version="1.2" >
<font id="Helen Pro Bold">
<font-face  font-family="Helen Pro" units-per-em="1000" ascent="640" descent="-181" font-style="normal" font-weight="700" font-stretch="normal" cap-height="640" x-height="468" underline-position="-75" underline-thickness="50" />
<missing-glyph  horiz-adv-x="538" d="M47 466 L47 17 L496 17 L496 466 L47 466 Z M299 241 L460 402 L460 81 L299 241 Z M110 430 L430 430 L271 270 L110 430 Z M270 212 L432 53 L111 53 L270 212 Z M242 241 L83 81 L83 399 L242 241 Z " />
<glyph glyph-name="NULL" d="" />
<glyph glyph-name="CR" unicode="&#xd;" horiz-adv-x="250" d="" />
<glyph glyph-name="space" unicode="&#x20;" horiz-adv-x="261" d="" />
<glyph glyph-name="exclam" unicode="&#x21;" horiz-adv-x="304" d="M214 0 L214 130 L79 130 L79 0 L214 0 Z M189 181 L212 640 L80 640 L104 181 L189 181 Z " />
<glyph glyph-name="quotedbl" unicode="&#x22;" horiz-adv-x="416" d="M256 640 L279 383 L343 383 L368 640 L256 640 Z M49 640 L72 383 L137 383 L161 640 L49 640 Z " />
<glyph glyph-name="numbersign" unicode="&#x23;" horiz-adv-x="523" d="M191 276 L205 377 L307 377 L291 276 L191 276 Z M379 377 L479 377 L479 448 L390 448 L418 640 L345 640 L318 448 L216 448 L244 640 L174 640 L147 448 L37 448 L37 377 L135 377 L120 276 L11 276 L11 205 L108 205 L77 0 L147 0 L181 205 L281 205 L250 0 L324 0 L355 205 L454 205 L454 276 L365 276 L379 377 Z " />
<glyph glyph-name="dollar" unicode="&#x24;" horiz-adv-x="509" d="M342 176 C342 131 320 105 274 99 L274 252 C320 239 342 213 342 176 L342 176 Z M220 390 C175 406 153 429 153 461 C153 498 175 521 220 530 L220 390 Z M26 205 C34 74 86 15 220 0 L220 -95 L274 -95 L274 0 C400 15 463 76 463 182 C463 300 396 334 274 374 L274 528 C321 518 335 488 338 441 L454 441 C452 553 387 618 274 628 L274 702 L220 702 L220 628 C100 612 39 552 39 449 C39 340 119 301 220 272 L220 99 C159 118 151 135 144 205 L26 205 Z " />
<glyph glyph-name="percent" unicode="&#x25;" horiz-adv-x="741" d="M575 262 C615 262 620 213 620 153 C620 80 605 44 577 44 C538 44 532 80 532 149 C532 209 536 262 575 262 L575 262 Z M573 -12 C651 -12 689 45 689 161 C689 264 652 316 577 316 C500 316 461 260 461 149 C461 42 499 -12 573 -12 L573 -12 Z M256 0 L584 628 L523 628 L194 0 L256 0 Z M205 584 C244 584 248 535 248 478 C248 403 234 366 205 366 C161 366 160 421 160 472 C160 535 162 584 205 584 L205 584 Z M201 312 C279 312 318 369 318 484 C318 588 280 640 205 640 C129 640 90 584 90 474 C90 366 127 312 201 312 L201 312 Z " />
<glyph glyph-name="ampersand" unicode="&#x26;" horiz-adv-x="621" d="M241 490 C241 520 262 539 293 539 C327 539 343 522 343 490 C343 447 318 437 282 411 C254 444 241 470 241 490 L241 490 Z M365 136 C331 106 298 92 265 92 C213 92 176 130 176 178 C176 223 204 247 249 278 L365 136 Z M54 169 C54 53 140 -15 254 -15 C326 -15 377 18 429 55 L474 0 L621 0 L505 142 C543 194 567 257 575 333 L466 333 C458 286 449 251 437 225 L345 337 C414 384 448 437 448 495 C448 586 377 637 289 637 C198 637 127 584 127 488 C127 428 152 398 186 355 C117 312 54 259 54 169 L54 169 Z " />
<glyph glyph-name="quotesingle" unicode="&#x27;" horiz-adv-x="204" d="M42 639 L64 382 L130 382 L154 639 L42 639 Z " />
<glyph glyph-name="parenleft" unicode="&#x28;" horiz-adv-x="339" d="M41 224 C41 148 55 74 83 3 C106 -54 144 -119 196 -192 L293 -192 C209 -54 166 84 166 224 C167 378 207 496 293 640 L196 640 C99 498 41 388 41 224 L41 224 Z " />
<glyph glyph-name="parenright" unicode="&#x29;" horiz-adv-x="329" d="M252 224 C250 390 198 498 97 640 L0 640 C84 502 127 363 127 224 C127 62 90 -37 0 -192 L97 -192 C194 -52 252 62 252 224 L252 224 Z " />
<glyph glyph-name="asterisk" unicode="&#x2a;" horiz-adv-x="354" d="M17 500 L103 468 L51 398 L116 351 L170 425 L226 351 L291 398 L239 468 L324 500 L299 577 L213 549 L213 640 L130 640 L130 549 L44 577 L17 500 Z " />
<glyph glyph-name="plus" unicode="&#x2b;" horiz-adv-x="511" d="M213 101 L300 101 L300 265 L468 265 L468 353 L300 353 L300 514 L213 514 L213 353 L44 353 L44 265 L213 265 L213 101 Z " />
<glyph glyph-name="comma" unicode="&#x2c;" horiz-adv-x="252" d="M129 0 C129 -29 124 -51 113 -66 C102 -80 83 -92 57 -100 L57 -149 C102 -143 135 -126 159 -95 C180 -66 190 -28 190 17 L190 132 L57 132 L57 0 L129 0 Z " />
<glyph glyph-name="&amp;#x2d;" unicode="&#x2d;" horiz-adv-x="300" d="M270 190 L270 295 L22 295 L22 190 L270 190 Z " />
<glyph glyph-name="&amp;#xad;" unicode="&#xad;" horiz-adv-x="300" d="M270 190 L270 295 L22 295 L22 190 L270 190 Z " />
<glyph glyph-name="period" unicode="&#x2e;" horiz-adv-x="300" d="M213 0 L213 130 L81 130 L81 0 L213 0 Z " />
<glyph glyph-name="slash" unicode="&#x2f;" horiz-adv-x="291" d="M63 -181 L244 640 L168 640 L-12 -181 L63 -181 Z " />
<glyph glyph-name="zero" unicode="0" horiz-adv-x="497" d="M246 95 C165 95 155 177 155 308 C155 446 164 534 248 534 C334 534 334 406 334 316 C334 166 318 95 246 95 L246 95 Z M242 -12 C388 -12 461 103 461 334 C461 538 390 640 248 640 C97 640 28 536 28 308 C28 95 100 -12 242 -12 L242 -12 Z " />
<glyph glyph-name="one" unicode="1" horiz-adv-x="497" d="M214 431 L214 0 L338 0 L338 628 L242 628 C231 582 212 551 183 537 C162 526 125 520 72 519 L72 431 L214 431 Z " />
<glyph glyph-name="two" unicode="2" horiz-adv-x="497" d="M446 108 L179 108 C200 136 236 169 288 206 C342 246 379 277 397 299 C432 342 448 384 448 437 C448 567 360 640 239 640 C97 640 32 551 32 409 L151 409 C155 498 180 534 241 534 C293 534 319 503 319 442 C319 397 295 352 243 308 L101 189 C50 133 24 71 24 0 L446 0 L446 108 Z " />
<glyph glyph-name="three" unicode="3" horiz-adv-x="497" d="M26 200 C27 164 29 138 34 121 C62 35 132 -12 239 -12 C369 -12 454 69 454 193 C454 257 425 305 365 338 C412 371 435 414 435 465 C435 583 349 640 239 640 C105 640 39 557 35 433 L149 433 C156 493 169 534 235 534 C283 534 314 504 314 458 C314 426 305 404 285 391 C267 378 235 371 188 370 L188 279 C242 278 278 271 297 258 C316 246 326 221 326 188 C326 135 293 95 239 95 C180 95 153 125 145 200 L26 200 Z " />
<glyph glyph-name="four" unicode="4" horiz-adv-x="497" d="M297 241 L116 241 L297 502 L297 241 Z M297 135 L297 0 L422 0 L422 135 L485 135 L485 241 L422 241 L422 628 L265 628 L19 270 L19 135 L297 135 Z " />
<glyph glyph-name="five" unicode="5" horiz-adv-x="497" d="M28 170 C45 51 111 -12 239 -12 C378 -12 460 85 460 218 C460 333 390 420 270 420 C228 420 190 407 157 384 L179 517 L435 517 L435 625 L93 625 L47 279 L157 274 C181 301 210 314 241 314 C302 314 332 277 332 201 C332 135 297 95 241 95 C194 95 163 122 149 176 L28 170 Z " />
<glyph glyph-name="six" unicode="6" horiz-adv-x="497" d="M246 310 C301 310 334 270 334 205 C334 132 304 95 246 95 C190 95 155 137 155 205 C155 272 189 310 246 310 L246 310 Z M254 534 C290 534 313 513 324 474 L446 474 C426 584 364 640 258 640 C104 640 28 524 28 291 C28 89 102 -12 249 -12 C384 -12 461 84 461 214 C461 328 394 418 274 418 C227 418 185 398 147 362 C153 451 176 534 254 534 L254 534 Z " />
<glyph glyph-name="seven" unicode="7" horiz-adv-x="497" d="M343 516 C252 401 190 290 157 184 C140 132 129 71 123 0 L250 0 C269 203 344 378 478 524 L478 625 L35 625 L35 516 L343 516 Z " />
<glyph glyph-name="eight" unicode="8" horiz-adv-x="497" d="M246 534 C291 534 321 504 321 456 C321 411 291 381 246 381 C200 381 168 412 168 458 C168 502 201 534 246 534 L246 534 Z M244 281 C299 281 334 244 334 186 C334 135 296 95 244 95 C190 95 157 132 157 190 C157 246 190 281 244 281 L244 281 Z M28 184 C28 57 122 -12 242 -12 C365 -12 460 64 460 188 C460 261 426 311 360 340 C415 366 442 409 442 468 C442 578 358 640 246 640 C131 640 47 576 47 461 C47 400 74 360 128 340 C61 307 28 255 28 184 L28 184 Z " />
<glyph glyph-name="nine" unicode="9" horiz-adv-x="497" d="M244 319 C190 319 155 361 155 425 C155 493 188 534 242 534 C300 534 334 491 334 423 C334 358 301 319 244 319 L244 319 Z M233 95 C200 95 177 115 163 155 L44 155 C61 44 123 -12 230 -12 C384 -12 461 104 461 337 C461 493 410 640 239 640 C109 640 28 549 28 416 C28 298 94 213 216 213 C259 213 302 230 342 267 C333 188 320 95 233 95 L233 95 Z " />
<glyph glyph-name="colon" unicode="&#x3a;" horiz-adv-x="309" d="M213 338 L213 468 L81 468 L81 338 L213 338 Z M213 0 L213 130 L81 130 L81 0 L213 0 Z " />
<glyph glyph-name="semicolon" unicode="&#x3b;" horiz-adv-x="304" d="M154 0 C154 -57 134 -84 81 -100 L81 -149 C126 -143 159 -126 182 -95 C202 -66 213 -28 213 17 L213 132 L81 132 L81 0 L154 0 Z M213 338 L213 468 L81 468 L81 338 L213 338 Z " />
<glyph glyph-name="less" unicode="&#x3c;" horiz-adv-x="556" d="M130 307 L468 453 L468 521 L44 332 L44 284 L468 95 L468 163 L130 307 Z " />
<glyph glyph-name="equal" unicode="&#x3d;" horiz-adv-x="524" d="M468 279 L44 279 L44 198 L468 198 L468 279 Z M468 420 L44 420 L44 338 L468 338 L468 420 Z " />
<glyph glyph-name="greater" unicode="&#x3e;" horiz-adv-x="528" d="M384 307 L44 163 L44 95 L470 284 L470 332 L44 521 L44 453 L384 307 Z " />
<glyph glyph-name="question" unicode="&#x3f;" horiz-adv-x="545" d="M328 0 L328 130 L194 130 L194 0 L328 0 Z M479 465 C479 590 382 653 260 653 C119 653 48 577 44 442 L168 442 C174 515 200 545 260 545 C310 545 342 514 342 465 C342 440 337 418 321 401 C285 364 237 343 215 292 C206 272 201 239 201 193 L319 193 C320 233 335 266 363 293 L438 357 C465 384 479 421 479 465 L479 465 Z " />
<glyph glyph-name="at" unicode="&#x40;" horiz-adv-x="834" d="M349 302 C349 354 389 396 435 396 C476 396 505 366 505 323 C505 270 468 228 418 228 C377 228 349 258 349 302 L349 302 Z M453 54 C286 55 176 163 176 321 C176 473 281 586 442 586 C581 586 685 497 685 356 C685 291 646 194 590 194 C578 194 575 200 575 208 C575 215 577 224 579 233 L621 483 L539 483 L530 437 C506 469 471 485 426 485 C317 485 246 389 246 286 C246 203 294 133 386 132 C423 132 453 146 478 174 C478 143 494 128 528 128 C576 128 648 172 681 207 C723 252 745 310 745 379 C745 544 598 653 444 653 C250 653 112 506 112 319 C112 129 259 -12 446 -12 C564 -12 636 37 707 127 L627 127 C572 78 514 54 453 54 L453 54 Z " />
<glyph glyph-name="A" unicode="A" horiz-adv-x="602" d="M300 493 L381 242 L220 242 L300 493 Z M182 135 L416 135 L460 0 L602 0 L377 640 L228 640 L0 0 L139 0 L182 135 Z " />
<glyph glyph-name="B" unicode="B" horiz-adv-x="616" d="M191 524 L326 524 C398 524 426 504 426 456 C426 402 396 386 323 386 L191 386 L191 524 Z M191 279 L321 279 C398 279 448 270 448 194 C448 120 393 116 319 116 L191 116 L191 279 Z M60 0 L363 0 C509 0 583 63 583 190 C583 272 533 338 445 341 C510 353 562 414 562 474 C562 530 541 573 498 605 C467 629 414 640 338 640 L60 640 L60 0 Z " />
<glyph glyph-name="C" unicode="C" horiz-adv-x="639" d="M332 653 C135 653 35 505 35 316 C35 128 132 -12 328 -12 C476 -12 574 77 599 224 L466 224 C444 144 399 103 330 103 C218 103 172 202 172 316 C172 457 231 537 337 537 C405 537 448 501 466 428 L599 428 C584 575 472 653 332 653 L332 653 Z " />
<glyph glyph-name="D" unicode="D" horiz-adv-x="636" d="M60 0 L60 640 L307 640 C376 640 428 631 465 614 C565 566 599 443 599 332 C599 210 559 76 449 24 C415 8 365 0 299 0 L60 0 Z M191 524 L191 116 L295 116 C398 116 463 153 463 326 C463 451 430 524 295 524 L191 524 Z " />
<glyph glyph-name="E" unicode="E" horiz-adv-x="559" d="M534 0 L534 116 L191 116 L191 279 L491 279 L491 388 L191 388 L191 524 L519 524 L519 640 L60 640 L60 0 L534 0 Z " />
<glyph glyph-name="F" unicode="F" horiz-adv-x="530" d="M191 0 L191 272 L468 272 L468 379 L191 379 L191 524 L509 524 L509 640 L60 640 L60 0 L191 0 Z " />
<glyph glyph-name="G" unicode="G" horiz-adv-x="682" d="M360 237 L504 237 C485 148 434 103 349 103 C228 104 172 203 172 319 C172 438 227 537 351 537 C420 537 466 504 489 437 L625 437 C608 573 501 653 349 653 C152 653 35 507 35 316 C35 137 140 -12 328 -12 C407 -12 471 19 521 80 L534 0 L625 0 L625 345 L360 345 L360 237 Z " />
<glyph glyph-name="H" unicode="H" horiz-adv-x="641" d="M191 278 L460 278 L460 0 L591 0 L591 640 L460 640 L460 392 L191 392 L191 640 L60 640 L60 0 L191 0 L191 278 Z " />
<glyph glyph-name="I" unicode="I" horiz-adv-x="245" d="M189 0 L189 640 L57 640 L57 0 L189 0 Z " />
<glyph glyph-name="J" unicode="J" horiz-adv-x="496" d="M28 216 L28 241 L153 241 L153 209 C153 138 176 103 222 103 C296 103 299 158 299 241 L299 640 L429 640 L429 265 C429 104 408 -12 233 -12 C78 -12 28 64 28 216 L28 216 Z " />
<glyph glyph-name="K" unicode="K" horiz-adv-x="642" d="M191 0 L191 216 L254 279 L465 0 L633 0 L355 375 L618 640 L451 640 L191 365 L191 640 L60 640 L60 0 L191 0 Z " />
<glyph glyph-name="L" unicode="L" horiz-adv-x="516" d="M502 0 L502 116 L191 116 L191 640 L60 640 L60 0 L502 0 Z " />
<glyph glyph-name="M" unicode="M" horiz-adv-x="815" d="M191 537 L343 0 L472 0 L625 537 L625 0 L756 0 L756 640 L548 640 L439 273 C425 226 415 186 409 151 C396 213 386 253 380 274 L273 640 L60 640 L60 0 L191 0 L191 537 Z " />
<glyph glyph-name="N" unicode="N" horiz-adv-x="628" d="M184 446 L451 0 L575 0 L575 640 L451 640 L451 194 L190 640 L60 640 L60 0 L184 0 L184 446 Z " />
<glyph glyph-name="O" unicode="O" horiz-adv-x="683" d="M170 328 C170 445 228 536 342 537 C454 537 513 444 513 326 C513 213 460 103 340 103 C216 103 170 215 170 328 L170 328 Z M343 -12 C540 -11 647 145 647 330 C647 521 532 653 343 653 C145 653 35 508 35 318 C35 131 153 -12 343 -12 L343 -12 Z " />
<glyph glyph-name="P" unicode="P" horiz-adv-x="575" d="M191 524 L295 524 C369 524 407 491 407 425 C407 363 369 332 293 332 L191 332 L191 524 Z M60 0 L191 0 L191 216 L318 216 C446 216 543 298 543 434 C543 594 440 640 323 640 L60 640 L60 0 Z " />
<glyph glyph-name="Q" unicode="Q" horiz-adv-x="695" d="M342 653 C144 653 35 507 35 319 C35 132 147 -12 343 -12 C407 -12 461 3 505 32 L579 -42 L649 32 L579 101 C625 161 647 238 647 330 C647 522 526 653 342 653 L342 653 Z M420 248 L355 177 L414 120 C393 108 368 103 340 103 C222 103 170 201 170 318 C170 436 222 537 342 537 C460 537 513 439 513 326 C513 275 503 229 483 190 L420 248 Z " />
<glyph glyph-name="R" unicode="R" horiz-adv-x="613" d="M191 524 L316 524 C392 524 435 517 435 444 C435 370 390 362 316 362 L191 362 L191 524 Z M191 0 L191 252 L312 252 C366 252 398 240 410 214 C416 203 419 165 422 102 C424 59 426 26 437 0 L583 0 C564 16 554 59 554 128 C554 206 546 251 530 272 C516 289 498 302 474 309 C539 338 571 387 571 456 C571 521 548 571 504 603 C458 637 418 640 340 640 L60 640 L60 0 L191 0 Z " />
<glyph glyph-name="S" unicode="S" horiz-adv-x="587" d="M35 200 C43 51 149 -12 300 -12 C435 -12 551 55 551 188 C551 278 504 316 420 347 L220 423 C190 434 176 451 176 472 C176 525 235 545 284 545 C352 545 392 513 403 446 L532 446 C524 579 437 653 282 653 C155 653 47 587 47 458 C47 385 89 333 172 300 L365 224 C401 210 420 192 420 170 C415 113 359 95 302 95 C222 95 176 130 161 200 L35 200 Z " />
<glyph glyph-name="T" unicode="T" horiz-adv-x="536" d="M203 524 L203 0 L336 0 L336 524 L524 524 L524 640 L13 640 L13 524 L203 524 Z " />
<glyph glyph-name="U" unicode="U" horiz-adv-x="636" d="M444 640 L444 248 C444 152 418 103 316 103 C218 103 191 152 191 248 L191 640 L60 640 L60 246 C60 65 144 -12 324 -12 C509 -12 575 86 575 246 L575 640 L444 640 Z " />
<glyph glyph-name="V" unicode="V" horiz-adv-x="586" d="M351 0 L573 640 L439 640 L324 277 C307 223 300 183 293 157 C283 197 274 239 262 278 L153 640 L13 640 L226 0 L351 0 Z " />
<glyph glyph-name="W" unicode="W" horiz-adv-x="835" d="M318 0 L392 365 C398 396 403 436 411 487 C420 433 425 393 431 365 L505 0 L635 0 L818 640 L686 640 L599 279 C586 225 579 185 573 158 C566 217 560 257 556 279 L489 640 L338 640 L272 284 C262 231 257 191 252 164 C243 218 236 257 232 284 L149 640 L13 640 L191 0 L318 0 Z " />
<glyph glyph-name="X" unicode="X" horiz-adv-x="583" d="M291 232 L420 0 L573 0 L363 330 L560 640 L412 640 L291 428 L170 640 L19 640 L216 324 L13 0 L158 0 L291 232 Z " />
<glyph glyph-name="Y" unicode="Y" horiz-adv-x="589" d="M230 0 L362 0 L362 241 L573 640 L431 640 L299 365 L160 640 L13 640 L230 241 L230 0 Z " />
<glyph glyph-name="Z" unicode="Z" horiz-adv-x="544" d="M509 0 L509 116 L186 116 L509 532 L509 640 L37 640 L37 524 L351 524 L28 108 L28 0 L509 0 Z " />
<glyph glyph-name="bracketleft" unicode="&#x5b;" horiz-adv-x="333" d="M273 -181 L273 -72 L187 -72 L187 532 L273 532 L273 640 L62 640 L62 -181 L273 -181 Z " />
<glyph glyph-name="backslash" unicode="&#x5c;" horiz-adv-x="274" d="M181 -181 L256 -181 L77 640 L2 640 L181 -181 Z " />
<glyph glyph-name="bracketright" unicode="&#x5d;" horiz-adv-x="308" d="M21 640 L21 532 L107 532 L107 -72 L21 -72 L21 -181 L232 -181 L232 640 L21 640 Z " />
<glyph glyph-name="asciicircum" unicode="&#x5e;" horiz-adv-x="498" d="M333 446 L387 446 L283 642 L232 642 L127 446 L182 446 L257 579 L333 446 Z " />
<glyph glyph-name="underscore" unicode="&#x5f;" horiz-adv-x="487" d="M487 -145 L487 -77 L0 -77 L0 -145 L487 -145 Z " />
<glyph glyph-name="grave" unicode="&#x60;" horiz-adv-x="284" d="M156 537 L242 537 L183 666 L53 666 L156 537 Z " />
<glyph glyph-name="a" unicode="a" horiz-adv-x="502" d="M318 220 L318 191 C318 121 283 86 214 86 C176 86 149 107 149 139 C149 173 176 194 228 203 L318 220 Z M155 318 C160 363 187 385 236 385 C301 385 316 362 316 297 C257 292 201 284 149 274 C66 257 24 208 24 128 C24 45 80 -12 163 -12 C237 -12 267 8 318 63 C319 40 326 18 338 0 L465 0 C450 17 442 41 442 72 L442 307 C442 444 368 481 236 481 C127 481 43 430 39 318 L155 318 Z " />
<glyph glyph-name="b" unicode="b" horiz-adv-x="553" d="M383 235 C383 141 350 95 286 95 C220 95 188 141 188 235 C188 328 220 374 286 374 C350 374 383 328 383 235 L383 235 Z M184 0 L184 80 C219 19 263 -12 319 -12 C450 -12 509 111 509 242 C509 365 454 481 326 481 C272 481 224 453 184 396 L184 640 L60 640 L60 0 L184 0 Z " />
<glyph glyph-name="c" unicode="c" horiz-adv-x="491" d="M248 481 C100 481 28 375 28 233 C28 88 97 -12 248 -12 C370 -12 442 50 461 174 L337 174 C324 115 296 86 252 86 C187 86 155 135 155 233 C155 328 190 383 254 383 C298 383 325 356 337 302 L461 302 C450 418 372 481 248 481 L248 481 Z " />
<glyph glyph-name="d" unicode="d" horiz-adv-x="534" d="M252 374 C323 372 349 304 349 237 C349 149 312 95 252 95 C180 95 155 166 155 233 C155 301 179 374 252 374 L252 374 Z M222 481 C94 481 28 366 28 232 C28 106 89 -12 218 -12 C281 -12 326 20 353 82 L353 0 L478 0 L478 640 L353 640 L353 400 C322 451 288 481 222 481 L222 481 Z " />
<glyph glyph-name="e" unicode="e" horiz-adv-x="491" d="M323 137 C312 101 286 81 246 81 C184 81 157 135 157 197 L157 211 L460 211 C461 218 461 225 461 233 C461 394 385 481 246 481 C97 481 28 376 28 232 C28 90 98 -12 246 -12 C357 -12 426 28 451 137 L323 137 Z M157 291 C163 352 192 383 244 383 C296 383 324 352 330 291 L157 291 Z " />
<glyph glyph-name="f" unicode="f" horiz-adv-x="301" d="M79 379 L79 0 L203 0 L203 379 L281 379 L281 468 L203 468 L203 497 C203 536 228 541 260 541 L279 541 L279 640 C253 643 234 644 221 644 C161 644 123 629 103 600 C87 575 79 532 79 468 L13 468 L13 379 L79 379 Z " />
<glyph glyph-name="g" unicode="g" horiz-adv-x="542" d="M250 374 C316 374 349 329 349 239 C349 148 317 103 252 103 C190 103 155 153 155 237 C155 328 187 374 250 374 L250 374 Z M248 -192 C461 -192 478 -70 478 69 L478 468 L353 468 L353 398 C321 454 276 481 218 481 C84 481 28 359 28 228 C28 110 94 -3 218 -3 C279 -3 324 24 353 77 L353 58 C353 -22 346 -95 248 -95 C208 -95 183 -80 172 -50 L39 -50 C53 -145 123 -192 248 -192 L248 -192 Z " />
<glyph glyph-name="h" unicode="h" horiz-adv-x="534" d="M194 0 L194 200 C194 311 207 374 291 374 C342 374 368 342 368 278 L368 0 L493 0 L493 300 C493 402 454 481 336 481 C267 481 240 456 194 407 L194 640 L71 640 L71 0 L194 0 Z " />
<glyph glyph-name="i" unicode="i" horiz-adv-x="250" d="M185 524 L185 640 L60 640 L60 524 L185 524 Z M185 0 L185 468 L60 468 L60 0 L185 0 Z " />
<glyph glyph-name="j" unicode="j" horiz-adv-x="232" d="M194 524 L194 640 L71 640 L71 524 L194 524 Z M15 -190 C36 -192 53 -192 63 -192 C145 -192 188 -154 193 -86 C194 -75 194 -50 194 -12 L194 468 L71 468 L71 -42 C71 -70 66 -93 35 -93 C29 -93 22 -92 15 -91 L15 -190 Z " />
<glyph glyph-name="k" unicode="k" horiz-adv-x="505" d="M184 0 L184 151 L235 205 L338 0 L487 0 L312 286 L487 468 L338 468 L184 286 L184 640 L60 640 L60 0 L184 0 Z " />
<glyph glyph-name="l" unicode="l" horiz-adv-x="242" d="M185 0 L185 640 L60 640 L60 0 L185 0 Z " />
<glyph glyph-name="m" unicode="m" horiz-adv-x="763" d="M184 0 L184 244 C184 337 207 374 263 374 C310 374 328 347 328 279 L328 0 L452 0 L452 240 C452 338 473 374 530 374 C577 374 596 344 596 274 L596 0 L720 0 L720 305 C720 417 668 480 572 480 C516 480 477 458 435 400 C414 454 374 480 314 480 C260 480 226 459 184 403 L184 468 L60 468 L60 0 L184 0 Z " />
<glyph glyph-name="n" unicode="n" horiz-adv-x="523" d="M184 0 L184 239 C184 329 217 374 282 374 C333 374 358 342 358 281 L358 0 L483 0 L483 291 C483 336 479 368 470 392 C451 448 384 481 326 481 C257 481 220 450 184 398 L184 468 L60 468 L60 0 L184 0 Z " />
<glyph glyph-name="o" unicode="o" horiz-adv-x="537" d="M269 383 C346 383 383 312 383 233 C383 158 349 86 269 86 C186 86 155 158 155 235 C155 314 188 383 269 383 L269 383 Z M269 -12 C420 -12 509 88 509 233 C509 381 418 481 269 481 C115 481 28 382 28 235 C28 84 117 -12 269 -12 L269 -12 Z " />
<glyph glyph-name="p" unicode="p" horiz-adv-x="545" d="M282 374 C346 374 383 322 383 233 C383 146 346 95 282 95 C215 95 181 141 181 233 C181 327 215 374 282 374 L282 374 Z M184 -181 L184 67 C221 12 255 -12 316 -12 C452 -12 509 106 509 237 C509 363 458 481 326 481 C274 481 226 455 184 405 L184 468 L60 468 L60 -181 L184 -181 Z " />
<glyph glyph-name="q" unicode="q" horiz-adv-x="538" d="M254 374 C320 374 353 327 353 233 C353 141 320 95 254 95 C188 95 155 141 155 233 C155 327 188 374 254 374 L254 374 Z M478 468 L353 468 L353 398 C321 454 278 481 221 481 C86 481 28 357 28 226 C28 99 89 -11 221 -12 C276 -12 319 12 353 58 L353 -181 L478 -181 L478 468 Z " />
<glyph glyph-name="r" unicode="r" horiz-adv-x="324" d="M158 0 L158 237 C158 315 193 355 265 355 C273 355 296 354 306 353 L306 479 C295 480 284 481 278 481 C228 481 189 452 158 395 L158 468 L34 468 L34 0 L158 0 Z " />
<glyph glyph-name="s" unicode="s" horiz-adv-x="481" d="M246 -12 C284 -12 318 -7 345 2 C404 20 461 82 461 144 C461 194 428 237 377 254 L184 318 C171 322 164 330 164 340 C164 368 191 383 244 383 C291 383 315 369 323 324 L444 324 C427 431 363 481 244 481 C147 481 44 432 44 330 C44 279 76 243 142 220 L279 172 C310 159 334 158 334 130 C334 101 306 86 250 86 C194 86 163 102 153 153 L28 153 C32 43 104 -12 246 -12 L246 -12 Z " />
<glyph glyph-name="t" unicode="t" horiz-adv-x="309" d="M72 381 L72 137 C72 34 94 -12 200 -12 C217 -12 242 -11 274 -9 L274 86 L256 86 C212 86 196 86 196 130 L196 381 L274 381 L274 468 L196 468 L196 590 L72 590 L72 468 L13 468 L13 381 L72 381 Z " />
<glyph glyph-name="u" unicode="u" horiz-adv-x="534" d="M54 468 L54 166 C54 99 79 -12 213 -12 C280 -12 317 13 353 72 L353 0 L478 0 L478 468 L353 468 L353 242 C353 164 342 95 256 95 C194 95 179 132 179 196 L179 468 L54 468 Z " />
<glyph glyph-name="v" unicode="v" horiz-adv-x="481" d="M307 0 L478 468 L343 468 L267 207 C260 183 252 154 244 120 C231 173 224 202 222 207 L145 468 L13 468 L177 0 L307 0 Z " />
<glyph glyph-name="w" unicode="w" horiz-adv-x="681" d="M270 0 L308 170 C325 245 335 302 340 338 C351 282 360 226 372 170 L409 0 L539 0 L672 468 L545 468 L507 295 C500 262 493 233 489 209 L474 121 L460 209 C454 247 448 276 444 295 L411 468 L274 468 L241 295 C236 269 230 241 226 209 L214 121 L198 209 C194 233 188 262 181 295 L142 468 L13 468 L142 0 L270 0 Z " />
<glyph glyph-name="x" unicode="x" horiz-adv-x="495" d="M330 0 L478 0 L318 237 L468 468 L318 468 C272 380 248 332 244 323 C237 344 225 369 210 397 C197 421 184 444 170 468 L21 468 L170 237 L13 0 L158 0 L203 77 C222 109 236 135 244 155 C262 119 275 93 284 77 L330 0 Z " />
<glyph glyph-name="y" unicode="y" horiz-adv-x="480" d="M182 -20 C176 -48 169 -67 161 -77 C151 -87 138 -93 120 -93 C111 -92 85 -91 77 -91 L77 -189 C120 -191 140 -192 139 -192 C184 -192 216 -183 235 -164 C256 -144 285 -79 324 32 L478 468 L345 468 L269 203 C260 173 252 143 248 114 C239 153 231 183 224 203 L147 468 L13 468 L182 -20 Z " />
<glyph glyph-name="z" unicode="z" horiz-adv-x="446" d="M420 0 L420 105 L174 105 L412 363 L412 468 L37 468 L37 363 L263 363 L19 99 L19 0 L420 0 Z " />
<glyph glyph-name="braceleft" unicode="&#x7b;" horiz-adv-x="356" d="M237 545 C237 593 258 624 300 637 C302 637 306 638 310 640 L270 640 C220 640 185 635 162 625 C129 608 112 577 112 532 L112 310 C112 264 88 235 41 222 C88 211 112 181 112 133 L112 -72 C112 -121 127 -156 155 -173 C176 -186 213 -192 265 -192 L310 -192 C262 -181 237 -149 237 -100 L237 114 C237 147 231 171 220 187 C207 203 186 215 157 222 C186 231 207 242 220 257 C231 272 237 294 237 324 L237 545 Z " />
<glyph glyph-name="bar" unicode="&#x7c;" horiz-adv-x="258" d="M161 -128 L161 640 L92 640 L92 -128 L161 -128 Z " />
<glyph glyph-name="braceright" unicode="&#x7d;" horiz-adv-x="360" d="M107 -100 C107 -149 82 -180 32 -192 L79 -192 C131 -192 167 -186 190 -171 C218 -154 232 -120 232 -72 L232 133 C232 181 256 211 304 222 C256 235 232 264 232 310 L232 532 C232 578 216 610 182 626 C161 635 124 640 72 640 L32 640 C60 630 78 619 88 608 C101 595 107 573 107 545 L107 324 C107 294 113 271 124 256 C135 242 157 231 186 222 C157 215 136 203 124 187 C113 171 107 147 107 114 L107 -100 Z " />
<glyph glyph-name="asciitilde" unicode="&#x7e;" horiz-adv-x="532" d="M437 375 C413 337 399 316 356 316 C293 316 224 377 163 377 C106 377 86 330 44 263 L77 237 C101 281 129 304 161 304 C222 304 293 242 356 242 C405 242 432 288 470 351 L437 375 Z " />
<glyph glyph-name="exclamdown" unicode="&#xa1;" horiz-adv-x="292" d="M213 467 L79 467 L79 337 L213 337 L213 467 Z M187 287 L103 287 L79 -171 L211 -171 L187 287 Z " />
<glyph glyph-name="cent" unicode="&#xa2;" horiz-adv-x="487" d="M224 90 C177 102 154 147 154 226 C154 308 177 357 224 372 L224 90 Z M224 478 C87 456 33 359 33 227 C33 82 97 3 224 -12 L224 -100 L280 -100 L280 -12 C381 -1 441 60 459 170 L338 170 C331 137 321 100 280 92 L280 373 C320 364 329 343 338 299 L459 299 C446 408 386 467 280 478 L280 551 L224 551 L224 478 Z " />
<glyph glyph-name="sterling" unicode="&#xa3;" horiz-adv-x="487" d="M448 425 C446 558 374 639 242 639 C131 639 41 573 41 459 C41 419 52 381 75 343 L20 343 L20 278 L100 278 C110 252 116 230 116 213 C116 162 85 114 25 69 L75 -12 C107 12 136 22 163 22 C216 22 286 -12 337 -12 C392 -12 435 7 467 43 L419 134 C397 106 372 93 342 93 C307 93 268 121 232 121 C210 121 186 113 161 100 C207 142 230 185 230 226 C230 238 226 255 220 278 L337 278 L337 343 L199 343 C192 365 162 407 162 451 C162 499 197 535 245 535 C302 535 332 498 334 425 L448 425 Z " />
<glyph glyph-name="currency" unicode="&#xa4;" horiz-adv-x="487" d="M244 234 C201 234 168 270 168 310 C168 352 207 381 247 381 C285 381 318 348 318 310 C318 270 288 234 244 234 L244 234 Z M398 217 C415 244 423 274 423 307 C423 340 415 370 398 398 L467 467 L404 531 L336 461 C307 479 277 486 244 486 C211 486 181 479 154 461 L84 531 L20 467 L90 398 C73 371 65 341 65 307 C65 274 73 243 90 217 L20 146 L84 83 L154 153 C183 136 214 128 244 128 C274 128 305 136 336 153 L404 83 L467 146 L398 217 Z " />
<glyph glyph-name="yen" unicode="&#xa5;" horiz-adv-x="487" d="M440 195 L440 262 L311 262 L341 325 L457 325 L457 393 L373 393 L483 627 L364 627 L243 339 L123 627 L5 627 L114 393 L31 393 L31 325 L145 325 L175 262 L48 262 L48 195 L189 195 L189 0 L297 0 L297 195 L440 195 Z " />
<glyph glyph-name="brokenbar" unicode="&#xa6;" horiz-adv-x="220" d="M144 205 L76 174 L76 -191 L144 -191 L144 205 Z M76 244 L144 276 L144 639 L76 639 L76 244 Z " />
<glyph glyph-name="section" unicode="&#xa7;" horiz-adv-x="567" d="M462 485 C466 647 328 651 282 651 C175 651 99 598 99 502 C99 461 114 424 143 402 C93 383 48 336 48 263 C48 128 163 97 228 80 C300 59 350 49 350 1 C350 -53 296 -55 282 -55 C266 -55 204 -57 202 24 L87 24 C88 -59 123 -158 282 -158 C415 -158 471 -77 471 4 C471 49 456 72 424 100 C505 142 516 205 516 250 C516 350 454 390 364 419 C262 453 220 451 220 501 C220 533 242 554 282 554 C322 554 346 537 350 485 L462 485 Z M352 165 L243 197 C203 209 160 229 160 275 C160 307 182 335 215 342 L323 309 C402 285 407 250 407 232 C407 188 371 170 352 165 L352 165 Z " />
<glyph glyph-name="dieresis" unicode="&#xa8;" horiz-adv-x="292" d="M179 543 L278 543 L278 658 L179 658 L179 543 Z M15 543 L113 543 L113 658 L15 658 L15 543 Z " />
<glyph glyph-name="copyright" unicode="&#xa9;" horiz-adv-x="740" d="M48 320 C48 144 189 0 369 0 C548 0 689 144 689 320 C689 497 548 640 369 640 C189 640 48 497 48 320 L48 320 Z M125 320 C125 463 234 575 369 575 C503 575 612 463 612 320 C612 178 503 66 369 66 C234 66 125 178 125 320 L125 320 Z M504 270 L429 270 C427 248 413 216 373 216 C341 216 301 236 301 319 C301 372 315 431 369 431 C408 431 424 409 425 386 L496 386 C495 468 420 491 369 491 C307 491 221 459 221 319 C221 256 247 156 372 156 C426 156 488 172 504 270 L504 270 Z " />
<glyph glyph-name="ordfeminine" unicode="&#xaa;" horiz-adv-x="324" d="M291 250 L291 312 L34 312 L34 250 L291 250 Z M195 496 C195 453 179 431 145 431 C125 431 115 439 115 454 C115 482 160 487 195 496 L195 496 Z M118 549 C122 575 132 583 161 583 C183 583 194 575 194 561 C194 544 188 544 160 542 C55 526 32 508 32 445 C32 392 65 359 120 359 C151 359 177 370 197 394 C201 383 205 374 212 367 L299 367 C278 382 279 379 279 448 L279 553 C279 627 245 656 162 656 C79 656 44 625 41 549 L118 549 Z " />
<glyph glyph-name="guillemotleft" unicode="&#xab;" horiz-adv-x="430" d="M114 245 L189 309 L189 436 L52 309 L52 181 L189 55 L189 181 L114 245 Z M287 245 L362 309 L362 436 L225 309 L225 181 L362 55 L362 181 L287 245 Z " />
<glyph glyph-name="logicalnot" unicode="&#xac;" horiz-adv-x="618" d="M48 357 L48 284 L489 284 L489 152 L566 152 L566 357 L48 357 Z " />
<glyph glyph-name="registered" unicode="&#xae;" horiz-adv-x="740" d="M48 320 C48 144 189 0 369 0 C548 0 689 144 689 320 C689 497 548 640 369 640 C189 640 48 497 48 320 L48 320 Z M125 320 C125 463 234 575 369 575 C503 575 612 463 612 320 C612 178 503 66 369 66 C234 66 125 178 125 320 L125 320 Z M252 163 L328 163 L328 289 L343 289 C457 289 384 213 425 163 L504 163 C490 179 492 191 490 235 C490 262 487 306 445 316 L445 318 C465 326 497 345 497 393 C497 434 473 483 393 483 L252 483 L252 163 Z M328 427 L361 427 C397 427 420 419 420 388 C420 350 385 345 368 345 L328 345 L328 427 Z " />
<glyph glyph-name="&amp;#xaf;" unicode="&#xaf;" horiz-adv-x="292" d="M24 642 L268 642 L268 562 L24 562 L24 642 Z " />
<glyph glyph-name="&amp;#x2c9;" unicode="&#x2c9;" horiz-adv-x="292" d="M24 642 L268 642 L268 562 L24 562 L24 642 Z " />
<glyph glyph-name="degree" unicode="&#xb0;" horiz-adv-x="274" d="M34 554 C34 497 80 451 136 451 C193 451 239 497 239 554 C239 610 193 656 136 656 C80 656 34 610 34 554 L34 554 Z M87 554 C87 581 109 603 136 603 C164 603 186 581 186 554 C186 526 164 504 136 504 C109 504 87 526 87 554 L87 554 Z " />
<glyph glyph-name="plusminus" unicode="&#xb1;" horiz-adv-x="487" d="M456 0 L456 88 L32 88 L32 0 L456 0 Z M200 273 L200 118 L287 118 L287 273 L456 273 L456 361 L287 361 L287 513 L200 513 L200 361 L32 361 L32 273 L200 273 Z " />
<glyph glyph-name="twosuperior" unicode="&#xb2;" horiz-adv-x="497" d="M446 108 L179 108 C200 136 236 169 288 206 C342 246 379 277 397 299 C432 342 448 384 448 437 C448 567 360 640 239 640 C97 640 32 551 32 409 L151 409 C155 498 180 534 241 534 C293 534 319 503 319 442 C319 397 295 352 243 308 L101 189 C50 133 24 71 24 0 L446 0 L446 108 Z " />
<glyph glyph-name="threesuperior" unicode="&#xb3;" horiz-adv-x="497" d="M26 200 C27 164 29 138 34 121 C62 35 132 -12 239 -12 C369 -12 454 69 454 193 C454 257 425 305 365 338 C412 371 435 414 435 465 C435 583 349 640 239 640 C105 640 39 557 35 433 L149 433 C156 493 169 534 235 534 C283 534 314 504 314 458 C314 426 305 404 285 391 C267 378 235 371 188 370 L188 279 C242 278 278 271 297 258 C316 246 326 221 326 188 C326 135 293 95 239 95 C180 95 153 125 145 200 L26 200 Z " />
<glyph glyph-name="acute" unicode="&#xb4;" horiz-adv-x="292" d="M52 536 L139 536 L241 665 L110 665 L52 536 Z " />
<glyph glyph-name="&amp;#xb5;" unicode="&#xb5;" horiz-adv-x="513" d="M492 0 C470 -9 452 -13 436 -13 C392 -13 362 3 346 34 C320 3 280 -13 226 -13 C205 -13 185 -7 165 4 L165 -180 L56 -180 L56 468 L165 468 L165 177 C165 115 180 90 232 90 C285 90 326 122 326 232 L326 468 L435 468 L435 127 C435 95 444 87 466 87 L492 87 L492 0 Z " />
<glyph glyph-name="&amp;#x3bc;" unicode="&#x3bc;" horiz-adv-x="513" d="M492 0 C470 -9 452 -13 436 -13 C392 -13 362 3 346 34 C320 3 280 -13 226 -13 C205 -13 185 -7 165 4 L165 -180 L56 -180 L56 468 L165 468 L165 177 C165 115 180 90 232 90 C285 90 326 122 326 232 L326 468 L435 468 L435 127 C435 95 444 87 466 87 L492 87 L492 0 Z " />
<glyph glyph-name="paragraph" unicode="&#xb6;" horiz-adv-x="469" d="M188 -169 L262 -169 L262 640 L188 640 C105 640 37 574 37 490 C37 422 87 341 188 339 L188 -169 Z M335 -169 L408 -169 L408 640 L335 640 L335 -169 Z " />
<glyph glyph-name="&amp;#xb7;" unicode="&#xb7;" horiz-adv-x="229" d="M39 173 L190 173 L190 318 L39 318 L39 173 Z " />
<glyph glyph-name="&amp;#x2219;" unicode="&#x2219;" horiz-adv-x="229" d="M39 173 L190 173 L190 318 L39 318 L39 173 Z " />
<glyph glyph-name="cedilla" unicode="&#xb8;" horiz-adv-x="292" d="M131 0 L80 -80 L101 -100 C115 -95 127 -92 135 -92 C161 -92 175 -103 175 -124 C175 -146 161 -157 134 -157 C111 -157 84 -152 55 -141 L37 -181 C75 -195 111 -203 144 -203 C178 -203 205 -195 225 -180 C247 -164 257 -145 257 -121 C257 -81 224 -54 177 -54 C168 -54 157 -55 141 -58 L177 0 L131 0 Z " />
<glyph glyph-name="onesuperior" unicode="&#xb9;" horiz-adv-x="497" d="M214 431 L214 0 L338 0 L338 628 L242 628 C231 582 212 551 183 537 C162 526 125 520 72 519 L72 431 L214 431 Z " />
<glyph glyph-name="ordmasculine" unicode="&#xba;" horiz-adv-x="320" d="M302 250 L302 312 L18 312 L18 250 L302 250 Z M104 506 C104 557 123 583 161 583 C198 583 216 558 216 507 C216 456 197 431 161 431 C123 431 104 456 104 506 L104 506 Z M16 507 C16 420 68 359 159 359 C251 359 304 419 304 506 C304 595 250 656 160 656 C72 656 16 594 16 507 L16 507 Z " />
<glyph glyph-name="guillemotright" unicode="&#xbb;" horiz-adv-x="430" d="M143 245 L68 181 L68 55 L205 181 L205 309 L68 436 L68 309 L143 245 Z M316 245 L241 181 L241 55 L378 181 L378 309 L241 436 L241 309 L316 245 Z " />
<glyph glyph-name="onequarter" unicode="&#xbc;" horiz-adv-x="780" d="M645 285 L645 144 L541 144 L645 285 Z M477 78 L645 78 L645 0 L728 0 L728 78 L769 78 L769 144 L728 144 L728 368 L627 368 L477 166 L477 78 Z M190 0 L262 0 L590 627 L518 627 L190 0 Z M51 509 L139 509 L139 259 L221 259 L221 627 L158 627 C152 602 142 585 129 577 C115 569 89 565 51 564 L51 509 Z " />
<glyph glyph-name="onehalf" unicode="&#xbd;" horiz-adv-x="780" d="M750 0 L750 71 L588 71 C652 140 750 158 750 256 C750 335 690 375 619 375 C530 375 485 329 485 236 L567 236 C568 285 586 309 620 309 C651 309 666 293 666 259 C666 176 484 127 484 20 C484 18 484 12 485 0 L750 0 Z M190 0 L262 0 L590 627 L518 627 L190 0 Z M51 509 L139 509 L139 259 L221 259 L221 627 L158 627 C145 573 125 566 51 564 L51 509 Z " />
<glyph glyph-name="threequarters" unicode="&#xbe;" horiz-adv-x="780" d="M645 285 L645 144 L541 144 L645 285 Z M477 78 L645 78 L645 0 L728 0 L728 78 L769 78 L769 144 L728 144 L728 368 L627 368 L477 166 L477 78 Z M190 0 L262 0 L590 627 L518 627 L190 0 Z M19 379 C19 293 67 250 153 250 C232 250 289 297 289 372 C289 411 272 440 237 458 C264 476 278 500 278 531 C277 600 219 634 154 634 C71 634 28 593 24 510 L100 510 C103 554 116 569 150 569 C181 569 196 554 196 526 C196 506 189 492 172 485 C162 482 144 479 120 479 L120 421 C148 420 167 418 178 414 C196 406 205 392 205 369 C205 337 184 317 154 317 C121 317 103 337 100 379 L19 379 Z " />
<glyph glyph-name="questiondown" unicode="&#xbf;" horiz-adv-x="545" d="M211 468 L211 338 L345 338 L345 468 L211 468 Z M60 3 C60 -122 157 -185 279 -185 C420 -185 491 -109 495 26 L371 26 C365 -47 339 -77 279 -77 C229 -77 197 -46 197 3 C197 28 202 50 218 67 C254 104 302 125 324 176 C333 196 338 229 338 275 L220 275 C219 235 204 202 176 175 L101 111 C74 84 60 47 60 3 L60 3 Z " />
<glyph glyph-name="Agrave" unicode="&#xc0;" horiz-adv-x="602" d="M300 493 L381 242 L220 242 L300 493 Z M182 135 L416 135 L460 0 L602 0 L377 640 L228 640 L0 0 L139 0 L182 135 Z M272 709 L358 709 L299 838 L169 838 L272 709 Z " />
<glyph glyph-name="Aacute" unicode="&#xc1;" horiz-adv-x="602" d="M300 493 L381 242 L220 242 L300 493 Z M182 135 L416 135 L460 0 L602 0 L377 640 L228 640 L0 0 L139 0 L182 135 Z M275 709 L362 709 L464 838 L333 838 L275 709 Z " />
<glyph glyph-name="Acircumflex" unicode="&#xc2;" horiz-adv-x="602" d="M300 493 L381 242 L220 242 L300 493 Z M182 135 L416 135 L460 0 L602 0 L377 640 L228 640 L0 0 L139 0 L182 135 Z M365 706 L459 706 L370 836 L267 836 L176 706 L267 706 L317 767 L365 706 Z " />
<glyph glyph-name="Atilde" unicode="&#xc3;" horiz-adv-x="602" d="M300 493 L381 242 L220 242 L300 493 Z M182 135 L416 135 L460 0 L602 0 L377 640 L228 640 L0 0 L139 0 L182 135 Z M403 834 C393 814 382 804 368 804 C343 804 304 834 271 834 C223 834 190 795 171 716 L231 716 C241 736 253 746 272 746 C288 746 328 716 365 716 C413 716 446 754 463 834 L403 834 Z " />
<glyph glyph-name="Adieresis" unicode="&#xc4;" horiz-adv-x="602" d="M300 493 L381 242 L220 242 L300 493 Z M182 135 L416 135 L460 0 L602 0 L377 640 L228 640 L0 0 L139 0 L182 135 Z M350 714 L449 714 L449 829 L350 829 L350 714 Z M186 714 L284 714 L284 829 L186 829 L186 714 Z " />
<glyph glyph-name="Aring" unicode="&#xc5;" horiz-adv-x="602" d="M300 493 L381 242 L220 242 L300 493 Z M182 135 L416 135 L460 0 L602 0 L377 640 L228 640 L0 0 L139 0 L182 135 Z M305 771 C285 771 269 754 269 733 C269 712 285 696 305 696 C324 696 341 712 341 733 C341 754 324 771 305 771 L305 771 Z M305 826 C357 826 398 783 398 733 C398 682 355 640 305 640 C255 640 212 681 212 733 C212 784 255 826 305 826 L305 826 Z " />
<glyph glyph-name="AE" unicode="&#xc6;" horiz-adv-x="877" d="M810 639 L318 639 L0 0 L138 0 L202 134 L415 134 L415 0 L826 0 L826 115 L546 115 L546 279 L782 279 L782 387 L546 387 L546 524 L810 524 L810 639 Z M415 242 L253 242 L386 524 L415 524 L415 242 Z " />
<glyph glyph-name="Ccedilla" unicode="&#xc7;" horiz-adv-x="639" d="M332 653 C135 653 35 505 35 316 C35 138 121 4 295 -10 L251 -80 L272 -100 C286 -95 298 -92 306 -92 C332 -92 346 -103 346 -124 C346 -146 332 -157 305 -157 C282 -157 255 -152 226 -141 L208 -181 C246 -195 282 -203 315 -203 C349 -203 376 -195 396 -180 C418 -164 428 -145 428 -121 C428 -81 395 -54 348 -54 C339 -54 328 -55 312 -58 L340 -12 C481 -7 574 81 599 224 L466 224 C444 144 399 103 330 103 C218 103 172 202 172 316 C172 457 231 537 337 537 C405 537 448 501 466 428 L599 428 C584 575 472 653 332 653 L332 653 Z " />
<glyph glyph-name="Egrave" unicode="&#xc8;" horiz-adv-x="560" d="M534 0 L534 116 L191 116 L191 279 L491 279 L491 388 L191 388 L191 524 L519 524 L519 640 L60 640 L60 0 L534 0 Z M259 707 L345 707 L286 836 L156 836 L259 707 Z " />
<glyph glyph-name="Eacute" unicode="&#xc9;" horiz-adv-x="560" d="M534 0 L534 116 L191 116 L191 279 L491 279 L491 388 L191 388 L191 524 L519 524 L519 640 L60 640 L60 0 L534 0 Z M249 708 L336 708 L438 837 L307 837 L249 708 Z " />
<glyph glyph-name="Ecircumflex" unicode="&#xca;" horiz-adv-x="560" d="M534 0 L534 116 L191 116 L191 279 L491 279 L491 388 L191 388 L191 524 L519 524 L519 640 L60 640 L60 0 L534 0 Z M344 706 L438 706 L349 836 L246 836 L155 706 L246 706 L296 767 L344 706 Z " />
<glyph glyph-name="Edieresis" unicode="&#xcb;" horiz-adv-x="560" d="M534 0 L534 116 L191 116 L191 279 L491 279 L491 388 L191 388 L191 524 L519 524 L519 640 L60 640 L60 0 L534 0 Z M330 713 L429 713 L429 828 L330 828 L330 713 Z M166 713 L264 713 L264 828 L166 828 L166 713 Z " />
<glyph glyph-name="Igrave" unicode="&#xcc;" horiz-adv-x="244" d="M189 0 L189 640 L57 640 L57 0 L189 0 Z M103 707 L189 707 L130 836 L0 836 L103 707 Z " />
<glyph glyph-name="Iacute" unicode="&#xcd;" horiz-adv-x="244" d="M189 0 L189 640 L57 640 L57 0 L189 0 Z M55 706 L142 706 L244 835 L113 835 L55 706 Z " />
<glyph glyph-name="Icircumflex" unicode="&#xce;" horiz-adv-x="244" d="M189 0 L189 640 L57 640 L57 0 L189 0 Z M170 707 L264 707 L175 837 L72 837 L-19 707 L72 707 L122 768 L170 707 Z " />
<glyph glyph-name="Idieresis" unicode="&#xcf;" horiz-adv-x="244" d="M189 0 L189 640 L57 640 L57 0 L189 0 Z M157 713 L256 713 L256 828 L157 828 L157 713 Z M-7 713 L91 713 L91 828 L-7 828 L-7 713 Z " />
<glyph glyph-name="Eth" unicode="&#xd0;" horiz-adv-x="633" d="M60 0 L299 0 C365 0 415 8 449 24 C559 76 599 210 599 332 C599 443 565 566 465 614 C428 631 376 640 307 640 L60 640 L60 380 L3 380 L3 272 L60 272 L60 0 Z M191 524 L295 524 C430 524 463 451 463 326 C463 186 420 116 295 116 L191 116 L191 272 L318 272 L318 380 L191 380 L191 524 Z " />
<glyph glyph-name="Ntilde" unicode="&#xd1;" horiz-adv-x="633" d="M184 446 L451 0 L575 0 L575 640 L451 640 L451 194 L190 640 L60 640 L60 0 L184 0 L184 446 Z M404 832 C394 812 383 802 369 802 C344 802 305 832 272 832 C224 832 191 793 172 714 L232 714 C242 734 254 744 273 744 C289 744 329 714 366 714 C414 714 447 752 464 832 L404 832 Z " />
<glyph glyph-name="Ograve" unicode="&#xd2;" horiz-adv-x="683" d="M170 328 C170 445 228 536 342 537 C454 537 513 444 513 326 C513 213 460 103 340 103 C216 103 170 215 170 328 L170 328 Z M343 -12 C540 -11 647 145 647 330 C647 521 532 653 343 653 C145 653 35 508 35 318 C35 131 153 -12 343 -12 L343 -12 Z M297 708 L383 708 L324 837 L194 837 L297 708 Z " />
<glyph glyph-name="Oacute" unicode="&#xd3;" horiz-adv-x="683" d="M170 328 C170 445 228 536 342 537 C454 537 513 444 513 326 C513 213 460 103 340 103 C216 103 170 215 170 328 L170 328 Z M343 -12 C540 -11 647 145 647 330 C647 521 532 653 343 653 C145 653 35 508 35 318 C35 131 153 -12 343 -12 L343 -12 Z M300 707 L387 707 L489 836 L358 836 L300 707 Z " />
<glyph glyph-name="Ocircumflex" unicode="&#xd4;" horiz-adv-x="683" d="M170 328 C170 445 228 536 342 537 C454 537 513 444 513 326 C513 213 460 103 340 103 C216 103 170 215 170 328 L170 328 Z M343 -12 C540 -11 647 145 647 330 C647 521 532 653 343 653 C145 653 35 508 35 318 C35 131 153 -12 343 -12 L343 -12 Z M400 706 L494 706 L405 836 L302 836 L211 706 L302 706 L352 767 L400 706 Z " />
<glyph glyph-name="Otilde" unicode="&#xd5;" horiz-adv-x="683" d="M170 328 C170 445 228 536 342 537 C454 537 513 444 513 326 C513 213 460 103 340 103 C216 103 170 215 170 328 L170 328 Z M343 -12 C540 -11 647 145 647 330 C647 521 532 653 343 653 C145 653 35 508 35 318 C35 131 153 -12 343 -12 L343 -12 Z M429 834 C419 814 408 804 394 804 C369 804 330 834 297 834 C249 834 216 795 197 716 L257 716 C267 736 279 746 298 746 C314 746 354 716 391 716 C439 716 472 754 489 834 L429 834 Z " />
<glyph glyph-name="Odieresis" unicode="&#xd6;" horiz-adv-x="683" d="M170 328 C170 445 228 536 342 537 C454 537 513 444 513 326 C513 213 460 103 340 103 C216 103 170 215 170 328 L170 328 Z M343 -12 C540 -11 647 145 647 330 C647 521 532 653 343 653 C145 653 35 508 35 318 C35 131 153 -12 343 -12 L343 -12 Z M374 713 L473 713 L473 828 L374 828 L374 713 Z M210 713 L308 713 L308 828 L210 828 L210 713 Z " />
<glyph glyph-name="multiply" unicode="&#xd7;" horiz-adv-x="487" d="M54 434 L183 306 L54 176 L115 116 L244 245 L373 116 L433 176 L305 306 L433 434 L373 496 L244 366 L115 496 L54 434 Z " />
<glyph glyph-name="Oslash" unicode="&#xd8;" horiz-adv-x="683" d="M522 599 C470 633 410 652 342 652 C147 652 35 507 35 319 C35 244 52 178 87 121 L6 32 L82 -36 L157 45 C210 8 273 -12 342 -12 C538 -12 647 141 647 328 C647 405 630 471 594 524 L677 615 L601 685 L522 599 Z M498 421 C507 392 512 361 512 325 C512 210 459 103 339 103 C302 103 268 114 240 137 L498 421 Z M439 507 L182 225 C175 251 171 282 171 318 C171 432 220 537 341 537 C380 537 413 527 439 507 L439 507 Z " />
<glyph glyph-name="Ugrave" unicode="&#xd9;" horiz-adv-x="633" d="M444 640 L444 248 C444 152 418 103 316 103 C218 103 191 152 191 248 L191 640 L60 640 L60 246 C60 65 144 -12 324 -12 C509 -12 575 86 575 246 L575 640 L444 640 Z M291 707 L377 707 L318 836 L188 836 L291 707 Z " />
<glyph glyph-name="Uacute" unicode="&#xda;" horiz-adv-x="633" d="M444 640 L444 248 C444 152 418 103 316 103 C218 103 191 152 191 248 L191 640 L60 640 L60 246 C60 65 144 -12 324 -12 C509 -12 575 86 575 246 L575 640 L444 640 Z M264 707 L351 707 L453 836 L322 836 L264 707 Z " />
<glyph glyph-name="Ucircumflex" unicode="&#xdb;" horiz-adv-x="633" d="M444 640 L444 248 C444 152 418 103 316 103 C218 103 191 152 191 248 L191 640 L60 640 L60 246 C60 65 144 -12 324 -12 C509 -12 575 86 575 246 L575 640 L444 640 Z M364 706 L458 706 L369 836 L266 836 L175 706 L266 706 L316 767 L364 706 Z " />
<glyph glyph-name="Udieresis" unicode="&#xdc;" horiz-adv-x="633" d="M444 640 L444 248 C444 152 418 103 316 103 C218 103 191 152 191 248 L191 640 L60 640 L60 246 C60 65 144 -12 324 -12 C509 -12 575 86 575 246 L575 640 L444 640 Z M349 714 L448 714 L448 829 L349 829 L349 714 Z M185 714 L283 714 L283 829 L185 829 L185 714 Z " />
<glyph glyph-name="Yacute" unicode="&#xdd;" horiz-adv-x="585" d="M230 0 L362 0 L362 241 L573 640 L431 640 L299 365 L160 640 L13 640 L230 241 L230 0 Z M245 707 L332 707 L434 836 L303 836 L245 707 Z " />
<glyph glyph-name="Thorn" unicode="&#xde;" horiz-adv-x="585" d="M59 639 L59 0 L190 0 L190 137 L318 137 C383 137 432 149 465 174 C517 213 543 270 543 345 C543 423 516 479 464 516 C432 539 385 549 322 549 L190 549 L190 639 L59 639 Z M190 434 L296 434 C369 434 407 403 407 341 C407 278 373 251 294 251 L190 251 L190 434 Z " />
<glyph glyph-name="germandbls" unicode="&#xdf;" horiz-adv-x="536" d="M240 92 L240 -7 C260 -10 279 -12 298 -12 C421 -12 509 67 509 194 C509 286 470 340 393 358 C445 375 476 430 476 484 C476 596 379 652 273 652 C189 652 128 625 91 570 C70 537 59 483 59 410 L59 0 L183 0 L183 433 C183 509 198 550 269 550 C320 550 353 520 353 474 C353 422 313 392 259 392 C253 392 247 392 240 393 L240 310 C253 311 260 312 260 312 C341 312 382 276 382 201 C382 131 341 90 271 90 C260 90 249 91 240 92 L240 92 Z " />
<glyph glyph-name="agrave" unicode="&#xe0;" horiz-adv-x="502" d="M318 220 L318 191 C318 121 283 86 214 86 C176 86 149 107 149 139 C149 173 176 194 228 203 L318 220 Z M155 318 C160 363 187 385 236 385 C301 385 316 362 316 297 C257 292 201 284 149 274 C66 257 24 208 24 128 C24 45 80 -12 163 -12 C237 -12 267 8 318 63 C319 40 326 18 338 0 L465 0 C450 17 442 41 442 72 L442 307 C442 444 368 481 236 481 C127 481 43 430 39 318 L155 318 Z M207 535 L293 535 L234 664 L104 664 L207 535 Z " />
<glyph glyph-name="aacute" unicode="&#xe1;" horiz-adv-x="502" d="M318 220 L318 191 C318 121 283 86 214 86 C176 86 149 107 149 139 C149 173 176 194 228 203 L318 220 Z M155 318 C160 363 187 385 236 385 C301 385 316 362 316 297 C257 292 201 284 149 274 C66 257 24 208 24 128 C24 45 80 -12 163 -12 C237 -12 267 8 318 63 C319 40 326 18 338 0 L465 0 C450 17 442 41 442 72 L442 307 C442 444 368 481 236 481 C127 481 43 430 39 318 L155 318 Z M197 535 L284 535 L386 664 L255 664 L197 535 Z " />
<glyph glyph-name="acircumflex" unicode="&#xe2;" horiz-adv-x="502" d="M318 220 L318 191 C318 121 283 86 214 86 C176 86 149 107 149 139 C149 173 176 194 228 203 L318 220 Z M155 318 C160 363 187 385 236 385 C301 385 316 362 316 297 C257 292 201 284 149 274 C66 257 24 208 24 128 C24 45 80 -12 163 -12 C237 -12 267 8 318 63 C319 40 326 18 338 0 L465 0 C450 17 442 41 442 72 L442 307 C442 444 368 481 236 481 C127 481 43 430 39 318 L155 318 Z M293 535 L387 535 L298 665 L195 665 L104 535 L195 535 L245 596 L293 535 Z " />
<glyph glyph-name="atilde" unicode="&#xe3;" horiz-adv-x="502" d="M318 220 L318 191 C318 121 283 86 214 86 C176 86 149 107 149 139 C149 173 176 194 228 203 L318 220 Z M155 318 C160 363 187 385 236 385 C301 385 316 362 316 297 C257 292 201 284 149 274 C66 257 24 208 24 128 C24 45 80 -12 163 -12 C237 -12 267 8 318 63 C319 40 326 18 338 0 L465 0 C450 17 442 41 442 72 L442 307 C442 444 368 481 236 481 C127 481 43 430 39 318 L155 318 Z M332 659 C322 639 311 629 297 629 C272 629 233 659 200 659 C152 659 119 620 100 541 L160 541 C170 561 182 571 201 571 C217 571 257 541 294 541 C342 541 375 579 392 659 L332 659 Z " />
<glyph glyph-name="adieresis" unicode="&#xe4;" horiz-adv-x="502" d="M318 220 L318 191 C318 121 283 86 214 86 C176 86 149 107 149 139 C149 173 176 194 228 203 L318 220 Z M155 318 C160 363 187 385 236 385 C301 385 316 362 316 297 C257 292 201 284 149 274 C66 257 24 208 24 128 C24 45 80 -12 163 -12 C237 -12 267 8 318 63 C319 40 326 18 338 0 L465 0 C450 17 442 41 442 72 L442 307 C442 444 368 481 236 481 C127 481 43 430 39 318 L155 318 Z M281 542 L380 542 L380 657 L281 657 L281 542 Z M117 542 L215 542 L215 657 L117 657 L117 542 Z " />
<glyph glyph-name="aring" unicode="&#xe5;" horiz-adv-x="502" d="M318 220 L318 191 C318 121 283 86 214 86 C176 86 149 107 149 139 C149 173 176 194 228 203 L318 220 Z M155 318 C160 363 187 385 236 385 C301 385 316 362 316 297 C257 292 201 284 149 274 C66 257 24 208 24 128 C24 45 80 -12 163 -12 C237 -12 267 8 318 63 C319 40 326 18 338 0 L465 0 C450 17 442 41 442 72 L442 307 C442 444 368 481 236 481 C127 481 43 430 39 318 L155 318 Z M247 639 C227 639 211 622 211 601 C211 580 227 564 247 564 C266 564 283 580 283 601 C283 622 266 639 247 639 L247 639 Z M247 694 C299 694 340 651 340 601 C340 550 297 508 247 508 C197 508 154 549 154 601 C154 652 197 694 247 694 L247 694 Z " />
<glyph glyph-name="ae" unicode="&#xe6;" horiz-adv-x="780" d="M402 439 C367 466 315 480 246 480 C116 480 48 425 42 318 L158 318 C165 361 194 382 246 382 C312 382 317 356 318 296 C164 281 27 272 27 126 C27 34 80 -12 187 -12 C266 -12 306 20 363 78 C398 17 456 -12 538 -12 C636 -12 704 38 742 136 L615 136 C596 103 571 86 542 86 C484 86 454 127 448 210 L751 210 C752 220 752 227 752 235 C752 313 734 373 696 416 C659 458 606 480 538 480 C483 480 437 466 402 439 L402 439 Z M320 219 C320 131 285 86 217 86 C178 86 152 107 152 139 C152 203 234 204 320 219 L320 219 Z M454 290 C459 351 487 382 538 382 C587 382 616 351 622 290 L454 290 Z " />
<glyph glyph-name="ccedilla" unicode="&#xe7;" horiz-adv-x="487" d="M248 481 C100 481 28 375 28 233 C28 98 87 2 216 -10 L172 -80 L193 -100 C207 -95 219 -92 227 -92 C253 -92 267 -103 267 -124 C267 -146 253 -157 226 -157 C203 -157 176 -152 147 -141 L129 -181 C167 -195 203 -203 236 -203 C270 -203 297 -195 317 -180 C339 -164 349 -145 349 -121 C349 -81 316 -54 269 -54 C260 -54 249 -55 233 -58 L261 -11 C375 -7 442 54 461 174 L337 174 C324 115 296 86 252 86 C187 86 155 135 155 233 C155 328 190 383 254 383 C298 383 325 356 337 302 L461 302 C450 418 372 481 248 481 L248 481 Z " />
<glyph glyph-name="egrave" unicode="&#xe8;" horiz-adv-x="491" d="M323 137 C312 101 286 81 246 81 C184 81 157 135 157 197 L157 211 L460 211 C461 218 461 225 461 233 C461 394 385 481 246 481 C97 481 28 376 28 232 C28 90 98 -12 246 -12 C357 -12 426 28 451 137 L323 137 Z M157 291 C163 352 192 383 244 383 C296 383 324 352 330 291 L157 291 Z M202 534 L288 534 L229 663 L99 663 L202 534 Z " />
<glyph glyph-name="eacute" unicode="&#xe9;" horiz-adv-x="491" d="M323 137 C312 101 286 81 246 81 C184 81 157 135 157 197 L157 211 L460 211 C461 218 461 225 461 233 C461 394 385 481 246 481 C97 481 28 376 28 232 C28 90 98 -12 246 -12 C357 -12 426 28 451 137 L323 137 Z M157 291 C163 352 192 383 244 383 C296 383 324 352 330 291 L157 291 Z M182 540 L269 540 L371 669 L240 669 L182 540 Z " />
<glyph glyph-name="ecircumflex" unicode="&#xea;" horiz-adv-x="491" d="M323 137 C312 101 286 81 246 81 C184 81 157 135 157 197 L157 211 L460 211 C461 218 461 225 461 233 C461 394 385 481 246 481 C97 481 28 376 28 232 C28 90 98 -12 246 -12 C357 -12 426 28 451 137 L323 137 Z M157 291 C163 352 192 383 244 383 C296 383 324 352 330 291 L157 291 Z M291 535 L385 535 L296 665 L193 665 L102 535 L193 535 L243 596 L291 535 Z " />
<glyph glyph-name="edieresis" unicode="&#xeb;" horiz-adv-x="491" d="M323 137 C312 101 286 81 246 81 C184 81 157 135 157 197 L157 211 L460 211 C461 218 461 225 461 233 C461 394 385 481 246 481 C97 481 28 376 28 232 C28 90 98 -12 246 -12 C357 -12 426 28 451 137 L323 137 Z M157 291 C163 352 192 383 244 383 C296 383 324 352 330 291 L157 291 Z M278 543 L377 543 L377 658 L278 658 L278 543 Z M114 543 L212 543 L212 658 L114 658 L114 543 Z " />
<glyph glyph-name="igrave" unicode="&#xec;" horiz-adv-x="244" d="M60 467 L60 0 L184 0 L184 467 L60 467 Z M102 537 L188 537 L129 666 L-1 666 L102 537 Z " />
<glyph glyph-name="iacute" unicode="&#xed;" horiz-adv-x="244" d="M60 467 L60 0 L184 0 L184 467 L60 467 Z M55 536 L142 536 L244 665 L113 665 L55 536 Z " />
<glyph glyph-name="icircumflex" unicode="&#xee;" horiz-adv-x="244" d="M60 467 L60 0 L184 0 L184 467 L60 467 Z M170 535 L264 535 L175 665 L72 665 L-19 535 L72 535 L122 596 L170 535 Z " />
<glyph glyph-name="idieresis" unicode="&#xef;" horiz-adv-x="244" d="M60 467 L60 0 L184 0 L184 467 L60 467 Z M156 543 L255 543 L255 658 L156 658 L156 543 Z M-8 543 L90 543 L90 658 L-8 658 L-8 543 Z " />
<glyph glyph-name="eth" unicode="&#xf0;" horiz-adv-x="537" d="M37 581 C67 577 96 572 125 566 L55 516 L92 468 L195 540 C235 522 266 502 289 477 C273 479 261 480 251 480 C106 480 27 391 27 248 C27 100 106 -12 269 -12 C419 -12 510 94 510 242 C510 404 429 547 279 611 L345 659 L308 713 L203 635 C178 642 141 648 92 655 L37 581 Z M155 240 C155 319 188 391 271 391 C350 391 383 317 383 242 C383 149 340 94 269 94 C188 94 155 163 155 240 L155 240 Z " />
<glyph glyph-name="ntilde" unicode="&#xf1;" horiz-adv-x="536" d="M184 0 L184 239 C184 329 217 374 282 374 C333 374 358 342 358 281 L358 0 L483 0 L483 291 C483 336 479 368 470 392 C451 448 384 481 326 481 C257 481 220 450 184 398 L184 468 L60 468 L60 0 L184 0 Z M359 659 C349 639 338 629 324 629 C299 629 260 659 227 659 C179 659 146 620 127 541 L187 541 C197 561 209 571 228 571 C244 571 284 541 321 541 C369 541 402 579 419 659 L359 659 Z " />
<glyph glyph-name="ograve" unicode="&#xf2;" horiz-adv-x="538" d="M269 383 C346 383 383 312 383 233 C383 158 349 86 269 86 C186 86 155 158 155 235 C155 314 188 383 269 383 L269 383 Z M269 -12 C420 -12 509 88 509 233 C509 381 418 481 269 481 C115 481 28 382 28 235 C28 84 117 -12 269 -12 L269 -12 Z M226 535 L312 535 L253 664 L123 664 L226 535 Z " />
<glyph glyph-name="oacute" unicode="&#xf3;" horiz-adv-x="537" d="M269 383 C346 383 383 312 383 233 C383 158 349 86 269 86 C186 86 155 158 155 235 C155 314 188 383 269 383 L269 383 Z M269 -12 C420 -12 509 88 509 233 C509 381 418 481 269 481 C115 481 28 382 28 235 C28 84 117 -12 269 -12 L269 -12 Z M227 536 L314 536 L416 665 L285 665 L227 536 Z " />
<glyph glyph-name="ocircumflex" unicode="&#xf4;" horiz-adv-x="538" d="M269 383 C346 383 383 312 383 233 C383 158 349 86 269 86 C186 86 155 158 155 235 C155 314 188 383 269 383 L269 383 Z M269 -12 C420 -12 509 88 509 233 C509 381 418 481 269 481 C115 481 28 382 28 235 C28 84 117 -12 269 -12 L269 -12 Z M315 534 L409 534 L320 664 L217 664 L126 534 L217 534 L267 595 L315 534 Z " />
<glyph glyph-name="otilde" unicode="&#xf5;" horiz-adv-x="538" d="M269 383 C346 383 383 312 383 233 C383 158 349 86 269 86 C186 86 155 158 155 235 C155 314 188 383 269 383 L269 383 Z M269 -12 C420 -12 509 88 509 233 C509 381 418 481 269 481 C115 481 28 382 28 235 C28 84 117 -12 269 -12 L269 -12 Z M355 659 C345 639 334 629 320 629 C295 629 256 659 223 659 C175 659 142 620 123 541 L183 541 C193 561 205 571 224 571 C240 571 280 541 317 541 C365 541 398 579 415 659 L355 659 Z " />
<glyph glyph-name="odieresis" unicode="&#xf6;" horiz-adv-x="538" d="M269 383 C346 383 383 312 383 233 C383 158 349 86 269 86 C186 86 155 158 155 235 C155 314 188 383 269 383 L269 383 Z M269 -12 C420 -12 509 88 509 233 C509 381 418 481 269 481 C115 481 28 382 28 235 C28 84 117 -12 269 -12 L269 -12 Z M302 544 L401 544 L401 659 L302 659 L302 544 Z M138 544 L236 544 L236 659 L138 659 L138 544 Z " />
<glyph glyph-name="divide" unicode="&#xf7;" horiz-adv-x="487" d="M32 264 L456 264 L456 352 L32 352 L32 264 Z M190 509 L190 401 L299 401 L299 509 L190 509 Z M190 213 L190 105 L299 105 L299 213 L190 213 Z " />
<glyph glyph-name="oslash" unicode="&#xf8;" horiz-adv-x="536" d="M410 442 C369 467 322 480 267 480 C149 480 27 407 27 234 C27 176 42 125 71 80 L0 6 L56 -45 L126 26 C163 1 211 -12 267 -12 C398 -12 509 68 509 232 C509 294 494 345 465 389 L536 464 L481 516 L410 442 Z M374 293 C379 276 382 256 382 235 C382 141 339 86 269 86 C244 86 221 94 202 108 L374 293 Z M334 361 L161 177 C157 195 155 215 155 234 C155 339 213 382 270 382 C294 382 315 374 334 361 L334 361 Z " />
<glyph glyph-name="ugrave" unicode="&#xf9;" horiz-adv-x="533" d="M54 468 L54 166 C54 99 79 -12 213 -12 C280 -12 317 13 353 72 L353 0 L478 0 L478 468 L353 468 L353 242 C353 164 342 95 256 95 C194 95 179 132 179 196 L179 468 L54 468 Z M226 536 L312 536 L253 665 L123 665 L226 536 Z " />
<glyph glyph-name="uacute" unicode="&#xfa;" horiz-adv-x="533" d="M54 468 L54 166 C54 99 79 -12 213 -12 C280 -12 317 13 353 72 L353 0 L478 0 L478 468 L353 468 L353 242 C353 164 342 95 256 95 C194 95 179 132 179 196 L179 468 L54 468 Z M217 536 L304 536 L406 665 L275 665 L217 536 Z " />
<glyph glyph-name="ucircumflex" unicode="&#xfb;" horiz-adv-x="533" d="M54 468 L54 166 C54 99 79 -12 213 -12 C280 -12 317 13 353 72 L353 0 L478 0 L478 468 L353 468 L353 242 C353 164 342 95 256 95 C194 95 179 132 179 196 L179 468 L54 468 Z M312 534 L406 534 L317 664 L214 664 L123 534 L214 534 L264 595 L312 534 Z " />
<glyph glyph-name="udieresis" unicode="&#xfc;" horiz-adv-x="533" d="M54 468 L54 166 C54 99 79 -12 213 -12 C280 -12 317 13 353 72 L353 0 L478 0 L478 468 L353 468 L353 242 C353 164 342 95 256 95 C194 95 179 132 179 196 L179 468 L54 468 Z M299 543 L398 543 L398 658 L299 658 L299 543 Z M135 543 L233 543 L233 658 L135 658 L135 543 Z " />
<glyph glyph-name="yacute" unicode="&#xfd;" horiz-adv-x="487" d="M182 -20 C176 -48 169 -67 161 -77 C151 -87 138 -93 120 -93 C111 -92 85 -91 77 -91 L77 -189 C120 -191 140 -192 139 -192 C184 -192 216 -183 235 -164 C256 -144 285 -79 324 32 L478 468 L345 468 L269 203 C260 173 252 143 248 114 C239 153 231 183 224 203 L147 468 L13 468 L182 -20 Z M203 536 L290 536 L392 665 L261 665 L203 536 Z " />
<glyph glyph-name="thorn" unicode="&#xfe;" horiz-adv-x="536" d="M60 639 L60 -180 L184 -180 L184 66 C219 15 262 -12 315 -12 C429 -12 509 78 509 236 C509 364 459 480 324 480 C259 480 213 454 184 403 L184 639 L60 639 Z M282 374 C346 374 383 322 383 233 C383 146 346 95 282 95 C215 95 181 141 181 233 C181 327 215 374 282 374 L282 374 Z " />
<glyph glyph-name="ydieresis" unicode="&#xff;" horiz-adv-x="487" d="M182 -20 C176 -48 169 -67 161 -77 C151 -87 138 -93 120 -93 C111 -92 85 -91 77 -91 L77 -189 C120 -191 140 -192 139 -192 C184 -192 216 -183 235 -164 C256 -144 285 -79 324 32 L478 468 L345 468 L269 203 C260 173 252 143 248 114 C239 153 231 183 224 203 L147 468 L13 468 L182 -20 Z M278 543 L377 543 L377 658 L278 658 L278 543 Z M114 543 L212 543 L212 658 L114 658 L114 543 Z " />
<glyph glyph-name="Amacron" unicode="&#x100;" horiz-adv-x="602" d="M300 493 L381 242 L220 242 L300 493 Z M182 135 L416 135 L460 0 L602 0 L377 640 L228 640 L0 0 L139 0 L182 135 Z M182 777 L426 777 L426 697 L182 697 L182 777 Z " />
<glyph glyph-name="amacron" unicode="&#x101;" horiz-adv-x="502" d="M318 220 L318 191 C318 121 283 86 214 86 C176 86 149 107 149 139 C149 173 176 194 228 203 L318 220 Z M155 318 C160 363 187 385 236 385 C301 385 316 362 316 297 C257 292 201 284 149 274 C66 257 24 208 24 128 C24 45 80 -12 163 -12 C237 -12 267 8 318 63 C319 40 326 18 338 0 L465 0 C450 17 442 41 442 72 L442 307 C442 444 368 481 236 481 C127 481 43 430 39 318 L155 318 Z M124 616 L368 616 L368 536 L124 536 L124 616 Z " />
<glyph glyph-name="Abreve" unicode="&#x102;" horiz-adv-x="602" d="M300 493 L381 242 L220 242 L300 493 Z M182 135 L416 135 L460 0 L602 0 L377 640 L228 640 L0 0 L139 0 L182 135 Z M157 854 C164 758 213 711 305 711 C394 711 441 758 447 854 L374 854 C366 812 342 790 302 790 C262 790 238 812 230 854 L157 854 Z " />
<glyph glyph-name="abreve" unicode="&#x103;" horiz-adv-x="502" d="M318 220 L318 191 C318 121 283 86 214 86 C176 86 149 107 149 139 C149 173 176 194 228 203 L318 220 Z M155 318 C160 363 187 385 236 385 C301 385 316 362 316 297 C257 292 201 284 149 274 C66 257 24 208 24 128 C24 45 80 -12 163 -12 C237 -12 267 8 318 63 C319 40 326 18 338 0 L465 0 C450 17 442 41 442 72 L442 307 C442 444 368 481 236 481 C127 481 43 430 39 318 L155 318 Z M98 672 C105 576 154 529 246 529 C335 529 382 576 388 672 L315 672 C307 630 283 608 243 608 C203 608 179 630 171 672 L98 672 Z " />
<glyph glyph-name="Aogonek" unicode="&#x104;" horiz-adv-x="602" d="M500 0 C451 -27 428 -58 428 -95 C428 -156 479 -192 537 -192 C560 -192 582 -188 600 -178 L600 -107 C586 -116 571 -120 556 -120 C525 -120 508 -105 508 -77 C508 -50 530 -24 575 0 L602 0 L377 640 L228 640 L0 0 L139 0 L182 135 L416 135 L460 0 L500 0 Z M300 493 L381 242 L220 242 L300 493 Z " />
<glyph glyph-name="aogonek" unicode="&#x105;" horiz-adv-x="502" d="M362 0 C313 -27 290 -58 290 -95 C290 -156 341 -192 399 -192 C422 -192 444 -188 462 -178 L462 -107 C448 -116 433 -120 418 -120 C387 -120 370 -105 370 -77 C370 -50 392 -24 437 0 L465 0 C450 17 442 41 442 72 L442 307 C442 444 368 481 236 481 C127 481 43 430 39 318 L155 318 C160 363 187 385 236 385 C301 385 316 362 316 297 C257 292 201 284 149 274 C66 257 24 208 24 128 C24 45 80 -12 163 -12 C237 -12 267 8 318 63 C319 40 326 18 338 0 L362 0 Z M318 220 L318 191 C318 121 283 86 214 86 C176 86 149 107 149 139 C149 173 176 194 228 203 L318 220 Z " />
<glyph glyph-name="Cacute" unicode="&#x106;" horiz-adv-x="640" d="M332 653 C135 653 35 505 35 316 C35 128 132 -12 328 -12 C476 -12 574 77 599 224 L466 224 C444 144 399 103 330 103 C218 103 172 202 172 316 C172 457 231 537 337 537 C405 537 448 501 466 428 L599 428 C584 575 472 653 332 653 L332 653 Z M270 709 L357 709 L459 838 L328 838 L270 709 Z " />
<glyph glyph-name="cacute" unicode="&#x107;" horiz-adv-x="491" d="M248 481 C100 481 28 375 28 233 C28 88 97 -12 248 -12 C370 -12 442 50 461 174 L337 174 C324 115 296 86 252 86 C187 86 155 135 155 233 C155 328 190 383 254 383 C298 383 325 356 337 302 L461 302 C450 418 372 481 248 481 L248 481 Z M186 536 L273 536 L375 665 L244 665 L186 536 Z " />
<glyph glyph-name="Ccircumflex" unicode="&#x108;" horiz-adv-x="640" d="M332 653 C135 653 35 505 35 316 C35 128 132 -12 328 -12 C476 -12 574 77 599 224 L466 224 C444 144 399 103 330 103 C218 103 172 202 172 316 C172 457 231 537 337 537 C405 537 448 501 466 428 L599 428 C584 575 472 653 332 653 L332 653 Z M381 707 L475 707 L386 837 L283 837 L192 707 L283 707 L333 768 L381 707 Z " />
<glyph glyph-name="ccircumflex" unicode="&#x109;" horiz-adv-x="491" d="M248 481 C100 481 28 375 28 233 C28 88 97 -12 248 -12 C370 -12 442 50 461 174 L337 174 C324 115 296 86 252 86 C187 86 155 135 155 233 C155 328 190 383 254 383 C298 383 325 356 337 302 L461 302 C450 418 372 481 248 481 L248 481 Z M296 535 L390 535 L301 665 L198 665 L107 535 L198 535 L248 596 L296 535 Z " />
<glyph glyph-name="Cdotaccent" unicode="&#x10a;" horiz-adv-x="639" d="M332 653 C135 653 35 505 35 316 C35 128 132 -12 328 -12 C476 -12 574 77 599 224 L466 224 C444 144 399 103 330 103 C218 103 172 202 172 316 C172 457 231 537 337 537 C405 537 448 501 466 428 L599 428 C584 575 472 653 332 653 L332 653 Z M280 826 L280 711 L378 711 L378 826 L280 826 Z " />
<glyph glyph-name="cdotaccent" unicode="&#x10b;" horiz-adv-x="491" d="M248 481 C100 481 28 375 28 233 C28 88 97 -12 248 -12 C370 -12 442 50 461 174 L337 174 C324 115 296 86 252 86 C187 86 155 135 155 233 C155 328 190 383 254 383 C298 383 325 356 337 302 L461 302 C450 418 372 481 248 481 L248 481 Z M207 658 L207 543 L305 543 L305 658 L207 658 Z " />
<glyph glyph-name="Ccaron" unicode="&#x10c;" horiz-adv-x="639" d="M332 653 C135 653 35 505 35 316 C35 128 132 -12 328 -12 C476 -12 574 77 599 224 L466 224 C444 144 399 103 330 103 C218 103 172 202 172 316 C172 457 231 537 337 537 C405 537 448 501 466 428 L599 428 C584 575 472 653 332 653 L332 653 Z M342 780 L295 840 L199 840 L289 710 L392 710 L482 840 L392 840 L342 780 Z " />
<glyph glyph-name="ccaron" unicode="&#x10d;" horiz-adv-x="491" d="M248 481 C100 481 28 375 28 233 C28 88 97 -12 248 -12 C370 -12 442 50 461 174 L337 174 C324 115 296 86 252 86 C187 86 155 135 155 233 C155 328 190 383 254 383 C298 383 325 356 337 302 L461 302 C450 418 372 481 248 481 L248 481 Z M256 605 L209 665 L113 665 L203 535 L306 535 L396 665 L306 665 L256 605 Z " />
<glyph glyph-name="Dcaron" unicode="&#x10e;" horiz-adv-x="637" d="M60 0 L60 640 L307 640 C376 640 428 631 465 614 C565 566 599 443 599 332 C599 210 559 76 449 24 C415 8 365 0 299 0 L60 0 Z M191 524 L191 116 L295 116 C398 116 463 153 463 326 C463 451 430 524 295 524 L191 524 Z M302 781 L255 841 L159 841 L249 711 L352 711 L442 841 L352 841 L302 781 Z " />
<glyph glyph-name="dcaron" unicode="&#x10f;" horiz-adv-x="700" d="M252 374 C323 372 349 304 349 237 C349 149 312 95 252 95 C180 95 155 166 155 233 C155 301 179 374 252 374 L252 374 Z M222 481 C94 481 28 366 28 232 C28 106 89 -12 218 -12 C281 -12 326 20 353 82 L353 0 L478 0 L478 640 L353 640 L353 400 C322 451 288 481 222 481 L222 481 Z M533 525 L599 525 C599 477 576 450 533 443 L533 396 C614 405 654 457 654 551 L654 640 L533 640 L533 525 Z " />
<glyph glyph-name="Dcroat" unicode="&#x110;" horiz-adv-x="633" d="M60 0 L299 0 C365 0 415 8 449 24 C559 76 599 210 599 332 C599 443 565 566 465 614 C428 631 376 640 307 640 L60 640 L60 380 L3 380 L3 272 L60 272 L60 0 Z M191 524 L295 524 C430 524 463 451 463 326 C463 186 420 116 295 116 L191 116 L191 272 L318 272 L318 380 L191 380 L191 524 Z " />
<glyph glyph-name="dcroat" unicode="&#x111;" horiz-adv-x="534" d="M274 519 L353 519 L353 400 C322 451 288 481 222 481 C94 481 28 366 28 232 C28 106 89 -12 218 -12 C281 -12 326 20 353 82 L353 0 L478 0 L478 519 L518 519 L518 599 L478 599 L478 640 L353 640 L353 599 L274 599 L274 519 Z M252 374 C323 372 349 304 349 237 C349 149 312 95 252 95 C180 95 155 166 155 233 C155 301 179 374 252 374 L252 374 Z " />
<glyph glyph-name="Emacron" unicode="&#x112;" horiz-adv-x="559" d="M534 0 L534 116 L191 116 L191 279 L491 279 L491 388 L191 388 L191 524 L519 524 L519 640 L60 640 L60 0 L534 0 Z M178 775 L422 775 L422 695 L178 695 L178 775 Z " />
<glyph glyph-name="emacron" unicode="&#x113;" horiz-adv-x="491" d="M323 137 C312 101 286 81 246 81 C184 81 157 135 157 197 L157 211 L460 211 C461 218 461 225 461 233 C461 394 385 481 246 481 C97 481 28 376 28 232 C28 90 98 -12 246 -12 C357 -12 426 28 451 137 L323 137 Z M157 291 C163 352 192 383 244 383 C296 383 324 352 330 291 L157 291 Z M126 606 L370 606 L370 526 L126 526 L126 606 Z " />
<glyph glyph-name="Ebreve" unicode="&#x114;" horiz-adv-x="559" d="M534 0 L534 116 L191 116 L191 279 L491 279 L491 388 L191 388 L191 524 L519 524 L519 640 L60 640 L60 0 L534 0 Z M159 848 C166 752 215 705 307 705 C396 705 443 752 449 848 L376 848 C368 806 344 784 304 784 C264 784 240 806 232 848 L159 848 Z " />
<glyph glyph-name="ebreve" unicode="&#x115;" horiz-adv-x="491" d="M323 137 C312 101 286 81 246 81 C184 81 157 135 157 197 L157 211 L460 211 C461 218 461 225 461 233 C461 394 385 481 246 481 C97 481 28 376 28 232 C28 90 98 -12 246 -12 C357 -12 426 28 451 137 L323 137 Z M157 291 C163 352 192 383 244 383 C296 383 324 352 330 291 L157 291 Z M107 672 C114 576 163 529 255 529 C344 529 391 576 397 672 L324 672 C316 630 292 608 252 608 C212 608 188 630 180 672 L107 672 Z " />
<glyph glyph-name="Edotaccent" unicode="&#x116;" horiz-adv-x="559" d="M534 0 L534 116 L191 116 L191 279 L491 279 L491 388 L191 388 L191 524 L519 524 L519 640 L60 640 L60 0 L534 0 Z M265 825 L265 710 L363 710 L363 825 L265 825 Z " />
<glyph glyph-name="edotaccent" unicode="&#x117;" horiz-adv-x="491" d="M323 137 C312 101 286 81 246 81 C184 81 157 135 157 197 L157 211 L460 211 C461 218 461 225 461 233 C461 394 385 481 246 481 C97 481 28 376 28 232 C28 90 98 -12 246 -12 C357 -12 426 28 451 137 L323 137 Z M157 291 C163 352 192 383 244 383 C296 383 324 352 330 291 L157 291 Z M202 658 L202 543 L300 543 L300 658 L202 658 Z " />
<glyph glyph-name="Eogonek" unicode="&#x118;" horiz-adv-x="559" d="M407 0 C358 -27 335 -58 335 -95 C335 -156 386 -192 444 -192 C467 -192 489 -188 507 -178 L507 -107 C493 -116 478 -120 463 -120 C432 -120 415 -105 415 -77 C415 -50 437 -24 482 0 L534 0 L534 116 L191 116 L191 279 L491 279 L491 388 L191 388 L191 524 L519 524 L519 640 L60 640 L60 0 L407 0 Z " />
<glyph glyph-name="eogonek" unicode="&#x119;" horiz-adv-x="491" d="M323 137 C312 101 286 81 246 81 C184 81 157 135 157 197 L157 211 L460 211 C461 218 461 225 461 233 C461 394 385 481 246 481 C97 481 28 376 28 232 C28 101 87 3 213 -10 C176 -35 159 -63 159 -95 C159 -156 210 -192 268 -192 C291 -192 313 -188 331 -178 L331 -107 C317 -116 302 -120 287 -120 C256 -120 239 -105 239 -77 C239 -53 255 -31 289 -9 C375 0 429 43 451 137 L323 137 Z M157 291 C163 352 192 383 244 383 C296 383 324 352 330 291 L157 291 Z " />
<glyph glyph-name="Ecaron" unicode="&#x11a;" horiz-adv-x="559" d="M534 0 L534 116 L191 116 L191 279 L491 279 L491 388 L191 388 L191 524 L519 524 L519 640 L60 640 L60 0 L534 0 Z M309 780 L262 840 L166 840 L256 710 L359 710 L449 840 L359 840 L309 780 Z " />
<glyph glyph-name="ecaron" unicode="&#x11b;" horiz-adv-x="491" d="M323 137 C312 101 286 81 246 81 C184 81 157 135 157 197 L157 211 L460 211 C461 218 461 225 461 233 C461 394 385 481 246 481 C97 481 28 376 28 232 C28 90 98 -12 246 -12 C357 -12 426 28 451 137 L323 137 Z M157 291 C163 352 192 383 244 383 C296 383 324 352 330 291 L157 291 Z M250 605 L203 665 L107 665 L197 535 L300 535 L390 665 L300 665 L250 605 Z " />
<glyph glyph-name="Gcircumflex" unicode="&#x11c;" horiz-adv-x="682" d="M360 237 L504 237 C485 148 434 103 349 103 C228 104 172 203 172 319 C172 438 227 537 351 537 C420 537 466 504 489 437 L625 437 C608 573 501 653 349 653 C152 653 35 507 35 316 C35 137 140 -12 328 -12 C407 -12 471 19 521 80 L534 0 L625 0 L625 345 L360 345 L360 237 Z M402 710 L496 710 L407 840 L304 840 L213 710 L304 710 L354 771 L402 710 Z " />
<glyph glyph-name="gcircumflex" unicode="&#x11d;" horiz-adv-x="542" d="M250 374 C316 374 349 329 349 239 C349 148 317 103 252 103 C190 103 155 153 155 237 C155 328 187 374 250 374 L250 374 Z M248 -192 C461 -192 478 -70 478 69 L478 468 L353 468 L353 398 C321 454 276 481 218 481 C84 481 28 359 28 228 C28 110 94 -3 218 -3 C279 -3 324 24 353 77 L353 58 C353 -22 346 -95 248 -95 C208 -95 183 -80 172 -50 L39 -50 C53 -145 123 -192 248 -192 L248 -192 Z M310 535 L404 535 L315 665 L212 665 L121 535 L212 535 L262 596 L310 535 Z " />
<glyph glyph-name="Gbreve" unicode="&#x11e;" horiz-adv-x="682" d="M360 237 L504 237 C485 148 434 103 349 103 C228 104 172 203 172 319 C172 438 227 537 351 537 C420 537 466 504 489 437 L625 437 C608 573 501 653 349 653 C152 653 35 507 35 316 C35 137 140 -12 328 -12 C407 -12 471 19 521 80 L534 0 L625 0 L625 345 L360 345 L360 237 Z M215 852 C222 756 271 709 363 709 C452 709 499 756 505 852 L432 852 C424 810 400 788 360 788 C320 788 296 810 288 852 L215 852 Z " />
<glyph glyph-name="gbreve" unicode="&#x11f;" horiz-adv-x="525" d="M250 374 C316 374 349 329 349 239 C349 148 317 103 252 103 C190 103 155 153 155 237 C155 328 187 374 250 374 L250 374 Z M248 -192 C461 -192 478 -70 478 69 L478 468 L353 468 L353 398 C321 454 276 481 218 481 C84 481 28 359 28 228 C28 110 94 -3 218 -3 C279 -3 324 24 353 77 L353 58 C353 -22 346 -95 248 -95 C208 -95 183 -80 172 -50 L39 -50 C53 -145 123 -192 248 -192 L248 -192 Z M93 672 C100 576 149 529 241 529 C330 529 377 576 383 672 L310 672 C302 630 278 608 238 608 C198 608 174 630 166 672 L93 672 Z " />
<glyph glyph-name="Gdotaccent" unicode="&#x120;" horiz-adv-x="682" d="M360 237 L504 237 C485 148 434 103 349 103 C228 104 172 203 172 319 C172 438 227 537 351 537 C420 537 466 504 489 437 L625 437 C608 573 501 653 349 653 C152 653 35 507 35 316 C35 137 140 -12 328 -12 C407 -12 471 19 521 80 L534 0 L625 0 L625 345 L360 345 L360 237 Z M295 823 L295 708 L393 708 L393 823 L295 823 Z " />
<glyph glyph-name="gdotaccent" unicode="&#x121;" horiz-adv-x="542" d="M250 374 C316 374 349 329 349 239 C349 148 317 103 252 103 C190 103 155 153 155 237 C155 328 187 374 250 374 L250 374 Z M248 -192 C461 -192 478 -70 478 69 L478 468 L353 468 L353 398 C321 454 276 481 218 481 C84 481 28 359 28 228 C28 110 94 -3 218 -3 C279 -3 324 24 353 77 L353 58 C353 -22 346 -95 248 -95 C208 -95 183 -80 172 -50 L39 -50 C53 -145 123 -192 248 -192 L248 -192 Z M212 655 L212 540 L310 540 L310 655 L212 655 Z " />
<glyph glyph-name="Gcommaaccent" unicode="&#x122;" horiz-adv-x="682" d="M360 237 L504 237 C485 148 434 103 349 103 C228 104 172 203 172 319 C172 438 227 537 351 537 C420 537 466 504 489 437 L625 437 C608 573 501 653 349 653 C152 653 35 507 35 316 C35 137 140 -12 328 -12 C407 -12 471 19 521 80 L534 0 L625 0 L625 345 L360 345 L360 237 Z M348 -170 C348 -192 344 -209 336 -221 C327 -232 312 -241 292 -247 L292 -285 C327 -280 353 -267 371 -243 C387 -221 395 -192 395 -157 L395 -68 L292 -68 L292 -170 L348 -170 Z " />
<glyph glyph-name="gcommaaccent" unicode="&#x123;" horiz-adv-x="542" d="M250 374 C316 374 349 329 349 239 C349 148 317 103 252 103 C190 103 155 153 155 237 C155 328 187 374 250 374 L250 374 Z M248 -192 C461 -192 478 -70 478 69 L478 468 L353 468 L353 398 C321 454 276 481 218 481 C84 481 28 359 28 228 C28 110 94 -3 218 -3 C279 -3 324 24 353 77 L353 58 C353 -22 346 -95 248 -95 C208 -95 183 -80 172 -50 L39 -50 C53 -145 123 -192 248 -192 L248 -192 Z M255 639 C255 661 259 678 267 690 C276 701 291 710 311 716 L311 754 C276 749 250 736 232 712 C216 690 208 661 208 626 L208 537 L311 537 L311 639 L255 639 Z " />
<glyph glyph-name="Hcircumflex" unicode="&#x124;" horiz-adv-x="652" d="M191 278 L460 278 L460 0 L591 0 L591 640 L460 640 L460 392 L191 392 L191 640 L60 640 L60 0 L191 0 L191 278 Z M374 710 L468 710 L379 840 L276 840 L185 710 L276 710 L326 771 L374 710 Z " />
<glyph glyph-name="hcircumflex" unicode="&#x125;" horiz-adv-x="548" d="M194 0 L194 200 C194 311 207 374 291 374 C342 374 368 342 368 278 L368 0 L493 0 L493 300 C493 402 454 481 336 481 C267 481 240 456 194 407 L194 640 L71 640 L71 0 L194 0 Z M349 709 L443 709 L354 839 L251 839 L160 709 L251 709 L301 770 L349 709 Z " />
<glyph glyph-name="Hbar" unicode="&#x126;" horiz-adv-x="641" d="M15 570 L15 486 L60 486 L60 0 L191 0 L191 278 L460 278 L460 0 L591 0 L591 486 L628 486 L628 570 L591 570 L591 640 L460 640 L460 570 L191 570 L191 640 L60 640 L60 570 L15 570 Z M460 486 L460 392 L191 392 L191 486 L460 486 Z " />
<glyph glyph-name="hbar" unicode="&#x127;" horiz-adv-x="534" d="M20 584 L20 515 L71 515 L71 0 L194 0 L194 200 C194 267 200 309 211 328 C223 359 250 374 291 374 C342 374 368 342 368 278 L368 0 L493 0 L493 300 C493 345 485 382 472 407 C445 456 399 481 336 481 C305 481 279 476 260 465 C241 454 219 435 194 407 L194 515 L304 515 L304 584 L194 584 L194 640 L71 640 L71 584 L20 584 Z " />
<glyph glyph-name="Itilde" unicode="&#x128;" horiz-adv-x="245" d="M189 0 L189 640 L57 640 L57 0 L189 0 Z M212 844 C202 824 191 814 177 814 C152 814 113 844 80 844 C32 844 -1 805 -20 726 L40 726 C50 746 62 756 81 756 C97 756 137 726 174 726 C222 726 255 764 272 844 L212 844 Z " />
<glyph glyph-name="itilde" unicode="&#x129;" horiz-adv-x="250" d="M60 467 L60 0 L184 0 L184 467 L60 467 Z M206 659 C196 639 185 629 171 629 C146 629 107 659 74 659 C26 659 -7 620 -26 541 L34 541 C44 561 56 571 75 571 C91 571 131 541 168 541 C216 541 249 579 266 659 L206 659 Z " />
<glyph glyph-name="Imacron" unicode="&#x12a;" horiz-adv-x="244" d="M189 0 L189 640 L57 640 L57 0 L189 0 Z M0 779 L244 779 L244 699 L0 699 L0 779 Z " />
<glyph glyph-name="imacron" unicode="&#x12b;" horiz-adv-x="247" d="M60 467 L60 0 L184 0 L184 467 L60 467 Z M3 602 L247 602 L247 522 L3 522 L3 602 Z " />
<glyph glyph-name="Ibreve" unicode="&#x12c;" horiz-adv-x="245" d="M189 0 L189 640 L57 640 L57 0 L189 0 Z M-22 853 C-15 757 34 710 126 710 C215 710 262 757 268 853 L195 853 C187 811 163 789 123 789 C83 789 59 811 51 853 L-22 853 Z " />
<glyph glyph-name="ibreve" unicode="&#x12d;" horiz-adv-x="242" d="M60 467 L60 0 L184 0 L184 467 L60 467 Z M-20 672 C-13 576 36 529 128 529 C217 529 264 576 270 672 L197 672 C189 630 165 608 125 608 C85 608 61 630 53 672 L-20 672 Z " />
<glyph glyph-name="Iogonek" unicode="&#x12e;" horiz-adv-x="246" d="M88 0 C39 -27 16 -58 16 -95 C16 -156 67 -192 125 -192 C148 -192 170 -188 188 -178 L188 -107 C174 -116 159 -120 144 -120 C113 -120 96 -105 96 -77 C96 -50 118 -24 163 0 L189 0 L189 640 L57 640 L57 0 L88 0 Z " />
<glyph glyph-name="iogonek" unicode="&#x12f;" horiz-adv-x="239" d="M89 0 C40 -27 17 -58 17 -95 C17 -156 68 -192 126 -192 C149 -192 171 -188 189 -178 L189 -107 C175 -116 160 -120 145 -120 C114 -120 97 -105 97 -77 C97 -50 119 -24 164 0 L185 0 L185 468 L60 468 L60 0 L89 0 Z M185 524 L185 640 L60 640 L60 524 L185 524 Z " />
<glyph glyph-name="Idotaccent" unicode="&#x130;" horiz-adv-x="242" d="M185 0 L185 640 L60 640 L60 0 L185 0 Z M60 822 L60 710 L185 710 L185 822 L60 822 Z " />
<glyph glyph-name="dotlessi" unicode="&#x131;" horiz-adv-x="244" d="M60 467 L60 0 L184 0 L184 467 L60 467 Z " />
<glyph glyph-name="IJ" unicode="&#x132;" horiz-adv-x="733" d="M189 0 L189 640 L57 640 L57 0 L189 0 Z M268 216 L268 241 L393 241 L393 209 C393 138 416 103 462 103 C536 103 539 158 539 241 L539 640 L669 640 L669 265 C669 104 648 -12 473 -12 C318 -12 268 64 268 216 L268 216 Z " />
<glyph glyph-name="ij" unicode="&#x133;" horiz-adv-x="480" d="M185 524 L185 640 L60 640 L60 524 L185 524 Z M185 0 L185 468 L60 468 L60 0 L185 0 Z M415 524 L415 640 L292 640 L292 524 L415 524 Z M236 -190 C257 -192 274 -192 284 -192 C366 -192 409 -154 414 -86 C415 -75 415 -50 415 -12 L415 468 L292 468 L292 -42 C292 -70 287 -93 256 -93 C250 -93 243 -92 236 -91 L236 -190 Z " />
<glyph glyph-name="Jcircumflex" unicode="&#x134;" horiz-adv-x="471" d="M28 216 L28 241 L153 241 L153 209 C153 138 176 103 222 103 C296 103 299 158 299 241 L299 640 L429 640 L429 265 C429 104 408 -12 233 -12 C78 -12 28 64 28 216 L28 216 Z M274 711 L368 711 L279 841 L176 841 L85 711 L176 711 L226 772 L274 711 Z " />
<glyph glyph-name="jcircumflex" unicode="&#x135;" horiz-adv-x="232" d="M15 -190 C36 -192 53 -192 63 -192 C145 -192 188 -154 193 -86 C194 -75 194 -50 194 -12 L194 468 L71 468 L71 -42 C71 -70 66 -93 35 -93 C29 -93 22 -92 15 -91 L15 -190 Z M179 539 L273 539 L184 669 L81 669 L-10 539 L81 539 L131 600 L179 539 Z " />
<glyph glyph-name="Kcommaaccent" unicode="&#x136;" horiz-adv-x="642" d="M191 0 L191 216 L254 279 L465 0 L633 0 L355 375 L618 640 L451 640 L191 365 L191 640 L60 640 L60 0 L191 0 Z M325 -172 C325 -194 321 -211 313 -223 C304 -234 289 -243 269 -249 L269 -287 C304 -282 330 -269 348 -245 C364 -223 372 -194 372 -159 L372 -70 L269 -70 L269 -172 L325 -172 Z " />
<glyph glyph-name="kcommaaccent" unicode="&#x137;" horiz-adv-x="505" d="M184 0 L184 151 L235 205 L338 0 L487 0 L312 286 L487 468 L338 468 L184 286 L184 640 L60 640 L60 0 L184 0 Z M257 -172 C257 -194 253 -211 245 -223 C236 -234 221 -243 201 -249 L201 -287 C236 -282 262 -269 280 -245 C296 -223 304 -194 304 -159 L304 -70 L201 -70 L201 -172 L257 -172 Z " />
<glyph glyph-name="kgreenlandic" unicode="&#x138;" horiz-adv-x="505" d="M60 0 L184 0 L184 151 L235 205 L338 0 L487 0 L312 286 L487 469 L338 469 L184 286 L184 469 L60 469 L60 0 Z " />
<glyph glyph-name="Lacute" unicode="&#x139;" horiz-adv-x="516" d="M502 0 L502 116 L191 116 L191 640 L60 640 L60 0 L502 0 Z M150 711 L237 711 L339 840 L208 840 L150 711 Z " />
<glyph glyph-name="lacute" unicode="&#x13a;" horiz-adv-x="244" d="M185 0 L185 640 L60 640 L60 0 L185 0 Z M62 708 L149 708 L251 837 L120 837 L62 708 Z " />
<glyph glyph-name="Lcommaaccent" unicode="&#x13b;" horiz-adv-x="516" d="M502 0 L502 116 L191 116 L191 640 L60 640 L60 0 L502 0 Z M285 -172 C285 -194 281 -211 273 -223 C264 -234 249 -243 229 -249 L229 -287 C264 -282 290 -269 308 -245 C324 -223 332 -194 332 -159 L332 -70 L229 -70 L229 -172 L285 -172 Z " />
<glyph glyph-name="lcommaaccent" unicode="&#x13c;" horiz-adv-x="242" d="M185 0 L185 640 L60 640 L60 0 L185 0 Z M126 -172 C126 -194 122 -211 114 -223 C105 -234 90 -243 70 -249 L70 -287 C105 -282 131 -269 149 -245 C165 -223 173 -194 173 -159 L173 -70 L70 -70 L70 -172 L126 -172 Z " />
<glyph glyph-name="Lcaron" unicode="&#x13d;" horiz-adv-x="516" d="M502 0 L502 116 L191 116 L191 640 L60 640 L60 0 L502 0 Z M380 497 L459 497 L459 491 C459 434 419 408 380 407 L380 335 C535 345 531 463 531 497 L531 641 L380 641 L380 497 Z " />
<glyph glyph-name="lcaron" unicode="&#x13e;" horiz-adv-x="434" d="M185 0 L185 640 L60 640 L60 0 L185 0 Z M269 524 L335 524 C335 476 312 449 269 442 L269 395 C350 404 390 456 390 550 L390 639 L269 639 L269 524 Z " />
<glyph glyph-name="Ldot" unicode="&#x13f;" horiz-adv-x="516" d="M502 0 L502 116 L191 116 L191 640 L60 640 L60 0 L502 0 Z M330 385 L330 270 L428 270 L428 385 L330 385 Z " />
<glyph glyph-name="ldot" unicode="&#x140;" horiz-adv-x="428" d="M185 0 L185 640 L60 640 L60 0 L185 0 Z M282 391 L282 276 L380 276 L380 391 L282 391 Z " />
<glyph glyph-name="Lslash" unicode="&#x141;" horiz-adv-x="516" d="M191 430 L191 639 L60 639 L60 346 L4 302 L4 181 L60 225 L60 0 L502 0 L502 115 L191 115 L191 308 L262 366 L262 488 L191 430 Z " />
<glyph glyph-name="lslash" unicode="&#x142;" horiz-adv-x="244" d="M184 437 L184 639 L60 639 L60 357 L0 309 L0 190 L60 237 L60 0 L184 0 L184 317 L244 363 L244 484 L184 437 Z " />
<glyph glyph-name="Nacute" unicode="&#x143;" horiz-adv-x="628" d="M184 446 L451 0 L575 0 L575 640 L451 640 L451 194 L190 640 L60 640 L60 0 L184 0 L184 446 Z M273 710 L360 710 L462 839 L331 839 L273 710 Z " />
<glyph glyph-name="nacute" unicode="&#x144;" horiz-adv-x="523" d="M184 0 L184 239 C184 329 217 374 282 374 C333 374 358 342 358 281 L358 0 L483 0 L483 291 C483 336 479 368 470 392 C451 448 384 481 326 481 C257 481 220 450 184 398 L184 468 L60 468 L60 0 L184 0 Z M182 534 L269 534 L371 663 L240 663 L182 534 Z " />
<glyph glyph-name="Ncommaaccent" unicode="&#x145;" horiz-adv-x="628" d="M184 446 L451 0 L575 0 L575 640 L451 640 L451 194 L190 640 L60 640 L60 0 L184 0 L184 446 Z M315 -172 C315 -194 311 -211 303 -223 C294 -234 279 -243 259 -249 L259 -287 C294 -282 320 -269 338 -245 C354 -223 362 -194 362 -159 L362 -70 L259 -70 L259 -172 L315 -172 Z " />
<glyph glyph-name="ncommaaccent" unicode="&#x146;" horiz-adv-x="523" d="M184 0 L184 239 C184 329 217 374 282 374 C333 374 358 342 358 281 L358 0 L483 0 L483 291 C483 336 479 368 470 392 C451 448 384 481 326 481 C257 481 220 450 184 398 L184 468 L60 468 L60 0 L184 0 Z M276 -172 C276 -194 272 -211 264 -223 C255 -234 240 -243 220 -249 L220 -287 C255 -282 281 -269 299 -245 C315 -223 323 -194 323 -159 L323 -70 L220 -70 L220 -172 L276 -172 Z " />
<glyph glyph-name="Ncaron" unicode="&#x147;" horiz-adv-x="628" d="M184 446 L451 0 L575 0 L575 640 L451 640 L451 194 L190 640 L60 640 L60 0 L184 0 L184 446 Z M327 780 L280 840 L184 840 L274 710 L377 710 L467 840 L377 840 L327 780 Z " />
<glyph glyph-name="ncaron" unicode="&#x148;" horiz-adv-x="523" d="M184 0 L184 239 C184 329 217 374 282 374 C333 374 358 342 358 281 L358 0 L483 0 L483 291 C483 336 479 368 470 392 C451 448 384 481 326 481 C257 481 220 450 184 398 L184 468 L60 468 L60 0 L184 0 Z M268 604 L221 664 L125 664 L215 534 L318 534 L408 664 L318 664 L268 604 Z " />
<glyph glyph-name="napostrophe" unicode="&#x149;" horiz-adv-x="619" d="M285 0 L285 239 C285 329 318 374 383 374 C434 374 459 342 459 281 L459 0 L584 0 L584 291 C584 336 580 368 571 392 C552 448 485 481 427 481 C358 481 321 450 285 398 L285 468 L161 468 L161 0 L285 0 Z M-29 524 L37 524 C37 476 14 449 -29 442 L-29 395 C52 404 92 456 92 550 L92 639 L-29 639 L-29 524 Z " />
<glyph glyph-name="Eng" unicode="&#x14a;" horiz-adv-x="628" d="M396 -136 C399 -136 405 -138 407 -138 C430 -138 443 -132 448 -120 C450 -113 452 -102 452 -87 L452 0 L184 446 L184 0 L60 0 L60 640 L190 640 L451 194 L451 640 L575 640 L575 -57 C575 -96 575 -121 574 -132 C571 -162 563 -185 549 -199 C525 -224 490 -238 444 -238 C443 -238 438 -237 426 -237 C417 -236 406 -236 396 -236 L396 -136 Z " />
<glyph glyph-name="eng" unicode="&#x14b;" horiz-adv-x="523" d="M304 -91 C306 -91 312 -93 314 -93 C337 -93 350 -87 354 -75 C357 -68 358 -57 358 -42 L358 281 C358 342 333 374 282 374 C217 374 184 329 184 239 L184 0 L60 0 L60 468 L184 468 L184 398 C205 429 226 451 248 462 C269 475 295 481 326 481 C359 481 389 472 416 455 C443 439 461 418 470 392 C479 368 483 336 483 291 L483 -12 C483 -50 483 -75 481 -86 C478 -117 469 -140 456 -154 C432 -180 397 -192 351 -192 C350 -192 344 -192 334 -191 C323 -191 313 -190 304 -190 L304 -91 Z " />
<glyph glyph-name="Omacron" unicode="&#x14c;" horiz-adv-x="683" d="M170 328 C170 445 228 536 342 537 C454 537 513 444 513 326 C513 213 460 103 340 103 C216 103 170 215 170 328 L170 328 Z M343 -12 C540 -11 647 145 647 330 C647 521 532 653 343 653 C145 653 35 508 35 318 C35 131 153 -12 343 -12 L343 -12 Z M222 776 L466 776 L466 696 L222 696 L222 776 Z " />
<glyph glyph-name="omacron" unicode="&#x14d;" horiz-adv-x="537" d="M269 383 C346 383 383 312 383 233 C383 158 349 86 269 86 C186 86 155 158 155 235 C155 314 188 383 269 383 L269 383 Z M269 -12 C420 -12 509 88 509 233 C509 381 418 481 269 481 C115 481 28 382 28 235 C28 84 117 -12 269 -12 L269 -12 Z M142 620 L386 620 L386 540 L142 540 L142 620 Z " />
<glyph glyph-name="Obreve" unicode="&#x14e;" horiz-adv-x="683" d="M170 328 C170 445 228 536 342 537 C454 537 513 444 513 326 C513 213 460 103 340 103 C216 103 170 215 170 328 L170 328 Z M343 -12 C540 -11 647 145 647 330 C647 521 532 653 343 653 C145 653 35 508 35 318 C35 131 153 -12 343 -12 L343 -12 Z M197 854 C204 758 253 711 345 711 C434 711 481 758 487 854 L414 854 C406 812 382 790 342 790 C302 790 278 812 270 854 L197 854 Z " />
<glyph glyph-name="obreve" unicode="&#x14f;" horiz-adv-x="537" d="M269 383 C346 383 383 312 383 233 C383 158 349 86 269 86 C186 86 155 158 155 235 C155 314 188 383 269 383 L269 383 Z M269 -12 C420 -12 509 88 509 233 C509 381 418 481 269 481 C115 481 28 382 28 235 C28 84 117 -12 269 -12 L269 -12 Z M124 672 C131 576 180 529 272 529 C361 529 408 576 414 672 L341 672 C333 630 309 608 269 608 C229 608 205 630 197 672 L124 672 Z " />
<glyph glyph-name="Ohungarumlaut" unicode="&#x150;" horiz-adv-x="683" d="M170 328 C170 445 228 536 342 537 C454 537 513 444 513 326 C513 213 460 103 340 103 C216 103 170 215 170 328 L170 328 Z M343 -12 C540 -11 647 145 647 330 C647 521 532 653 343 653 C145 653 35 508 35 318 C35 131 153 -12 343 -12 L343 -12 Z M296 837 L237 708 L308 708 L395 837 L296 837 Z M431 837 L372 708 L443 708 L529 837 L431 837 Z " />
<glyph glyph-name="ohungarumlaut" unicode="&#x151;" horiz-adv-x="537" d="M269 383 C346 383 383 312 383 233 C383 158 349 86 269 86 C186 86 155 158 155 235 C155 314 188 383 269 383 L269 383 Z M269 -12 C420 -12 509 88 509 233 C509 381 418 481 269 481 C115 481 28 382 28 235 C28 84 117 -12 269 -12 L269 -12 Z M208 664 L149 535 L220 535 L307 664 L208 664 Z M343 664 L284 535 L355 535 L441 664 L343 664 Z " />
<glyph glyph-name="OE" unicode="&#x152;" horiz-adv-x="877" d="M460 159 C422 112 399 94 337 94 C216 94 171 201 171 316 C171 432 220 537 337 537 C394 537 425 515 460 472 L460 159 Z M460 639 L460 590 C424 631 373 652 307 652 C125 652 35 493 35 318 C35 148 117 -12 298 -12 C365 -12 419 12 460 59 L460 0 L840 0 L840 115 L591 115 L591 281 L798 281 L798 389 L591 389 L591 524 L826 524 L826 639 L460 639 Z " />
<glyph glyph-name="oe" unicode="&#x153;" horiz-adv-x="828" d="M502 290 C507 351 536 382 586 382 C635 382 664 351 670 290 L502 290 Z M155 234 C155 313 188 382 269 382 C348 382 382 309 382 234 C382 159 350 86 269 86 C189 86 155 157 155 234 L155 234 Z M433 424 C394 461 338 480 268 480 C115 480 27 381 27 234 C27 86 116 -12 268 -12 C338 -12 394 7 434 44 C469 7 524 -12 601 -12 C689 -12 751 38 790 136 L663 136 C644 103 620 86 590 86 C534 86 503 127 497 210 L800 210 C801 218 801 225 801 233 C801 392 724 480 586 480 C520 480 469 461 433 424 L433 424 Z " />
<glyph glyph-name="Racute" unicode="&#x154;" horiz-adv-x="613" d="M191 524 L316 524 C392 524 435 517 435 444 C435 370 390 362 316 362 L191 362 L191 524 Z M191 0 L191 252 L312 252 C366 252 398 240 410 214 C416 203 419 165 422 102 C424 59 426 26 437 0 L583 0 C564 16 554 59 554 128 C554 206 546 251 530 272 C516 289 498 302 474 309 C539 338 571 387 571 456 C571 521 548 571 504 603 C458 637 418 640 340 640 L60 640 L60 0 L191 0 Z M213 708 L300 708 L402 837 L271 837 L213 708 Z " />
<glyph glyph-name="racute" unicode="&#x155;" horiz-adv-x="324" d="M158 0 L158 237 C158 315 193 355 265 355 C273 355 296 354 306 353 L306 479 C295 480 284 481 278 481 C228 481 189 452 158 395 L158 468 L34 468 L34 0 L158 0 Z M62 536 L149 536 L251 665 L120 665 L62 536 Z " />
<glyph glyph-name="Rcommaaccent" unicode="&#x156;" horiz-adv-x="613" d="M191 524 L316 524 C392 524 435 517 435 444 C435 370 390 362 316 362 L191 362 L191 524 Z M191 0 L191 252 L312 252 C366 252 398 240 410 214 C416 203 419 165 422 102 C424 59 426 26 437 0 L583 0 C564 16 554 59 554 128 C554 206 546 251 530 272 C516 289 498 302 474 309 C539 338 571 387 571 456 C571 521 548 571 504 603 C458 637 418 640 340 640 L60 640 L60 0 L191 0 Z M306 -172 C306 -194 302 -211 294 -223 C285 -234 270 -243 250 -249 L250 -287 C285 -282 311 -269 329 -245 C345 -223 353 -194 353 -159 L353 -70 L250 -70 L250 -172 L306 -172 Z " />
<glyph glyph-name="rcommaaccent" unicode="&#x157;" horiz-adv-x="324" d="M158 0 L158 237 C158 315 193 355 265 355 C273 355 296 354 306 353 L306 479 C295 480 284 481 278 481 C228 481 189 452 158 395 L158 468 L34 468 L34 0 L158 0 Z M100 -172 C100 -194 96 -211 88 -223 C79 -234 64 -243 44 -249 L44 -287 C79 -282 105 -269 123 -245 C139 -223 147 -194 147 -159 L147 -70 L44 -70 L44 -172 L100 -172 Z " />
<glyph glyph-name="Rcaron" unicode="&#x158;" horiz-adv-x="613" d="M191 524 L316 524 C392 524 435 517 435 444 C435 370 390 362 316 362 L191 362 L191 524 Z M191 0 L191 252 L312 252 C366 252 398 240 410 214 C416 203 419 165 422 102 C424 59 426 26 437 0 L583 0 C564 16 554 59 554 128 C554 206 546 251 530 272 C516 289 498 302 474 309 C539 338 571 387 571 456 C571 521 548 571 504 603 C458 637 418 640 340 640 L60 640 L60 0 L191 0 Z M277 780 L230 840 L134 840 L224 710 L327 710 L417 840 L327 840 L277 780 Z " />
<glyph glyph-name="rcaron" unicode="&#x159;" horiz-adv-x="324" d="M159 0 L159 237 C159 315 194 355 266 355 C274 355 297 354 307 353 L307 479 C296 480 285 481 279 481 C229 481 190 452 159 395 L159 468 L35 468 L35 0 L159 0 Z M160 605 L113 665 L17 665 L107 535 L210 535 L300 665 L210 665 L160 605 Z " />
<glyph glyph-name="Sacute" unicode="&#x15a;" horiz-adv-x="587" d="M35 200 C43 51 149 -12 300 -12 C435 -12 551 55 551 188 C551 278 504 316 420 347 L220 423 C190 434 176 451 176 472 C176 525 235 545 284 545 C352 545 392 513 403 446 L532 446 C524 579 437 653 282 653 C155 653 47 587 47 458 C47 385 89 333 172 300 L365 224 C401 210 420 192 420 170 C415 113 359 95 302 95 C222 95 176 130 161 200 L35 200 Z M230 711 L317 711 L419 840 L288 840 L230 711 Z " />
<glyph glyph-name="sacute" unicode="&#x15b;" horiz-adv-x="481" d="M246 -12 C284 -12 318 -7 345 2 C404 20 461 82 461 144 C461 194 428 237 377 254 L184 318 C171 322 164 330 164 340 C164 368 191 383 244 383 C291 383 315 369 323 324 L444 324 C427 431 363 481 244 481 C147 481 44 432 44 330 C44 279 76 243 142 220 L279 172 C310 159 334 158 334 130 C334 101 306 86 250 86 C194 86 163 102 153 153 L28 153 C32 43 104 -12 246 -12 L246 -12 Z M175 535 L262 535 L364 664 L233 664 L175 535 Z " />
<glyph glyph-name="Scircumflex" unicode="&#x15c;" horiz-adv-x="587" d="M35 200 C43 51 149 -12 300 -12 C435 -12 551 55 551 188 C551 278 504 316 420 347 L220 423 C190 434 176 451 176 472 C176 525 235 545 284 545 C352 545 392 513 403 446 L532 446 C524 579 437 653 282 653 C155 653 47 587 47 458 C47 385 89 333 172 300 L365 224 C401 210 420 192 420 170 C415 113 359 95 302 95 C222 95 176 130 161 200 L35 200 Z M354 713 L448 713 L359 843 L256 843 L165 713 L256 713 L306 774 L354 713 Z " />
<glyph glyph-name="scircumflex" unicode="&#x15d;" horiz-adv-x="481" d="M246 -12 C284 -12 318 -7 345 2 C404 20 461 82 461 144 C461 194 428 237 377 254 L184 318 C171 322 164 330 164 340 C164 368 191 383 244 383 C291 383 315 369 323 324 L444 324 C427 431 363 481 244 481 C147 481 44 432 44 330 C44 279 76 243 142 220 L279 172 C310 159 334 158 334 130 C334 101 306 86 250 86 C194 86 163 102 153 153 L28 153 C32 43 104 -12 246 -12 L246 -12 Z M302 535 L396 535 L307 665 L204 665 L113 535 L204 535 L254 596 L302 535 Z " />
<glyph glyph-name="&amp;#x15e;" unicode="&#x15e;" horiz-adv-x="587" d="M35 200 C43 53 146 -10 293 -12 L250 -80 L271 -100 C285 -95 297 -92 305 -92 C331 -92 345 -103 345 -124 C345 -146 331 -157 304 -157 C281 -157 254 -152 225 -141 L207 -181 C245 -195 281 -203 314 -203 C348 -203 375 -195 395 -180 C417 -164 427 -145 427 -121 C427 -81 394 -54 347 -54 C338 -54 327 -55 311 -58 L341 -10 C457 2 551 68 551 188 C551 278 504 316 420 347 L220 423 C190 434 176 451 176 472 C176 525 235 545 284 545 C352 545 392 513 403 446 L532 446 C524 579 437 653 282 653 C155 653 47 587 47 458 C47 385 89 333 172 300 L365 224 C401 210 420 192 420 170 C415 113 359 95 302 95 C222 95 176 130 161 200 L35 200 Z " />
<glyph glyph-name="&amp;#xf6c1;" unicode="&#xf6c1;" horiz-adv-x="587" d="M35 200 C43 53 146 -10 293 -12 L250 -80 L271 -100 C285 -95 297 -92 305 -92 C331 -92 345 -103 345 -124 C345 -146 331 -157 304 -157 C281 -157 254 -152 225 -141 L207 -181 C245 -195 281 -203 314 -203 C348 -203 375 -195 395 -180 C417 -164 427 -145 427 -121 C427 -81 394 -54 347 -54 C338 -54 327 -55 311 -58 L341 -10 C457 2 551 68 551 188 C551 278 504 316 420 347 L220 423 C190 434 176 451 176 472 C176 525 235 545 284 545 C352 545 392 513 403 446 L532 446 C524 579 437 653 282 653 C155 653 47 587 47 458 C47 385 89 333 172 300 L365 224 C401 210 420 192 420 170 C415 113 359 95 302 95 C222 95 176 130 161 200 L35 200 Z " />
<glyph glyph-name="&amp;#x15f;" unicode="&#x15f;" horiz-adv-x="481" d="M345 2 C404 20 461 82 461 144 C461 194 428 237 377 254 L184 318 C171 322 164 330 164 340 C164 368 191 383 244 383 C291 383 315 369 323 324 L444 324 C427 431 363 481 244 481 C147 481 44 432 44 330 C44 279 76 243 142 220 L279 172 C310 159 334 158 334 130 C334 101 306 86 250 86 C194 86 163 102 153 153 L28 153 C32 44 102 -10 239 -12 L196 -80 L217 -100 C231 -95 243 -92 251 -92 C277 -92 291 -103 291 -124 C291 -146 277 -157 250 -157 C227 -157 200 -152 171 -141 L153 -181 C191 -195 227 -203 260 -203 C294 -203 321 -195 341 -180 C363 -164 373 -145 373 -121 C373 -81 340 -54 293 -54 C284 -54 273 -55 257 -58 L287 -10 C308 -7 328 -3 345 2 L345 2 Z " />
<glyph glyph-name="&amp;#xf6c2;" unicode="&#xf6c2;" horiz-adv-x="481" d="M345 2 C404 20 461 82 461 144 C461 194 428 237 377 254 L184 318 C171 322 164 330 164 340 C164 368 191 383 244 383 C291 383 315 369 323 324 L444 324 C427 431 363 481 244 481 C147 481 44 432 44 330 C44 279 76 243 142 220 L279 172 C310 159 334 158 334 130 C334 101 306 86 250 86 C194 86 163 102 153 153 L28 153 C32 44 102 -10 239 -12 L196 -80 L217 -100 C231 -95 243 -92 251 -92 C277 -92 291 -103 291 -124 C291 -146 277 -157 250 -157 C227 -157 200 -152 171 -141 L153 -181 C191 -195 227 -203 260 -203 C294 -203 321 -195 341 -180 C363 -164 373 -145 373 -121 C373 -81 340 -54 293 -54 C284 -54 273 -55 257 -58 L287 -10 C308 -7 328 -3 345 2 L345 2 Z " />
<glyph glyph-name="Scaron" unicode="&#x160;" horiz-adv-x="587" d="M35 200 C43 51 149 -12 300 -12 C435 -12 551 55 551 188 C551 278 504 316 420 347 L220 423 C190 434 176 451 176 472 C176 525 235 545 284 545 C352 545 392 513 403 446 L532 446 C524 579 437 653 282 653 C155 653 47 587 47 458 C47 385 89 333 172 300 L365 224 C401 210 420 192 420 170 C415 113 359 95 302 95 C222 95 176 130 161 200 L35 200 Z M298 777 L251 837 L155 837 L245 707 L348 707 L438 837 L348 837 L298 777 Z " />
<glyph glyph-name="scaron" unicode="&#x161;" horiz-adv-x="481" d="M246 -12 C284 -12 318 -7 345 2 C404 20 461 82 461 144 C461 194 428 237 377 254 L184 318 C171 322 164 330 164 340 C164 368 191 383 244 383 C291 383 315 369 323 324 L444 324 C427 431 363 481 244 481 C147 481 44 432 44 330 C44 279 76 243 142 220 L279 172 C310 159 334 158 334 130 C334 101 306 86 250 86 C194 86 163 102 153 153 L28 153 C32 43 104 -12 246 -12 L246 -12 Z M239 605 L192 665 L96 665 L186 535 L289 535 L379 665 L289 665 L239 605 Z " />
<glyph glyph-name="Tcommaaccent" unicode="&#x162;" horiz-adv-x="536" d="M203 524 L203 0 L336 0 L336 524 L524 524 L524 640 L13 640 L13 524 L203 524 Z M275 -172 C275 -194 271 -211 263 -223 C254 -234 239 -243 219 -249 L219 -287 C254 -282 280 -269 298 -245 C314 -223 322 -194 322 -159 L322 -70 L219 -70 L219 -172 L275 -172 Z " />
<glyph glyph-name="tcommaaccent" unicode="&#x163;" horiz-adv-x="309" d="M72 381 L72 137 C72 34 94 -12 200 -12 C217 -12 242 -11 274 -9 L274 86 L256 86 C212 86 196 86 196 130 L196 381 L274 381 L274 468 L196 468 L196 590 L72 590 L72 468 L13 468 L13 381 L72 381 Z M169 -172 C169 -194 165 -211 157 -223 C148 -234 133 -243 113 -249 L113 -287 C148 -282 174 -269 192 -245 C208 -223 216 -194 216 -159 L216 -70 L113 -70 L113 -172 L169 -172 Z " />
<glyph glyph-name="Tcaron" unicode="&#x164;" horiz-adv-x="536" d="M203 524 L203 0 L336 0 L336 524 L524 524 L524 640 L13 640 L13 524 L203 524 Z M269 780 L222 840 L126 840 L216 710 L319 710 L409 840 L319 840 L269 780 Z " />
<glyph glyph-name="tcaron" unicode="&#x165;" horiz-adv-x="455" d="M72 381 L72 137 C72 34 94 -12 200 -12 C217 -12 242 -11 274 -9 L274 86 L256 86 C212 86 196 86 196 130 L196 381 L274 381 L274 468 L196 468 L196 590 L72 590 L72 468 L13 468 L13 381 L72 381 Z M317 524 L383 524 C383 476 360 449 317 442 L317 395 C398 404 438 456 438 550 L438 639 L317 639 L317 524 Z " />
<glyph glyph-name="Tbar" unicode="&#x166;" horiz-adv-x="536" d="M44 447 L44 384 L203 384 L203 0 L336 0 L336 384 L491 384 L491 447 L336 447 L336 524 L524 524 L524 640 L13 640 L13 524 L203 524 L203 447 L44 447 Z " />
<glyph glyph-name="tbar" unicode="&#x167;" horiz-adv-x="309" d="M14 562 L14 506 L72 506 L72 468 L13 468 L13 381 L72 381 L72 137 C72 83 80 45 96 24 C114 0 149 -12 200 -12 C217 -12 242 -11 274 -9 L274 86 L256 86 C231 86 216 88 209 91 C201 96 196 108 196 130 L196 381 L274 381 L274 468 L196 468 L196 506 L272 506 L272 562 L196 562 L196 590 L72 590 L72 562 L14 562 Z " />
<glyph glyph-name="Utilde" unicode="&#x168;" horiz-adv-x="636" d="M444 640 L444 248 C444 152 418 103 316 103 C218 103 191 152 191 248 L191 640 L60 640 L60 246 C60 65 144 -12 324 -12 C509 -12 575 86 575 246 L575 640 L444 640 Z M409 834 C399 814 388 804 374 804 C349 804 310 834 277 834 C229 834 196 795 177 716 L237 716 C247 736 259 746 278 746 C294 746 334 716 371 716 C419 716 452 754 469 834 L409 834 Z " />
<glyph glyph-name="utilde" unicode="&#x169;" horiz-adv-x="532" d="M54 468 L54 166 C54 99 79 -12 213 -12 C280 -12 317 13 353 72 L353 0 L478 0 L478 468 L353 468 L353 242 C353 164 342 95 256 95 C194 95 179 132 179 196 L179 468 L54 468 Z M359 659 C349 639 338 629 324 629 C299 629 260 659 227 659 C179 659 146 620 127 541 L187 541 C197 561 209 571 228 571 C244 571 284 541 321 541 C369 541 402 579 419 659 L359 659 Z " />
<glyph glyph-name="Umacron" unicode="&#x16a;" horiz-adv-x="637" d="M444 640 L444 248 C444 152 418 103 316 103 C218 103 191 152 191 248 L191 640 L60 640 L60 246 C60 65 144 -12 324 -12 C509 -12 575 86 575 246 L575 640 L444 640 Z M192 775 L436 775 L436 695 L192 695 L192 775 Z " />
<glyph glyph-name="umacron" unicode="&#x16b;" horiz-adv-x="534" d="M54 468 L54 166 C54 99 79 -12 213 -12 C280 -12 317 13 353 72 L353 0 L478 0 L478 468 L353 468 L353 242 C353 164 342 95 256 95 C194 95 179 132 179 196 L179 468 L54 468 Z M148 592 L392 592 L392 512 L148 512 L148 592 Z " />
<glyph glyph-name="Ubreve" unicode="&#x16c;" horiz-adv-x="636" d="M444 640 L444 248 C444 152 418 103 316 103 C218 103 191 152 191 248 L191 640 L60 640 L60 246 C60 65 144 -12 324 -12 C509 -12 575 86 575 246 L575 640 L444 640 Z M176 853 C183 757 232 710 324 710 C413 710 460 757 466 853 L393 853 C385 811 361 789 321 789 C281 789 257 811 249 853 L176 853 Z " />
<glyph glyph-name="ubreve" unicode="&#x16d;" horiz-adv-x="534" d="M54 468 L54 166 C54 99 79 -12 213 -12 C280 -12 317 13 353 72 L353 0 L478 0 L478 468 L353 468 L353 242 C353 164 342 95 256 95 C194 95 179 132 179 196 L179 468 L54 468 Z M112 672 C119 576 168 529 260 529 C349 529 396 576 402 672 L329 672 C321 630 297 608 257 608 C217 608 193 630 185 672 L112 672 Z " />
<glyph glyph-name="Uring" unicode="&#x16e;" horiz-adv-x="636" d="M444 640 L444 248 C444 152 418 103 316 103 C218 103 191 152 191 248 L191 640 L60 640 L60 246 C60 65 144 -12 324 -12 C509 -12 575 86 575 246 L575 640 L444 640 Z M312 823 C292 823 276 806 276 785 C276 764 292 748 312 748 C331 748 348 764 348 785 C348 806 331 823 312 823 L312 823 Z M312 878 C364 878 405 835 405 785 C405 734 362 692 312 692 C262 692 219 733 219 785 C219 836 262 878 312 878 L312 878 Z " />
<glyph glyph-name="uring" unicode="&#x16f;" horiz-adv-x="534" d="M54 468 L54 166 C54 99 79 -12 213 -12 C280 -12 317 13 353 72 L353 0 L478 0 L478 468 L353 468 L353 242 C353 164 342 95 256 95 C194 95 179 132 179 196 L179 468 L54 468 Z M267 639 C247 639 231 622 231 601 C231 580 247 564 267 564 C286 564 303 580 303 601 C303 622 286 639 267 639 L267 639 Z M267 694 C319 694 360 651 360 601 C360 550 317 508 267 508 C217 508 174 549 174 601 C174 652 217 694 267 694 L267 694 Z " />
<glyph glyph-name="Uhungarumlaut" unicode="&#x170;" horiz-adv-x="636" d="M444 640 L444 248 C444 152 418 103 316 103 C218 103 191 152 191 248 L191 640 L60 640 L60 246 C60 65 144 -12 324 -12 C509 -12 575 86 575 246 L575 640 L444 640 Z M274 838 L215 709 L286 709 L373 838 L274 838 Z M409 838 L350 709 L421 709 L507 838 L409 838 Z " />
<glyph glyph-name="uhungarumlaut" unicode="&#x171;" horiz-adv-x="534" d="M54 468 L54 166 C54 99 79 -12 213 -12 C280 -12 317 13 353 72 L353 0 L478 0 L478 468 L353 468 L353 242 C353 164 342 95 256 95 C194 95 179 132 179 196 L179 468 L54 468 Z M202 665 L143 536 L214 536 L301 665 L202 665 Z M337 665 L278 536 L349 536 L435 665 L337 665 Z " />
<glyph glyph-name="Uogonek" unicode="&#x172;" horiz-adv-x="636" d="M444 640 L444 248 C444 152 418 103 316 103 C218 103 191 152 191 248 L191 640 L60 640 L60 246 C60 78 132 0 287 -10 C250 -35 233 -63 233 -95 C233 -156 284 -192 342 -192 C365 -192 387 -188 405 -178 L405 -107 C391 -116 376 -120 361 -120 C330 -120 313 -105 313 -77 C313 -54 329 -31 361 -10 C518 2 575 97 575 246 L575 640 L444 640 Z " />
<glyph glyph-name="uogonek" unicode="&#x173;" horiz-adv-x="540" d="M382 0 C333 -27 310 -58 310 -95 C310 -156 361 -192 419 -192 C442 -192 464 -188 482 -178 L482 -107 C468 -116 453 -120 438 -120 C407 -120 390 -105 390 -77 C390 -50 412 -24 457 0 L478 0 L478 468 L353 468 L353 242 C353 164 342 95 256 95 C194 95 179 132 179 196 L179 468 L54 468 L54 166 C54 99 79 -12 213 -12 C280 -12 317 13 353 72 L353 0 L382 0 Z " />
<glyph glyph-name="Wcircumflex" unicode="&#x174;" horiz-adv-x="835" d="M318 0 L392 365 C398 396 403 436 411 487 C420 433 425 393 431 365 L505 0 L635 0 L818 640 L686 640 L599 279 C586 225 579 185 573 158 C566 217 560 257 556 279 L489 640 L338 640 L272 284 C262 231 257 191 252 164 C243 218 236 257 232 284 L149 640 L13 640 L191 0 L318 0 Z M461 710 L555 710 L466 840 L363 840 L272 710 L363 710 L413 771 L461 710 Z " />
<glyph glyph-name="wcircumflex" unicode="&#x175;" horiz-adv-x="687" d="M270 0 L308 170 C325 245 335 302 340 338 C351 282 360 226 372 170 L409 0 L539 0 L672 468 L545 468 L507 295 C500 262 493 233 489 209 L474 121 L460 209 C454 247 448 276 444 295 L411 468 L274 468 L241 295 C236 269 230 241 226 209 L214 121 L198 209 C194 233 188 262 181 295 L142 468 L13 468 L142 0 L270 0 Z M393 535 L487 535 L398 665 L295 665 L204 535 L295 535 L345 596 L393 535 Z " />
<glyph glyph-name="Ycircumflex" unicode="&#x176;" horiz-adv-x="588" d="M230 0 L362 0 L362 241 L573 640 L431 640 L299 365 L160 640 L13 640 L230 241 L230 0 Z M345 710 L439 710 L350 840 L247 840 L156 710 L247 710 L297 771 L345 710 Z " />
<glyph glyph-name="ycircumflex" unicode="&#x177;" horiz-adv-x="480" d="M182 -20 C176 -48 169 -67 161 -77 C151 -87 138 -93 120 -93 C111 -92 85 -91 77 -91 L77 -189 C120 -191 140 -192 139 -192 C184 -192 216 -183 235 -164 C256 -144 285 -79 324 32 L478 468 L345 468 L269 203 C260 173 252 143 248 114 C239 153 231 183 224 203 L147 468 L13 468 L182 -20 Z M294 535 L388 535 L299 665 L196 665 L105 535 L196 535 L246 596 L294 535 Z " />
<glyph glyph-name="Ydieresis" unicode="&#x178;" horiz-adv-x="589" d="M230 0 L362 0 L362 241 L573 640 L431 640 L299 365 L160 640 L13 640 L230 241 L230 0 Z M324 718 L423 718 L423 833 L324 833 L324 718 Z M160 718 L258 718 L258 833 L160 833 L160 718 Z " />
<glyph glyph-name="Zacute" unicode="&#x179;" horiz-adv-x="544" d="M509 0 L509 116 L186 116 L509 532 L509 640 L37 640 L37 524 L351 524 L28 108 L28 0 L509 0 Z M204 711 L291 711 L393 840 L262 840 L204 711 Z " />
<glyph glyph-name="zacute" unicode="&#x17a;" horiz-adv-x="445" d="M420 0 L420 105 L174 105 L412 363 L412 468 L37 468 L37 363 L263 363 L19 99 L19 0 L420 0 Z M170 537 L257 537 L359 666 L228 666 L170 537 Z " />
<glyph glyph-name="Zdotaccent" unicode="&#x17b;" horiz-adv-x="544" d="M509 0 L509 116 L186 116 L509 532 L509 640 L37 640 L37 524 L351 524 L28 108 L28 0 L509 0 Z M228 824 L228 709 L326 709 L326 824 L228 824 Z " />
<glyph glyph-name="zdotaccent" unicode="&#x17c;" horiz-adv-x="446" d="M420 0 L420 105 L174 105 L412 363 L412 468 L37 468 L37 363 L263 363 L19 99 L19 0 L420 0 Z M180 653 L180 538 L278 538 L278 653 L180 653 Z " />
<glyph glyph-name="Zcaron" unicode="&#x17d;" horiz-adv-x="543" d="M509 0 L509 116 L186 116 L509 532 L509 640 L37 640 L37 524 L351 524 L28 108 L28 0 L509 0 Z M288 779 L241 839 L145 839 L235 709 L338 709 L428 839 L338 839 L288 779 Z " />
<glyph glyph-name="zcaron" unicode="&#x17e;" horiz-adv-x="445" d="M420 0 L420 105 L174 105 L412 363 L412 468 L37 468 L37 363 L263 363 L19 99 L19 0 L420 0 Z M231 605 L184 665 L88 665 L178 535 L281 535 L371 665 L281 665 L231 605 Z " />
<glyph glyph-name="longs" unicode="&#x17f;" horiz-adv-x="301" d="M79 0 L203 0 L203 497 C203 528 207 539 279 541 L279 640 C253 643 234 644 221 644 C161 644 123 629 103 600 C87 575 79 532 79 468 L79 0 Z " />
<glyph glyph-name="florin" unicode="&#x192;" horiz-adv-x="487" d="M327 371 L344 469 C353 523 367 542 403 542 L438 542 L454 638 C437 639 420 639 402 639 C285 637 250 592 231 479 L213 371 L139 371 L127 306 L200 306 L147 6 C132 -78 126 -94 74 -94 C66 -94 58 -94 50 -93 L34 -187 C53 -189 69 -190 81 -190 C200 -190 238 -138 260 -12 L316 306 L394 306 L405 371 L327 371 Z " />
<glyph glyph-name="Aringacute" unicode="&#x1fa;" horiz-adv-x="602" d="M305 751 C284 751 268 735 268 714 C268 692 284 676 305 676 C323 676 339 692 339 714 C339 735 323 751 305 751 L305 751 Z M427 983 L326 853 L239 853 L298 983 L427 983 Z M381 242 L300 493 L220 242 L381 242 Z M0 0 L228 640 L247 640 L239 648 C220 666 212 688 212 714 C212 740 220 762 239 779 C256 798 278 806 305 806 C330 806 351 798 369 779 C388 761 396 740 396 714 C396 688 388 666 369 648 L361 640 L377 640 L602 0 L460 0 L416 135 L182 135 L139 0 L0 0 Z " />
<glyph glyph-name="aringacute" unicode="&#x1fb;" horiz-adv-x="502" d="M39 318 C41 370 59 411 96 440 C131 467 177 481 236 481 C305 481 356 469 387 446 C424 419 442 372 442 307 L442 72 C442 41 450 17 465 0 L338 0 C326 18 319 40 318 63 C292 35 269 15 247 4 C225 -7 197 -12 163 -12 C122 -12 88 1 63 26 C38 52 24 86 24 128 C24 208 66 257 149 274 C201 284 257 292 316 297 C316 329 311 351 302 363 C291 378 269 385 236 385 C187 385 160 363 155 318 L39 318 Z M246 694 C271 694 293 685 310 666 C329 649 337 627 337 601 C337 575 329 554 310 536 C293 517 271 508 246 508 C220 508 198 517 180 536 C161 554 153 575 153 601 C153 627 161 649 180 666 C198 685 220 694 246 694 L246 694 Z M228 203 C176 194 149 173 149 139 C149 107 176 86 214 86 C283 86 318 121 318 191 L318 220 L228 203 Z M360 876 L258 747 L171 747 L229 876 L360 876 Z M246 639 C225 639 210 622 210 601 C210 580 225 564 246 564 C265 564 281 580 281 601 C281 622 265 639 246 639 L246 639 Z " />
<glyph glyph-name="AEacute" unicode="&#x1fc;" horiz-adv-x="860" d="M810 639 L318 639 L0 0 L138 0 L202 134 L415 134 L415 0 L826 0 L826 115 L546 115 L546 279 L782 279 L782 387 L546 387 L546 524 L810 524 L810 639 Z M415 242 L253 242 L386 524 L415 524 L415 242 Z M349 707 L436 707 L538 836 L407 836 L349 707 Z " />
<glyph glyph-name="aeacute" unicode="&#x1fd;" horiz-adv-x="777" d="M402 439 C367 466 315 480 246 480 C116 480 48 425 42 318 L158 318 C165 361 194 382 246 382 C312 382 317 356 318 296 C164 281 27 272 27 126 C27 34 80 -12 187 -12 C266 -12 306 20 363 78 C398 17 456 -12 538 -12 C636 -12 704 38 742 136 L615 136 C596 103 571 86 542 86 C484 86 454 127 448 210 L751 210 C752 220 752 227 752 235 C752 313 734 373 696 416 C659 458 606 480 538 480 C483 480 437 466 402 439 L402 439 Z M320 219 C320 131 285 86 217 86 C178 86 152 107 152 139 C152 203 234 204 320 219 L320 219 Z M454 290 C459 351 487 382 538 382 C587 382 616 351 622 290 L454 290 Z M173 536 L260 536 L362 665 L231 665 L173 536 Z " />
<glyph glyph-name="Oslashacute" unicode="&#x1fe;" horiz-adv-x="698" d="M522 599 C470 633 410 652 342 652 C147 652 35 507 35 319 C35 244 52 178 87 121 L6 32 L82 -36 L157 45 C210 8 273 -12 342 -12 C538 -12 647 141 647 328 C647 405 630 471 594 524 L677 615 L601 685 L522 599 Z M498 421 C507 392 512 361 512 325 C512 210 459 103 339 103 C302 103 268 114 240 137 L498 421 Z M439 507 L182 225 C175 251 171 282 171 318 C171 432 220 537 341 537 C380 537 413 527 439 507 L439 507 Z M273 710 L360 710 L462 839 L331 839 L273 710 Z " />
<glyph glyph-name="oslashacute" unicode="&#x1ff;" horiz-adv-x="536" d="M410 442 C369 467 322 480 267 480 C149 480 27 407 27 234 C27 176 42 125 71 80 L0 6 L56 -45 L126 26 C163 1 211 -12 267 -12 C398 -12 509 68 509 232 C509 294 494 345 465 389 L536 464 L481 516 L410 442 Z M374 293 C379 276 382 256 382 235 C382 141 339 86 269 86 C244 86 221 94 202 108 L374 293 Z M334 361 L161 177 C157 195 155 215 155 234 C155 339 213 382 270 382 C294 382 315 374 334 361 L334 361 Z M212 535 L299 535 L401 664 L270 664 L212 535 Z " />
<glyph glyph-name="Scommaaccent" unicode="&#x218;" horiz-adv-x="587" d="M35 200 C43 51 149 -12 300 -12 C435 -12 551 55 551 188 C551 278 504 316 420 347 L220 423 C190 434 176 451 176 472 C176 525 235 545 284 545 C352 545 392 513 403 446 L532 446 C524 579 437 653 282 653 C155 653 47 587 47 458 C47 385 89 333 172 300 L365 224 C401 210 420 192 420 170 C415 113 359 95 302 95 C222 95 176 130 161 200 L35 200 Z M293 -172 C293 -194 289 -211 281 -223 C272 -234 257 -243 237 -249 L237 -287 C272 -282 298 -269 316 -245 C332 -223 340 -194 340 -159 L340 -70 L237 -70 L237 -172 L293 -172 Z " />
<glyph glyph-name="scommaaccent" unicode="&#x219;" horiz-adv-x="481" d="M246 -12 C284 -12 318 -7 345 2 C404 20 461 82 461 144 C461 194 428 237 377 254 L184 318 C171 322 164 330 164 340 C164 368 191 383 244 383 C291 383 315 369 323 324 L444 324 C427 431 363 481 244 481 C147 481 44 432 44 330 C44 279 76 243 142 220 L279 172 C310 159 334 158 334 130 C334 101 306 86 250 86 C194 86 163 102 153 153 L28 153 C32 43 104 -12 246 -12 L246 -12 Z M252 -172 C252 -194 248 -211 240 -223 C231 -234 216 -243 196 -249 L196 -287 C231 -282 257 -269 275 -245 C291 -223 299 -194 299 -159 L299 -70 L196 -70 L196 -172 L252 -172 Z " />
<glyph glyph-name="uni021A" unicode="&#x21a;" horiz-adv-x="536" d="M249 0 L198 -80 L219 -100 C233 -95 245 -92 253 -92 C279 -92 293 -103 293 -124 C293 -146 279 -157 252 -157 C229 -157 202 -152 173 -141 L155 -181 C193 -195 229 -203 262 -203 C296 -203 323 -195 343 -180 C365 -164 375 -145 375 -121 C375 -81 342 -54 295 -54 C286 -54 275 -55 259 -58 L295 0 L336 0 L336 524 L524 524 L524 640 L13 640 L13 524 L203 524 L203 0 L249 0 Z " />
<glyph glyph-name="uni021B" unicode="&#x21b;" horiz-adv-x="309" d="M72 381 L72 137 C72 56 85 10 141 -5 L94 -80 L115 -100 C129 -95 141 -92 149 -92 C175 -92 189 -103 189 -124 C189 -146 175 -157 148 -157 C125 -157 98 -152 69 -141 L51 -181 C89 -195 125 -203 158 -203 C192 -203 219 -195 239 -180 C261 -164 271 -145 271 -121 C271 -81 238 -54 191 -54 C182 -54 171 -55 155 -58 L184 -11 C189 -11 194 -12 200 -12 C217 -12 242 -11 274 -9 L274 86 L256 86 C212 86 196 86 196 130 L196 381 L274 381 L274 468 L196 468 L196 590 L72 590 L72 468 L13 468 L13 381 L72 381 Z " />
<glyph glyph-name="circumflex" unicode="&#x2c6;" horiz-adv-x="292" d="M193 535 L287 535 L198 665 L95 665 L4 535 L95 535 L145 596 L193 535 Z " />
<glyph glyph-name="caron" unicode="&#x2c7;" horiz-adv-x="292" d="M147 605 L100 665 L4 665 L94 535 L197 535 L287 665 L197 665 L147 605 Z " />
<glyph glyph-name="breve" unicode="&#x2d8;" horiz-adv-x="292" d="M1 672 C8 576 57 529 149 529 C238 529 285 576 291 672 L218 672 C210 630 186 608 146 608 C106 608 82 630 74 672 L1 672 Z " />
<glyph glyph-name="dotaccent" unicode="&#x2d9;" horiz-adv-x="292" d="M97 658 L97 543 L195 543 L195 658 L97 658 Z " />
<glyph glyph-name="ring" unicode="&#x2da;" horiz-adv-x="292" d="M146 639 C126 639 110 622 110 601 C110 580 126 564 146 564 C165 564 182 580 182 601 C182 622 165 639 146 639 L146 639 Z M146 694 C198 694 239 651 239 601 C239 550 196 508 146 508 C96 508 53 549 53 601 C53 652 96 694 146 694 L146 694 Z " />
<glyph glyph-name="ogonek" unicode="&#x2db;" horiz-adv-x="292" d="M132 0 C83 -27 60 -58 60 -95 C60 -156 111 -192 169 -192 C192 -192 214 -188 232 -178 L232 -107 C218 -116 203 -120 188 -120 C157 -120 140 -105 140 -77 C140 -50 162 -24 207 0 L132 0 Z " />
<glyph glyph-name="tilde" unicode="&#x2dc;" horiz-adv-x="292" d="M232 659 C222 639 211 629 197 629 C172 629 133 659 100 659 C52 659 19 620 0 541 L60 541 C70 561 82 571 101 571 C117 571 157 541 194 541 C242 541 275 579 292 659 L232 659 Z " />
<glyph glyph-name="hungarumlaut" unicode="&#x2dd;" horiz-adv-x="292" d="M59 665 L0 536 L71 536 L158 665 L59 665 Z M194 665 L135 536 L206 536 L292 665 L194 665 Z " />
<glyph glyph-name="tonos" unicode="&#x384;" horiz-adv-x="322" d="M110 665 L52 536 L139 536 L241 665 L110 665 Z " />
<glyph glyph-name="dieresistonos" unicode="&#x385;" horiz-adv-x="454" d="M366 833 L242 833 L181 696 L267 696 L366 833 Z M368 547 L368 653 L265 653 L265 547 L368 547 Z M173 547 L173 653 L71 653 L71 547 L173 547 Z " />
<glyph glyph-name="Alphatonos" unicode="&#x386;" horiz-adv-x="665" d="M357 493 L438 242 L277 242 L357 493 Z M239 135 L473 135 L517 0 L659 0 L434 640 L285 640 L57 0 L196 0 L239 135 Z M49 639 L71 382 L137 382 L161 639 L49 639 Z " />
<glyph glyph-name="anoteleia" unicode="&#x387;" horiz-adv-x="269" d="M136 446 C165 446 189 423 189 394 C189 365 165 341 136 341 C107 341 84 365 84 394 C84 423 107 446 136 446 L136 446 Z " />
<glyph glyph-name="Epsilontonos" unicode="&#x388;" horiz-adv-x="696" d="M657 0 L657 116 L314 116 L314 279 L614 279 L614 388 L314 388 L314 524 L642 524 L642 640 L183 640 L183 0 L657 0 Z M31 639 L53 382 L119 382 L143 639 L31 639 Z " />
<glyph glyph-name="Etatonos" unicode="&#x389;" horiz-adv-x="769" d="M326 278 L595 278 L595 0 L726 0 L726 640 L595 640 L595 392 L326 392 L326 640 L195 640 L195 0 L326 0 L326 278 Z M42 639 L64 382 L130 382 L154 639 L42 639 Z " />
<glyph glyph-name="Iotatonos" unicode="&#x38a;" horiz-adv-x="334" d="M305 0 L305 640 L173 640 L173 0 L305 0 Z M27 639 L49 382 L115 382 L139 639 L27 639 Z " />
<glyph glyph-name="Omicrontonos" unicode="&#x38c;" horiz-adv-x="834" d="M312 328 C312 445 370 536 484 537 C596 537 655 444 655 326 C655 213 602 103 482 103 C358 103 312 215 312 328 L312 328 Z M485 -12 C682 -11 789 145 789 330 C789 521 674 653 485 653 C287 653 177 508 177 318 C177 131 295 -12 485 -12 L485 -12 Z M43 639 L65 382 L131 382 L155 639 L43 639 Z " />
<glyph glyph-name="Upsilontonos" unicode="&#x38e;" horiz-adv-x="815" d="M428 0 L560 0 L560 241 L771 640 L629 640 L497 365 L358 640 L211 640 L428 241 L428 0 Z M42 639 L64 382 L130 382 L154 639 L42 639 Z " />
<glyph glyph-name="Omegatonos" unicode="&#x38f;" horiz-adv-x="844" d="M523 0 L523 95 C623 118 675 194 675 325 C675 447 611 539 486 539 C360 539 297 447 297 325 C297 194 348 118 449 95 L449 0 L171 0 L171 112 L263 112 C206 154 177 224 177 325 C177 520 294 650 488 650 C677 650 795 521 795 325 C795 224 766 154 710 112 L802 112 L802 0 L523 0 Z M42 639 L64 382 L130 382 L154 639 L42 639 Z " />
<glyph glyph-name="iotadieresistonos" unicode="&#x390;" horiz-adv-x="313" d="M268 -7 C238 -11 218 -13 206 -13 C124 -13 97 31 97 131 L97 469 L206 469 L206 124 C206 101 215 89 232 89 L268 89 L268 -7 Z M305 832 L181 832 L120 695 L206 695 L305 832 Z M307 546 L307 652 L204 652 L204 546 L307 546 Z M112 546 L112 652 L10 652 L10 546 L112 546 Z " />
<glyph glyph-name="Alpha" unicode="&#x391;" horiz-adv-x="602" d="M300 493 L381 242 L220 242 L300 493 Z M182 135 L416 135 L460 0 L602 0 L377 640 L228 640 L0 0 L139 0 L182 135 Z " />
<glyph glyph-name="Beta" unicode="&#x392;" horiz-adv-x="616" d="M191 524 L326 524 C398 524 426 504 426 456 C426 402 396 386 323 386 L191 386 L191 524 Z M191 279 L321 279 C398 279 448 270 448 194 C448 120 393 116 319 116 L191 116 L191 279 Z M60 0 L363 0 C509 0 583 63 583 190 C583 272 533 338 445 341 C510 353 562 414 562 474 C562 568 512 640 338 640 L60 640 L60 0 Z " />
<glyph glyph-name="Gamma" unicode="&#x393;" horiz-adv-x="495" d="M191 525 L191 0 L60 0 L60 640 L473 640 L473 525 L191 525 Z " />
<glyph glyph-name="&amp;#x394;" unicode="&#x394;" horiz-adv-x="591" d="M595 0 L355 640 L247 640 L9 0 L595 0 Z M433 102 L171 102 L303 475 L433 102 Z " />
<glyph glyph-name="&amp;#x2206;" unicode="&#x2206;" horiz-adv-x="591" d="M595 0 L355 640 L247 640 L9 0 L595 0 Z M433 102 L171 102 L303 475 L433 102 Z " />
<glyph glyph-name="Epsilon" unicode="&#x395;" horiz-adv-x="559" d="M534 0 L534 116 L191 116 L191 279 L491 279 L491 388 L191 388 L191 524 L519 524 L519 640 L60 640 L60 0 L534 0 Z " />
<glyph glyph-name="Zeta" unicode="&#x396;" horiz-adv-x="544" d="M509 0 L509 116 L186 116 L509 532 L509 640 L37 640 L37 524 L351 524 L28 108 L28 0 L509 0 Z " />
<glyph glyph-name="Eta" unicode="&#x397;" horiz-adv-x="641" d="M191 278 L460 278 L460 0 L591 0 L591 640 L460 640 L460 392 L191 392 L191 640 L60 640 L60 0 L191 0 L191 278 Z " />
<glyph glyph-name="Theta" unicode="&#x398;" horiz-adv-x="691" d="M650 325 C650 521 535 651 343 651 C143 651 33 515 33 313 C33 117 142 -13 338 -13 C534 -13 650 126 650 325 L650 325 Z M530 325 C530 192 472 99 342 99 C216 99 154 192 154 315 C154 441 210 541 342 541 C472 541 530 446 530 325 L530 325 Z M489 268 L489 368 L198 368 L198 268 L489 268 Z " />
<glyph glyph-name="Iota" unicode="&#x399;" horiz-adv-x="245" d="M189 0 L189 640 L57 640 L57 0 L189 0 Z " />
<glyph glyph-name="Kappa" unicode="&#x39a;" horiz-adv-x="642" d="M191 0 L191 216 L254 279 L465 0 L633 0 L355 375 L618 640 L451 640 L191 365 L191 640 L60 640 L60 0 L191 0 Z " />
<glyph glyph-name="Lambda" unicode="&#x39b;" horiz-adv-x="602" d="M228 640 L377 640 L602 0 L460 0 L300 493 L139 0 L0 0 L228 640 Z " />
<glyph glyph-name="Mu" unicode="&#x39c;" horiz-adv-x="815" d="M191 537 L343 0 L472 0 L625 537 L625 0 L756 0 L756 640 L548 640 L439 273 C425 226 415 186 409 151 C396 213 386 253 380 274 L273 640 L60 640 L60 0 L191 0 L191 537 Z " />
<glyph glyph-name="Nu" unicode="&#x39d;" horiz-adv-x="628" d="M184 446 L451 0 L575 0 L575 640 L451 640 L451 194 L190 640 L60 640 L60 0 L184 0 L184 446 Z " />
<glyph glyph-name="Xi" unicode="&#x39e;" horiz-adv-x="515" d="M483 528 L483 640 L22 640 L22 528 L483 528 Z M482 0 L482 112 L23 112 L23 0 L482 0 Z M428 275 L428 386 L77 386 L77 275 L428 275 Z " />
<glyph glyph-name="Omicron" unicode="&#x39f;" horiz-adv-x="683" d="M170 328 C170 445 228 536 342 537 C454 537 513 444 513 326 C513 213 460 103 340 103 C216 103 170 215 170 328 L170 328 Z M343 -12 C540 -11 647 145 647 330 C647 521 532 653 343 653 C145 653 35 508 35 318 C35 131 153 -12 343 -12 L343 -12 Z " />
<glyph glyph-name="Pi" unicode="&#x3a0;" horiz-adv-x="640" d="M558 0 L558 640 L77 640 L77 0 L194 0 L194 528 L441 528 L441 0 L558 0 Z " />
<glyph glyph-name="Rho" unicode="&#x3a1;" horiz-adv-x="575" d="M191 524 L295 524 C369 524 407 491 407 425 C407 363 369 332 293 332 L191 332 L191 524 Z M60 0 L191 0 L191 216 L318 216 C446 216 543 298 543 434 C543 594 440 640 323 640 L60 640 L60 0 Z " />
<glyph glyph-name="Sigma" unicode="&#x3a3;" horiz-adv-x="529" d="M506 528 L506 640 L28 640 L28 552 L239 321 L28 89 L28 0 L505 0 L505 112 L193 112 L381 321 L193 528 L506 528 Z " />
<glyph glyph-name="Tau" unicode="&#x3a4;" horiz-adv-x="536" d="M203 524 L203 0 L336 0 L336 524 L524 524 L524 640 L13 640 L13 524 L203 524 Z " />
<glyph glyph-name="Upsilon" unicode="&#x3a5;" horiz-adv-x="589" d="M230 0 L362 0 L362 241 L573 640 L431 640 L299 365 L160 640 L13 640 L230 241 L230 0 Z " />
<glyph glyph-name="Phi" unicode="&#x3a6;" horiz-adv-x="777" d="M446 766 L329 766 L329 656 C136 648 32 505 32 315 C32 131 137 -10 329 -18 L329 -128 L446 -128 L446 -18 C635 -13 743 136 743 323 C743 509 638 647 446 656 L446 766 Z M329 93 C209 99 156 200 156 315 C156 431 203 544 329 544 L329 93 Z M446 544 C564 541 619 434 619 323 C619 201 569 100 446 93 L446 544 Z " />
<glyph glyph-name="Chi" unicode="&#x3a7;" horiz-adv-x="583" d="M291 232 L420 0 L573 0 L363 330 L560 640 L412 640 L291 428 L170 640 L19 640 L216 324 L13 0 L158 0 L291 232 Z " />
<glyph glyph-name="Psi" unicode="&#x3a8;" horiz-adv-x="771" d="M326 0 L443 0 L443 118 C610 120 693 178 693 350 L693 640 L576 640 L576 359 C576 264 537 231 443 230 L443 640 L326 640 L326 230 C231 230 193 268 193 359 L193 640 L76 640 L76 350 C76 183 157 118 326 118 L326 0 Z " />
<glyph glyph-name="&amp;#x3a9;" unicode="&#x3a9;" horiz-adv-x="702" d="M390 0 L390 95 C490 118 542 194 542 325 C542 447 478 539 353 539 C227 539 164 447 164 325 C164 194 215 118 316 95 L316 0 L38 0 L38 112 L130 112 C73 154 44 224 44 325 C44 520 161 650 355 650 C544 650 662 521 662 325 C662 224 633 154 577 112 L669 112 L669 0 L390 0 Z " />
<glyph glyph-name="&amp;#x2126;" unicode="&#x2126;" horiz-adv-x="702" d="M390 0 L390 95 C490 118 542 194 542 325 C542 447 478 539 353 539 C227 539 164 447 164 325 C164 194 215 118 316 95 L316 0 L38 0 L38 112 L130 112 C73 154 44 224 44 325 C44 520 161 650 355 650 C544 650 662 521 662 325 C662 224 633 154 577 112 L669 112 L669 0 L390 0 Z " />
<glyph glyph-name="Iotadieresis" unicode="&#x3aa;" horiz-adv-x="282" d="M208 0 L208 640 L76 640 L76 0 L208 0 Z M166 711 L265 711 L265 826 L166 826 L166 711 Z M2 711 L100 711 L100 826 L2 826 L2 711 Z " />
<glyph glyph-name="Upsilondieresis" unicode="&#x3ab;" horiz-adv-x="591" d="M230 0 L362 0 L362 241 L573 640 L431 640 L299 365 L160 640 L13 640 L230 241 L230 0 Z M327 707 L426 707 L426 822 L327 822 L327 707 Z M163 707 L261 707 L261 822 L163 822 L163 707 Z " />
<glyph glyph-name="alphatonos" unicode="&#x3ac;" horiz-adv-x="552" d="M364 234 C364 328 328 375 257 375 C190 375 156 328 156 234 C156 138 190 90 257 90 C328 90 364 138 364 234 L364 234 Z M524 1 C498 -8 477 -13 461 -13 C415 -13 386 7 375 45 C336 7 296 -13 255 -13 C110 -13 44 98 44 235 C44 375 111 482 255 482 C289 482 325 465 362 434 L362 469 L477 469 L477 114 C477 92 480 84 496 84 C503 84 512 86 524 88 L524 1 Z M208 565 L295 565 L397 694 L266 694 L208 565 Z " />
<glyph glyph-name="epsilontonos" unicode="&#x3ad;" horiz-adv-x="463" d="M420 167 C420 52 346 -13 224 -13 C101 -13 40 41 40 148 C40 197 59 234 99 259 C68 282 53 316 53 358 C53 429 121 482 228 482 C337 482 402 422 402 315 L291 315 C291 353 266 382 228 382 C183 382 161 367 161 340 C161 308 191 293 253 293 L253 208 C185 208 151 188 151 147 C151 107 178 88 231 88 C277 88 308 121 308 167 L420 167 Z M180 577 L267 577 L369 706 L238 706 L180 577 Z " />
<glyph glyph-name="etatonos" unicode="&#x3ae;" horiz-adv-x="491" d="M333 -192 L333 278 C333 349 315 375 265 375 C199 375 173 348 173 241 L173 0 L63 0 L63 363 C63 376 45 382 11 382 L11 469 C49 478 80 482 101 482 C132 482 154 464 164 432 C196 464 237 482 288 482 C395 482 442 410 442 291 L442 -192 L333 -192 Z M190 561 L277 561 L379 690 L248 690 L190 561 Z " />
<glyph glyph-name="iotatonos" unicode="&#x3af;" horiz-adv-x="255" d="M230 -7 C200 -11 180 -13 168 -13 C86 -13 59 31 59 131 L59 469 L168 469 L168 124 C168 101 177 89 194 89 L230 89 L230 -7 Z M65 549 L152 549 L254 678 L123 678 L65 549 Z " />
<glyph glyph-name="upsilondieresistonos" unicode="&#x3b0;" horiz-adv-x="483" d="M426 171 C426 54 358 -13 240 -13 C123 -13 53 55 53 171 L53 469 L161 469 L161 175 C161 119 188 90 240 90 C291 90 317 119 317 175 L317 469 L426 469 L426 171 Z M376 833 L252 833 L191 696 L277 696 L376 833 Z M378 547 L378 653 L275 653 L275 547 L378 547 Z M183 547 L183 653 L81 653 L81 547 L183 547 Z " />
<glyph glyph-name="alpha" unicode="&#x3b1;" horiz-adv-x="552" d="M364 234 C364 328 328 375 257 375 C190 375 156 328 156 234 C156 138 190 90 257 90 C328 90 364 138 364 234 L364 234 Z M524 1 C498 -8 477 -13 461 -13 C415 -13 386 7 375 45 C336 7 296 -13 255 -13 C110 -13 44 98 44 235 C44 375 111 482 255 482 C289 482 325 465 362 434 L362 469 L477 469 L477 114 C477 92 480 84 496 84 C503 84 512 86 524 88 L524 1 Z " />
<glyph glyph-name="beta" unicode="&#x3b2;" horiz-adv-x="508" d="M52 -192 L161 -192 L161 17 C190 -3 223 -14 259 -14 C389 -13 466 62 466 192 C466 258 428 323 373 352 C415 382 436 425 436 483 C436 596 368 652 233 652 C122 652 52 584 52 489 L52 -192 Z M161 468 C161 521 188 547 241 547 C284 547 325 525 325 480 C325 422 276 393 176 393 L176 297 C272 295 354 288 354 193 C354 115 333 82 256 82 C210 82 161 103 161 151 L161 468 Z " />
<glyph glyph-name="gamma" unicode="&#x3b3;" horiz-adv-x="502" d="M329 4 L329 -192 L229 -192 L229 5 L80 367 C74 379 57 385 26 385 L26 481 C135 481 147 476 179 396 L277 150 L384 469 L497 469 L329 4 Z " />
<glyph glyph-name="delta" unicode="&#x3b4;" horiz-adv-x="503" d="M349 240 C349 329 312 385 247 385 C186 385 148 331 148 240 C148 151 184 94 249 94 C315 94 349 142 349 240 L349 240 Z M460 240 C460 83 379 -13 249 -13 C118 -13 37 82 37 240 C37 363 80 440 167 469 L51 560 L51 653 L419 653 L419 549 L217 549 L304 484 C401 459 460 357 460 240 L460 240 Z " />
<glyph glyph-name="epsilon" unicode="&#x3b5;" horiz-adv-x="456" d="M420 167 C420 52 346 -13 224 -13 C101 -13 40 41 40 148 C40 197 59 234 99 259 C68 282 53 316 53 358 C53 429 121 482 228 482 C337 482 402 422 402 315 L291 315 C291 353 266 382 228 382 C183 382 161 367 161 340 C161 308 191 293 253 293 L253 208 C185 208 151 188 151 147 C151 107 178 88 231 88 C277 88 308 121 308 167 L420 167 Z " />
<glyph glyph-name="zeta" unicode="&#x3b6;" horiz-adv-x="483" d="M458 556 C277 472 157 347 157 235 C157 132 182 91 261 91 C397 91 456 54 456 -49 C456 -88 442 -131 412 -180 L302 -180 C336 -125 353 -83 353 -57 C353 -24 329 -13 261 -13 C110 -13 44 60 44 226 C44 325 151 467 282 549 L93 549 L93 653 L458 653 L458 556 Z " />
<glyph glyph-name="eta" unicode="&#x3b7;" horiz-adv-x="491" d="M333 -192 L333 278 C333 349 315 375 265 375 C199 375 173 348 173 241 L173 0 L63 0 L63 363 C63 376 45 382 11 382 L11 469 C49 478 80 482 101 482 C132 482 154 464 164 432 C196 464 237 482 288 482 C395 482 442 410 442 291 L442 -192 L333 -192 Z " />
<glyph glyph-name="theta" unicode="&#x3b8;" horiz-adv-x="550" d="M383 375 C380 498 347 548 277 548 C207 548 169 498 169 375 L383 375 Z M169 272 C172 151 208 90 277 90 C344 90 380 151 383 272 L169 272 Z M491 324 C491 91 424 -13 277 -13 C126 -13 62 91 62 324 C62 553 126 652 277 652 C425 652 491 554 491 324 L491 324 Z " />
<glyph glyph-name="iota" unicode="&#x3b9;" horiz-adv-x="246" d="M230 -7 C200 -11 180 -13 168 -13 C86 -13 59 31 59 131 L59 469 L168 469 L168 124 C168 101 177 89 194 89 L230 89 L230 -7 Z " />
<glyph glyph-name="kappa" unicode="&#x3ba;" horiz-adv-x="454" d="M278 289 L441 0 L316 0 L201 212 L166 177 L166 0 L57 0 L57 469 L166 469 L166 317 L309 469 L449 469 L278 289 Z " />
<glyph glyph-name="lambda" unicode="&#x3bb;" horiz-adv-x="515" d="M498 -13 C448 -13 415 -11 401 -5 C374 4 354 28 340 68 L255 316 L131 0 L15 0 L203 462 L177 545 C174 555 156 560 122 560 L122 653 C236 653 260 636 283 571 L445 103 C451 88 468 80 498 80 L498 -13 Z " />
<glyph glyph-name="nu" unicode="&#x3bd;" horiz-adv-x="481" d="M307 0 L478 468 L343 468 L267 207 C260 183 252 154 244 120 C231 173 224 202 222 207 L145 468 L13 468 L177 0 L307 0 Z " />
<glyph glyph-name="xi" unicode="&#x3be;" horiz-adv-x="474" d="M447 -57 C447 -96 432 -136 402 -180 L292 -180 C327 -126 344 -87 344 -63 C344 -29 318 -20 249 -20 C101 -20 41 48 41 196 C41 260 79 322 139 350 C102 379 83 416 83 459 C83 495 95 525 119 549 L73 549 L73 653 L440 653 L440 549 L296 549 C239 549 195 515 195 459 C195 428 205 411 226 404 C243 399 293 397 376 397 L376 293 C189 293 152 276 152 198 C152 116 175 83 246 83 C387 83 447 50 447 -57 L447 -57 Z " />
<glyph glyph-name="omicron" unicode="&#x3bf;" horiz-adv-x="537" d="M269 383 C346 383 383 312 383 233 C383 158 349 86 269 86 C186 86 155 158 155 235 C155 314 188 383 269 383 L269 383 Z M269 -12 C420 -12 509 88 509 233 C509 381 418 481 269 481 C115 481 28 382 28 235 C28 84 117 -12 269 -12 L269 -12 Z " />
<glyph glyph-name="pi" unicode="&#x3c0;" horiz-adv-x="549" d="M527 -7 C493 -11 469 -13 456 -13 C370 -13 345 20 345 131 L345 369 L182 369 L182 0 L73 0 L73 369 L15 369 L15 469 L513 469 L513 369 L454 369 L454 124 C454 98 461 89 485 89 L527 89 L527 -7 Z " />
<glyph glyph-name="rho" unicode="&#x3c1;" horiz-adv-x="511" d="M361 232 C361 322 324 376 260 376 C197 376 161 322 161 229 C161 137 194 91 260 91 C327 91 361 138 361 232 L361 232 Z M472 229 C472 77 396 -13 260 -13 C225 -13 193 0 161 25 L161 -180 L53 -180 L53 222 C53 391 126 481 260 481 C396 481 472 383 472 229 L472 229 Z " />
<glyph glyph-name="uni03C2" unicode="&#x3c2;" horiz-adv-x="486" d="M340 278 C340 337 308 378 255 378 C190 378 152 319 152 232 C152 137 186 90 252 90 C385 90 446 55 446 -49 C446 -87 432 -130 403 -180 L292 -180 C327 -125 344 -84 344 -57 C344 -24 320 -13 252 -13 C111 -13 41 65 41 221 C41 380 125 482 259 482 C370 482 449 406 449 278 L340 278 Z " />
<glyph glyph-name="sigma" unicode="&#x3c3;" horiz-adv-x="533" d="M348 237 C348 324 309 377 246 377 C181 377 143 324 143 233 C143 145 182 91 246 91 C314 91 348 140 348 237 L348 237 Z M419 375 C446 337 460 290 460 233 C460 83 380 -13 246 -13 C110 -13 31 87 31 233 C31 382 110 481 246 481 C269 481 290 478 309 472 L511 472 L511 375 L419 375 Z " />
<glyph glyph-name="tau" unicode="&#x3c4;" horiz-adv-x="425" d="M267 371 L267 124 C267 96 275 89 297 89 L337 89 L337 -7 C304 -11 281 -13 268 -13 C182 -13 159 22 159 131 L159 371 L21 371 L21 469 L405 469 L405 371 L267 371 Z " />
<glyph glyph-name="upsilon" unicode="&#x3c5;" horiz-adv-x="483" d="M426 171 C426 54 358 -13 240 -13 C123 -13 53 55 53 171 L53 469 L161 469 L161 175 C161 119 188 90 240 90 C291 90 317 119 317 175 L317 469 L426 469 L426 171 Z " />
<glyph glyph-name="phi" unicode="&#x3c6;" horiz-adv-x="624" d="M255 377 C186 377 148 322 148 232 C148 146 186 87 255 87 L255 377 Z M471 236 C471 323 432 377 364 377 L364 87 C435 87 471 136 471 236 L471 236 Z M583 235 C583 85 507 -13 364 -13 L364 -181 L255 -181 L255 -13 C117 -13 36 78 36 232 C36 386 115 482 255 482 L255 604 L364 604 L364 482 C506 482 581 389 583 235 L583 235 Z " />
<glyph glyph-name="chi" unicode="&#x3c7;" horiz-adv-x="444" d="M433 -192 C336 -191 317 -185 282 -108 L214 43 L114 -181 L3 -181 L160 166 L68 373 C64 383 47 387 19 387 L19 481 C116 481 138 470 169 397 L215 292 L294 469 L403 469 L270 168 L384 -84 C388 -94 404 -99 433 -99 L433 -192 Z " />
<glyph glyph-name="psi" unicode="&#x3c8;" horiz-adv-x="689" d="M631 171 C631 65 547 -7 397 -7 L397 -179 L288 -179 L288 -7 C141 -7 54 63 54 171 L54 468 L162 468 L162 192 C162 132 204 101 288 97 L288 639 L397 639 L397 97 C481 101 522 132 522 192 L522 468 L631 468 L631 171 Z " />
<glyph glyph-name="omega" unicode="&#x3c9;" horiz-adv-x="731" d="M692 229 C692 86 613 -13 492 -13 C438 -13 396 9 365 53 C336 9 293 -13 239 -13 C119 -13 40 84 40 229 C40 327 73 407 140 469 L278 469 C188 395 155 334 155 229 C155 135 188 89 253 89 C289 89 310 116 310 152 L310 336 L420 336 L420 152 C420 116 442 88 477 88 C540 88 576 143 576 229 C576 332 540 395 454 469 L589 469 C658 406 692 326 692 229 L692 229 Z " />
<glyph glyph-name="iotadieresis" unicode="&#x3ca;" horiz-adv-x="305" d="M263 -7 C233 -11 213 -13 201 -13 C119 -13 92 31 92 131 L92 469 L201 469 L201 124 C201 101 210 89 227 89 L263 89 L263 -7 Z M186 524 L285 524 L285 639 L186 639 L186 524 Z M22 524 L120 524 L120 639 L22 639 L22 524 Z " />
<glyph glyph-name="upsilondieresis" unicode="&#x3cb;" horiz-adv-x="483" d="M426 171 C426 54 358 -13 240 -13 C123 -13 53 55 53 171 L53 469 L161 469 L161 175 C161 119 188 90 240 90 C291 90 317 119 317 175 L317 469 L426 469 L426 171 Z M273 547 L372 547 L372 662 L273 662 L273 547 Z M109 547 L207 547 L207 662 L109 662 L109 547 Z " />
<glyph glyph-name="omicrontonos" unicode="&#x3cc;" horiz-adv-x="537" d="M269 383 C346 383 383 312 383 233 C383 158 349 86 269 86 C186 86 155 158 155 235 C155 314 188 383 269 383 L269 383 Z M269 -12 C420 -12 509 88 509 233 C509 381 418 481 269 481 C115 481 28 382 28 235 C28 84 117 -12 269 -12 L269 -12 Z M193 564 L280 564 L382 693 L251 693 L193 564 Z " />
<glyph glyph-name="upsilontonos" unicode="&#x3cd;" horiz-adv-x="483" d="M426 171 C426 54 358 -13 240 -13 C123 -13 53 55 53 171 L53 469 L161 469 L161 175 C161 119 188 90 240 90 C291 90 317 119 317 175 L317 469 L426 469 L426 171 Z M176 560 L263 560 L365 689 L234 689 L176 560 Z " />
<glyph glyph-name="omegatonos" unicode="&#x3ce;" horiz-adv-x="731" d="M692 229 C692 86 613 -13 492 -13 C438 -13 396 9 365 53 C336 9 293 -13 239 -13 C119 -13 40 84 40 229 C40 327 73 407 140 469 L278 469 C188 395 155 334 155 229 C155 135 188 89 253 89 C289 89 310 116 310 152 L310 336 L420 336 L420 152 C420 116 442 88 477 88 C540 88 576 143 576 229 C576 332 540 395 454 469 L589 469 C658 406 692 326 692 229 L692 229 Z M316 552 L403 552 L505 681 L374 681 L316 552 Z " />
<glyph glyph-name="afii10023" unicode="&#x401;" horiz-adv-x="605" d="M220 386 L220 516 L575 516 L575 640 L69 640 L69 0 L583 0 L583 124 L220 124 L220 268 L533 268 L533 386 L220 386 Z M374 798 L374 701 L504 701 L504 798 L374 798 Z M147 798 L147 701 L277 701 L277 798 L147 798 Z " />
<glyph glyph-name="afii10051" unicode="&#x402;" horiz-adv-x="673" d="M336 344 C355 372 375 392 396 403 C417 415 442 421 473 421 C577 421 629 357 629 231 C629 181 621 128 604 71 C590 17 571 -29 549 -69 L425 -69 C482 31 510 127 510 219 C510 281 483 313 428 313 C377 313 346 285 336 230 L336 0 L203 0 L203 524 L13 524 L13 640 L524 640 L524 524 L336 524 L336 344 Z " />
<glyph glyph-name="afii10052" unicode="&#x403;" horiz-adv-x="487" d="M357 876 L255 747 L168 747 L227 876 L357 876 Z M191 525 L191 0 L60 0 L60 640 L473 640 L473 525 L191 525 Z " />
<glyph glyph-name="afii10053" unicode="&#x404;" horiz-adv-x="716" d="M341 266 C280 265 236 265 209 266 C209 204 224 161 256 134 C280 114 317 103 366 103 C434 103 481 144 503 224 L634 224 C626 173 610 130 585 95 C533 23 459 -12 364 -12 C274 -12 202 17 150 76 C98 135 71 215 71 316 C71 419 98 500 151 561 C205 622 278 653 367 653 C442 653 504 632 552 592 C601 551 628 497 634 428 L503 428 C483 501 441 537 372 537 C318 537 279 526 256 506 C226 481 212 432 212 363 L341 363 L341 266 Z " />
<glyph glyph-name="afii10054" unicode="&#x405;" horiz-adv-x="587" d="M35 200 C43 51 149 -12 300 -12 C435 -12 551 55 551 188 C551 278 504 316 420 347 L220 423 C190 434 176 451 176 472 C176 525 235 545 284 545 C352 545 392 513 403 446 L532 446 C524 579 437 653 282 653 C155 653 47 587 47 458 C47 385 89 333 172 300 L365 224 C401 210 420 192 420 170 C415 113 359 95 302 95 C222 95 176 130 161 200 L35 200 Z " />
<glyph glyph-name="afii10055" unicode="&#x406;" horiz-adv-x="292" d="M69 640 L69 0 L220 0 L220 640 L69 640 Z " />
<glyph glyph-name="afii10056" unicode="&#x407;" horiz-adv-x="256" d="M185 0 L185 640 L60 640 L60 0 L185 0 Z M155 709 L254 709 L254 824 L155 824 L155 709 Z M-9 709 L89 709 L89 824 L-9 824 L-9 709 Z " />
<glyph glyph-name="afii10057" unicode="&#x408;" horiz-adv-x="538" d="M24 196 C24 120 55 -18 253 -18 C356 -18 474 12 474 231 L474 640 L323 640 L323 210 C323 145 311 106 253 106 C195 106 175 143 175 210 L175 236 L24 236 L24 196 Z " />
<glyph glyph-name="afii10058" unicode="&#x409;" horiz-adv-x="949" d="M667 410 C828 410 909 342 909 204 C909 132 883 77 831 41 C790 14 743 0 686 0 L406 0 L406 527 L234 527 C234 456 223 363 204 245 C186 135 167 53 149 0 L3 0 C74 199 109 412 109 641 L539 641 L539 410 L667 410 Z M638 116 C683 116 715 122 732 136 C750 150 760 174 760 211 C760 268 718 296 635 296 L539 296 L539 116 L638 116 Z " />
<glyph glyph-name="afii10059" unicode="&#x40a;" horiz-adv-x="977" d="M689 410 C851 410 932 342 932 204 C932 132 906 77 853 41 C813 14 765 0 708 0 L429 0 L429 295 L191 295 L191 0 L60 0 L60 640 L191 640 L191 408 L429 408 L429 641 L561 641 L561 410 L689 410 Z M661 116 C706 116 737 122 755 136 C774 150 783 174 783 211 C783 268 742 296 659 296 L561 296 L561 116 L661 116 Z " />
<glyph glyph-name="afii10060" unicode="&#x40b;" horiz-adv-x="674" d="M336 344 C355 372 375 392 396 403 C417 415 442 421 473 421 C505 421 535 412 562 396 C588 379 606 357 617 331 C625 308 629 275 629 231 L629 0 L504 0 L504 220 C504 282 480 313 428 313 C377 313 346 285 336 230 L336 0 L203 0 L203 524 L13 524 L13 640 L524 640 L524 524 L336 524 L336 344 Z " />
<glyph glyph-name="afii10061" unicode="&#x40c;" horiz-adv-x="642" d="M191 0 L191 216 L254 279 L465 0 L633 0 L355 375 L618 640 L451 640 L191 365 L191 640 L60 640 L60 0 L191 0 Z M262 709 L349 709 L451 838 L320 838 L262 709 Z " />
<glyph glyph-name="afii10062" unicode="&#x40e;" horiz-adv-x="589" d="M324 328 L184 640 L4 640 L241 177 C234 149 213 115 160 115 C134 115 112 120 95 124 L95 0 C129 -8 157 -12 191 -12 C265 -12 336 -1 390 131 L598 640 L435 640 L324 328 Z M113 803 C120 748 157 677 295 677 C432 677 469 748 476 803 L374 803 C373 745 308 742 295 742 C281 742 216 745 215 803 L113 803 Z " />
<glyph glyph-name="afii10145" unicode="&#x40f;" horiz-adv-x="626" d="M60 640 L191 640 L191 114 L444 114 L444 640 L575 640 L575 0 L386 0 L386 -98 L265 -98 L265 0 L60 0 L60 640 Z " />
<glyph glyph-name="afii10017" unicode="&#x410;" horiz-adv-x="602" d="M300 493 L381 242 L220 242 L300 493 Z M182 135 L416 135 L460 0 L602 0 L377 640 L228 640 L0 0 L139 0 L182 135 Z " />
<glyph glyph-name="afii10018" unicode="&#x411;" horiz-adv-x="639" d="M191 116 L319 116 C399 116 440 146 440 207 C440 271 398 303 317 303 L191 303 L191 116 Z M60 640 L530 640 L530 524 L191 524 L191 417 L345 417 C483 417 582 358 582 215 C582 81 486 0 360 0 L60 0 L60 640 Z " />
<glyph glyph-name="afii10019" unicode="&#x412;" horiz-adv-x="616" d="M191 524 L326 524 C398 524 426 504 426 456 C426 402 396 386 323 386 L191 386 L191 524 Z M191 279 L321 279 C398 279 448 270 448 194 C448 120 393 116 319 116 L191 116 L191 279 Z M60 0 L363 0 C509 0 583 63 583 190 C583 272 533 338 445 341 C510 353 562 414 562 474 C562 530 541 573 498 605 C467 629 414 640 338 640 L60 640 L60 0 Z " />
<glyph glyph-name="afii10020" unicode="&#x413;" horiz-adv-x="495" d="M191 525 L191 0 L60 0 L60 640 L473 640 L473 525 L191 525 Z " />
<glyph glyph-name="afii10021" unicode="&#x414;" horiz-adv-x="716" d="M485 530 L262 530 L262 278 C262 230 252 190 231 156 C225 146 210 128 185 101 L485 101 L485 530 Z M210 0 C151 0 126 -31 119 -104 L115 -142 L15 -142 L15 101 L74 101 C112 140 131 190 131 249 L131 640 L618 640 L618 101 L688 101 L688 -142 L587 -142 L584 -104 C576 -31 550 0 492 0 L210 0 Z " />
<glyph glyph-name="afii10022" unicode="&#x415;" horiz-adv-x="566" d="M534 0 L534 116 L191 116 L191 279 L491 279 L491 388 L191 388 L191 524 L519 524 L519 640 L60 640 L60 0 L534 0 Z " />
<glyph glyph-name="afii10024" unicode="&#x416;" horiz-adv-x="993" d="M429 232 L365 295 L161 0 L1 0 L277 383 L16 641 L183 641 L429 381 L429 641 L562 641 L562 377 L808 641 L976 641 L716 383 L991 0 L831 0 L627 295 L562 232 L562 0 L429 0 L429 232 Z " />
<glyph glyph-name="afii10025" unicode="&#x417;" horiz-adv-x="571" d="M238 275 L238 371 L273 371 C340 371 373 398 373 453 C373 509 322 536 268 536 C206 536 168 511 155 459 L34 459 C52 594 152 653 283 653 C402 653 505 597 505 481 C505 407 460 347 387 333 C480 330 526 281 526 185 C526 53 418 -12 277 -12 C120 -12 35 56 22 192 L153 192 C162 136 204 108 278 108 C353 108 392 138 392 198 C392 249 355 275 281 275 L238 275 Z " />
<glyph glyph-name="afii10026" unicode="&#x418;" horiz-adv-x="638" d="M54 640 L186 640 L186 146 L426 640 L586 640 L586 0 L454 0 L454 482 L217 0 L54 0 L54 640 Z " />
<glyph glyph-name="afii10027" unicode="&#x419;" horiz-adv-x="623" d="M194 793 L442 793 L442 700 L194 700 L194 793 Z M54 640 L186 640 L186 146 L426 640 L586 640 L586 0 L454 0 L454 482 L217 0 L54 0 L54 640 Z " />
<glyph glyph-name="afii10028" unicode="&#x41a;" horiz-adv-x="630" d="M191 0 L191 216 L254 279 L465 0 L633 0 L355 375 L618 640 L451 640 L191 365 L191 640 L60 640 L60 0 L191 0 Z " />
<glyph glyph-name="afii10029" unicode="&#x41b;" horiz-adv-x="602" d="M228 640 L377 640 L602 0 L460 0 L300 493 L139 0 L0 0 L228 640 Z " />
<glyph glyph-name="afii10030" unicode="&#x41c;" horiz-adv-x="815" d="M191 537 L343 0 L472 0 L625 537 L625 0 L756 0 L756 640 L548 640 L439 273 C425 226 415 186 409 151 C396 213 386 253 380 274 L273 640 L60 640 L60 0 L191 0 L191 537 Z " />
<glyph glyph-name="afii10031" unicode="&#x41d;" horiz-adv-x="626" d="M60 640 L191 640 L191 392 L444 392 L444 640 L575 640 L575 0 L444 0 L444 278 L191 278 L191 0 L60 0 L60 640 Z " />
<glyph glyph-name="afii10032" unicode="&#x41e;" horiz-adv-x="683" d="M170 328 C170 445 228 536 342 537 C454 537 513 444 513 326 C513 213 460 103 340 103 C216 103 170 215 170 328 L170 328 Z M343 -12 C540 -11 647 145 647 330 C647 521 532 653 343 653 C145 653 35 508 35 318 C35 131 153 -12 343 -12 L343 -12 Z " />
<glyph glyph-name="afii10033" unicode="&#x41f;" horiz-adv-x="645" d="M191 0 L60 0 L60 640 L591 640 L591 0 L460 0 L460 524 L191 524 L191 0 Z " />
<glyph glyph-name="afii10034" unicode="&#x420;" horiz-adv-x="575" d="M191 524 L295 524 C369 524 407 491 407 425 C407 363 369 332 293 332 L191 332 L191 524 Z M60 0 L191 0 L191 216 L318 216 C446 216 543 298 543 434 C543 594 440 640 323 640 L60 640 L60 0 Z " />
<glyph glyph-name="afii10035" unicode="&#x421;" horiz-adv-x="629" d="M332 653 C135 653 35 505 35 316 C35 128 132 -12 328 -12 C476 -12 574 77 599 224 L466 224 C444 144 399 103 330 103 C218 103 172 202 172 316 C172 457 231 537 337 537 C405 537 448 501 466 428 L599 428 C584 575 472 653 332 653 L332 653 Z " />
<glyph glyph-name="afii10036" unicode="&#x422;" horiz-adv-x="538" d="M203 524 L203 0 L336 0 L336 524 L524 524 L524 640 L13 640 L13 524 L203 524 Z " />
<glyph glyph-name="afii10037" unicode="&#x423;" horiz-adv-x="548" d="M148 640 L269 372 C275 355 281 341 287 322 C295 346 303 365 312 387 L415 640 L557 640 L334 116 C301 39 249 0 179 0 L97 0 L97 111 L123 111 C169 111 200 125 212 151 L229 189 L1 640 L148 640 Z " />
<glyph glyph-name="afii10038" unicode="&#x424;" horiz-adv-x="814" d="M164 326 C166 456 240 535 344 535 L344 105 C216 105 162 217 164 326 L164 326 Z M653 326 C653 191 577 105 473 105 L473 535 C579 535 653 458 653 326 L653 326 Z M344 715 L344 652 C156 652 27 519 27 317 C27 121 160 -12 344 -12 L344 -75 L473 -75 L473 -12 C652 -12 790 128 790 330 C790 523 653 652 473 652 L473 715 L344 715 Z " />
<glyph glyph-name="afii10039" unicode="&#x425;" horiz-adv-x="582" d="M291 232 L420 0 L573 0 L363 330 L560 640 L412 640 L291 428 L170 640 L19 640 L216 324 L13 0 L158 0 L291 232 Z " />
<glyph glyph-name="afii10040" unicode="&#x426;" horiz-adv-x="676" d="M60 0 L60 640 L191 640 L191 105 L460 105 L460 640 L592 640 L592 105 L671 105 L671 -142 L581 -142 L577 -103 C571 -30 544 0 485 0 L60 0 Z " />
<glyph glyph-name="afii10041" unicode="&#x427;" horiz-adv-x="635" d="M444 256 C400 217 350 196 294 196 C151 196 60 284 60 429 L60 640 L191 640 L191 439 C191 346 232 300 315 300 C383 300 444 358 444 428 L444 640 L575 640 L575 0 L444 0 L444 256 Z " />
<glyph glyph-name="afii10042" unicode="&#x428;" horiz-adv-x="892" d="M827 0 L827 641 L696 641 L696 105 L509 105 L509 640 L378 640 L378 105 L191 105 L191 640 L60 640 L60 0 L827 0 Z " />
<glyph glyph-name="afii10043" unicode="&#x429;" horiz-adv-x="906" d="M900 -143 L900 105 L827 105 L827 640 L696 640 L696 105 L509 105 L509 640 L378 640 L378 105 L191 105 L191 640 L60 640 L60 0 L716 0 C775 0 800 -32 807 -105 L810 -143 L900 -143 Z " />
<glyph glyph-name="afii10044" unicode="&#x42a;" horiz-adv-x="668" d="M366 116 C454 116 488 147 488 221 C488 281 447 310 364 310 L239 310 L239 116 L366 116 Z M396 425 C536 425 638 362 638 215 C638 83 544 0 414 0 L107 0 L107 526 L-2 526 L-2 641 L239 641 L239 425 L396 425 Z " />
<glyph glyph-name="afii10045" unicode="&#x42b;" horiz-adv-x="850" d="M191 116 L319 116 C388 116 442 145 442 214 C442 274 377 303 317 303 L191 303 L191 116 Z M796 640 L796 0 L664 0 L664 640 L796 640 Z M60 0 L60 640 L191 640 L191 417 L325 417 C467 417 590 359 590 215 C590 79 467 0 332 0 L60 0 Z " />
<glyph glyph-name="afii10046" unicode="&#x42c;" horiz-adv-x="621" d="M191 310 L191 116 L319 116 C406 116 442 147 442 221 C442 281 400 310 317 310 L191 310 Z M60 0 L60 641 L191 641 L191 425 L348 425 C488 425 590 363 590 215 C590 80 494 0 366 0 L60 0 Z " />
<glyph glyph-name="afii10047" unicode="&#x42d;" horiz-adv-x="716" d="M505 363 C503 486 469 537 344 537 C277 537 233 501 215 428 L83 428 C95 569 207 653 350 653 C544 653 646 505 646 316 C646 128 548 -12 354 -12 C205 -12 104 79 83 224 L215 224 C237 144 282 103 352 103 C461 103 507 154 509 266 L376 266 L376 363 L505 363 Z " />
<glyph glyph-name="afii10048" unicode="&#x42e;" horiz-adv-x="916" d="M571 103 C687 106 743 210 743 326 C743 440 690 537 571 537 C456 537 402 440 402 328 C402 215 442 103 571 103 L571 103 Z M184 278 L184 0 L52 0 L52 640 L184 640 L184 392 L270 392 C283 560 418 653 573 653 C764 653 877 514 877 330 C877 144 767 -12 573 -12 C402 -12 271 108 269 278 L184 278 Z " />
<glyph glyph-name="afii10049" unicode="&#x42f;" horiz-adv-x="596" d="M316 524 C252 524 203 512 203 439 C203 372 250 362 316 362 L405 362 L405 524 L316 524 Z M537 0 L405 0 L405 252 L279 252 C234 252 201 209 181 123 C175 97 169 33 160 0 L15 0 C30 18 38 50 49 104 C61 163 70 203 80 221 C91 237 102 249 114 259 C137 278 168 290 207 298 C118 315 63 372 63 460 C63 580 139 640 291 640 L537 640 L537 0 Z " />
<glyph glyph-name="afii10065" unicode="&#x430;" horiz-adv-x="502" d="M318 220 L318 191 C318 121 283 86 214 86 C176 86 149 107 149 139 C149 173 176 194 228 203 L318 220 Z M155 318 C160 363 187 385 236 385 C301 385 316 362 316 297 C257 292 201 284 149 274 C66 257 24 208 24 128 C24 45 80 -12 163 -12 C237 -12 267 8 318 63 C319 40 326 18 338 0 L465 0 C450 17 442 41 442 72 L442 307 C442 444 368 481 236 481 C127 481 43 430 39 318 L155 318 Z " />
<glyph glyph-name="afii10066" unicode="&#x431;" horiz-adv-x="564" d="M496 698 C476 693 293 649 215 629 C167 617 111 579 89 541 C65 500 54 432 54 342 L54 235 C54 87 145 -12 295 -12 C443 -12 527 79 527 229 C527 368 451 463 308 463 C232 463 179 425 151 352 C161 459 172 494 259 527 C264 529 438 581 496 598 L496 698 Z M176 231 C176 320 212 364 284 364 C365 364 401 296 401 219 C401 130 364 85 288 85 C219 85 176 140 176 231 L176 231 Z " />
<glyph glyph-name="afii10067" unicode="&#x432;" horiz-adv-x="553" d="M278 -11 C406 -11 520 61 520 194 C520 291 450 339 355 344 C446 363 491 410 491 484 C491 602 398 657 281 657 C134 657 60 579 60 425 L60 178 C60 44 176 -11 278 -11 L278 -11 Z M185 455 C185 533 217 571 278 571 C341 571 372 542 372 483 C372 416 337 383 265 383 L213 383 L213 292 L270 292 C347 292 396 274 396 196 C396 127 356 92 278 92 C225 92 185 125 185 184 L185 455 Z " />
<glyph glyph-name="afii10068" unicode="&#x433;" horiz-adv-x="483" d="M337 153 C326 98 294 86 239 86 C186 86 160 99 160 125 C160 159 188 169 231 184 L342 222 C406 244 438 287 438 351 C438 437 373 481 246 481 C139 481 59 431 45 324 L166 324 C177 370 198 383 246 383 C298 383 324 368 324 340 C324 317 308 300 277 291 L136 250 C65 229 30 188 30 121 C30 33 99 -12 235 -12 C370 -12 461 27 461 153 L337 153 Z " />
<glyph glyph-name="afii10069" unicode="&#x434;" horiz-adv-x="523" d="M250 374 C316 374 349 329 349 239 C349 148 317 103 252 103 C190 103 155 153 155 237 C155 328 187 374 250 374 L250 374 Z M248 -192 C461 -192 478 -70 478 69 L478 468 L353 468 L353 398 C321 454 276 481 218 481 C84 481 28 359 28 228 C28 110 94 -3 218 -3 C279 -3 324 24 353 77 L353 58 C353 -22 346 -95 248 -95 C208 -95 183 -80 172 -50 L39 -50 C53 -145 123 -192 248 -192 L248 -192 Z " />
<glyph glyph-name="afii10070" unicode="&#x435;" horiz-adv-x="491" d="M323 137 C312 101 286 81 246 81 C184 81 157 135 157 197 L157 211 L460 211 C461 218 461 225 461 233 C461 394 385 481 246 481 C97 481 28 376 28 232 C28 90 98 -12 246 -12 C357 -12 426 28 451 137 L323 137 Z M157 291 C163 352 192 383 244 383 C296 383 324 352 330 291 L157 291 Z " />
<glyph glyph-name="afii10072" unicode="&#x436;" horiz-adv-x="738" d="M429 640 L306 640 L306 286 L151 468 L2 468 L177 286 L2 0 L151 0 L254 205 L306 151 L306 0 L429 0 L429 151 L481 205 L584 0 L733 0 L558 286 L733 468 L584 468 L429 286 L429 640 Z " />
<glyph glyph-name="afii10073" unicode="&#x437;" horiz-adv-x="421" d="M278 251 C336 260 392 295 392 355 C392 444 304 481 214 481 C100 481 36 432 21 337 L127 337 C132 378 159 399 205 399 C254 399 278 380 278 342 C278 304 255 284 210 284 L178 284 L178 203 L215 203 C264 203 289 186 289 150 C289 106 248 82 204 82 C154 82 125 103 119 144 L12 144 C25 41 89 -12 203 -12 C312 -12 403 26 403 135 C403 206 358 251 278 251 L278 251 Z " />
<glyph glyph-name="afii10074" unicode="&#x438;" horiz-adv-x="534" d="M54 468 L54 166 C54 99 79 -12 213 -12 C280 -12 317 13 353 72 L353 0 L478 0 L478 468 L353 468 L353 242 C353 164 342 95 256 95 C194 95 179 132 179 196 L179 468 L54 468 Z " />
<glyph glyph-name="afii10075" unicode="&#x439;" horiz-adv-x="534" d="M54 468 L54 166 C54 99 79 -12 213 -12 C280 -12 317 13 353 72 L353 0 L478 0 L478 468 L353 468 L353 242 C353 164 342 95 256 95 C194 95 179 132 179 196 L179 468 L54 468 Z M142 626 L386 626 L386 546 L142 546 L142 626 Z " />
<glyph glyph-name="afii10076" unicode="&#x43a;" horiz-adv-x="500" d="M184 0 L184 151 L235 205 L338 0 L487 0 L312 286 L487 468 L338 468 L184 286 L184 640 L60 640 L60 0 L184 0 Z " />
<glyph glyph-name="afii10077" unicode="&#x43b;" horiz-adv-x="468" d="M135 0 L207 262 C213 283 221 314 230 353 C242 312 251 282 258 262 L334 0 L466 0 L297 468 L166 468 L2 0 L135 0 Z " />
<glyph glyph-name="afii10078" unicode="&#x43c;" horiz-adv-x="702" d="M308 0 L397 0 L517 366 L517 0 L642 0 L642 468 L462 468 L384 230 C366 177 356 140 351 121 C343 150 333 188 318 232 L240 468 L60 468 L60 0 L184 0 L184 366 L308 0 Z " />
<glyph glyph-name="afii10079" unicode="&#x43d;" horiz-adv-x="542" d="M359 0 L483 0 L483 468 L359 468 L359 291 L184 291 L184 468 L60 468 L60 0 L184 0 L184 211 L359 211 L359 0 Z " />
<glyph glyph-name="afii10080" unicode="&#x43e;" horiz-adv-x="537" d="M269 383 C346 383 383 312 383 233 C383 158 349 86 269 86 C186 86 155 158 155 235 C155 314 188 383 269 383 L269 383 Z M269 -12 C420 -12 509 88 509 233 C509 381 418 481 269 481 C115 481 28 382 28 235 C28 84 117 -12 269 -12 L269 -12 Z " />
<glyph glyph-name="afii10081" unicode="&#x43f;" horiz-adv-x="534" d="M184 0 L184 239 C184 329 217 374 282 374 C333 374 358 342 358 281 L358 0 L483 0 L483 291 C483 336 479 368 470 392 C451 448 384 481 326 481 C257 481 220 450 184 398 L184 468 L60 468 L60 0 L184 0 Z " />
<glyph glyph-name="afii10082" unicode="&#x440;" horiz-adv-x="542" d="M282 374 C346 374 383 322 383 233 C383 146 346 95 282 95 C215 95 181 141 181 233 C181 327 215 374 282 374 L282 374 Z M184 -181 L184 67 C221 12 255 -12 316 -12 C452 -12 509 106 509 237 C509 363 458 481 326 481 C274 481 226 455 184 405 L184 468 L60 468 L60 -181 L184 -181 Z " />
<glyph glyph-name="afii10083" unicode="&#x441;" horiz-adv-x="496" d="M248 481 C100 481 28 375 28 233 C28 88 97 -12 248 -12 C370 -12 442 50 461 174 L337 174 C324 115 296 86 252 86 C187 86 155 135 155 233 C155 328 190 383 254 383 C298 383 325 356 337 302 L461 302 C450 418 372 481 248 481 L248 481 Z " />
<glyph glyph-name="afii10084" unicode="&#x442;" horiz-adv-x="763" d="M184 0 L184 244 C184 337 207 374 263 374 C310 374 328 347 328 279 L328 0 L452 0 L452 240 C452 338 473 374 530 374 C577 374 596 344 596 274 L596 0 L720 0 L720 305 C720 417 668 480 572 480 C516 480 477 458 435 400 C414 454 374 480 314 480 C260 480 226 459 184 403 L184 468 L60 468 L60 0 L184 0 Z " />
<glyph glyph-name="afii10085" unicode="&#x443;" horiz-adv-x="479" d="M182 -20 C176 -48 169 -67 161 -77 C151 -87 138 -93 120 -93 C111 -92 85 -91 77 -91 L77 -189 C120 -191 140 -192 139 -192 C184 -192 216 -183 235 -164 C256 -144 285 -79 324 32 L478 468 L345 468 L269 203 C260 173 252 143 248 114 C239 153 231 183 224 203 L147 468 L13 468 L182 -20 Z " />
<glyph glyph-name="afii10086" unicode="&#x444;" horiz-adv-x="705" d="M414 82 L414 386 L431 383 C501 373 551 324 551 232 C551 143 502 91 431 84 L414 82 Z M289 -181 L414 -181 L414 -16 L431 -14 C578 1 677 82 677 233 C677 386 579 474 431 481 L414 482 L414 640 L289 640 L289 482 L273 481 C125 474 27 386 27 233 C27 82 126 1 273 -14 L290 -16 L289 -181 Z M153 232 C153 324 203 373 273 383 L290 386 L290 82 L273 84 C203 91 153 143 153 232 L153 232 Z " />
<glyph glyph-name="afii10087" unicode="&#x445;" horiz-adv-x="483" d="M330 0 L478 0 L318 237 L468 468 L318 468 C272 380 248 332 244 323 C237 344 225 369 210 397 C197 421 184 444 170 468 L21 468 L170 237 L13 0 L158 0 L203 77 C222 109 236 135 244 155 C262 119 275 93 284 77 L330 0 Z " />
<glyph glyph-name="afii10088" unicode="&#x446;" horiz-adv-x="553" d="M566 -115 L566 56 L538 56 C485 56 478 77 478 128 L478 468 L353 468 L353 242 C353 165 342 95 256 95 C191 95 179 135 179 196 L179 468 L54 468 L54 186 C54 138 59 102 69 77 C91 20 152 -12 213 -12 C281 -12 315 16 353 73 L353 0 L361 0 C415 -2 448 -3 448 -62 L448 -115 L566 -115 Z " />
<glyph glyph-name="afii10089" unicode="&#x447;" horiz-adv-x="530" d="M478 468 L353 468 L353 386 C353 308 342 239 256 239 C191 239 179 276 179 340 L179 468 L54 468 L54 330 C54 281 59 245 69 221 C91 163 152 132 213 132 C282 132 315 158 353 216 L353 0 L478 0 L478 468 Z " />
<glyph glyph-name="afii10090" unicode="&#x448;" horiz-adv-x="780" d="M596 0 L720 0 L720 468 L596 468 L596 224 C596 132 573 95 517 95 C470 95 452 121 452 189 L452 468 L328 468 L328 228 C328 130 307 95 251 95 C203 95 184 125 184 195 L184 468 L60 468 L60 163 C60 51 112 -12 209 -12 C265 -12 303 11 345 68 C367 14 407 -12 466 -12 C521 -12 554 9 596 65 L596 0 Z " />
<glyph glyph-name="afii10091" unicode="&#x449;" horiz-adv-x="782" d="M596 0 C658 0 691 -3 691 -62 L691 -116 L808 -116 L808 56 L780 56 C742 56 720 63 720 128 L720 468 L596 468 L596 224 C596 132 573 95 517 95 C470 95 452 121 452 189 L452 468 L328 468 L328 228 C328 130 307 95 251 95 C203 95 184 125 184 195 L184 468 L60 468 L60 163 C60 51 112 -12 209 -12 C265 -12 303 11 345 68 C367 14 407 -12 466 -12 C521 -12 561 15 596 74 L596 0 Z " />
<glyph glyph-name="afii10092" unicode="&#x44a;" horiz-adv-x="553" d="M80 184 C82 50 169 -12 300 -12 C433 -12 530 61 530 194 C530 298 450 386 341 386 C277 386 231 366 205 326 L205 468 L0 468 L0 358 L80 358 L80 184 Z M402 193 C402 133 367 84 305 84 C249 84 205 123 205 180 L205 201 C205 256 251 289 304 289 C362 289 402 251 402 193 L402 193 Z " />
<glyph glyph-name="afii10093" unicode="&#x44b;" horiz-adv-x="755" d="M61 184 C62 51 149 -12 280 -12 C412 -12 511 58 511 194 C511 297 428 386 322 386 C258 386 213 366 186 326 L186 468 L61 468 L61 184 Z M591 468 L591 0 L716 0 L716 468 L591 468 Z M383 193 C383 132 347 84 285 84 C227 84 186 124 186 180 L186 201 C186 255 229 289 284 289 C342 289 383 251 383 193 L383 193 Z " />
<glyph glyph-name="afii10094" unicode="&#x44c;" horiz-adv-x="534" d="M61 184 C61 53 149 -12 280 -12 C412 -12 511 57 511 194 C511 297 430 386 322 386 C258 386 213 366 186 326 L186 468 L61 468 L61 184 Z M383 193 C383 132 349 84 285 84 C226 84 186 124 186 180 L186 201 C186 257 231 289 284 289 C342 289 383 251 383 193 L383 193 Z " />
<glyph glyph-name="afii10095" unicode="&#x44d;" horiz-adv-x="518" d="M354 187 C344 113 331 87 258 86 C219 86 193 103 184 137 L56 137 C96 38 163 -12 262 -12 C410 -12 479 90 479 231 C479 380 408 480 262 481 C136 481 67 423 52 308 L181 308 C187 358 215 383 263 383 C314 383 343 352 351 291 L231 291 L231 187 L354 187 Z " />
<glyph glyph-name="afii10096" unicode="&#x44e;" horiz-adv-x="750" d="M709 233 C709 386 616 481 468 481 C332 481 253 416 233 285 L170 285 L170 640 L45 640 L45 0 L170 0 L170 204 L231 204 C245 68 334 -12 468 -12 C622 -12 709 87 709 233 L709 233 Z M355 235 C355 311 389 383 468 383 C549 383 583 309 583 233 C583 158 548 86 468 86 C387 86 355 158 355 235 L355 235 Z " />
<glyph glyph-name="afii10097" unicode="&#x44f;" horiz-adv-x="476" d="M33 320 C33 271 66 230 132 198 C73 186 54 145 38 74 C29 32 22 7 19 0 L147 0 C149 6 150 20 153 41 C166 147 191 161 227 161 L300 161 L300 0 L425 0 L425 468 L200 468 C113 468 33 423 33 320 L33 320 Z M300 368 L300 249 L215 249 C173 249 150 269 150 306 C150 348 178 368 219 368 L300 368 Z " />
<glyph glyph-name="afii10071" unicode="&#x451;" horiz-adv-x="570" d="M384 135 C372 93 330 76 290 76 C208 76 178 146 178 204 L534 204 L534 224 C534 476 336 482 295 482 C145 482 34 396 34 233 C34 187 38 -17 284 -17 C370 -17 489 3 525 135 L384 135 Z M178 276 C191 391 274 389 293 389 C335 389 388 371 390 276 L178 276 Z M88 532 L227 532 L227 640 L88 640 L88 532 Z M346 532 L485 532 L485 640 L346 640 L346 532 Z " />
<glyph glyph-name="afii10099" unicode="&#x452;" horiz-adv-x="534" d="M71 640 L194 640 L194 407 C219 435 241 454 260 465 C279 476 305 481 336 481 C383 481 424 463 455 427 C485 393 502 350 502 300 C502 233 492 170 474 110 C472 103 451 49 412 -53 L287 -53 C317 16 337 68 348 101 C363 152 372 206 376 265 C379 331 344 374 291 374 C250 374 223 359 211 328 C200 309 194 267 194 200 L194 0 L71 0 L71 640 Z " />
<glyph glyph-name="afii10100" unicode="&#x453;" horiz-adv-x="483" d="M337 153 C326 98 294 86 239 86 C186 86 160 99 160 125 C160 159 188 169 231 184 L342 222 C406 244 438 287 438 351 C438 437 373 481 246 481 C139 481 59 431 45 324 L166 324 C177 370 198 383 246 383 C298 383 324 368 324 340 C324 317 308 300 277 291 L136 250 C65 229 30 188 30 121 C30 33 99 -12 235 -12 C370 -12 461 27 461 153 L337 153 Z M160 536 L247 536 L349 665 L218 665 L160 536 Z " />
<glyph glyph-name="afii10101" unicode="&#x454;" horiz-adv-x="518" d="M274 383 C222 383 193 352 186 291 L305 291 L305 187 L183 187 C187 146 196 119 212 104 C225 92 248 86 278 86 C319 86 343 103 352 137 L481 137 C441 38 372 -12 276 -12 C207 -12 154 10 115 52 C77 96 58 156 58 231 C58 310 76 371 115 415 C153 459 207 481 276 481 C400 481 470 423 484 308 L356 308 C349 358 322 383 274 383 L274 383 Z " />
<glyph glyph-name="afii10102" unicode="&#x455;" horiz-adv-x="481" d="M246 -12 C284 -12 318 -7 345 2 C404 20 461 82 461 144 C461 194 428 237 377 254 L184 318 C171 322 164 330 164 340 C164 368 191 383 244 383 C291 383 315 369 323 324 L444 324 C427 431 363 481 244 481 C147 481 44 432 44 330 C44 279 76 243 142 220 L279 172 C310 159 334 158 334 130 C334 101 306 86 250 86 C194 86 163 102 153 153 L28 153 C32 43 104 -12 246 -12 L246 -12 Z " />
<glyph glyph-name="afii10103" unicode="&#x456;" horiz-adv-x="254" d="M56 465 L56 0 L195 0 L195 465 L56 465 Z M56 532 L195 532 L195 640 L56 640 L56 532 Z " />
<glyph glyph-name="afii10104" unicode="&#x457;" horiz-adv-x="269" d="M60 467 L60 0 L184 0 L184 467 L60 467 Z M153 543 L252 543 L252 658 L153 658 L153 543 Z M-11 543 L87 543 L87 658 L-11 658 L-11 543 Z " />
<glyph glyph-name="afii10105" unicode="&#x458;" horiz-adv-x="253" d="M55 465 L55 -9 C55 -44 53 -78 -14 -78 C-18 -78 -22 -77 -27 -76 L-27 -169 C3 -175 28 -176 60 -176 C109 -176 194 -169 194 -23 L194 465 L55 465 Z M55 532 L194 532 L194 640 L55 640 L55 532 Z " />
<glyph glyph-name="afii10106" unicode="&#x459;" horiz-adv-x="810" d="M656 193 C656 221 647 245 630 262 C612 280 588 289 558 289 C529 289 505 281 486 264 C468 248 459 227 459 201 L459 180 C459 149 470 125 492 107 C511 92 533 84 559 84 C588 84 612 94 630 114 C647 134 656 161 656 193 L656 193 Z M222 367 C222 288 216 220 200 160 C188 110 167 57 138 0 L4 0 C41 82 65 147 75 194 C91 261 99 353 99 468 L459 469 L459 326 C484 366 530 386 596 386 C648 386 692 366 729 329 C766 292 784 247 784 194 C784 133 765 85 725 47 C685 8 627 -12 553 -12 C483 -12 427 6 390 41 C353 73 335 122 335 184 L335 367 L222 367 Z " />
<glyph glyph-name="afii10107" unicode="&#x45a;" horiz-adv-x="838" d="M679 193 C679 221 670 245 653 262 C635 280 611 289 581 289 C552 289 529 281 511 264 C492 248 483 227 483 201 L483 180 C483 149 493 125 515 107 C534 92 556 84 582 84 C611 84 635 94 653 114 C670 134 679 161 679 193 L679 193 Z M184 211 L184 0 L60 0 L60 468 L184 468 L184 291 L358 291 L358 469 L483 469 L483 326 C508 366 553 386 619 386 C671 386 716 366 752 329 C788 292 806 247 806 194 C806 133 787 85 748 47 C707 8 650 -12 576 -12 C505 -12 451 6 413 41 C376 73 358 122 358 184 L358 211 L184 211 Z " />
<glyph glyph-name="afii10108" unicode="&#x45b;" horiz-adv-x="534" d="M71 584 L71 640 L194 640 L194 584 L356 584 L356 535 L194 535 L194 407 C219 435 241 454 260 465 C279 476 305 481 336 481 C399 481 445 456 472 407 C485 382 493 345 493 300 L493 0 L368 0 L368 278 C368 342 342 374 291 374 C250 374 223 359 211 328 C200 309 194 267 194 200 L194 0 L71 0 L71 535 L20 535 L20 584 L71 584 Z " />
<glyph glyph-name="afii10109" unicode="&#x45c;" horiz-adv-x="505" d="M184 0 L184 151 L235 205 L338 0 L487 0 L312 286 L487 468 L338 468 L184 286 L184 640 L60 640 L60 0 L184 0 Z M265 535 L352 535 L454 664 L323 664 L265 535 Z " />
<glyph glyph-name="afii10110" unicode="&#x45e;" horiz-adv-x="511" d="M87 -169 C111 -174 147 -178 185 -178 C306 -178 328 -87 349 -25 L511 465 L362 465 L279 162 L171 465 L4 465 L206 5 L199 -17 C191 -48 178 -82 132 -82 C115 -82 101 -81 87 -76 L87 -169 Z M74 640 C81 585 118 514 255 514 C393 514 430 585 436 640 L335 640 C334 582 269 579 255 579 C242 579 177 582 176 640 L74 640 Z " />
<glyph glyph-name="afii10193" unicode="&#x45f;" horiz-adv-x="542" d="M330 -76 L226 -76 L226 0 L60 0 L60 468 L184 468 L184 64 L358 64 L358 468 L483 468 L483 0 L330 0 L330 -76 Z " />
<glyph glyph-name="afii10147" unicode="&#x472;" horiz-adv-x="723" d="M361 659 C220 659 37 589 37 320 C37 172 106 -18 361 -18 C614 -18 684 171 684 320 C684 589 501 659 361 659 L361 659 Z M202 387 C207 418 232 534 361 534 C475 534 511 444 517 387 L202 387 Z M519 263 C514 207 484 106 361 106 C256 106 208 186 201 263 L519 263 Z " />
<glyph glyph-name="afii10195" unicode="&#x473;" horiz-adv-x="575" d="M286 482 C143 482 32 403 32 231 C32 62 140 -17 286 -17 C417 -17 541 48 541 231 C541 417 414 482 286 482 L286 482 Z M286 389 C377 389 391 301 393 279 L178 279 C181 334 218 389 286 389 L286 389 Z M395 197 C394 137 360 76 286 76 C211 76 178 138 178 197 L395 197 Z " />
<glyph glyph-name="afii10050" unicode="&#x490;" horiz-adv-x="495" d="M191 525 L191 0 L60 0 L60 640 L377 640 L427 743 L495 743 L473 640 L473 525 L191 525 Z " />
<glyph glyph-name="afii10098" unicode="&#x491;" horiz-adv-x="396" d="M184 388 L184 0 L60 0 L60 468 L274 468 L326 577 L390 577 L357 469 L358 388 L184 388 Z " />
<glyph glyph-name="uni0492" unicode="&#x492;" horiz-adv-x="533" d="M242 370 L242 516 L520 516 L520 640 L91 640 L91 370 L0 370 L0 245 L91 245 L91 0 L242 0 L242 245 L444 245 L444 370 L242 370 Z " />
<glyph glyph-name="uni0493" unicode="&#x493;" horiz-adv-x="430" d="M202 371 L417 371 L417 465 L63 465 L63 265 L-10 265 L-10 183 L63 183 L63 0 L202 0 L202 183 L330 183 L330 265 L202 265 L202 371 Z " />
<glyph glyph-name="uni0496" unicode="&#x496;" horiz-adv-x="983" d="M976 124 L970 -145 L837 -145 L837 0 L831 0 L627 295 L562 232 L562 0 L429 0 L429 232 L365 295 L161 0 L1 0 L277 383 L16 641 L183 641 L429 381 L429 641 L562 641 L562 377 L808 641 L976 641 L716 383 L890 124 L976 124 Z " />
<glyph glyph-name="uni0497" unicode="&#x497;" horiz-adv-x="712" d="M287 0 L426 0 L426 204 L428 204 L562 0 L595 0 L595 -121 L713 -121 L721 93 L651 93 L534 244 L711 465 L558 465 L428 275 L426 275 L426 465 L287 465 L287 275 L285 275 L156 465 L3 465 L179 244 L-9 0 L152 0 L285 204 L287 204 L287 0 Z " />
<glyph glyph-name="uni0498" unicode="&#x498;" horiz-adv-x="669" d="M32 221 C38 80 110 -6 276 -16 L276 -207 L409 -207 L409 -14 C481 -7 622 26 622 174 C622 272 571 318 480 336 L480 338 C526 346 602 377 602 479 C602 614 475 659 331 659 C167 659 60 607 50 433 L198 433 C202 533 282 534 315 534 C336 534 439 535 439 457 C439 393 377 386 334 386 L259 386 L259 268 L350 268 C386 268 459 264 459 190 C459 155 436 106 329 106 C221 106 181 155 178 221 L32 221 Z " />
<glyph glyph-name="uni0499" unicode="&#x499;" horiz-adv-x="521" d="M20 156 C23 91 56 -8 198 -17 L198 -169 L318 -169 L318 -17 C414 -16 488 46 488 129 C488 182 465 229 389 243 L389 246 C448 262 479 293 479 348 C479 474 333 482 257 482 C178 482 33 468 35 316 L163 316 C165 382 222 389 246 389 C291 389 336 376 336 332 C336 296 304 283 265 283 L208 283 L208 196 L262 196 C332 196 345 164 345 135 C345 121 339 76 253 76 C168 76 154 127 152 156 L20 156 Z " />
<glyph glyph-name="uni049A" unicode="&#x49a;" horiz-adv-x="630" d="M191 0 L191 216 L254 279 L465 0 L502 0 L502 -145 L635 -145 L641 124 L541 124 L355 375 L618 640 L451 640 L191 365 L191 640 L60 640 L60 0 L191 0 Z " />
<glyph glyph-name="uni049B" unicode="&#x49b;" horiz-adv-x="516" d="M198 278 L195 278 L195 465 L56 465 L56 0 L195 0 L195 203 L198 203 L348 0 L379 0 L379 -121 L497 -121 L505 93 L435 93 L310 247 L501 465 L347 465 L198 278 Z " />
<glyph glyph-name="uni049C" unicode="&#x49c;" horiz-adv-x="744" d="M220 640 L69 640 L69 0 L220 0 L220 280 L293 280 L293 130 L384 130 L384 280 L568 0 L753 0 L505 348 L738 640 L561 640 L384 404 L384 527 L293 527 L293 404 L220 404 L220 640 Z " />
<glyph glyph-name="uni049D" unicode="&#x49d;" horiz-adv-x="624" d="M195 282 L195 465 L56 465 L56 0 L195 0 L195 199 L259 199 L259 84 L341 84 L341 199 L473 0 L633 0 L462 247 L624 465 L478 465 L341 282 L341 388 L259 388 L259 282 L195 282 Z " />
<glyph glyph-name="uni04A0" unicode="&#x4a0;" horiz-adv-x="808" d="M404 371 L403 371 L403 640 L65 640 L65 523 L252 523 L252 0 L403 0 L403 313 L404 313 L631 0 L816 0 L544 348 L802 640 L624 640 L404 371 Z " />
<glyph glyph-name="uni04A1" unicode="&#x4a1;" horiz-adv-x="563" d="M259 278 L256 278 L256 465 L12 465 L12 377 L117 377 L117 0 L256 0 L256 203 L259 203 L409 0 L572 0 L371 247 L563 465 L408 465 L259 278 Z " />
<glyph glyph-name="uni04A2" unicode="&#x4a2;" horiz-adv-x="705" d="M220 275 L452 275 L452 0 L554 0 L554 -145 L687 -145 L694 124 L603 124 L603 640 L452 640 L452 400 L220 400 L220 640 L69 640 L69 0 L220 0 L220 275 Z " />
<glyph glyph-name="uni04A3" unicode="&#x4a3;" horiz-adv-x="587" d="M195 197 L362 197 L362 0 L451 0 L451 -121 L569 -121 L577 93 L501 93 L501 465 L362 465 L362 290 L195 290 L195 465 L56 465 L56 0 L195 0 L195 197 Z " />
<glyph glyph-name="uni04AA" unicode="&#x4aa;" horiz-adv-x="669" d="M493 226 C487 178 457 106 359 106 C256 106 201 193 201 314 C201 528 320 534 354 534 C389 534 474 530 488 423 L636 423 C631 517 574 659 347 659 C49 659 38 386 38 308 C38 16 251 -9 289 -12 L289 -207 L422 -207 L422 -15 C525 -5 625 66 643 226 L493 226 Z " />
<glyph glyph-name="uni04AB" unicode="&#x4ab;" horiz-adv-x="544" d="M374 176 C373 144 357 76 283 76 C254 76 178 87 178 242 C178 381 254 389 285 389 C326 389 363 374 373 299 L507 299 C499 384 449 482 290 482 C83 482 34 342 34 231 C34 95 113 0 216 -11 L216 -169 L337 -169 L337 -15 C450 -1 504 90 511 176 L374 176 Z " />
<glyph glyph-name="uni04AE" unicode="&#x4ae;" horiz-adv-x="590" d="M299 363 L164 640 L-8 640 L223 242 L223 0 L375 0 L375 242 L599 640 L435 640 L299 363 Z " />
<glyph glyph-name="uni04AF" unicode="&#x4af;" horiz-adv-x="477" d="M239 140 L143 465 L-8 465 L169 9 L169 -169 L308 -169 L308 9 L486 465 L335 465 L239 140 Z " />
<glyph glyph-name="uni04B0" unicode="&#x4b0;" horiz-adv-x="590" d="M299 363 L164 640 L-8 640 L223 242 L223 201 L95 201 L95 110 L223 110 L223 0 L375 0 L375 110 L503 110 L503 201 L375 201 L375 242 L599 640 L435 640 L299 363 Z " />
<glyph glyph-name="uni04B1" unicode="&#x4b1;" horiz-adv-x="477" d="M239 140 L143 465 L-8 465 L169 9 L169 0 L59 0 L59 -82 L169 -82 L169 -169 L308 -169 L308 -82 L418 -82 L418 0 L308 0 L308 9 L486 465 L335 465 L239 140 Z " />
<glyph glyph-name="uni04B2" unicode="&#x4b2;" horiz-adv-x="650" d="M322 221 L455 0 L511 0 L511 -145 L643 -145 L650 124 L561 124 L419 333 L625 640 L446 640 L322 430 L199 640 L20 640 L225 333 L0 0 L190 0 L322 221 Z " />
<glyph glyph-name="uni04B3" unicode="&#x4b3;" horiz-adv-x="512" d="M254 320 L169 465 L8 465 L174 241 L0 0 L160 0 L254 152 L349 0 L386 0 L386 -121 L504 -121 L512 93 L442 93 L336 241 L501 465 L340 465 L254 320 Z " />
<glyph glyph-name="uni04B8" unicode="&#x4b8;" horiz-adv-x="673" d="M44 640 L44 445 C44 314 94 252 278 253 L278 130 L370 130 L370 256 C395 256 422 259 449 263 L449 0 L600 0 L600 640 L449 640 L449 385 C421 382 394 380 370 379 L370 527 L278 527 L278 379 C207 378 195 431 195 486 L195 640 L44 640 Z " />
<glyph glyph-name="uni04B9" unicode="&#x4b9;" horiz-adv-x="594" d="M37 465 L37 323 C37 228 62 168 245 172 L245 71 L328 71 L328 172 C349 172 371 173 395 176 L395 0 L534 0 L534 465 L395 465 L395 267 C372 265 350 264 328 264 L328 382 L245 382 L245 264 C173 257 176 311 176 329 L176 465 L37 465 Z " />
<glyph glyph-name="uni04BA" unicode="&#x4ba;" horiz-adv-x="617" d="M578 0 L578 214 C578 332 553 405 368 405 C326 405 264 402 223 398 L223 640 L72 640 L72 0 L223 0 L223 274 C257 278 301 281 328 281 C425 281 427 236 427 173 L427 0 L578 0 Z " />
<glyph glyph-name="uni04BB" unicode="&#x4bb;" horiz-adv-x="563" d="M195 640 L56 640 L56 0 L195 0 L195 262 C195 279 197 389 288 389 C362 389 367 312 367 269 L367 0 L506 0 L506 292 C506 449 427 482 352 482 C332 482 253 482 195 414 L195 640 Z " />
<glyph glyph-name="afii10846" unicode="&#x4d9;" horiz-adv-x="566" d="M184 329 C188 354 209 394 278 394 C352 394 393 330 389 261 L34 261 L34 240 C34 -8 232 -16 274 -16 C424 -16 533 70 533 231 C533 385 449 482 284 482 C198 482 80 462 43 329 L184 329 Z M389 183 C385 145 364 72 277 72 C199 72 178 129 177 183 L389 183 Z " />
<glyph glyph-name="Wgrave" unicode="&#x1e80;" horiz-adv-x="913" d="M318 0 L392 365 C398 396 403 436 411 487 C420 433 425 393 431 365 L505 0 L635 0 L818 640 L686 640 L599 279 C586 225 579 185 573 158 C566 217 560 257 556 279 L489 640 L338 640 L272 284 C262 231 257 191 252 164 C243 218 236 257 232 284 L149 640 L13 640 L191 0 L318 0 Z M401 709 L487 709 L428 838 L298 838 L401 709 Z " />
<glyph glyph-name="wgrave" unicode="&#x1e81;" horiz-adv-x="698" d="M270 0 L308 170 C325 245 335 302 340 338 C351 282 360 226 372 170 L409 0 L539 0 L672 468 L545 468 L507 295 C500 262 493 233 489 209 L474 121 L460 209 C454 247 448 276 444 295 L411 468 L274 468 L241 295 C236 269 230 241 226 209 L214 121 L198 209 C194 233 188 262 181 295 L142 468 L13 468 L142 0 L270 0 Z M315 539 L401 539 L342 668 L212 668 L315 539 Z " />
<glyph glyph-name="Wacute" unicode="&#x1e82;" horiz-adv-x="913" d="M318 0 L392 365 C398 396 403 436 411 487 C420 433 425 393 431 365 L505 0 L635 0 L818 640 L686 640 L599 279 C586 225 579 185 573 158 C566 217 560 257 556 279 L489 640 L338 640 L272 284 C262 231 257 191 252 164 C243 218 236 257 232 284 L149 640 L13 640 L191 0 L318 0 Z M355 710 L442 710 L544 839 L413 839 L355 710 Z " />
<glyph glyph-name="wacute" unicode="&#x1e83;" horiz-adv-x="698" d="M270 0 L308 170 C325 245 335 302 340 338 C351 282 360 226 372 170 L409 0 L539 0 L672 468 L545 468 L507 295 C500 262 493 233 489 209 L474 121 L460 209 C454 247 448 276 444 295 L411 468 L274 468 L241 295 C236 269 230 241 226 209 L214 121 L198 209 C194 233 188 262 181 295 L142 468 L13 468 L142 0 L270 0 Z M287 539 L374 539 L476 668 L345 668 L287 539 Z " />
<glyph glyph-name="Wdieresis" unicode="&#x1e84;" horiz-adv-x="913" d="M318 0 L392 365 C398 396 403 436 411 487 C420 433 425 393 431 365 L505 0 L635 0 L818 640 L686 640 L599 279 C586 225 579 185 573 158 C566 217 560 257 556 279 L489 640 L338 640 L272 284 C262 231 257 191 252 164 C243 218 236 257 232 284 L149 640 L13 640 L191 0 L318 0 Z M445 710 L544 710 L544 825 L445 825 L445 710 Z M281 710 L379 710 L379 825 L281 825 L281 710 Z " />
<glyph glyph-name="wdieresis" unicode="&#x1e85;" horiz-adv-x="698" d="M270 0 L308 170 C325 245 335 302 340 338 C351 282 360 226 372 170 L409 0 L539 0 L672 468 L545 468 L507 295 C500 262 493 233 489 209 L474 121 L460 209 C454 247 448 276 444 295 L411 468 L274 468 L241 295 C236 269 230 241 226 209 L214 121 L198 209 C194 233 188 262 181 295 L142 468 L13 468 L142 0 L270 0 Z M379 536 L478 536 L478 651 L379 651 L379 536 Z M215 536 L313 536 L313 651 L215 651 L215 536 Z " />
<glyph glyph-name="Ygrave" unicode="&#x1ef2;" horiz-adv-x="698" d="M230 0 L362 0 L362 241 L573 640 L431 640 L299 365 L160 640 L13 640 L230 241 L230 0 Z M286 711 L372 711 L313 840 L183 840 L286 711 Z " />
<glyph glyph-name="ygrave" unicode="&#x1ef3;" horiz-adv-x="483" d="M182 -20 C176 -48 169 -67 161 -77 C151 -87 138 -93 120 -93 C111 -92 85 -91 77 -91 L77 -189 C120 -191 140 -192 139 -192 C184 -192 216 -183 235 -164 C256 -144 285 -79 324 32 L478 468 L345 468 L269 203 C260 173 252 143 248 114 C239 153 231 183 224 203 L147 468 L13 468 L182 -20 Z M229 537 L315 537 L256 666 L126 666 L229 537 Z " />
<glyph glyph-name="endash" unicode="&#x2013;" horiz-adv-x="618" d="M48 284 L48 206 L566 206 L566 284 L48 284 Z " />
<glyph glyph-name="emdash" unicode="&#x2014;" horiz-adv-x="824" d="M48 206 L773 206 L773 284 L48 284 L48 206 Z " />
<glyph glyph-name="afii00208" unicode="&#x2015;" horiz-adv-x="967" d="M937 217 L937 284 L31 284 L31 217 L937 217 Z " />
<glyph glyph-name="underscoredbl" unicode="&#x2017;" horiz-adv-x="483" d="M492 -168 L-8 -168 L-8 -208 L492 -208 L492 -168 Z M492 -94 L-8 -94 L-8 -133 L492 -133 L492 -94 Z " />
<glyph glyph-name="quoteleft" unicode="&#x2018;" horiz-adv-x="350" d="M248 496 L169 496 L169 501 C169 559 209 585 248 586 L248 658 C109 651 97 549 97 496 L97 351 L248 351 L248 496 Z " />
<glyph glyph-name="quoteright" unicode="&#x2019;" horiz-adv-x="350" d="M97 496 L176 496 L176 490 C176 433 136 407 97 406 L97 334 C252 344 248 462 248 496 L248 640 L97 640 L97 496 Z " />
<glyph glyph-name="quotesinglbase" unicode="&#x201a;" horiz-adv-x="350" d="M97 0 L176 0 L176 -5 C176 -74 125 -89 97 -90 L97 -162 C242 -159 248 -41 248 0 L248 145 L97 145 L97 0 Z " />
<glyph glyph-name="quotereversed" unicode="&#x201b;" horiz-adv-x="244" d="M186 524 L121 524 C121 476 142 449 186 442 L186 395 C104 404 65 456 65 550 L65 639 L186 639 L186 524 Z " />
<glyph glyph-name="quotedblleft" unicode="&#x201c;" horiz-adv-x="511" d="M435 496 L357 496 L357 501 C357 569 404 585 435 586 L435 658 C298 650 284 550 284 496 L284 351 L435 351 L435 496 Z M223 496 L145 496 L145 501 C145 560 184 585 223 586 L223 658 C81 649 72 542 72 496 L72 351 L223 351 L223 496 Z " />
<glyph glyph-name="quotedblright" unicode="&#x201d;" horiz-adv-x="511" d="M72 496 L151 496 L151 490 C151 433 112 407 72 406 L72 334 C213 342 223 438 223 496 L223 640 L72 640 L72 496 Z M284 496 L362 496 L362 490 C362 433 323 407 284 406 L284 334 C440 343 435 464 435 496 L435 640 L284 640 L284 496 Z " />
<glyph glyph-name="quotedblbase" unicode="&#x201e;" horiz-adv-x="511" d="M72 0 L151 0 L151 -5 C151 -65 112 -89 72 -90 L72 -162 C213 -160 223 -49 223 0 L223 145 L72 145 L72 0 Z M284 0 L362 0 L362 -5 C362 -65 323 -89 284 -90 L284 -162 C440 -160 435 -20 435 0 L435 145 L284 145 L284 0 Z " />
<glyph glyph-name="dagger" unicode="&#x2020;" horiz-adv-x="520" d="M187 640 L187 465 L23 465 L23 344 L187 344 L187 -169 L331 -169 L331 344 L495 344 L495 465 L331 465 L331 640 L187 640 Z " />
<glyph glyph-name="daggerdbl" unicode="&#x2021;" horiz-adv-x="487" d="M34 360 L185 360 L185 165 L34 165 L34 58 L185 58 L185 -121 L301 -121 L301 58 L454 58 L454 165 L301 165 L301 360 L454 360 L454 467 L301 467 L301 639 L185 639 L185 467 L34 467 L34 360 Z " />
<glyph glyph-name="bullet" unicode="&#x2022;" horiz-adv-x="618" d="M142 320 C142 229 215 156 307 156 C398 156 471 229 471 320 C471 412 398 485 307 485 C215 485 142 412 142 320 L142 320 Z " />
<glyph glyph-name="ellipsis" unicode="&#x2026;" horiz-adv-x="1039" d="M97 0 L248 0 L248 145 L97 145 L97 0 Z M441 0 L592 0 L592 145 L441 145 L441 0 Z M785 0 L936 0 L936 145 L785 145 L785 0 Z " />
<glyph glyph-name="perthousand" unicode="&#x2030;" horiz-adv-x="877" d="M701 149 C701 202 702 261 746 261 C787 261 788 208 788 153 C788 106 788 43 747 43 C703 43 701 96 701 149 L701 149 Z M630 149 C630 42 668 -12 745 -12 C821 -12 859 45 859 161 C859 264 822 316 747 316 C669 316 630 260 630 149 L630 149 Z M425 149 C425 199 425 261 469 261 C510 261 513 210 513 153 C513 105 513 43 470 43 C425 43 425 97 425 149 L425 149 Z M355 149 C355 42 393 -12 467 -12 C544 -12 583 45 583 161 C583 264 545 316 470 316 C394 316 355 260 355 149 L355 149 Z M105 0 L166 0 L495 627 L433 627 L105 0 Z M89 472 C89 521 89 584 133 584 C173 584 176 533 176 477 C176 397 163 366 133 366 C90 366 89 419 89 472 L89 472 Z M18 473 C18 366 56 311 131 311 C207 311 246 369 246 484 C246 588 208 639 133 639 C57 639 18 584 18 473 L18 473 Z " />
<glyph glyph-name="minute" unicode="&#x2032;" horiz-adv-x="212" d="M85 379 L151 518 C170 560 181 586 186 598 C189 606 190 615 190 622 C190 644 178 655 154 655 C123 655 103 636 92 600 C88 587 83 560 79 519 L65 379 L85 379 Z " />
<glyph glyph-name="second" unicode="&#x2033;" horiz-adv-x="403" d="M97 379 L163 518 C182 560 193 586 198 598 C201 606 202 615 202 622 C202 644 190 655 166 655 C135 655 115 636 104 600 C100 587 95 560 91 519 L77 379 L97 379 Z M258 379 L324 518 C343 560 354 586 359 598 C362 606 363 615 363 622 C363 644 351 655 327 655 C296 655 276 636 265 600 C261 587 256 560 252 519 L238 379 L258 379 Z " />
<glyph glyph-name="guilsinglleft" unicode="&#x2039;" horiz-adv-x="257" d="M114 244 L189 308 L189 435 L52 309 L52 179 L189 54 L189 180 L114 244 Z " />
<glyph glyph-name="guilsinglright" unicode="&#x203a;" horiz-adv-x="257" d="M143 244 L68 180 L68 54 L205 179 L205 309 L68 435 L68 308 L143 244 Z " />
<glyph glyph-name="exclamdbl" unicode="&#x203c;" horiz-adv-x="554" d="M214 0 L214 130 L79 130 L79 0 L214 0 Z M189 181 L212 640 L80 640 L104 181 L189 181 Z M446 0 L446 130 L311 130 L311 0 L446 0 Z M421 181 L444 640 L312 640 L336 181 L421 181 Z " />
<glyph glyph-name="&amp;#x2044;" unicode="&#x2044;" horiz-adv-x="146" d="M-126 0 L-55 0 L273 627 L201 627 L-126 0 Z " />
<glyph glyph-name="&amp;#x2215;" unicode="&#x2215;" horiz-adv-x="146" d="M-126 0 L-55 0 L273 627 L201 627 L-126 0 Z " />
<glyph glyph-name="uni207F" unicode="&#x207f;" horiz-adv-x="305" d="M100 539 L85 539 L1 506 L8 490 C15 493 21 494 27 494 C34 494 38 493 41 491 C45 487 48 465 48 425 L48 330 C48 315 46 305 44 299 C41 290 28 285 7 285 L7 269 L143 269 L143 285 C121 285 106 290 102 300 C101 304 100 313 100 330 L100 462 C121 485 144 497 168 497 C196 497 210 477 210 434 L210 330 C210 313 209 304 207 300 C202 290 189 285 165 285 L165 269 L302 269 L302 285 C288 285 279 286 275 289 C266 293 261 307 261 330 L261 439 C261 505 237 539 190 539 C160 539 130 520 100 484 L100 539 Z " />
<glyph glyph-name="franc" unicode="&#x20a3;" horiz-adv-x="483" d="M198 314 L281 314 C342 314 365 289 365 224 L382 224 L382 442 L365 442 C361 410 354 388 343 376 C332 362 310 354 281 354 L198 354 L198 605 L289 605 C322 605 346 602 363 596 C394 583 417 551 431 500 L448 500 L442 640 L15 640 L15 623 L39 623 C61 623 80 616 93 603 C103 595 107 569 107 527 L107 185 L15 185 L15 150 L107 150 L107 113 C107 74 103 50 96 41 C84 25 65 17 39 17 L15 17 L15 0 L290 0 L290 17 L267 17 C251 17 238 21 223 29 C214 35 207 41 204 49 C200 60 198 80 198 113 L198 150 L327 150 L327 185 L198 185 L198 314 Z " />
<glyph glyph-name="peseta" unicode="&#x20a7;" horiz-adv-x="937" d="M205 595 C223 601 240 603 253 603 C295 603 327 590 351 562 C373 536 385 502 385 460 C385 423 375 392 356 365 C334 335 305 320 270 320 C251 320 230 325 205 337 L205 595 Z M20 624 C77 623 105 598 105 547 L105 104 C105 79 103 62 98 51 C85 28 60 16 20 16 L20 0 L290 0 L290 16 C234 15 205 42 205 98 L205 307 C249 293 283 286 308 286 C353 286 394 299 428 322 C453 339 474 366 491 404 L501 404 L501 113 L500 90 C499 20 530 -13 570 -13 C595 -13 624 5 655 41 L655 0 L675 0 C681 4 686 6 691 6 C697 6 709 4 725 -1 C750 -9 771 -13 786 -13 C825 -13 858 0 884 23 C911 47 924 79 924 117 C924 142 917 165 901 186 C886 206 858 227 816 249 C772 275 743 294 728 308 C714 322 706 338 706 355 C706 372 713 386 725 398 C739 410 754 416 772 416 C830 416 865 378 877 301 L894 301 L894 430 L874 430 C866 427 862 425 858 425 C855 425 848 427 838 430 C811 438 789 442 774 442 C740 442 711 430 688 406 C664 383 654 353 654 319 C654 289 664 263 686 242 C700 227 723 211 758 191 C788 174 810 160 823 149 C847 128 859 106 859 83 C859 64 852 47 837 35 C824 22 806 15 787 15 C772 15 754 20 737 31 C703 50 682 88 672 144 L655 144 L655 78 C633 58 618 47 607 47 C601 47 597 49 591 53 C581 60 576 80 576 114 L576 404 L657 404 L657 431 L576 431 L576 569 L560 569 C545 527 525 492 500 465 C497 499 488 526 475 546 C433 609 363 640 263 640 L20 640 L20 624 Z " />
<glyph glyph-name="Euro" unicode="&#x20ac;" horiz-adv-x="523" d="M500 560 C477 594 410 639 321 639 C190 639 108 559 86 418 L42 418 L7 332 L78 332 L78 314 C78 306 79 298 79 290 L42 290 L7 204 L87 204 C114 55 201 -13 321 -13 C369 -13 417 -7 459 20 L459 134 C427 107 377 87 321 87 C249 87 224 153 217 204 L352 204 L388 290 L208 290 L208 332 L405 332 L441 418 L215 418 C228 498 264 539 321 539 C419 539 458 461 459 459 L500 560 Z " />
<glyph glyph-name="afii61248" unicode="&#x2105;" horiz-adv-x="806" d="M613 311 C639 311 660 300 678 278 C703 244 715 198 715 141 C715 57 689 15 636 15 C610 15 589 27 571 50 C546 85 534 132 534 189 C534 271 560 311 613 311 L613 311 Z M625 335 C579 335 541 317 511 280 C482 247 467 206 467 160 C467 113 482 73 509 42 C538 8 575 -10 621 -10 C681 -10 731 20 760 80 C774 109 781 138 781 168 C781 215 766 253 737 286 C708 319 670 335 625 335 L625 335 Z M593 655 L127 -26 L168 -26 L635 655 L593 655 Z M288 449 C276 421 263 400 250 390 C232 374 211 366 188 366 C161 366 137 377 119 399 C95 428 82 466 82 513 C82 551 92 582 111 604 C126 623 144 631 167 631 C198 631 215 617 217 587 C220 561 232 546 256 546 C278 546 289 557 289 577 C289 601 277 620 250 635 C228 648 204 655 180 655 C133 655 96 637 66 602 C39 570 24 530 24 483 C24 438 36 399 59 366 C84 329 119 310 161 310 C198 310 228 324 253 352 C276 376 291 406 299 444 L288 449 Z " />
<glyph glyph-name="afii61289" unicode="&#x2113;" horiz-adv-x="463" d="M211 501 C211 586 233 629 276 629 C297 629 313 620 325 602 C335 586 340 568 340 545 C340 490 297 416 211 321 L211 501 Z M59 139 L137 217 L137 170 C137 123 141 90 149 71 C170 15 211 -13 271 -13 C304 -13 333 -2 357 19 C387 46 409 86 422 136 L405 136 C378 55 340 15 291 15 C238 15 211 56 211 140 L211 295 C258 347 291 388 310 418 C347 472 366 521 366 563 C366 620 329 655 273 655 C225 655 190 634 166 594 C147 561 137 519 137 468 L137 242 L47 151 L59 139 Z " />
<glyph glyph-name="afii61352" unicode="&#x2116;" horiz-adv-x="1063" d="M695 0 L1017 0 L1017 109 L695 109 L695 0 Z M221 401 L475 0 L628 0 L628 640 L477 640 L477 240 L475 240 L221 640 L69 640 L69 0 L220 0 L220 401 L221 401 Z M688 342 C688 273 721 159 856 159 C992 159 1025 273 1025 342 C1025 408 993 525 856 525 C721 525 688 410 688 342 L688 342 Z M797 342 C797 435 846 440 856 440 C876 440 916 424 916 342 C916 298 901 243 856 243 C808 243 797 304 797 342 L797 342 Z " />
<glyph glyph-name="trademark" unicode="&#x2122;" horiz-adv-x="861" d="M118 565 L118 320 L221 320 L221 565 L320 565 L320 640 L18 640 L18 565 L118 565 Z M566 320 L634 320 L708 538 L715 538 L708 496 L708 320 L810 320 L810 640 L672 640 L607 445 L603 411 L597 411 L593 445 L529 640 L391 640 L391 320 L493 320 L493 496 L486 538 L493 538 L566 320 Z " />
<glyph glyph-name="estimated" unicode="&#x212e;" horiz-adv-x="580" d="M152 285 L152 425 C190 463 236 483 291 483 C345 483 393 464 433 425 L433 285 L152 285 Z M542 250 C539 330 516 393 475 441 C429 492 369 517 292 517 C217 517 156 491 109 440 C65 391 43 327 43 250 C43 174 65 111 109 61 C156 10 217 -15 292 -15 C342 -15 384 -4 420 18 C450 38 482 70 513 114 L479 134 C434 57 372 18 292 18 C239 18 191 38 152 75 L152 250 L542 250 Z " />
<glyph glyph-name="onethird" unicode="&#x2153;" horiz-adv-x="780" d="M175 0 L247 0 L575 627 L503 627 L175 0 Z M36 509 L124 509 L124 259 L206 259 L206 627 L143 627 C137 602 127 585 114 577 C100 569 74 565 36 564 L36 509 Z M484 115 C485 93 486 78 489 68 C506 17 547 -11 611 -11 C688 -11 738 37 738 111 C738 149 721 177 686 197 C714 216 727 242 727 272 C727 342 676 376 611 376 C531 376 492 327 490 253 L557 253 C562 289 569 313 608 313 C637 313 655 295 655 268 C655 249 650 236 638 228 C627 220 608 216 581 216 L581 162 C613 161 634 157 645 149 C657 142 662 127 662 108 C662 76 643 52 611 52 C576 52 560 70 555 115 L484 115 Z " />
<glyph glyph-name="twothirds" unicode="&#x2154;" horiz-adv-x="780" d="M194 0 L266 0 L594 627 L522 627 L194 0 Z M484 115 C485 93 486 78 489 68 C506 17 547 -11 611 -11 C688 -11 738 37 738 111 C738 149 721 177 686 197 C714 216 727 242 727 272 C727 342 676 376 611 376 C531 376 492 327 490 253 L557 253 C562 289 569 313 608 313 C637 313 655 295 655 268 C655 249 650 236 638 228 C627 220 608 216 581 216 L581 162 C613 161 634 157 645 149 C657 142 662 127 662 108 C662 76 643 52 611 52 C576 52 560 70 555 115 L484 115 Z M282 323 L125 323 C137 339 158 359 189 380 C221 404 242 422 253 435 C274 460 283 485 283 516 C283 593 231 636 160 636 C76 636 38 584 38 500 L108 500 C110 552 125 574 161 574 C192 574 207 555 207 519 C207 493 193 466 162 440 L79 370 C48 337 33 301 33 259 L282 259 L282 323 Z " />
<glyph glyph-name="oneeighth" unicode="&#x215b;" horiz-adv-x="780" d="M181 0 L253 0 L581 627 L509 627 L181 0 Z M51 509 L139 509 L139 259 L221 259 L221 627 L158 627 C152 602 142 585 129 577 C115 569 89 565 51 564 L51 509 Z M623 317 C651 317 669 299 669 269 C669 241 651 223 623 223 C596 223 576 242 576 270 C576 297 596 317 623 317 L623 317 Z M622 162 C656 162 677 139 677 104 C677 72 654 48 622 48 C589 48 569 71 569 106 C569 140 589 162 622 162 L622 162 Z M490 103 C490 25 547 -17 621 -17 C697 -17 754 29 754 105 C754 149 733 180 693 198 C726 214 743 240 743 276 C743 343 692 382 623 382 C553 382 501 342 501 272 C501 234 518 211 551 198 C510 178 490 146 490 103 L490 103 Z " />
<glyph glyph-name="threeeighths" unicode="&#x215c;" horiz-adv-x="780" d="M181 0 L253 0 L581 627 L509 627 L181 0 Z M623 317 C651 317 669 299 669 269 C669 241 651 223 623 223 C596 223 576 242 576 270 C576 297 596 317 623 317 L623 317 Z M622 162 C656 162 677 139 677 104 C677 72 654 48 622 48 C589 48 569 71 569 106 C569 140 589 162 622 162 L622 162 Z M490 103 C490 25 547 -17 621 -17 C697 -17 754 29 754 105 C754 149 733 180 693 198 C726 214 743 240 743 276 C743 343 692 382 623 382 C553 382 501 342 501 272 C501 234 518 211 551 198 C510 178 490 146 490 103 L490 103 Z M63 377 C64 356 65 340 68 330 C85 280 126 252 189 252 C266 252 316 300 316 373 C316 411 299 439 264 459 C292 478 305 503 305 534 C305 603 254 637 189 637 C110 637 71 588 69 515 L136 515 C140 550 148 574 187 574 C215 574 234 557 234 529 C234 511 228 498 216 490 C206 482 187 478 159 477 L159 424 C191 423 212 419 224 411 C235 404 241 389 241 370 C241 339 221 315 189 315 C154 315 138 333 134 377 L63 377 Z " />
<glyph glyph-name="fiveeighths" unicode="&#x215d;" horiz-adv-x="780" d="M181 0 L253 0 L581 627 L509 627 L181 0 Z M623 317 C651 317 669 299 669 269 C669 241 651 223 623 223 C596 223 576 242 576 270 C576 297 596 317 623 317 L623 317 Z M622 162 C656 162 677 139 677 104 C677 72 654 48 622 48 C589 48 569 71 569 106 C569 140 589 162 622 162 L622 162 Z M490 103 C490 25 547 -17 621 -17 C697 -17 754 29 754 105 C754 149 733 180 693 198 C726 214 743 240 743 276 C743 343 692 382 623 382 C553 382 501 342 501 272 C501 234 518 211 551 198 C510 178 490 146 490 103 L490 103 Z M28 356 C38 285 77 248 153 248 C236 248 285 306 285 385 C285 453 243 505 172 505 C147 505 124 497 104 483 L117 563 L270 563 L270 627 L66 627 L39 421 L104 418 C119 434 136 442 154 442 C191 442 209 420 209 375 C209 335 188 312 154 312 C126 312 108 328 100 360 L28 356 Z " />
<glyph glyph-name="seveneighths" unicode="&#x215e;" horiz-adv-x="780" d="M181 0 L253 0 L581 627 L509 627 L181 0 Z M623 317 C651 317 669 299 669 269 C669 241 651 223 623 223 C596 223 576 242 576 270 C576 297 596 317 623 317 L623 317 Z M622 162 C656 162 677 139 677 104 C677 72 654 48 622 48 C589 48 569 71 569 106 C569 140 589 162 622 162 L622 162 Z M490 103 C490 25 547 -17 621 -17 C697 -17 754 29 754 105 C754 149 733 180 693 198 C726 214 743 240 743 276 C743 343 692 382 623 382 C553 382 501 342 501 272 C501 234 518 211 551 198 C510 178 490 146 490 103 L490 103 Z M237 562 C183 494 146 428 126 365 C116 334 110 298 106 256 L181 256 C193 377 237 480 317 567 L317 627 L54 627 L54 562 L237 562 Z " />
<glyph glyph-name="partialdiff" unicode="&#x2202;" horiz-adv-x="433" d="M321 262 C304 126 272 43 212 15 C199 11 188 8 177 8 C164 8 152 12 139 20 C112 38 99 74 99 130 C99 184 113 231 142 271 C164 302 192 318 226 318 C249 319 270 312 287 299 C290 296 302 283 321 262 L321 262 Z M139 606 C153 611 167 614 184 614 C192 614 201 613 212 612 C236 610 257 601 278 581 C292 567 303 551 309 534 C330 486 339 441 337 395 C337 356 334 322 328 293 C300 315 279 330 267 336 C247 346 223 352 196 353 C149 354 107 334 72 290 C40 250 23 205 23 154 L23 137 C28 82 53 41 98 10 C125 -9 155 -18 189 -18 C217 -18 243 -11 269 3 C291 15 309 31 323 50 C334 64 346 85 360 115 C375 148 387 191 396 245 C402 284 405 318 405 344 C405 420 391 483 363 532 C327 595 278 634 216 649 C202 653 188 654 172 654 C133 654 96 645 57 629 L91 585 L139 606 Z " />
<glyph glyph-name="product" unicode="&#x220f;" horiz-adv-x="722" d="M620 552 C620 610 647 639 702 639 L702 659 L23 659 L23 639 C79 639 107 610 107 552 L107 3 C107 -26 100 -45 83 -56 C72 -64 51 -68 21 -68 L21 -88 L291 -88 L291 -68 C262 -68 242 -64 229 -56 C214 -45 206 -26 206 3 L206 610 L520 610 L520 3 C520 -25 513 -44 497 -56 C484 -64 464 -68 436 -68 L436 -88 L705 -88 L705 -68 C676 -68 655 -64 643 -56 C628 -45 620 -26 620 3 L620 552 Z " />
<glyph glyph-name="summation" unicode="&#x2211;" horiz-adv-x="626" d="M15 659 L318 262 L13 -87 C18 -87 27 -87 38 -86 C48 -85 57 -84 63 -84 L504 -84 C508 -84 530 -88 571 -95 C577 -52 583 -19 587 3 C590 20 598 54 609 102 L590 102 C573 62 559 36 544 23 C529 10 505 3 471 3 L145 3 L403 300 L163 614 L395 614 C445 614 479 604 497 585 C507 575 517 552 529 514 L546 514 L542 654 L106 654 C109 654 78 656 15 659 L15 659 Z " />
<glyph glyph-name="minus" unicode="&#x2212;" horiz-adv-x="545" d="M526 341 L17 341 L17 302 L526 302 L526 341 Z " />
<glyph glyph-name="radical" unicode="&#x221a;" horiz-adv-x="482" d="M107 407 L320 -33 L452 800 L422 805 L309 104 L137 458 L9 395 L22 366 L107 407 Z " />
<glyph glyph-name="infinity" unicode="&#x221e;" horiz-adv-x="689" d="M295 278 C273 212 253 170 239 153 C217 126 190 112 160 112 C126 112 99 128 78 158 C60 185 51 216 51 250 C51 287 61 317 81 341 C103 366 132 380 168 380 C222 380 265 346 295 278 L295 278 Z M354 220 C379 285 396 326 403 339 C427 386 462 409 504 409 C543 409 575 392 601 357 C625 325 637 289 637 249 C637 206 625 170 602 141 C577 110 543 95 501 95 C465 95 435 107 409 133 C391 151 372 180 354 220 L354 220 Z M308 315 C289 350 271 376 254 392 C231 413 203 423 170 423 C126 423 90 404 62 368 C38 335 25 296 25 249 C25 201 40 161 69 127 C100 93 139 75 187 75 C251 75 302 112 340 186 C370 133 395 101 412 85 C439 62 468 50 499 50 C547 50 588 73 620 115 C649 155 664 199 664 249 C664 304 648 350 615 387 C581 426 538 446 483 446 C437 446 400 434 373 412 C350 394 329 361 308 315 L308 315 Z " />
<glyph glyph-name="intersection" unicode="&#x2229;" horiz-adv-x="698" d="M142 267 C142 328 143 366 144 380 C146 425 154 463 164 490 C176 516 195 541 223 562 C260 590 302 603 347 603 C407 603 456 583 496 542 C526 509 544 462 550 400 C552 381 553 337 553 267 L553 0 L604 0 L604 264 C604 339 604 384 603 400 C597 477 573 536 533 576 C482 628 421 654 348 654 C274 654 212 628 162 575 C123 534 101 480 94 413 C92 394 91 343 91 264 L91 0 L142 0 L142 267 Z " />
<glyph glyph-name="integral" unicode="&#x222b;" horiz-adv-x="241" d="M166 428 C161 565 156 661 150 718 C151 730 157 737 166 737 C171 737 177 733 185 726 C192 719 201 716 210 716 C225 716 239 721 248 732 C252 739 255 746 255 754 C255 771 249 783 236 791 C223 800 210 804 195 804 C185 804 176 801 167 796 C149 784 136 765 128 739 C113 688 105 597 105 466 L105 340 C105 275 107 182 110 65 C112 1 104 -31 87 -31 C83 -31 80 -28 75 -24 C62 -10 50 -2 41 -2 C36 -2 31 -4 25 -7 C10 -15 2 -26 2 -41 C2 -45 3 -50 4 -55 C11 -72 20 -82 34 -89 C40 -92 46 -94 54 -94 C80 -94 99 -86 110 -72 C121 -59 130 -41 136 -18 C156 49 165 135 165 239 L166 428 Z " />
<glyph glyph-name="approxequal" unicode="&#x2248;" horiz-adv-x="482" d="M429 213 C419 196 403 184 385 176 C360 165 337 162 316 168 L183 205 C168 210 154 212 139 212 C89 212 47 189 13 142 L50 119 C65 136 73 146 76 149 C93 163 113 171 136 171 C148 171 161 169 175 164 L306 127 C316 124 327 123 339 123 C394 123 435 146 462 192 L429 213 Z M429 345 C419 329 403 317 385 308 C360 298 337 295 316 301 L183 337 C168 342 154 344 139 344 C89 344 47 321 13 275 L50 250 C65 269 73 279 76 281 C93 296 113 303 136 303 C148 303 161 302 175 298 L306 260 C316 257 327 255 339 255 C394 255 435 278 462 324 L429 345 Z " />
<glyph glyph-name="notequal" unicode="&#x2260;" horiz-adv-x="482" d="M273 337 L14 337 L14 289 L246 289 L178 167 L14 167 L14 120 L151 120 L86 3 L129 -21 L208 120 L474 120 L474 167 L234 167 L303 289 L474 289 L474 337 L329 337 L396 457 L353 482 L273 337 Z " />
<glyph glyph-name="equivalence" unicode="&#x2261;" horiz-adv-x="545" d="M18 147 L527 147 L527 186 L18 186 L18 147 Z M18 302 L527 302 L527 340 L18 340 L18 302 Z M18 455 L527 455 L527 494 L18 494 L18 455 Z " />
<glyph glyph-name="lessequal" unicode="&#x2264;" horiz-adv-x="482" d="M461 103 L461 158 L81 332 L461 506 L461 561 L25 359 L25 305 L461 103 Z M461 0 L461 48 L25 48 L25 0 L461 0 Z " />
<glyph glyph-name="greaterequal" unicode="&#x2265;" horiz-adv-x="482" d="M25 561 L25 506 L405 332 L25 158 L25 103 L461 305 L461 359 L25 561 Z M25 48 L25 0 L461 0 L461 48 L25 48 Z " />
<glyph glyph-name="revlogicalnot" unicode="&#x2310;" horiz-adv-x="545" d="M18 415 L18 222 L55 222 L55 376 L528 376 L528 415 L18 415 Z " />
<glyph glyph-name="H22073" unicode="&#x25a1;" horiz-adv-x="584" d="M479 410 L479 36 L104 36 L104 410 L479 410 Z M69 0 L514 0 L514 446 L69 446 L69 0 Z " />
<glyph glyph-name="H18543" unicode="&#x25aa;" horiz-adv-x="342" d="M62 428 L62 210 L280 210 L280 429 L62 428 Z " />
<glyph glyph-name="H18551" unicode="&#x25ab;" horiz-adv-x="342" d="M245 246 L98 246 L98 393 L245 394 L245 246 Z M62 428 L62 210 L280 210 L280 429 L62 428 Z " />
<glyph glyph-name="lozenge" unicode="&#x25ca;" horiz-adv-x="478" d="M403 335 L234 44 L73 335 L234 626 L403 335 Z M207 671 L22 335 L207 0 L259 0 L456 335 L259 671 L207 671 Z " />
<glyph glyph-name="H18533" unicode="&#x25cf;" horiz-adv-x="584" d="M292 481 C257 481 223 472 190 454 C158 436 132 411 112 378 C94 345 84 310 84 273 C84 215 104 165 144 125 C185 85 234 65 292 65 C350 65 399 85 440 125 C480 165 500 215 500 273 C500 308 490 343 472 377 C454 408 429 434 396 453 C364 471 329 481 292 481 L292 481 Z " />
<glyph glyph-name="openbullet" unicode="&#x25e6;" horiz-adv-x="342" d="M171 402 C194 402 214 395 230 378 C246 363 254 342 254 320 C254 297 246 278 230 261 C214 245 194 237 171 237 C148 237 129 245 113 261 C97 278 89 297 89 320 C89 342 97 363 113 378 C129 395 148 402 171 402 L171 402 Z M171 438 C138 438 110 426 87 403 C64 381 53 353 53 320 C53 286 64 259 87 236 C110 213 138 201 171 201 C204 201 232 213 255 236 C278 259 290 286 290 320 C290 353 278 381 255 403 C232 426 204 438 171 438 L171 438 Z " />
<glyph glyph-name="fi" unicode="&#xfb01;" horiz-adv-x="497" d="M79 379 L79 0 L203 0 L203 379 L281 379 L281 468 L203 468 L203 497 C203 536 228 541 260 541 L279 541 L279 640 C253 643 234 644 221 644 C161 644 123 629 103 600 C87 575 79 532 79 468 L13 468 L13 379 L79 379 Z M432 524 L432 640 L307 640 L307 524 L432 524 Z M432 0 L432 468 L307 468 L307 0 L432 0 Z " />
<glyph glyph-name="fl" unicode="&#xfb02;" horiz-adv-x="543" d="M79 379 L79 0 L203 0 L203 379 L281 379 L281 468 L203 468 L203 497 C203 536 228 541 260 541 L279 541 L279 640 C253 643 234 644 221 644 C161 644 123 629 103 600 C87 575 79 532 79 468 L13 468 L13 379 L79 379 Z M486 0 L486 640 L361 640 L361 0 L486 0 Z " />
</font>
</svg>
